G04 #@! TF.GenerationSoftware,KiCad,Pcbnew,(5.1.5)-3*
G04 #@! TF.CreationDate,2021-02-17T22:29:51-05:00*
G04 #@! TF.ProjectId,c128-sram256KB,63313238-2d73-4726-916d-3235364b422e,rev?*
G04 #@! TF.SameCoordinates,Original*
G04 #@! TF.FileFunction,Legend,Top*
G04 #@! TF.FilePolarity,Positive*
%FSLAX46Y46*%
G04 Gerber Fmt 4.6, Leading zero omitted, Abs format (unit mm)*
G04 Created by KiCad (PCBNEW (5.1.5)-3) date 2021-02-17 22:29:51*
%MOMM*%
%LPD*%
G04 APERTURE LIST*
%ADD10C,0.150000*%
%ADD11C,0.300000*%
%ADD12C,0.120000*%
G04 APERTURE END LIST*
D10*
X78176380Y-119721166D02*
X77700190Y-120054500D01*
X78176380Y-120292595D02*
X77176380Y-120292595D01*
X77176380Y-119911642D01*
X77224000Y-119816404D01*
X77271619Y-119768785D01*
X77366857Y-119721166D01*
X77509714Y-119721166D01*
X77604952Y-119768785D01*
X77652571Y-119816404D01*
X77700190Y-119911642D01*
X77700190Y-120292595D01*
X78128761Y-118911642D02*
X78176380Y-119006880D01*
X78176380Y-119197357D01*
X78128761Y-119292595D01*
X78033523Y-119340214D01*
X77652571Y-119340214D01*
X77557333Y-119292595D01*
X77509714Y-119197357D01*
X77509714Y-119006880D01*
X77557333Y-118911642D01*
X77652571Y-118864023D01*
X77747809Y-118864023D01*
X77843047Y-119340214D01*
X77509714Y-118530690D02*
X78176380Y-118292595D01*
X77509714Y-118054500D01*
X78081142Y-117673547D02*
X78128761Y-117625928D01*
X78176380Y-117673547D01*
X78128761Y-117721166D01*
X78081142Y-117673547D01*
X78176380Y-117673547D01*
X77890666Y-117244976D02*
X77890666Y-116768785D01*
X78176380Y-117340214D02*
X77176380Y-117006880D01*
X78176380Y-116673547D01*
D11*
X75686666Y-110251785D02*
X75620000Y-110347023D01*
X75420000Y-110442261D01*
X75286666Y-110442261D01*
X75086666Y-110347023D01*
X74953333Y-110156547D01*
X74886666Y-109966071D01*
X74820000Y-109585119D01*
X74820000Y-109299404D01*
X74886666Y-108918452D01*
X74953333Y-108727976D01*
X75086666Y-108537500D01*
X75286666Y-108442261D01*
X75420000Y-108442261D01*
X75620000Y-108537500D01*
X75686666Y-108632738D01*
X77020000Y-110442261D02*
X76220000Y-110442261D01*
X76620000Y-110442261D02*
X76620000Y-108442261D01*
X76486666Y-108727976D01*
X76353333Y-108918452D01*
X76220000Y-109013690D01*
X77553333Y-108632738D02*
X77620000Y-108537500D01*
X77753333Y-108442261D01*
X78086666Y-108442261D01*
X78220000Y-108537500D01*
X78286666Y-108632738D01*
X78353333Y-108823214D01*
X78353333Y-109013690D01*
X78286666Y-109299404D01*
X77486666Y-110442261D01*
X78353333Y-110442261D01*
X79153333Y-109299404D02*
X79020000Y-109204166D01*
X78953333Y-109108928D01*
X78886666Y-108918452D01*
X78886666Y-108823214D01*
X78953333Y-108632738D01*
X79020000Y-108537500D01*
X79153333Y-108442261D01*
X79420000Y-108442261D01*
X79553333Y-108537500D01*
X79620000Y-108632738D01*
X79686666Y-108823214D01*
X79686666Y-108918452D01*
X79620000Y-109108928D01*
X79553333Y-109204166D01*
X79420000Y-109299404D01*
X79153333Y-109299404D01*
X79020000Y-109394642D01*
X78953333Y-109489880D01*
X78886666Y-109680357D01*
X78886666Y-110061309D01*
X78953333Y-110251785D01*
X79020000Y-110347023D01*
X79153333Y-110442261D01*
X79420000Y-110442261D01*
X79553333Y-110347023D01*
X79620000Y-110251785D01*
X79686666Y-110061309D01*
X79686666Y-109680357D01*
X79620000Y-109489880D01*
X79553333Y-109394642D01*
X79420000Y-109299404D01*
X81286666Y-108632738D02*
X81353333Y-108537500D01*
X81486666Y-108442261D01*
X81820000Y-108442261D01*
X81953333Y-108537500D01*
X82020000Y-108632738D01*
X82086666Y-108823214D01*
X82086666Y-109013690D01*
X82020000Y-109299404D01*
X81220000Y-110442261D01*
X82086666Y-110442261D01*
X83353333Y-108442261D02*
X82686666Y-108442261D01*
X82620000Y-109394642D01*
X82686666Y-109299404D01*
X82820000Y-109204166D01*
X83153333Y-109204166D01*
X83286666Y-109299404D01*
X83353333Y-109394642D01*
X83420000Y-109585119D01*
X83420000Y-110061309D01*
X83353333Y-110251785D01*
X83286666Y-110347023D01*
X83153333Y-110442261D01*
X82820000Y-110442261D01*
X82686666Y-110347023D01*
X82620000Y-110251785D01*
X84620000Y-108442261D02*
X84353333Y-108442261D01*
X84220000Y-108537500D01*
X84153333Y-108632738D01*
X84020000Y-108918452D01*
X83953333Y-109299404D01*
X83953333Y-110061309D01*
X84020000Y-110251785D01*
X84086666Y-110347023D01*
X84220000Y-110442261D01*
X84486666Y-110442261D01*
X84620000Y-110347023D01*
X84686666Y-110251785D01*
X84753333Y-110061309D01*
X84753333Y-109585119D01*
X84686666Y-109394642D01*
X84620000Y-109299404D01*
X84486666Y-109204166D01*
X84220000Y-109204166D01*
X84086666Y-109299404D01*
X84020000Y-109394642D01*
X83953333Y-109585119D01*
X85353333Y-110442261D02*
X85353333Y-108442261D01*
X86153333Y-110442261D02*
X85553333Y-109299404D01*
X86153333Y-108442261D02*
X85353333Y-109585119D01*
X87220000Y-109394642D02*
X87420000Y-109489880D01*
X87486666Y-109585119D01*
X87553333Y-109775595D01*
X87553333Y-110061309D01*
X87486666Y-110251785D01*
X87420000Y-110347023D01*
X87286666Y-110442261D01*
X86753333Y-110442261D01*
X86753333Y-108442261D01*
X87220000Y-108442261D01*
X87353333Y-108537500D01*
X87420000Y-108632738D01*
X87486666Y-108823214D01*
X87486666Y-109013690D01*
X87420000Y-109204166D01*
X87353333Y-109299404D01*
X87220000Y-109394642D01*
X86753333Y-109394642D01*
X90020000Y-110442261D02*
X89553333Y-109489880D01*
X89220000Y-110442261D02*
X89220000Y-108442261D01*
X89753333Y-108442261D01*
X89886666Y-108537500D01*
X89953333Y-108632738D01*
X90020000Y-108823214D01*
X90020000Y-109108928D01*
X89953333Y-109299404D01*
X89886666Y-109394642D01*
X89753333Y-109489880D01*
X89220000Y-109489880D01*
X90553333Y-109870833D02*
X91220000Y-109870833D01*
X90420000Y-110442261D02*
X90886666Y-108442261D01*
X91353333Y-110442261D01*
X91820000Y-110442261D02*
X91820000Y-108442261D01*
X92286666Y-109870833D01*
X92753333Y-108442261D01*
X92753333Y-110442261D01*
D12*
X76469880Y-115631160D02*
G75*
G02X78469880Y-115631160I1000000J0D01*
G01*
X78469880Y-115631160D02*
X80119880Y-115631160D01*
X80119880Y-115631160D02*
X80119880Y-95191160D01*
X80119880Y-95191160D02*
X74819880Y-95191160D01*
X74819880Y-95191160D02*
X74819880Y-115631160D01*
X74819880Y-115631160D02*
X76469880Y-115631160D01*
X87519880Y-115631160D02*
X89169880Y-115631160D01*
X87519880Y-95191160D02*
X87519880Y-115631160D01*
X92819880Y-95191160D02*
X87519880Y-95191160D01*
X92819880Y-115631160D02*
X92819880Y-95191160D01*
X91169880Y-115631160D02*
X92819880Y-115631160D01*
X89169880Y-115631160D02*
G75*
G02X91169880Y-115631160I1000000J0D01*
G01*
X77518000Y-108003000D02*
X83518000Y-108003000D01*
X75518000Y-94943000D02*
X80518000Y-94943000D01*
X95310000Y-124520000D02*
X95310000Y-121860000D01*
X90170000Y-124520000D02*
X95310000Y-124520000D01*
X90170000Y-121860000D02*
X95310000Y-121860000D01*
X90170000Y-124520000D02*
X90170000Y-121860000D01*
X88900000Y-124520000D02*
X87570000Y-124520000D01*
X87570000Y-124520000D02*
X87570000Y-123190000D01*
X79950000Y-124520000D02*
X79950000Y-123190000D01*
X81280000Y-124520000D02*
X79950000Y-124520000D01*
X82550000Y-124520000D02*
X82550000Y-121860000D01*
X82550000Y-121860000D02*
X87690000Y-121860000D01*
X82550000Y-124520000D02*
X87690000Y-124520000D01*
X87690000Y-124520000D02*
X87690000Y-121860000D01*
X72330000Y-124520000D02*
X74990000Y-124520000D01*
X72330000Y-124460000D02*
X72330000Y-124520000D01*
X74990000Y-124460000D02*
X74990000Y-124520000D01*
X72330000Y-124460000D02*
X74990000Y-124460000D01*
X72330000Y-123190000D02*
X72330000Y-121860000D01*
X72330000Y-121860000D02*
X73660000Y-121860000D01*
X72160000Y-117645000D02*
X72460000Y-117345000D01*
X72160000Y-117045000D02*
X72160000Y-117645000D01*
X72460000Y-117345000D02*
X72160000Y-117045000D01*
X72710000Y-115995000D02*
X74660000Y-115995000D01*
X72710000Y-121495000D02*
X72710000Y-115995000D01*
X74660000Y-121495000D02*
X72710000Y-121495000D01*
X74660000Y-115995000D02*
X74660000Y-121495000D01*
X74870000Y-124520000D02*
X77530000Y-124520000D01*
X74870000Y-124460000D02*
X74870000Y-124520000D01*
X77530000Y-124460000D02*
X77530000Y-124520000D01*
X74870000Y-124460000D02*
X77530000Y-124460000D01*
X74870000Y-123190000D02*
X74870000Y-121860000D01*
X74870000Y-121860000D02*
X76200000Y-121860000D01*
X77410000Y-121860000D02*
X78740000Y-121860000D01*
X77410000Y-123190000D02*
X77410000Y-121860000D01*
X77410000Y-124460000D02*
X80070000Y-124460000D01*
X80070000Y-124460000D02*
X80070000Y-124520000D01*
X77410000Y-124460000D02*
X77410000Y-124520000D01*
X77410000Y-124520000D02*
X80070000Y-124520000D01*
X93023000Y-102187000D02*
X93023000Y-95252000D01*
X93023000Y-95252000D02*
X89603000Y-95252000D01*
X89603000Y-95252000D02*
X89603000Y-102187000D01*
X91523452Y-105716000D02*
X91000948Y-105716000D01*
X91523452Y-107136000D02*
X91000948Y-107136000D01*
X88721000Y-96766748D02*
X88721000Y-97289252D01*
X87301000Y-96766748D02*
X87301000Y-97289252D01*
X87376000Y-121254000D02*
X93276000Y-121254000D01*
X87376000Y-121254000D02*
X81476000Y-121254000D01*
X87376000Y-112934000D02*
X93276000Y-112934000D01*
X87376000Y-112934000D02*
X80176000Y-112934000D01*
D10*
X76231784Y-113307880D02*
X76231784Y-114117404D01*
X76279403Y-114212642D01*
X76327022Y-114260261D01*
X76422260Y-114307880D01*
X76612737Y-114307880D01*
X76707975Y-114260261D01*
X76755594Y-114212642D01*
X76803213Y-114117404D01*
X76803213Y-113307880D01*
X77707975Y-113641214D02*
X77707975Y-114307880D01*
X77469880Y-113260261D02*
X77231784Y-113974547D01*
X77850832Y-113974547D01*
X78279403Y-114307880D02*
X78469880Y-114307880D01*
X78565118Y-114260261D01*
X78612737Y-114212642D01*
X78707975Y-114069785D01*
X78755594Y-113879309D01*
X78755594Y-113498357D01*
X78707975Y-113403119D01*
X78660356Y-113355500D01*
X78565118Y-113307880D01*
X78374641Y-113307880D01*
X78279403Y-113355500D01*
X78231784Y-113403119D01*
X78184165Y-113498357D01*
X78184165Y-113736452D01*
X78231784Y-113831690D01*
X78279403Y-113879309D01*
X78374641Y-113926928D01*
X78565118Y-113926928D01*
X78660356Y-113879309D01*
X78707975Y-113831690D01*
X78755594Y-113736452D01*
X88931784Y-111656880D02*
X88931784Y-112466404D01*
X88979403Y-112561642D01*
X89027022Y-112609261D01*
X89122260Y-112656880D01*
X89312737Y-112656880D01*
X89407975Y-112609261D01*
X89455594Y-112561642D01*
X89503213Y-112466404D01*
X89503213Y-111656880D01*
X90455594Y-111656880D02*
X89979403Y-111656880D01*
X89931784Y-112133071D01*
X89979403Y-112085452D01*
X90074641Y-112037833D01*
X90312737Y-112037833D01*
X90407975Y-112085452D01*
X90455594Y-112133071D01*
X90503213Y-112228309D01*
X90503213Y-112466404D01*
X90455594Y-112561642D01*
X90407975Y-112609261D01*
X90312737Y-112656880D01*
X90074641Y-112656880D01*
X89979403Y-112609261D01*
X89931784Y-112561642D01*
X91122260Y-111656880D02*
X91217499Y-111656880D01*
X91312737Y-111704500D01*
X91360356Y-111752119D01*
X91407975Y-111847357D01*
X91455594Y-112037833D01*
X91455594Y-112275928D01*
X91407975Y-112466404D01*
X91360356Y-112561642D01*
X91312737Y-112609261D01*
X91217499Y-112656880D01*
X91122260Y-112656880D01*
X91027022Y-112609261D01*
X90979403Y-112561642D01*
X90931784Y-112466404D01*
X90884165Y-112275928D01*
X90884165Y-112037833D01*
X90931784Y-111847357D01*
X90979403Y-111752119D01*
X91027022Y-111704500D01*
X91122260Y-111656880D01*
X79756095Y-100798380D02*
X79756095Y-101607904D01*
X79803714Y-101703142D01*
X79851333Y-101750761D01*
X79946571Y-101798380D01*
X80137047Y-101798380D01*
X80232285Y-101750761D01*
X80279904Y-101703142D01*
X80327523Y-101607904D01*
X80327523Y-100798380D01*
X80756095Y-100893619D02*
X80803714Y-100846000D01*
X80898952Y-100798380D01*
X81137047Y-100798380D01*
X81232285Y-100846000D01*
X81279904Y-100893619D01*
X81327523Y-100988857D01*
X81327523Y-101084095D01*
X81279904Y-101226952D01*
X80708476Y-101798380D01*
X81327523Y-101798380D01*
X75887380Y-120411666D02*
X75887380Y-120983095D01*
X75887380Y-120697380D02*
X74887380Y-120697380D01*
X75030238Y-120792619D01*
X75125476Y-120887857D01*
X75173095Y-120983095D01*
X74982619Y-120030714D02*
X74935000Y-119983095D01*
X74887380Y-119887857D01*
X74887380Y-119649761D01*
X74935000Y-119554523D01*
X74982619Y-119506904D01*
X75077857Y-119459285D01*
X75173095Y-119459285D01*
X75315952Y-119506904D01*
X75887380Y-120078333D01*
X75887380Y-119459285D01*
X75315952Y-118887857D02*
X75268333Y-118983095D01*
X75220714Y-119030714D01*
X75125476Y-119078333D01*
X75077857Y-119078333D01*
X74982619Y-119030714D01*
X74935000Y-118983095D01*
X74887380Y-118887857D01*
X74887380Y-118697380D01*
X74935000Y-118602142D01*
X74982619Y-118554523D01*
X75077857Y-118506904D01*
X75125476Y-118506904D01*
X75220714Y-118554523D01*
X75268333Y-118602142D01*
X75315952Y-118697380D01*
X75315952Y-118887857D01*
X75363571Y-118983095D01*
X75411190Y-119030714D01*
X75506428Y-119078333D01*
X75696904Y-119078333D01*
X75792142Y-119030714D01*
X75839761Y-118983095D01*
X75887380Y-118887857D01*
X75887380Y-118697380D01*
X75839761Y-118602142D01*
X75792142Y-118554523D01*
X75696904Y-118506904D01*
X75506428Y-118506904D01*
X75411190Y-118554523D01*
X75363571Y-118602142D01*
X75315952Y-118697380D01*
X75887380Y-118078333D02*
X74887380Y-118078333D01*
X75887380Y-117506904D02*
X75315952Y-117935476D01*
X74887380Y-117506904D02*
X75458809Y-118078333D01*
X75363571Y-116745000D02*
X75411190Y-116602142D01*
X75458809Y-116554523D01*
X75554047Y-116506904D01*
X75696904Y-116506904D01*
X75792142Y-116554523D01*
X75839761Y-116602142D01*
X75887380Y-116697380D01*
X75887380Y-117078333D01*
X74887380Y-117078333D01*
X74887380Y-116745000D01*
X74935000Y-116649761D01*
X74982619Y-116602142D01*
X75077857Y-116554523D01*
X75173095Y-116554523D01*
X75268333Y-116602142D01*
X75315952Y-116649761D01*
X75363571Y-116745000D01*
X75363571Y-117078333D01*
X82720275Y-114077500D02*
X82720275Y-114887024D01*
X82767894Y-114982262D01*
X82815513Y-115029881D01*
X82910751Y-115077500D01*
X83101227Y-115077500D01*
X83196465Y-115029881D01*
X83244084Y-114982262D01*
X83291703Y-114887024D01*
X83291703Y-114077500D01*
X83672656Y-114077500D02*
X84291703Y-114077500D01*
X83958370Y-114458453D01*
X84101227Y-114458453D01*
X84196465Y-114506072D01*
X84244084Y-114553691D01*
X84291703Y-114648929D01*
X84291703Y-114887024D01*
X84244084Y-114982262D01*
X84196465Y-115029881D01*
X84101227Y-115077500D01*
X83815513Y-115077500D01*
X83720275Y-115029881D01*
X83672656Y-114982262D01*
M02*
