G04 #@! TF.GenerationSoftware,KiCad,Pcbnew,(5.1.5)-3*
G04 #@! TF.CreationDate,2021-02-17T22:29:51-05:00*
G04 #@! TF.ProjectId,c128-sram256KB,63313238-2d73-4726-916d-3235364b422e,rev?*
G04 #@! TF.SameCoordinates,Original*
G04 #@! TF.FileFunction,Soldermask,Bot*
G04 #@! TF.FilePolarity,Negative*
%FSLAX46Y46*%
G04 Gerber Fmt 4.6, Leading zero omitted, Abs format (unit mm)*
G04 Created by KiCad (PCBNEW (5.1.5)-3) date 2021-02-17 22:29:51*
%MOMM*%
%LPD*%
G04 APERTURE LIST*
%ADD10C,0.100000*%
G04 APERTURE END LIST*
D10*
G36*
X89801000Y-124091000D02*
G01*
X87999000Y-124091000D01*
X87999000Y-122289000D01*
X89801000Y-122289000D01*
X89801000Y-124091000D01*
G37*
G36*
X94093512Y-122293927D02*
G01*
X94242812Y-122323624D01*
X94406784Y-122391544D01*
X94554354Y-122490147D01*
X94679853Y-122615646D01*
X94778456Y-122763216D01*
X94846376Y-122927188D01*
X94881000Y-123101259D01*
X94881000Y-123278741D01*
X94846376Y-123452812D01*
X94778456Y-123616784D01*
X94679853Y-123764354D01*
X94554354Y-123889853D01*
X94406784Y-123988456D01*
X94242812Y-124056376D01*
X94093512Y-124086073D01*
X94068742Y-124091000D01*
X93891258Y-124091000D01*
X93866488Y-124086073D01*
X93717188Y-124056376D01*
X93553216Y-123988456D01*
X93405646Y-123889853D01*
X93280147Y-123764354D01*
X93181544Y-123616784D01*
X93113624Y-123452812D01*
X93079000Y-123278741D01*
X93079000Y-123101259D01*
X93113624Y-122927188D01*
X93181544Y-122763216D01*
X93280147Y-122615646D01*
X93405646Y-122490147D01*
X93553216Y-122391544D01*
X93717188Y-122323624D01*
X93866488Y-122293927D01*
X93891258Y-122289000D01*
X94068742Y-122289000D01*
X94093512Y-122293927D01*
G37*
G36*
X86473512Y-122293927D02*
G01*
X86622812Y-122323624D01*
X86786784Y-122391544D01*
X86934354Y-122490147D01*
X87059853Y-122615646D01*
X87158456Y-122763216D01*
X87226376Y-122927188D01*
X87261000Y-123101259D01*
X87261000Y-123278741D01*
X87226376Y-123452812D01*
X87158456Y-123616784D01*
X87059853Y-123764354D01*
X86934354Y-123889853D01*
X86786784Y-123988456D01*
X86622812Y-124056376D01*
X86473512Y-124086073D01*
X86448742Y-124091000D01*
X86271258Y-124091000D01*
X86246488Y-124086073D01*
X86097188Y-124056376D01*
X85933216Y-123988456D01*
X85785646Y-123889853D01*
X85660147Y-123764354D01*
X85561544Y-123616784D01*
X85493624Y-123452812D01*
X85459000Y-123278741D01*
X85459000Y-123101259D01*
X85493624Y-122927188D01*
X85561544Y-122763216D01*
X85660147Y-122615646D01*
X85785646Y-122490147D01*
X85933216Y-122391544D01*
X86097188Y-122323624D01*
X86246488Y-122293927D01*
X86271258Y-122289000D01*
X86448742Y-122289000D01*
X86473512Y-122293927D01*
G37*
G36*
X83933512Y-122293927D02*
G01*
X84082812Y-122323624D01*
X84246784Y-122391544D01*
X84394354Y-122490147D01*
X84519853Y-122615646D01*
X84618456Y-122763216D01*
X84686376Y-122927188D01*
X84721000Y-123101259D01*
X84721000Y-123278741D01*
X84686376Y-123452812D01*
X84618456Y-123616784D01*
X84519853Y-123764354D01*
X84394354Y-123889853D01*
X84246784Y-123988456D01*
X84082812Y-124056376D01*
X83933512Y-124086073D01*
X83908742Y-124091000D01*
X83731258Y-124091000D01*
X83706488Y-124086073D01*
X83557188Y-124056376D01*
X83393216Y-123988456D01*
X83245646Y-123889853D01*
X83120147Y-123764354D01*
X83021544Y-123616784D01*
X82953624Y-123452812D01*
X82919000Y-123278741D01*
X82919000Y-123101259D01*
X82953624Y-122927188D01*
X83021544Y-122763216D01*
X83120147Y-122615646D01*
X83245646Y-122490147D01*
X83393216Y-122391544D01*
X83557188Y-122323624D01*
X83706488Y-122293927D01*
X83731258Y-122289000D01*
X83908742Y-122289000D01*
X83933512Y-122293927D01*
G37*
G36*
X82181000Y-124091000D02*
G01*
X80379000Y-124091000D01*
X80379000Y-122289000D01*
X82181000Y-122289000D01*
X82181000Y-124091000D01*
G37*
G36*
X74561000Y-124091000D02*
G01*
X72759000Y-124091000D01*
X72759000Y-122289000D01*
X74561000Y-122289000D01*
X74561000Y-124091000D01*
G37*
G36*
X77101000Y-124091000D02*
G01*
X75299000Y-124091000D01*
X75299000Y-122289000D01*
X77101000Y-122289000D01*
X77101000Y-124091000D01*
G37*
G36*
X79641000Y-124091000D02*
G01*
X77839000Y-124091000D01*
X77839000Y-122289000D01*
X79641000Y-122289000D01*
X79641000Y-124091000D01*
G37*
G36*
X91553512Y-122293927D02*
G01*
X91702812Y-122323624D01*
X91866784Y-122391544D01*
X92014354Y-122490147D01*
X92139853Y-122615646D01*
X92238456Y-122763216D01*
X92306376Y-122927188D01*
X92341000Y-123101259D01*
X92341000Y-123278741D01*
X92306376Y-123452812D01*
X92238456Y-123616784D01*
X92139853Y-123764354D01*
X92014354Y-123889853D01*
X91866784Y-123988456D01*
X91702812Y-124056376D01*
X91553512Y-124086073D01*
X91528742Y-124091000D01*
X91351258Y-124091000D01*
X91326488Y-124086073D01*
X91177188Y-124056376D01*
X91013216Y-123988456D01*
X90865646Y-123889853D01*
X90740147Y-123764354D01*
X90641544Y-123616784D01*
X90573624Y-123452812D01*
X90539000Y-123278741D01*
X90539000Y-123101259D01*
X90573624Y-122927188D01*
X90641544Y-122763216D01*
X90740147Y-122615646D01*
X90865646Y-122490147D01*
X91013216Y-122391544D01*
X91177188Y-122323624D01*
X91326488Y-122293927D01*
X91351258Y-122289000D01*
X91528742Y-122289000D01*
X91553512Y-122293927D01*
G37*
G36*
X76908674Y-119903465D02*
G01*
X76946367Y-119914899D01*
X76981103Y-119933466D01*
X77011548Y-119958452D01*
X77036534Y-119988897D01*
X77055101Y-120023633D01*
X77066535Y-120061326D01*
X77071000Y-120106661D01*
X77071000Y-121193339D01*
X77066535Y-121238674D01*
X77055101Y-121276367D01*
X77036534Y-121311103D01*
X77011548Y-121341548D01*
X76981103Y-121366534D01*
X76946367Y-121385101D01*
X76908674Y-121396535D01*
X76863339Y-121401000D01*
X76026661Y-121401000D01*
X75981326Y-121396535D01*
X75943633Y-121385101D01*
X75908897Y-121366534D01*
X75878452Y-121341548D01*
X75853466Y-121311103D01*
X75834899Y-121276367D01*
X75823465Y-121238674D01*
X75819000Y-121193339D01*
X75819000Y-120106661D01*
X75823465Y-120061326D01*
X75834899Y-120023633D01*
X75853466Y-119988897D01*
X75878452Y-119958452D01*
X75908897Y-119933466D01*
X75943633Y-119914899D01*
X75981326Y-119903465D01*
X76026661Y-119899000D01*
X76863339Y-119899000D01*
X76908674Y-119903465D01*
G37*
G36*
X78958674Y-119903465D02*
G01*
X78996367Y-119914899D01*
X79031103Y-119933466D01*
X79061548Y-119958452D01*
X79086534Y-119988897D01*
X79105101Y-120023633D01*
X79116535Y-120061326D01*
X79121000Y-120106661D01*
X79121000Y-121193339D01*
X79116535Y-121238674D01*
X79105101Y-121276367D01*
X79086534Y-121311103D01*
X79061548Y-121341548D01*
X79031103Y-121366534D01*
X78996367Y-121385101D01*
X78958674Y-121396535D01*
X78913339Y-121401000D01*
X78076661Y-121401000D01*
X78031326Y-121396535D01*
X77993633Y-121385101D01*
X77958897Y-121366534D01*
X77928452Y-121341548D01*
X77903466Y-121311103D01*
X77884899Y-121276367D01*
X77873465Y-121238674D01*
X77869000Y-121193339D01*
X77869000Y-120106661D01*
X77873465Y-120061326D01*
X77884899Y-120023633D01*
X77903466Y-119988897D01*
X77928452Y-119958452D01*
X77958897Y-119933466D01*
X77993633Y-119914899D01*
X78031326Y-119903465D01*
X78076661Y-119899000D01*
X78913339Y-119899000D01*
X78958674Y-119903465D01*
G37*
G36*
X78958674Y-117998465D02*
G01*
X78996367Y-118009899D01*
X79031103Y-118028466D01*
X79061548Y-118053452D01*
X79086534Y-118083897D01*
X79105101Y-118118633D01*
X79116535Y-118156326D01*
X79121000Y-118201661D01*
X79121000Y-119288339D01*
X79116535Y-119333674D01*
X79105101Y-119371367D01*
X79086534Y-119406103D01*
X79061548Y-119436548D01*
X79031103Y-119461534D01*
X78996367Y-119480101D01*
X78958674Y-119491535D01*
X78913339Y-119496000D01*
X78076661Y-119496000D01*
X78031326Y-119491535D01*
X77993633Y-119480101D01*
X77958897Y-119461534D01*
X77928452Y-119436548D01*
X77903466Y-119406103D01*
X77884899Y-119371367D01*
X77873465Y-119333674D01*
X77869000Y-119288339D01*
X77869000Y-118201661D01*
X77873465Y-118156326D01*
X77884899Y-118118633D01*
X77903466Y-118083897D01*
X77928452Y-118053452D01*
X77958897Y-118028466D01*
X77993633Y-118009899D01*
X78031326Y-117998465D01*
X78076661Y-117994000D01*
X78913339Y-117994000D01*
X78958674Y-117998465D01*
G37*
G36*
X76908674Y-117998465D02*
G01*
X76946367Y-118009899D01*
X76981103Y-118028466D01*
X77011548Y-118053452D01*
X77036534Y-118083897D01*
X77055101Y-118118633D01*
X77066535Y-118156326D01*
X77071000Y-118201661D01*
X77071000Y-119288339D01*
X77066535Y-119333674D01*
X77055101Y-119371367D01*
X77036534Y-119406103D01*
X77011548Y-119436548D01*
X76981103Y-119461534D01*
X76946367Y-119480101D01*
X76908674Y-119491535D01*
X76863339Y-119496000D01*
X76026661Y-119496000D01*
X75981326Y-119491535D01*
X75943633Y-119480101D01*
X75908897Y-119461534D01*
X75878452Y-119436548D01*
X75853466Y-119406103D01*
X75834899Y-119371367D01*
X75823465Y-119333674D01*
X75819000Y-119288339D01*
X75819000Y-118201661D01*
X75823465Y-118156326D01*
X75834899Y-118118633D01*
X75853466Y-118083897D01*
X75878452Y-118053452D01*
X75908897Y-118028466D01*
X75943633Y-118009899D01*
X75981326Y-117998465D01*
X76026661Y-117994000D01*
X76863339Y-117994000D01*
X76908674Y-117998465D01*
G37*
G36*
X78958674Y-116093465D02*
G01*
X78996367Y-116104899D01*
X79031103Y-116123466D01*
X79061548Y-116148452D01*
X79086534Y-116178897D01*
X79105101Y-116213633D01*
X79116535Y-116251326D01*
X79121000Y-116296661D01*
X79121000Y-117383339D01*
X79116535Y-117428674D01*
X79105101Y-117466367D01*
X79086534Y-117501103D01*
X79061548Y-117531548D01*
X79031103Y-117556534D01*
X78996367Y-117575101D01*
X78958674Y-117586535D01*
X78913339Y-117591000D01*
X78076661Y-117591000D01*
X78031326Y-117586535D01*
X77993633Y-117575101D01*
X77958897Y-117556534D01*
X77928452Y-117531548D01*
X77903466Y-117501103D01*
X77884899Y-117466367D01*
X77873465Y-117428674D01*
X77869000Y-117383339D01*
X77869000Y-116296661D01*
X77873465Y-116251326D01*
X77884899Y-116213633D01*
X77903466Y-116178897D01*
X77928452Y-116148452D01*
X77958897Y-116123466D01*
X77993633Y-116104899D01*
X78031326Y-116093465D01*
X78076661Y-116089000D01*
X78913339Y-116089000D01*
X78958674Y-116093465D01*
G37*
G36*
X76908674Y-116093465D02*
G01*
X76946367Y-116104899D01*
X76981103Y-116123466D01*
X77011548Y-116148452D01*
X77036534Y-116178897D01*
X77055101Y-116213633D01*
X77066535Y-116251326D01*
X77071000Y-116296661D01*
X77071000Y-117383339D01*
X77066535Y-117428674D01*
X77055101Y-117466367D01*
X77036534Y-117501103D01*
X77011548Y-117531548D01*
X76981103Y-117556534D01*
X76946367Y-117575101D01*
X76908674Y-117586535D01*
X76863339Y-117591000D01*
X76026661Y-117591000D01*
X75981326Y-117586535D01*
X75943633Y-117575101D01*
X75908897Y-117556534D01*
X75878452Y-117531548D01*
X75853466Y-117501103D01*
X75834899Y-117466367D01*
X75823465Y-117428674D01*
X75819000Y-117383339D01*
X75819000Y-116296661D01*
X75823465Y-116251326D01*
X75834899Y-116213633D01*
X75853466Y-116178897D01*
X75878452Y-116148452D01*
X75908897Y-116123466D01*
X75943633Y-116104899D01*
X75981326Y-116093465D01*
X76026661Y-116089000D01*
X76863339Y-116089000D01*
X76908674Y-116093465D01*
G37*
G36*
X94505174Y-115274965D02*
G01*
X94542867Y-115286399D01*
X94577603Y-115304966D01*
X94608048Y-115329952D01*
X94633034Y-115360397D01*
X94651601Y-115395133D01*
X94663035Y-115432826D01*
X94667500Y-115478161D01*
X94667500Y-116314839D01*
X94663035Y-116360174D01*
X94651601Y-116397867D01*
X94633034Y-116432603D01*
X94608048Y-116463048D01*
X94577603Y-116488034D01*
X94542867Y-116506601D01*
X94505174Y-116518035D01*
X94459839Y-116522500D01*
X93373161Y-116522500D01*
X93327826Y-116518035D01*
X93290133Y-116506601D01*
X93255397Y-116488034D01*
X93224952Y-116463048D01*
X93199966Y-116432603D01*
X93181399Y-116397867D01*
X93169965Y-116360174D01*
X93165500Y-116314839D01*
X93165500Y-115478161D01*
X93169965Y-115432826D01*
X93181399Y-115395133D01*
X93199966Y-115360397D01*
X93224952Y-115329952D01*
X93255397Y-115304966D01*
X93290133Y-115286399D01*
X93327826Y-115274965D01*
X93373161Y-115270500D01*
X94459839Y-115270500D01*
X94505174Y-115274965D01*
G37*
G36*
X86335000Y-115653000D02*
G01*
X85133000Y-115653000D01*
X85133000Y-113201000D01*
X86335000Y-113201000D01*
X86335000Y-115653000D01*
G37*
G36*
X90635000Y-115653000D02*
G01*
X89433000Y-115653000D01*
X89433000Y-113201000D01*
X90635000Y-113201000D01*
X90635000Y-115653000D01*
G37*
G36*
X73908108Y-113482863D02*
G01*
X74062980Y-113547013D01*
X74202361Y-113640145D01*
X74320895Y-113758679D01*
X74414027Y-113898060D01*
X74478177Y-114052932D01*
X74510880Y-114217344D01*
X74510880Y-114384976D01*
X74478177Y-114549388D01*
X74414027Y-114704260D01*
X74320895Y-114843641D01*
X74202361Y-114962175D01*
X74062980Y-115055307D01*
X73908108Y-115119457D01*
X73743696Y-115152160D01*
X73576064Y-115152160D01*
X73411652Y-115119457D01*
X73256780Y-115055307D01*
X73117399Y-114962175D01*
X72998865Y-114843641D01*
X72905733Y-114704260D01*
X72841583Y-114549388D01*
X72808880Y-114384976D01*
X72808880Y-114217344D01*
X72841583Y-114052932D01*
X72905733Y-113898060D01*
X72998865Y-113758679D01*
X73117399Y-113640145D01*
X73256780Y-113547013D01*
X73411652Y-113482863D01*
X73576064Y-113450160D01*
X73743696Y-113450160D01*
X73908108Y-113482863D01*
G37*
G36*
X94505174Y-113224965D02*
G01*
X94542867Y-113236399D01*
X94577603Y-113254966D01*
X94608048Y-113279952D01*
X94633034Y-113310397D01*
X94651601Y-113345133D01*
X94663035Y-113382826D01*
X94667500Y-113428161D01*
X94667500Y-114264839D01*
X94663035Y-114310174D01*
X94651601Y-114347867D01*
X94633034Y-114382603D01*
X94608048Y-114413048D01*
X94577603Y-114438034D01*
X94542867Y-114456601D01*
X94505174Y-114468035D01*
X94459839Y-114472500D01*
X93373161Y-114472500D01*
X93327826Y-114468035D01*
X93290133Y-114456601D01*
X93255397Y-114438034D01*
X93224952Y-114413048D01*
X93199966Y-114382603D01*
X93181399Y-114347867D01*
X93169965Y-114310174D01*
X93165500Y-114264839D01*
X93165500Y-113428161D01*
X93169965Y-113382826D01*
X93181399Y-113345133D01*
X93199966Y-113310397D01*
X93224952Y-113279952D01*
X93255397Y-113254966D01*
X93290133Y-113236399D01*
X93327826Y-113224965D01*
X93373161Y-113220500D01*
X94459839Y-113220500D01*
X94505174Y-113224965D01*
G37*
G36*
X94228108Y-110942863D02*
G01*
X94382980Y-111007013D01*
X94522361Y-111100145D01*
X94640895Y-111218679D01*
X94734027Y-111358060D01*
X94798177Y-111512932D01*
X94830880Y-111677344D01*
X94830880Y-111844976D01*
X94798177Y-112009388D01*
X94734027Y-112164260D01*
X94640895Y-112303641D01*
X94522361Y-112422175D01*
X94382980Y-112515307D01*
X94228108Y-112579457D01*
X94063696Y-112612160D01*
X93896064Y-112612160D01*
X93731652Y-112579457D01*
X93576780Y-112515307D01*
X93437399Y-112422175D01*
X93318865Y-112303641D01*
X93225733Y-112164260D01*
X93161583Y-112009388D01*
X93128880Y-111844976D01*
X93128880Y-111677344D01*
X93161583Y-111512932D01*
X93225733Y-111358060D01*
X93318865Y-111218679D01*
X93437399Y-111100145D01*
X93576780Y-111007013D01*
X93731652Y-110942863D01*
X93896064Y-110910160D01*
X94063696Y-110910160D01*
X94228108Y-110942863D01*
G37*
G36*
X73908108Y-110942863D02*
G01*
X74062980Y-111007013D01*
X74202361Y-111100145D01*
X74320895Y-111218679D01*
X74414027Y-111358060D01*
X74478177Y-111512932D01*
X74510880Y-111677344D01*
X74510880Y-111844976D01*
X74478177Y-112009388D01*
X74414027Y-112164260D01*
X74320895Y-112303641D01*
X74202361Y-112422175D01*
X74062980Y-112515307D01*
X73908108Y-112579457D01*
X73743696Y-112612160D01*
X73576064Y-112612160D01*
X73411652Y-112579457D01*
X73256780Y-112515307D01*
X73117399Y-112422175D01*
X72998865Y-112303641D01*
X72905733Y-112164260D01*
X72841583Y-112009388D01*
X72808880Y-111844976D01*
X72808880Y-111677344D01*
X72841583Y-111512932D01*
X72905733Y-111358060D01*
X72998865Y-111218679D01*
X73117399Y-111100145D01*
X73256780Y-111007013D01*
X73411652Y-110942863D01*
X73576064Y-110910160D01*
X73743696Y-110910160D01*
X73908108Y-110942863D01*
G37*
G36*
X81528108Y-110942863D02*
G01*
X81682980Y-111007013D01*
X81822361Y-111100145D01*
X81940895Y-111218679D01*
X82034027Y-111358060D01*
X82098177Y-111512932D01*
X82130880Y-111677344D01*
X82130880Y-111844976D01*
X82098177Y-112009388D01*
X82034027Y-112164260D01*
X81940895Y-112303641D01*
X81822361Y-112422175D01*
X81682980Y-112515307D01*
X81528108Y-112579457D01*
X81363696Y-112612160D01*
X81196064Y-112612160D01*
X81031652Y-112579457D01*
X80876780Y-112515307D01*
X80737399Y-112422175D01*
X80618865Y-112303641D01*
X80525733Y-112164260D01*
X80461583Y-112009388D01*
X80428880Y-111844976D01*
X80428880Y-111677344D01*
X80461583Y-111512932D01*
X80525733Y-111358060D01*
X80618865Y-111218679D01*
X80737399Y-111100145D01*
X80876780Y-111007013D01*
X81031652Y-110942863D01*
X81196064Y-110910160D01*
X81363696Y-110910160D01*
X81528108Y-110942863D01*
G37*
G36*
X85095928Y-108385764D02*
G01*
X85117009Y-108392160D01*
X85136445Y-108402548D01*
X85153476Y-108416524D01*
X85167452Y-108433555D01*
X85177840Y-108452991D01*
X85184236Y-108474072D01*
X85187000Y-108502140D01*
X85187000Y-110315860D01*
X85184236Y-110343928D01*
X85177840Y-110365009D01*
X85167452Y-110384445D01*
X85153476Y-110401476D01*
X85136445Y-110415452D01*
X85117009Y-110425840D01*
X85095928Y-110432236D01*
X85067860Y-110435000D01*
X84604140Y-110435000D01*
X84576072Y-110432236D01*
X84554991Y-110425840D01*
X84535555Y-110415452D01*
X84518524Y-110401476D01*
X84504548Y-110384445D01*
X84494160Y-110365009D01*
X84487764Y-110343928D01*
X84485000Y-110315860D01*
X84485000Y-108502140D01*
X84487764Y-108474072D01*
X84494160Y-108452991D01*
X84504548Y-108433555D01*
X84518524Y-108416524D01*
X84535555Y-108402548D01*
X84554991Y-108392160D01*
X84576072Y-108385764D01*
X84604140Y-108383000D01*
X85067860Y-108383000D01*
X85095928Y-108385764D01*
G37*
G36*
X86365928Y-108385764D02*
G01*
X86387009Y-108392160D01*
X86406445Y-108402548D01*
X86423476Y-108416524D01*
X86437452Y-108433555D01*
X86447840Y-108452991D01*
X86454236Y-108474072D01*
X86457000Y-108502140D01*
X86457000Y-110315860D01*
X86454236Y-110343928D01*
X86447840Y-110365009D01*
X86437452Y-110384445D01*
X86423476Y-110401476D01*
X86406445Y-110415452D01*
X86387009Y-110425840D01*
X86365928Y-110432236D01*
X86337860Y-110435000D01*
X85874140Y-110435000D01*
X85846072Y-110432236D01*
X85824991Y-110425840D01*
X85805555Y-110415452D01*
X85788524Y-110401476D01*
X85774548Y-110384445D01*
X85764160Y-110365009D01*
X85757764Y-110343928D01*
X85755000Y-110315860D01*
X85755000Y-108502140D01*
X85757764Y-108474072D01*
X85764160Y-108452991D01*
X85774548Y-108433555D01*
X85788524Y-108416524D01*
X85805555Y-108402548D01*
X85824991Y-108392160D01*
X85846072Y-108385764D01*
X85874140Y-108383000D01*
X86337860Y-108383000D01*
X86365928Y-108385764D01*
G37*
G36*
X90175928Y-108385764D02*
G01*
X90197009Y-108392160D01*
X90216445Y-108402548D01*
X90233476Y-108416524D01*
X90247452Y-108433555D01*
X90257840Y-108452991D01*
X90264236Y-108474072D01*
X90267000Y-108502140D01*
X90267000Y-110315860D01*
X90264236Y-110343928D01*
X90257840Y-110365009D01*
X90247452Y-110384445D01*
X90233476Y-110401476D01*
X90216445Y-110415452D01*
X90197009Y-110425840D01*
X90175928Y-110432236D01*
X90147860Y-110435000D01*
X89684140Y-110435000D01*
X89656072Y-110432236D01*
X89634991Y-110425840D01*
X89615555Y-110415452D01*
X89598524Y-110401476D01*
X89584548Y-110384445D01*
X89574160Y-110365009D01*
X89567764Y-110343928D01*
X89565000Y-110315860D01*
X89565000Y-108502140D01*
X89567764Y-108474072D01*
X89574160Y-108452991D01*
X89584548Y-108433555D01*
X89598524Y-108416524D01*
X89615555Y-108402548D01*
X89634991Y-108392160D01*
X89656072Y-108385764D01*
X89684140Y-108383000D01*
X90147860Y-108383000D01*
X90175928Y-108385764D01*
G37*
G36*
X87635928Y-108385764D02*
G01*
X87657009Y-108392160D01*
X87676445Y-108402548D01*
X87693476Y-108416524D01*
X87707452Y-108433555D01*
X87717840Y-108452991D01*
X87724236Y-108474072D01*
X87727000Y-108502140D01*
X87727000Y-110315860D01*
X87724236Y-110343928D01*
X87717840Y-110365009D01*
X87707452Y-110384445D01*
X87693476Y-110401476D01*
X87676445Y-110415452D01*
X87657009Y-110425840D01*
X87635928Y-110432236D01*
X87607860Y-110435000D01*
X87144140Y-110435000D01*
X87116072Y-110432236D01*
X87094991Y-110425840D01*
X87075555Y-110415452D01*
X87058524Y-110401476D01*
X87044548Y-110384445D01*
X87034160Y-110365009D01*
X87027764Y-110343928D01*
X87025000Y-110315860D01*
X87025000Y-108502140D01*
X87027764Y-108474072D01*
X87034160Y-108452991D01*
X87044548Y-108433555D01*
X87058524Y-108416524D01*
X87075555Y-108402548D01*
X87094991Y-108392160D01*
X87116072Y-108385764D01*
X87144140Y-108383000D01*
X87607860Y-108383000D01*
X87635928Y-108385764D01*
G37*
G36*
X91445928Y-108385764D02*
G01*
X91467009Y-108392160D01*
X91486445Y-108402548D01*
X91503476Y-108416524D01*
X91517452Y-108433555D01*
X91527840Y-108452991D01*
X91534236Y-108474072D01*
X91537000Y-108502140D01*
X91537000Y-110315860D01*
X91534236Y-110343928D01*
X91527840Y-110365009D01*
X91517452Y-110384445D01*
X91503476Y-110401476D01*
X91486445Y-110415452D01*
X91467009Y-110425840D01*
X91445928Y-110432236D01*
X91417860Y-110435000D01*
X90954140Y-110435000D01*
X90926072Y-110432236D01*
X90904991Y-110425840D01*
X90885555Y-110415452D01*
X90868524Y-110401476D01*
X90854548Y-110384445D01*
X90844160Y-110365009D01*
X90837764Y-110343928D01*
X90835000Y-110315860D01*
X90835000Y-108502140D01*
X90837764Y-108474072D01*
X90844160Y-108452991D01*
X90854548Y-108433555D01*
X90868524Y-108416524D01*
X90885555Y-108402548D01*
X90904991Y-108392160D01*
X90926072Y-108385764D01*
X90954140Y-108383000D01*
X91417860Y-108383000D01*
X91445928Y-108385764D01*
G37*
G36*
X83825928Y-108385764D02*
G01*
X83847009Y-108392160D01*
X83866445Y-108402548D01*
X83883476Y-108416524D01*
X83897452Y-108433555D01*
X83907840Y-108452991D01*
X83914236Y-108474072D01*
X83917000Y-108502140D01*
X83917000Y-110315860D01*
X83914236Y-110343928D01*
X83907840Y-110365009D01*
X83897452Y-110384445D01*
X83883476Y-110401476D01*
X83866445Y-110415452D01*
X83847009Y-110425840D01*
X83825928Y-110432236D01*
X83797860Y-110435000D01*
X83334140Y-110435000D01*
X83306072Y-110432236D01*
X83284991Y-110425840D01*
X83265555Y-110415452D01*
X83248524Y-110401476D01*
X83234548Y-110384445D01*
X83224160Y-110365009D01*
X83217764Y-110343928D01*
X83215000Y-110315860D01*
X83215000Y-108502140D01*
X83217764Y-108474072D01*
X83224160Y-108452991D01*
X83234548Y-108433555D01*
X83248524Y-108416524D01*
X83265555Y-108402548D01*
X83284991Y-108392160D01*
X83306072Y-108385764D01*
X83334140Y-108383000D01*
X83797860Y-108383000D01*
X83825928Y-108385764D01*
G37*
G36*
X88905928Y-108385764D02*
G01*
X88927009Y-108392160D01*
X88946445Y-108402548D01*
X88963476Y-108416524D01*
X88977452Y-108433555D01*
X88987840Y-108452991D01*
X88994236Y-108474072D01*
X88997000Y-108502140D01*
X88997000Y-110315860D01*
X88994236Y-110343928D01*
X88987840Y-110365009D01*
X88977452Y-110384445D01*
X88963476Y-110401476D01*
X88946445Y-110415452D01*
X88927009Y-110425840D01*
X88905928Y-110432236D01*
X88877860Y-110435000D01*
X88414140Y-110435000D01*
X88386072Y-110432236D01*
X88364991Y-110425840D01*
X88345555Y-110415452D01*
X88328524Y-110401476D01*
X88314548Y-110384445D01*
X88304160Y-110365009D01*
X88297764Y-110343928D01*
X88295000Y-110315860D01*
X88295000Y-108502140D01*
X88297764Y-108474072D01*
X88304160Y-108452991D01*
X88314548Y-108433555D01*
X88328524Y-108416524D01*
X88345555Y-108402548D01*
X88364991Y-108392160D01*
X88386072Y-108385764D01*
X88414140Y-108383000D01*
X88877860Y-108383000D01*
X88905928Y-108385764D01*
G37*
G36*
X73908108Y-108402863D02*
G01*
X74062980Y-108467013D01*
X74202361Y-108560145D01*
X74320895Y-108678679D01*
X74414027Y-108818060D01*
X74478177Y-108972932D01*
X74510880Y-109137344D01*
X74510880Y-109304976D01*
X74478177Y-109469388D01*
X74414027Y-109624260D01*
X74320895Y-109763641D01*
X74202361Y-109882175D01*
X74062980Y-109975307D01*
X73908108Y-110039457D01*
X73743696Y-110072160D01*
X73576064Y-110072160D01*
X73411652Y-110039457D01*
X73256780Y-109975307D01*
X73117399Y-109882175D01*
X72998865Y-109763641D01*
X72905733Y-109624260D01*
X72841583Y-109469388D01*
X72808880Y-109304976D01*
X72808880Y-109137344D01*
X72841583Y-108972932D01*
X72905733Y-108818060D01*
X72998865Y-108678679D01*
X73117399Y-108560145D01*
X73256780Y-108467013D01*
X73411652Y-108402863D01*
X73576064Y-108370160D01*
X73743696Y-108370160D01*
X73908108Y-108402863D01*
G37*
G36*
X94228108Y-108402863D02*
G01*
X94382980Y-108467013D01*
X94522361Y-108560145D01*
X94640895Y-108678679D01*
X94734027Y-108818060D01*
X94798177Y-108972932D01*
X94830880Y-109137344D01*
X94830880Y-109304976D01*
X94798177Y-109469388D01*
X94734027Y-109624260D01*
X94640895Y-109763641D01*
X94522361Y-109882175D01*
X94382980Y-109975307D01*
X94228108Y-110039457D01*
X94063696Y-110072160D01*
X93896064Y-110072160D01*
X93731652Y-110039457D01*
X93576780Y-109975307D01*
X93437399Y-109882175D01*
X93318865Y-109763641D01*
X93225733Y-109624260D01*
X93161583Y-109469388D01*
X93128880Y-109304976D01*
X93128880Y-109137344D01*
X93161583Y-108972932D01*
X93225733Y-108818060D01*
X93318865Y-108678679D01*
X93437399Y-108560145D01*
X93576780Y-108467013D01*
X93731652Y-108402863D01*
X93896064Y-108370160D01*
X94063696Y-108370160D01*
X94228108Y-108402863D01*
G37*
G36*
X73908108Y-105862863D02*
G01*
X74062980Y-105927013D01*
X74202361Y-106020145D01*
X74320895Y-106138679D01*
X74414027Y-106278060D01*
X74478177Y-106432932D01*
X74510880Y-106597344D01*
X74510880Y-106764976D01*
X74478177Y-106929388D01*
X74414027Y-107084260D01*
X74320895Y-107223641D01*
X74202361Y-107342175D01*
X74062980Y-107435307D01*
X73908108Y-107499457D01*
X73743696Y-107532160D01*
X73576064Y-107532160D01*
X73411652Y-107499457D01*
X73256780Y-107435307D01*
X73117399Y-107342175D01*
X72998865Y-107223641D01*
X72905733Y-107084260D01*
X72841583Y-106929388D01*
X72808880Y-106764976D01*
X72808880Y-106597344D01*
X72841583Y-106432932D01*
X72905733Y-106278060D01*
X72998865Y-106138679D01*
X73117399Y-106020145D01*
X73256780Y-105927013D01*
X73411652Y-105862863D01*
X73576064Y-105830160D01*
X73743696Y-105830160D01*
X73908108Y-105862863D01*
G37*
G36*
X94228108Y-105862863D02*
G01*
X94382980Y-105927013D01*
X94522361Y-106020145D01*
X94640895Y-106138679D01*
X94734027Y-106278060D01*
X94798177Y-106432932D01*
X94830880Y-106597344D01*
X94830880Y-106764976D01*
X94798177Y-106929388D01*
X94734027Y-107084260D01*
X94640895Y-107223641D01*
X94522361Y-107342175D01*
X94382980Y-107435307D01*
X94228108Y-107499457D01*
X94063696Y-107532160D01*
X93896064Y-107532160D01*
X93731652Y-107499457D01*
X93576780Y-107435307D01*
X93437399Y-107342175D01*
X93318865Y-107223641D01*
X93225733Y-107084260D01*
X93161583Y-106929388D01*
X93128880Y-106764976D01*
X93128880Y-106597344D01*
X93161583Y-106432932D01*
X93225733Y-106278060D01*
X93318865Y-106138679D01*
X93437399Y-106020145D01*
X93576780Y-105927013D01*
X93731652Y-105862863D01*
X93896064Y-105830160D01*
X94063696Y-105830160D01*
X94228108Y-105862863D01*
G37*
G36*
X88905928Y-103435764D02*
G01*
X88927009Y-103442160D01*
X88946445Y-103452548D01*
X88963476Y-103466524D01*
X88977452Y-103483555D01*
X88987840Y-103502991D01*
X88994236Y-103524072D01*
X88997000Y-103552140D01*
X88997000Y-105365860D01*
X88994236Y-105393928D01*
X88987840Y-105415009D01*
X88977452Y-105434445D01*
X88963476Y-105451476D01*
X88946445Y-105465452D01*
X88927009Y-105475840D01*
X88905928Y-105482236D01*
X88877860Y-105485000D01*
X88414140Y-105485000D01*
X88386072Y-105482236D01*
X88364991Y-105475840D01*
X88345555Y-105465452D01*
X88328524Y-105451476D01*
X88314548Y-105434445D01*
X88304160Y-105415009D01*
X88297764Y-105393928D01*
X88295000Y-105365860D01*
X88295000Y-103552140D01*
X88297764Y-103524072D01*
X88304160Y-103502991D01*
X88314548Y-103483555D01*
X88328524Y-103466524D01*
X88345555Y-103452548D01*
X88364991Y-103442160D01*
X88386072Y-103435764D01*
X88414140Y-103433000D01*
X88877860Y-103433000D01*
X88905928Y-103435764D01*
G37*
G36*
X91445928Y-103435764D02*
G01*
X91467009Y-103442160D01*
X91486445Y-103452548D01*
X91503476Y-103466524D01*
X91517452Y-103483555D01*
X91527840Y-103502991D01*
X91534236Y-103524072D01*
X91537000Y-103552140D01*
X91537000Y-105365860D01*
X91534236Y-105393928D01*
X91527840Y-105415009D01*
X91517452Y-105434445D01*
X91503476Y-105451476D01*
X91486445Y-105465452D01*
X91467009Y-105475840D01*
X91445928Y-105482236D01*
X91417860Y-105485000D01*
X90954140Y-105485000D01*
X90926072Y-105482236D01*
X90904991Y-105475840D01*
X90885555Y-105465452D01*
X90868524Y-105451476D01*
X90854548Y-105434445D01*
X90844160Y-105415009D01*
X90837764Y-105393928D01*
X90835000Y-105365860D01*
X90835000Y-103552140D01*
X90837764Y-103524072D01*
X90844160Y-103502991D01*
X90854548Y-103483555D01*
X90868524Y-103466524D01*
X90885555Y-103452548D01*
X90904991Y-103442160D01*
X90926072Y-103435764D01*
X90954140Y-103433000D01*
X91417860Y-103433000D01*
X91445928Y-103435764D01*
G37*
G36*
X87635928Y-103435764D02*
G01*
X87657009Y-103442160D01*
X87676445Y-103452548D01*
X87693476Y-103466524D01*
X87707452Y-103483555D01*
X87717840Y-103502991D01*
X87724236Y-103524072D01*
X87727000Y-103552140D01*
X87727000Y-105365860D01*
X87724236Y-105393928D01*
X87717840Y-105415009D01*
X87707452Y-105434445D01*
X87693476Y-105451476D01*
X87676445Y-105465452D01*
X87657009Y-105475840D01*
X87635928Y-105482236D01*
X87607860Y-105485000D01*
X87144140Y-105485000D01*
X87116072Y-105482236D01*
X87094991Y-105475840D01*
X87075555Y-105465452D01*
X87058524Y-105451476D01*
X87044548Y-105434445D01*
X87034160Y-105415009D01*
X87027764Y-105393928D01*
X87025000Y-105365860D01*
X87025000Y-103552140D01*
X87027764Y-103524072D01*
X87034160Y-103502991D01*
X87044548Y-103483555D01*
X87058524Y-103466524D01*
X87075555Y-103452548D01*
X87094991Y-103442160D01*
X87116072Y-103435764D01*
X87144140Y-103433000D01*
X87607860Y-103433000D01*
X87635928Y-103435764D01*
G37*
G36*
X86365928Y-103435764D02*
G01*
X86387009Y-103442160D01*
X86406445Y-103452548D01*
X86423476Y-103466524D01*
X86437452Y-103483555D01*
X86447840Y-103502991D01*
X86454236Y-103524072D01*
X86457000Y-103552140D01*
X86457000Y-105365860D01*
X86454236Y-105393928D01*
X86447840Y-105415009D01*
X86437452Y-105434445D01*
X86423476Y-105451476D01*
X86406445Y-105465452D01*
X86387009Y-105475840D01*
X86365928Y-105482236D01*
X86337860Y-105485000D01*
X85874140Y-105485000D01*
X85846072Y-105482236D01*
X85824991Y-105475840D01*
X85805555Y-105465452D01*
X85788524Y-105451476D01*
X85774548Y-105434445D01*
X85764160Y-105415009D01*
X85757764Y-105393928D01*
X85755000Y-105365860D01*
X85755000Y-103552140D01*
X85757764Y-103524072D01*
X85764160Y-103502991D01*
X85774548Y-103483555D01*
X85788524Y-103466524D01*
X85805555Y-103452548D01*
X85824991Y-103442160D01*
X85846072Y-103435764D01*
X85874140Y-103433000D01*
X86337860Y-103433000D01*
X86365928Y-103435764D01*
G37*
G36*
X85095928Y-103435764D02*
G01*
X85117009Y-103442160D01*
X85136445Y-103452548D01*
X85153476Y-103466524D01*
X85167452Y-103483555D01*
X85177840Y-103502991D01*
X85184236Y-103524072D01*
X85187000Y-103552140D01*
X85187000Y-105365860D01*
X85184236Y-105393928D01*
X85177840Y-105415009D01*
X85167452Y-105434445D01*
X85153476Y-105451476D01*
X85136445Y-105465452D01*
X85117009Y-105475840D01*
X85095928Y-105482236D01*
X85067860Y-105485000D01*
X84604140Y-105485000D01*
X84576072Y-105482236D01*
X84554991Y-105475840D01*
X84535555Y-105465452D01*
X84518524Y-105451476D01*
X84504548Y-105434445D01*
X84494160Y-105415009D01*
X84487764Y-105393928D01*
X84485000Y-105365860D01*
X84485000Y-103552140D01*
X84487764Y-103524072D01*
X84494160Y-103502991D01*
X84504548Y-103483555D01*
X84518524Y-103466524D01*
X84535555Y-103452548D01*
X84554991Y-103442160D01*
X84576072Y-103435764D01*
X84604140Y-103433000D01*
X85067860Y-103433000D01*
X85095928Y-103435764D01*
G37*
G36*
X90175928Y-103435764D02*
G01*
X90197009Y-103442160D01*
X90216445Y-103452548D01*
X90233476Y-103466524D01*
X90247452Y-103483555D01*
X90257840Y-103502991D01*
X90264236Y-103524072D01*
X90267000Y-103552140D01*
X90267000Y-105365860D01*
X90264236Y-105393928D01*
X90257840Y-105415009D01*
X90247452Y-105434445D01*
X90233476Y-105451476D01*
X90216445Y-105465452D01*
X90197009Y-105475840D01*
X90175928Y-105482236D01*
X90147860Y-105485000D01*
X89684140Y-105485000D01*
X89656072Y-105482236D01*
X89634991Y-105475840D01*
X89615555Y-105465452D01*
X89598524Y-105451476D01*
X89584548Y-105434445D01*
X89574160Y-105415009D01*
X89567764Y-105393928D01*
X89565000Y-105365860D01*
X89565000Y-103552140D01*
X89567764Y-103524072D01*
X89574160Y-103502991D01*
X89584548Y-103483555D01*
X89598524Y-103466524D01*
X89615555Y-103452548D01*
X89634991Y-103442160D01*
X89656072Y-103435764D01*
X89684140Y-103433000D01*
X90147860Y-103433000D01*
X90175928Y-103435764D01*
G37*
G36*
X83825928Y-103435764D02*
G01*
X83847009Y-103442160D01*
X83866445Y-103452548D01*
X83883476Y-103466524D01*
X83897452Y-103483555D01*
X83907840Y-103502991D01*
X83914236Y-103524072D01*
X83917000Y-103552140D01*
X83917000Y-105365860D01*
X83914236Y-105393928D01*
X83907840Y-105415009D01*
X83897452Y-105434445D01*
X83883476Y-105451476D01*
X83866445Y-105465452D01*
X83847009Y-105475840D01*
X83825928Y-105482236D01*
X83797860Y-105485000D01*
X83334140Y-105485000D01*
X83306072Y-105482236D01*
X83284991Y-105475840D01*
X83265555Y-105465452D01*
X83248524Y-105451476D01*
X83234548Y-105434445D01*
X83224160Y-105415009D01*
X83217764Y-105393928D01*
X83215000Y-105365860D01*
X83215000Y-103552140D01*
X83217764Y-103524072D01*
X83224160Y-103502991D01*
X83234548Y-103483555D01*
X83248524Y-103466524D01*
X83265555Y-103452548D01*
X83284991Y-103442160D01*
X83306072Y-103435764D01*
X83334140Y-103433000D01*
X83797860Y-103433000D01*
X83825928Y-103435764D01*
G37*
G36*
X94228108Y-103322863D02*
G01*
X94382980Y-103387013D01*
X94522361Y-103480145D01*
X94640895Y-103598679D01*
X94734027Y-103738060D01*
X94798177Y-103892932D01*
X94830880Y-104057344D01*
X94830880Y-104224976D01*
X94798177Y-104389388D01*
X94734027Y-104544260D01*
X94640895Y-104683641D01*
X94522361Y-104802175D01*
X94382980Y-104895307D01*
X94228108Y-104959457D01*
X94063696Y-104992160D01*
X93896064Y-104992160D01*
X93731652Y-104959457D01*
X93576780Y-104895307D01*
X93437399Y-104802175D01*
X93318865Y-104683641D01*
X93225733Y-104544260D01*
X93161583Y-104389388D01*
X93128880Y-104224976D01*
X93128880Y-104057344D01*
X93161583Y-103892932D01*
X93225733Y-103738060D01*
X93318865Y-103598679D01*
X93437399Y-103480145D01*
X93576780Y-103387013D01*
X93731652Y-103322863D01*
X93896064Y-103290160D01*
X94063696Y-103290160D01*
X94228108Y-103322863D01*
G37*
G36*
X73908108Y-103322863D02*
G01*
X74062980Y-103387013D01*
X74202361Y-103480145D01*
X74320895Y-103598679D01*
X74414027Y-103738060D01*
X74478177Y-103892932D01*
X74510880Y-104057344D01*
X74510880Y-104224976D01*
X74478177Y-104389388D01*
X74414027Y-104544260D01*
X74320895Y-104683641D01*
X74202361Y-104802175D01*
X74062980Y-104895307D01*
X73908108Y-104959457D01*
X73743696Y-104992160D01*
X73576064Y-104992160D01*
X73411652Y-104959457D01*
X73256780Y-104895307D01*
X73117399Y-104802175D01*
X72998865Y-104683641D01*
X72905733Y-104544260D01*
X72841583Y-104389388D01*
X72808880Y-104224976D01*
X72808880Y-104057344D01*
X72841583Y-103892932D01*
X72905733Y-103738060D01*
X72998865Y-103598679D01*
X73117399Y-103480145D01*
X73256780Y-103387013D01*
X73411652Y-103322863D01*
X73576064Y-103290160D01*
X73743696Y-103290160D01*
X73908108Y-103322863D01*
G37*
G36*
X73908108Y-100782863D02*
G01*
X74062980Y-100847013D01*
X74202361Y-100940145D01*
X74320895Y-101058679D01*
X74414027Y-101198060D01*
X74478177Y-101352932D01*
X74510880Y-101517344D01*
X74510880Y-101684976D01*
X74478177Y-101849388D01*
X74414027Y-102004260D01*
X74320895Y-102143641D01*
X74202361Y-102262175D01*
X74062980Y-102355307D01*
X73908108Y-102419457D01*
X73743696Y-102452160D01*
X73576064Y-102452160D01*
X73411652Y-102419457D01*
X73256780Y-102355307D01*
X73117399Y-102262175D01*
X72998865Y-102143641D01*
X72905733Y-102004260D01*
X72841583Y-101849388D01*
X72808880Y-101684976D01*
X72808880Y-101517344D01*
X72841583Y-101352932D01*
X72905733Y-101198060D01*
X72998865Y-101058679D01*
X73117399Y-100940145D01*
X73256780Y-100847013D01*
X73411652Y-100782863D01*
X73576064Y-100750160D01*
X73743696Y-100750160D01*
X73908108Y-100782863D01*
G37*
G36*
X94228108Y-100782863D02*
G01*
X94382980Y-100847013D01*
X94522361Y-100940145D01*
X94640895Y-101058679D01*
X94734027Y-101198060D01*
X94798177Y-101352932D01*
X94830880Y-101517344D01*
X94830880Y-101684976D01*
X94798177Y-101849388D01*
X94734027Y-102004260D01*
X94640895Y-102143641D01*
X94522361Y-102262175D01*
X94382980Y-102355307D01*
X94228108Y-102419457D01*
X94063696Y-102452160D01*
X93896064Y-102452160D01*
X93731652Y-102419457D01*
X93576780Y-102355307D01*
X93437399Y-102262175D01*
X93318865Y-102143641D01*
X93225733Y-102004260D01*
X93161583Y-101849388D01*
X93128880Y-101684976D01*
X93128880Y-101517344D01*
X93161583Y-101352932D01*
X93225733Y-101198060D01*
X93318865Y-101058679D01*
X93437399Y-100940145D01*
X93576780Y-100847013D01*
X93731652Y-100782863D01*
X93896064Y-100750160D01*
X94063696Y-100750160D01*
X94228108Y-100782863D01*
G37*
G36*
X73908108Y-98242863D02*
G01*
X74062980Y-98307013D01*
X74202361Y-98400145D01*
X74320895Y-98518679D01*
X74414027Y-98658060D01*
X74478177Y-98812932D01*
X74510880Y-98977344D01*
X74510880Y-99144976D01*
X74478177Y-99309388D01*
X74414027Y-99464260D01*
X74320895Y-99603641D01*
X74202361Y-99722175D01*
X74062980Y-99815307D01*
X73908108Y-99879457D01*
X73743696Y-99912160D01*
X73576064Y-99912160D01*
X73411652Y-99879457D01*
X73256780Y-99815307D01*
X73117399Y-99722175D01*
X72998865Y-99603641D01*
X72905733Y-99464260D01*
X72841583Y-99309388D01*
X72808880Y-99144976D01*
X72808880Y-98977344D01*
X72841583Y-98812932D01*
X72905733Y-98658060D01*
X72998865Y-98518679D01*
X73117399Y-98400145D01*
X73256780Y-98307013D01*
X73411652Y-98242863D01*
X73576064Y-98210160D01*
X73743696Y-98210160D01*
X73908108Y-98242863D01*
G37*
G36*
X94228108Y-98242863D02*
G01*
X94382980Y-98307013D01*
X94522361Y-98400145D01*
X94640895Y-98518679D01*
X94734027Y-98658060D01*
X94798177Y-98812932D01*
X94830880Y-98977344D01*
X94830880Y-99144976D01*
X94798177Y-99309388D01*
X94734027Y-99464260D01*
X94640895Y-99603641D01*
X94522361Y-99722175D01*
X94382980Y-99815307D01*
X94228108Y-99879457D01*
X94063696Y-99912160D01*
X93896064Y-99912160D01*
X93731652Y-99879457D01*
X93576780Y-99815307D01*
X93437399Y-99722175D01*
X93318865Y-99603641D01*
X93225733Y-99464260D01*
X93161583Y-99309388D01*
X93128880Y-99144976D01*
X93128880Y-98977344D01*
X93161583Y-98812932D01*
X93225733Y-98658060D01*
X93318865Y-98518679D01*
X93437399Y-98400145D01*
X93576780Y-98307013D01*
X93731652Y-98242863D01*
X93896064Y-98210160D01*
X94063696Y-98210160D01*
X94228108Y-98242863D01*
G37*
G36*
X91393674Y-98447465D02*
G01*
X91431367Y-98458899D01*
X91466103Y-98477466D01*
X91496548Y-98502452D01*
X91521534Y-98532897D01*
X91540101Y-98567633D01*
X91551535Y-98605326D01*
X91556000Y-98650661D01*
X91556000Y-99487339D01*
X91551535Y-99532674D01*
X91540101Y-99570367D01*
X91521534Y-99605103D01*
X91496548Y-99635548D01*
X91466103Y-99660534D01*
X91431367Y-99679101D01*
X91393674Y-99690535D01*
X91348339Y-99695000D01*
X90261661Y-99695000D01*
X90216326Y-99690535D01*
X90178633Y-99679101D01*
X90143897Y-99660534D01*
X90113452Y-99635548D01*
X90088466Y-99605103D01*
X90069899Y-99570367D01*
X90058465Y-99532674D01*
X90054000Y-99487339D01*
X90054000Y-98650661D01*
X90058465Y-98605326D01*
X90069899Y-98567633D01*
X90088466Y-98532897D01*
X90113452Y-98502452D01*
X90143897Y-98477466D01*
X90178633Y-98458899D01*
X90216326Y-98447465D01*
X90261661Y-98443000D01*
X91348339Y-98443000D01*
X91393674Y-98447465D01*
G37*
G36*
X91393674Y-96397465D02*
G01*
X91431367Y-96408899D01*
X91466103Y-96427466D01*
X91496548Y-96452452D01*
X91521534Y-96482897D01*
X91540101Y-96517633D01*
X91551535Y-96555326D01*
X91556000Y-96600661D01*
X91556000Y-97437339D01*
X91551535Y-97482674D01*
X91540101Y-97520367D01*
X91521534Y-97555103D01*
X91496548Y-97585548D01*
X91466103Y-97610534D01*
X91431367Y-97629101D01*
X91393674Y-97640535D01*
X91348339Y-97645000D01*
X90261661Y-97645000D01*
X90216326Y-97640535D01*
X90178633Y-97629101D01*
X90143897Y-97610534D01*
X90113452Y-97585548D01*
X90088466Y-97555103D01*
X90069899Y-97520367D01*
X90058465Y-97482674D01*
X90054000Y-97437339D01*
X90054000Y-96600661D01*
X90058465Y-96555326D01*
X90069899Y-96517633D01*
X90088466Y-96482897D01*
X90113452Y-96452452D01*
X90143897Y-96427466D01*
X90178633Y-96408899D01*
X90216326Y-96397465D01*
X90261661Y-96393000D01*
X91348339Y-96393000D01*
X91393674Y-96397465D01*
G37*
G36*
X73908108Y-95702863D02*
G01*
X74062980Y-95767013D01*
X74202361Y-95860145D01*
X74320895Y-95978679D01*
X74414027Y-96118060D01*
X74478177Y-96272932D01*
X74510880Y-96437344D01*
X74510880Y-96604976D01*
X74478177Y-96769388D01*
X74414027Y-96924260D01*
X74320895Y-97063641D01*
X74202361Y-97182175D01*
X74062980Y-97275307D01*
X73908108Y-97339457D01*
X73743696Y-97372160D01*
X73576064Y-97372160D01*
X73411652Y-97339457D01*
X73256780Y-97275307D01*
X73117399Y-97182175D01*
X72998865Y-97063641D01*
X72905733Y-96924260D01*
X72841583Y-96769388D01*
X72808880Y-96604976D01*
X72808880Y-96437344D01*
X72841583Y-96272932D01*
X72905733Y-96118060D01*
X72998865Y-95978679D01*
X73117399Y-95860145D01*
X73256780Y-95767013D01*
X73411652Y-95702863D01*
X73576064Y-95670160D01*
X73743696Y-95670160D01*
X73908108Y-95702863D01*
G37*
G36*
X94228108Y-95702863D02*
G01*
X94382980Y-95767013D01*
X94522361Y-95860145D01*
X94640895Y-95978679D01*
X94734027Y-96118060D01*
X94798177Y-96272932D01*
X94830880Y-96437344D01*
X94830880Y-96604976D01*
X94798177Y-96769388D01*
X94734027Y-96924260D01*
X94640895Y-97063641D01*
X94522361Y-97182175D01*
X94382980Y-97275307D01*
X94228108Y-97339457D01*
X94063696Y-97372160D01*
X93896064Y-97372160D01*
X93731652Y-97339457D01*
X93576780Y-97275307D01*
X93437399Y-97182175D01*
X93318865Y-97063641D01*
X93225733Y-96924260D01*
X93161583Y-96769388D01*
X93128880Y-96604976D01*
X93128880Y-96437344D01*
X93161583Y-96272932D01*
X93225733Y-96118060D01*
X93318865Y-95978679D01*
X93437399Y-95860145D01*
X93576780Y-95767013D01*
X93731652Y-95702863D01*
X93896064Y-95670160D01*
X94063696Y-95670160D01*
X94228108Y-95702863D01*
G37*
M02*
