G04 #@! TF.GenerationSoftware,KiCad,Pcbnew,(5.1.5)-3*
G04 #@! TF.CreationDate,2021-02-17T22:29:51-05:00*
G04 #@! TF.ProjectId,c128-sram256KB,63313238-2d73-4726-916d-3235364b422e,rev?*
G04 #@! TF.SameCoordinates,Original*
G04 #@! TF.FileFunction,Copper,L2,Bot*
G04 #@! TF.FilePolarity,Positive*
%FSLAX46Y46*%
G04 Gerber Fmt 4.6, Leading zero omitted, Abs format (unit mm)*
G04 Created by KiCad (PCBNEW (5.1.5)-3) date 2021-02-17 22:29:51*
%MOMM*%
%LPD*%
G04 APERTURE LIST*
%ADD10O,1.600000X1.600000*%
%ADD11R,1.700000X1.700000*%
%ADD12O,1.700000X1.700000*%
%ADD13C,0.100000*%
%ADD14R,1.100000X0.400000*%
%ADD15C,0.500000*%
%ADD16C,0.800000*%
%ADD17C,0.880000*%
%ADD18C,0.454000*%
%ADD19C,0.288000*%
%ADD20C,0.233000*%
G04 APERTURE END LIST*
D10*
X73659880Y-96521160D03*
X81279880Y-111761160D03*
X73659880Y-99061160D03*
X73659880Y-101601160D03*
X73659880Y-104141160D03*
X73659880Y-106681160D03*
X73659880Y-109221160D03*
X73659880Y-111761160D03*
X73659880Y-114301160D03*
X93979880Y-96521160D03*
X93979880Y-99061160D03*
X93979880Y-101601160D03*
X93979880Y-104141160D03*
X93979880Y-106681160D03*
X93979880Y-109221160D03*
X93979880Y-111761160D03*
D11*
X88900000Y-123190000D03*
D12*
X91440000Y-123190000D03*
X93980000Y-123190000D03*
X86360000Y-123190000D03*
X83820000Y-123190000D03*
D11*
X81280000Y-123190000D03*
X73660000Y-123190000D03*
X76200000Y-123190000D03*
X78740000Y-123190000D03*
G04 #@! TA.AperFunction,SMDPad,CuDef*
D13*
G36*
X91279505Y-98495204D02*
G01*
X91303773Y-98498804D01*
X91327572Y-98504765D01*
X91350671Y-98513030D01*
X91372850Y-98523520D01*
X91393893Y-98536132D01*
X91413599Y-98550747D01*
X91431777Y-98567223D01*
X91448253Y-98585401D01*
X91462868Y-98605107D01*
X91475480Y-98626150D01*
X91485970Y-98648329D01*
X91494235Y-98671428D01*
X91500196Y-98695227D01*
X91503796Y-98719495D01*
X91505000Y-98743999D01*
X91505000Y-99394001D01*
X91503796Y-99418505D01*
X91500196Y-99442773D01*
X91494235Y-99466572D01*
X91485970Y-99489671D01*
X91475480Y-99511850D01*
X91462868Y-99532893D01*
X91448253Y-99552599D01*
X91431777Y-99570777D01*
X91413599Y-99587253D01*
X91393893Y-99601868D01*
X91372850Y-99614480D01*
X91350671Y-99624970D01*
X91327572Y-99633235D01*
X91303773Y-99639196D01*
X91279505Y-99642796D01*
X91255001Y-99644000D01*
X90354999Y-99644000D01*
X90330495Y-99642796D01*
X90306227Y-99639196D01*
X90282428Y-99633235D01*
X90259329Y-99624970D01*
X90237150Y-99614480D01*
X90216107Y-99601868D01*
X90196401Y-99587253D01*
X90178223Y-99570777D01*
X90161747Y-99552599D01*
X90147132Y-99532893D01*
X90134520Y-99511850D01*
X90124030Y-99489671D01*
X90115765Y-99466572D01*
X90109804Y-99442773D01*
X90106204Y-99418505D01*
X90105000Y-99394001D01*
X90105000Y-98743999D01*
X90106204Y-98719495D01*
X90109804Y-98695227D01*
X90115765Y-98671428D01*
X90124030Y-98648329D01*
X90134520Y-98626150D01*
X90147132Y-98605107D01*
X90161747Y-98585401D01*
X90178223Y-98567223D01*
X90196401Y-98550747D01*
X90216107Y-98536132D01*
X90237150Y-98523520D01*
X90259329Y-98513030D01*
X90282428Y-98504765D01*
X90306227Y-98498804D01*
X90330495Y-98495204D01*
X90354999Y-98494000D01*
X91255001Y-98494000D01*
X91279505Y-98495204D01*
G37*
G04 #@! TD.AperFunction*
G04 #@! TA.AperFunction,SMDPad,CuDef*
G36*
X91279505Y-96445204D02*
G01*
X91303773Y-96448804D01*
X91327572Y-96454765D01*
X91350671Y-96463030D01*
X91372850Y-96473520D01*
X91393893Y-96486132D01*
X91413599Y-96500747D01*
X91431777Y-96517223D01*
X91448253Y-96535401D01*
X91462868Y-96555107D01*
X91475480Y-96576150D01*
X91485970Y-96598329D01*
X91494235Y-96621428D01*
X91500196Y-96645227D01*
X91503796Y-96669495D01*
X91505000Y-96693999D01*
X91505000Y-97344001D01*
X91503796Y-97368505D01*
X91500196Y-97392773D01*
X91494235Y-97416572D01*
X91485970Y-97439671D01*
X91475480Y-97461850D01*
X91462868Y-97482893D01*
X91448253Y-97502599D01*
X91431777Y-97520777D01*
X91413599Y-97537253D01*
X91393893Y-97551868D01*
X91372850Y-97564480D01*
X91350671Y-97574970D01*
X91327572Y-97583235D01*
X91303773Y-97589196D01*
X91279505Y-97592796D01*
X91255001Y-97594000D01*
X90354999Y-97594000D01*
X90330495Y-97592796D01*
X90306227Y-97589196D01*
X90282428Y-97583235D01*
X90259329Y-97574970D01*
X90237150Y-97564480D01*
X90216107Y-97551868D01*
X90196401Y-97537253D01*
X90178223Y-97520777D01*
X90161747Y-97502599D01*
X90147132Y-97482893D01*
X90134520Y-97461850D01*
X90124030Y-97439671D01*
X90115765Y-97416572D01*
X90109804Y-97392773D01*
X90106204Y-97368505D01*
X90105000Y-97344001D01*
X90105000Y-96693999D01*
X90106204Y-96669495D01*
X90109804Y-96645227D01*
X90115765Y-96621428D01*
X90124030Y-96598329D01*
X90134520Y-96576150D01*
X90147132Y-96555107D01*
X90161747Y-96535401D01*
X90178223Y-96517223D01*
X90196401Y-96500747D01*
X90216107Y-96486132D01*
X90237150Y-96473520D01*
X90259329Y-96463030D01*
X90282428Y-96454765D01*
X90306227Y-96448804D01*
X90330495Y-96445204D01*
X90354999Y-96444000D01*
X91255001Y-96444000D01*
X91279505Y-96445204D01*
G37*
G04 #@! TD.AperFunction*
G04 #@! TA.AperFunction,SMDPad,CuDef*
G36*
X76794505Y-118046204D02*
G01*
X76818773Y-118049804D01*
X76842572Y-118055765D01*
X76865671Y-118064030D01*
X76887850Y-118074520D01*
X76908893Y-118087132D01*
X76928599Y-118101747D01*
X76946777Y-118118223D01*
X76963253Y-118136401D01*
X76977868Y-118156107D01*
X76990480Y-118177150D01*
X77000970Y-118199329D01*
X77009235Y-118222428D01*
X77015196Y-118246227D01*
X77018796Y-118270495D01*
X77020000Y-118294999D01*
X77020000Y-119195001D01*
X77018796Y-119219505D01*
X77015196Y-119243773D01*
X77009235Y-119267572D01*
X77000970Y-119290671D01*
X76990480Y-119312850D01*
X76977868Y-119333893D01*
X76963253Y-119353599D01*
X76946777Y-119371777D01*
X76928599Y-119388253D01*
X76908893Y-119402868D01*
X76887850Y-119415480D01*
X76865671Y-119425970D01*
X76842572Y-119434235D01*
X76818773Y-119440196D01*
X76794505Y-119443796D01*
X76770001Y-119445000D01*
X76119999Y-119445000D01*
X76095495Y-119443796D01*
X76071227Y-119440196D01*
X76047428Y-119434235D01*
X76024329Y-119425970D01*
X76002150Y-119415480D01*
X75981107Y-119402868D01*
X75961401Y-119388253D01*
X75943223Y-119371777D01*
X75926747Y-119353599D01*
X75912132Y-119333893D01*
X75899520Y-119312850D01*
X75889030Y-119290671D01*
X75880765Y-119267572D01*
X75874804Y-119243773D01*
X75871204Y-119219505D01*
X75870000Y-119195001D01*
X75870000Y-118294999D01*
X75871204Y-118270495D01*
X75874804Y-118246227D01*
X75880765Y-118222428D01*
X75889030Y-118199329D01*
X75899520Y-118177150D01*
X75912132Y-118156107D01*
X75926747Y-118136401D01*
X75943223Y-118118223D01*
X75961401Y-118101747D01*
X75981107Y-118087132D01*
X76002150Y-118074520D01*
X76024329Y-118064030D01*
X76047428Y-118055765D01*
X76071227Y-118049804D01*
X76095495Y-118046204D01*
X76119999Y-118045000D01*
X76770001Y-118045000D01*
X76794505Y-118046204D01*
G37*
G04 #@! TD.AperFunction*
G04 #@! TA.AperFunction,SMDPad,CuDef*
G36*
X78844505Y-118046204D02*
G01*
X78868773Y-118049804D01*
X78892572Y-118055765D01*
X78915671Y-118064030D01*
X78937850Y-118074520D01*
X78958893Y-118087132D01*
X78978599Y-118101747D01*
X78996777Y-118118223D01*
X79013253Y-118136401D01*
X79027868Y-118156107D01*
X79040480Y-118177150D01*
X79050970Y-118199329D01*
X79059235Y-118222428D01*
X79065196Y-118246227D01*
X79068796Y-118270495D01*
X79070000Y-118294999D01*
X79070000Y-119195001D01*
X79068796Y-119219505D01*
X79065196Y-119243773D01*
X79059235Y-119267572D01*
X79050970Y-119290671D01*
X79040480Y-119312850D01*
X79027868Y-119333893D01*
X79013253Y-119353599D01*
X78996777Y-119371777D01*
X78978599Y-119388253D01*
X78958893Y-119402868D01*
X78937850Y-119415480D01*
X78915671Y-119425970D01*
X78892572Y-119434235D01*
X78868773Y-119440196D01*
X78844505Y-119443796D01*
X78820001Y-119445000D01*
X78169999Y-119445000D01*
X78145495Y-119443796D01*
X78121227Y-119440196D01*
X78097428Y-119434235D01*
X78074329Y-119425970D01*
X78052150Y-119415480D01*
X78031107Y-119402868D01*
X78011401Y-119388253D01*
X77993223Y-119371777D01*
X77976747Y-119353599D01*
X77962132Y-119333893D01*
X77949520Y-119312850D01*
X77939030Y-119290671D01*
X77930765Y-119267572D01*
X77924804Y-119243773D01*
X77921204Y-119219505D01*
X77920000Y-119195001D01*
X77920000Y-118294999D01*
X77921204Y-118270495D01*
X77924804Y-118246227D01*
X77930765Y-118222428D01*
X77939030Y-118199329D01*
X77949520Y-118177150D01*
X77962132Y-118156107D01*
X77976747Y-118136401D01*
X77993223Y-118118223D01*
X78011401Y-118101747D01*
X78031107Y-118087132D01*
X78052150Y-118074520D01*
X78074329Y-118064030D01*
X78097428Y-118055765D01*
X78121227Y-118049804D01*
X78145495Y-118046204D01*
X78169999Y-118045000D01*
X78820001Y-118045000D01*
X78844505Y-118046204D01*
G37*
G04 #@! TD.AperFunction*
G04 #@! TA.AperFunction,SMDPad,CuDef*
G36*
X94391005Y-115322704D02*
G01*
X94415273Y-115326304D01*
X94439072Y-115332265D01*
X94462171Y-115340530D01*
X94484350Y-115351020D01*
X94505393Y-115363632D01*
X94525099Y-115378247D01*
X94543277Y-115394723D01*
X94559753Y-115412901D01*
X94574368Y-115432607D01*
X94586980Y-115453650D01*
X94597470Y-115475829D01*
X94605735Y-115498928D01*
X94611696Y-115522727D01*
X94615296Y-115546995D01*
X94616500Y-115571499D01*
X94616500Y-116221501D01*
X94615296Y-116246005D01*
X94611696Y-116270273D01*
X94605735Y-116294072D01*
X94597470Y-116317171D01*
X94586980Y-116339350D01*
X94574368Y-116360393D01*
X94559753Y-116380099D01*
X94543277Y-116398277D01*
X94525099Y-116414753D01*
X94505393Y-116429368D01*
X94484350Y-116441980D01*
X94462171Y-116452470D01*
X94439072Y-116460735D01*
X94415273Y-116466696D01*
X94391005Y-116470296D01*
X94366501Y-116471500D01*
X93466499Y-116471500D01*
X93441995Y-116470296D01*
X93417727Y-116466696D01*
X93393928Y-116460735D01*
X93370829Y-116452470D01*
X93348650Y-116441980D01*
X93327607Y-116429368D01*
X93307901Y-116414753D01*
X93289723Y-116398277D01*
X93273247Y-116380099D01*
X93258632Y-116360393D01*
X93246020Y-116339350D01*
X93235530Y-116317171D01*
X93227265Y-116294072D01*
X93221304Y-116270273D01*
X93217704Y-116246005D01*
X93216500Y-116221501D01*
X93216500Y-115571499D01*
X93217704Y-115546995D01*
X93221304Y-115522727D01*
X93227265Y-115498928D01*
X93235530Y-115475829D01*
X93246020Y-115453650D01*
X93258632Y-115432607D01*
X93273247Y-115412901D01*
X93289723Y-115394723D01*
X93307901Y-115378247D01*
X93327607Y-115363632D01*
X93348650Y-115351020D01*
X93370829Y-115340530D01*
X93393928Y-115332265D01*
X93417727Y-115326304D01*
X93441995Y-115322704D01*
X93466499Y-115321500D01*
X94366501Y-115321500D01*
X94391005Y-115322704D01*
G37*
G04 #@! TD.AperFunction*
G04 #@! TA.AperFunction,SMDPad,CuDef*
G36*
X94391005Y-113272704D02*
G01*
X94415273Y-113276304D01*
X94439072Y-113282265D01*
X94462171Y-113290530D01*
X94484350Y-113301020D01*
X94505393Y-113313632D01*
X94525099Y-113328247D01*
X94543277Y-113344723D01*
X94559753Y-113362901D01*
X94574368Y-113382607D01*
X94586980Y-113403650D01*
X94597470Y-113425829D01*
X94605735Y-113448928D01*
X94611696Y-113472727D01*
X94615296Y-113496995D01*
X94616500Y-113521499D01*
X94616500Y-114171501D01*
X94615296Y-114196005D01*
X94611696Y-114220273D01*
X94605735Y-114244072D01*
X94597470Y-114267171D01*
X94586980Y-114289350D01*
X94574368Y-114310393D01*
X94559753Y-114330099D01*
X94543277Y-114348277D01*
X94525099Y-114364753D01*
X94505393Y-114379368D01*
X94484350Y-114391980D01*
X94462171Y-114402470D01*
X94439072Y-114410735D01*
X94415273Y-114416696D01*
X94391005Y-114420296D01*
X94366501Y-114421500D01*
X93466499Y-114421500D01*
X93441995Y-114420296D01*
X93417727Y-114416696D01*
X93393928Y-114410735D01*
X93370829Y-114402470D01*
X93348650Y-114391980D01*
X93327607Y-114379368D01*
X93307901Y-114364753D01*
X93289723Y-114348277D01*
X93273247Y-114330099D01*
X93258632Y-114310393D01*
X93246020Y-114289350D01*
X93235530Y-114267171D01*
X93227265Y-114244072D01*
X93221304Y-114220273D01*
X93217704Y-114196005D01*
X93216500Y-114171501D01*
X93216500Y-113521499D01*
X93217704Y-113496995D01*
X93221304Y-113472727D01*
X93227265Y-113448928D01*
X93235530Y-113425829D01*
X93246020Y-113403650D01*
X93258632Y-113382607D01*
X93273247Y-113362901D01*
X93289723Y-113344723D01*
X93307901Y-113328247D01*
X93327607Y-113313632D01*
X93348650Y-113301020D01*
X93370829Y-113290530D01*
X93393928Y-113282265D01*
X93417727Y-113276304D01*
X93441995Y-113272704D01*
X93466499Y-113271500D01*
X94366501Y-113271500D01*
X94391005Y-113272704D01*
G37*
G04 #@! TD.AperFunction*
G04 #@! TA.AperFunction,SMDPad,CuDef*
G36*
X76794505Y-119951204D02*
G01*
X76818773Y-119954804D01*
X76842572Y-119960765D01*
X76865671Y-119969030D01*
X76887850Y-119979520D01*
X76908893Y-119992132D01*
X76928599Y-120006747D01*
X76946777Y-120023223D01*
X76963253Y-120041401D01*
X76977868Y-120061107D01*
X76990480Y-120082150D01*
X77000970Y-120104329D01*
X77009235Y-120127428D01*
X77015196Y-120151227D01*
X77018796Y-120175495D01*
X77020000Y-120199999D01*
X77020000Y-121100001D01*
X77018796Y-121124505D01*
X77015196Y-121148773D01*
X77009235Y-121172572D01*
X77000970Y-121195671D01*
X76990480Y-121217850D01*
X76977868Y-121238893D01*
X76963253Y-121258599D01*
X76946777Y-121276777D01*
X76928599Y-121293253D01*
X76908893Y-121307868D01*
X76887850Y-121320480D01*
X76865671Y-121330970D01*
X76842572Y-121339235D01*
X76818773Y-121345196D01*
X76794505Y-121348796D01*
X76770001Y-121350000D01*
X76119999Y-121350000D01*
X76095495Y-121348796D01*
X76071227Y-121345196D01*
X76047428Y-121339235D01*
X76024329Y-121330970D01*
X76002150Y-121320480D01*
X75981107Y-121307868D01*
X75961401Y-121293253D01*
X75943223Y-121276777D01*
X75926747Y-121258599D01*
X75912132Y-121238893D01*
X75899520Y-121217850D01*
X75889030Y-121195671D01*
X75880765Y-121172572D01*
X75874804Y-121148773D01*
X75871204Y-121124505D01*
X75870000Y-121100001D01*
X75870000Y-120199999D01*
X75871204Y-120175495D01*
X75874804Y-120151227D01*
X75880765Y-120127428D01*
X75889030Y-120104329D01*
X75899520Y-120082150D01*
X75912132Y-120061107D01*
X75926747Y-120041401D01*
X75943223Y-120023223D01*
X75961401Y-120006747D01*
X75981107Y-119992132D01*
X76002150Y-119979520D01*
X76024329Y-119969030D01*
X76047428Y-119960765D01*
X76071227Y-119954804D01*
X76095495Y-119951204D01*
X76119999Y-119950000D01*
X76770001Y-119950000D01*
X76794505Y-119951204D01*
G37*
G04 #@! TD.AperFunction*
G04 #@! TA.AperFunction,SMDPad,CuDef*
G36*
X78844505Y-119951204D02*
G01*
X78868773Y-119954804D01*
X78892572Y-119960765D01*
X78915671Y-119969030D01*
X78937850Y-119979520D01*
X78958893Y-119992132D01*
X78978599Y-120006747D01*
X78996777Y-120023223D01*
X79013253Y-120041401D01*
X79027868Y-120061107D01*
X79040480Y-120082150D01*
X79050970Y-120104329D01*
X79059235Y-120127428D01*
X79065196Y-120151227D01*
X79068796Y-120175495D01*
X79070000Y-120199999D01*
X79070000Y-121100001D01*
X79068796Y-121124505D01*
X79065196Y-121148773D01*
X79059235Y-121172572D01*
X79050970Y-121195671D01*
X79040480Y-121217850D01*
X79027868Y-121238893D01*
X79013253Y-121258599D01*
X78996777Y-121276777D01*
X78978599Y-121293253D01*
X78958893Y-121307868D01*
X78937850Y-121320480D01*
X78915671Y-121330970D01*
X78892572Y-121339235D01*
X78868773Y-121345196D01*
X78844505Y-121348796D01*
X78820001Y-121350000D01*
X78169999Y-121350000D01*
X78145495Y-121348796D01*
X78121227Y-121345196D01*
X78097428Y-121339235D01*
X78074329Y-121330970D01*
X78052150Y-121320480D01*
X78031107Y-121307868D01*
X78011401Y-121293253D01*
X77993223Y-121276777D01*
X77976747Y-121258599D01*
X77962132Y-121238893D01*
X77949520Y-121217850D01*
X77939030Y-121195671D01*
X77930765Y-121172572D01*
X77924804Y-121148773D01*
X77921204Y-121124505D01*
X77920000Y-121100001D01*
X77920000Y-120199999D01*
X77921204Y-120175495D01*
X77924804Y-120151227D01*
X77930765Y-120127428D01*
X77939030Y-120104329D01*
X77949520Y-120082150D01*
X77962132Y-120061107D01*
X77976747Y-120041401D01*
X77993223Y-120023223D01*
X78011401Y-120006747D01*
X78031107Y-119992132D01*
X78052150Y-119979520D01*
X78074329Y-119969030D01*
X78097428Y-119960765D01*
X78121227Y-119954804D01*
X78145495Y-119951204D01*
X78169999Y-119950000D01*
X78820001Y-119950000D01*
X78844505Y-119951204D01*
G37*
G04 #@! TD.AperFunction*
G04 #@! TA.AperFunction,SMDPad,CuDef*
G36*
X78844505Y-116141204D02*
G01*
X78868773Y-116144804D01*
X78892572Y-116150765D01*
X78915671Y-116159030D01*
X78937850Y-116169520D01*
X78958893Y-116182132D01*
X78978599Y-116196747D01*
X78996777Y-116213223D01*
X79013253Y-116231401D01*
X79027868Y-116251107D01*
X79040480Y-116272150D01*
X79050970Y-116294329D01*
X79059235Y-116317428D01*
X79065196Y-116341227D01*
X79068796Y-116365495D01*
X79070000Y-116389999D01*
X79070000Y-117290001D01*
X79068796Y-117314505D01*
X79065196Y-117338773D01*
X79059235Y-117362572D01*
X79050970Y-117385671D01*
X79040480Y-117407850D01*
X79027868Y-117428893D01*
X79013253Y-117448599D01*
X78996777Y-117466777D01*
X78978599Y-117483253D01*
X78958893Y-117497868D01*
X78937850Y-117510480D01*
X78915671Y-117520970D01*
X78892572Y-117529235D01*
X78868773Y-117535196D01*
X78844505Y-117538796D01*
X78820001Y-117540000D01*
X78169999Y-117540000D01*
X78145495Y-117538796D01*
X78121227Y-117535196D01*
X78097428Y-117529235D01*
X78074329Y-117520970D01*
X78052150Y-117510480D01*
X78031107Y-117497868D01*
X78011401Y-117483253D01*
X77993223Y-117466777D01*
X77976747Y-117448599D01*
X77962132Y-117428893D01*
X77949520Y-117407850D01*
X77939030Y-117385671D01*
X77930765Y-117362572D01*
X77924804Y-117338773D01*
X77921204Y-117314505D01*
X77920000Y-117290001D01*
X77920000Y-116389999D01*
X77921204Y-116365495D01*
X77924804Y-116341227D01*
X77930765Y-116317428D01*
X77939030Y-116294329D01*
X77949520Y-116272150D01*
X77962132Y-116251107D01*
X77976747Y-116231401D01*
X77993223Y-116213223D01*
X78011401Y-116196747D01*
X78031107Y-116182132D01*
X78052150Y-116169520D01*
X78074329Y-116159030D01*
X78097428Y-116150765D01*
X78121227Y-116144804D01*
X78145495Y-116141204D01*
X78169999Y-116140000D01*
X78820001Y-116140000D01*
X78844505Y-116141204D01*
G37*
G04 #@! TD.AperFunction*
G04 #@! TA.AperFunction,SMDPad,CuDef*
G36*
X76794505Y-116141204D02*
G01*
X76818773Y-116144804D01*
X76842572Y-116150765D01*
X76865671Y-116159030D01*
X76887850Y-116169520D01*
X76908893Y-116182132D01*
X76928599Y-116196747D01*
X76946777Y-116213223D01*
X76963253Y-116231401D01*
X76977868Y-116251107D01*
X76990480Y-116272150D01*
X77000970Y-116294329D01*
X77009235Y-116317428D01*
X77015196Y-116341227D01*
X77018796Y-116365495D01*
X77020000Y-116389999D01*
X77020000Y-117290001D01*
X77018796Y-117314505D01*
X77015196Y-117338773D01*
X77009235Y-117362572D01*
X77000970Y-117385671D01*
X76990480Y-117407850D01*
X76977868Y-117428893D01*
X76963253Y-117448599D01*
X76946777Y-117466777D01*
X76928599Y-117483253D01*
X76908893Y-117497868D01*
X76887850Y-117510480D01*
X76865671Y-117520970D01*
X76842572Y-117529235D01*
X76818773Y-117535196D01*
X76794505Y-117538796D01*
X76770001Y-117540000D01*
X76119999Y-117540000D01*
X76095495Y-117538796D01*
X76071227Y-117535196D01*
X76047428Y-117529235D01*
X76024329Y-117520970D01*
X76002150Y-117510480D01*
X75981107Y-117497868D01*
X75961401Y-117483253D01*
X75943223Y-117466777D01*
X75926747Y-117448599D01*
X75912132Y-117428893D01*
X75899520Y-117407850D01*
X75889030Y-117385671D01*
X75880765Y-117362572D01*
X75874804Y-117338773D01*
X75871204Y-117314505D01*
X75870000Y-117290001D01*
X75870000Y-116389999D01*
X75871204Y-116365495D01*
X75874804Y-116341227D01*
X75880765Y-116317428D01*
X75889030Y-116294329D01*
X75899520Y-116272150D01*
X75912132Y-116251107D01*
X75926747Y-116231401D01*
X75943223Y-116213223D01*
X75961401Y-116196747D01*
X75981107Y-116182132D01*
X76002150Y-116169520D01*
X76024329Y-116159030D01*
X76047428Y-116150765D01*
X76071227Y-116144804D01*
X76095495Y-116141204D01*
X76119999Y-116140000D01*
X76770001Y-116140000D01*
X76794505Y-116141204D01*
G37*
G04 #@! TD.AperFunction*
G04 #@! TA.AperFunction,SMDPad,CuDef*
G36*
X91350703Y-108434722D02*
G01*
X91365264Y-108436882D01*
X91379543Y-108440459D01*
X91393403Y-108445418D01*
X91406710Y-108451712D01*
X91419336Y-108459280D01*
X91431159Y-108468048D01*
X91442066Y-108477934D01*
X91451952Y-108488841D01*
X91460720Y-108500664D01*
X91468288Y-108513290D01*
X91474582Y-108526597D01*
X91479541Y-108540457D01*
X91483118Y-108554736D01*
X91485278Y-108569297D01*
X91486000Y-108584000D01*
X91486000Y-110234000D01*
X91485278Y-110248703D01*
X91483118Y-110263264D01*
X91479541Y-110277543D01*
X91474582Y-110291403D01*
X91468288Y-110304710D01*
X91460720Y-110317336D01*
X91451952Y-110329159D01*
X91442066Y-110340066D01*
X91431159Y-110349952D01*
X91419336Y-110358720D01*
X91406710Y-110366288D01*
X91393403Y-110372582D01*
X91379543Y-110377541D01*
X91365264Y-110381118D01*
X91350703Y-110383278D01*
X91336000Y-110384000D01*
X91036000Y-110384000D01*
X91021297Y-110383278D01*
X91006736Y-110381118D01*
X90992457Y-110377541D01*
X90978597Y-110372582D01*
X90965290Y-110366288D01*
X90952664Y-110358720D01*
X90940841Y-110349952D01*
X90929934Y-110340066D01*
X90920048Y-110329159D01*
X90911280Y-110317336D01*
X90903712Y-110304710D01*
X90897418Y-110291403D01*
X90892459Y-110277543D01*
X90888882Y-110263264D01*
X90886722Y-110248703D01*
X90886000Y-110234000D01*
X90886000Y-108584000D01*
X90886722Y-108569297D01*
X90888882Y-108554736D01*
X90892459Y-108540457D01*
X90897418Y-108526597D01*
X90903712Y-108513290D01*
X90911280Y-108500664D01*
X90920048Y-108488841D01*
X90929934Y-108477934D01*
X90940841Y-108468048D01*
X90952664Y-108459280D01*
X90965290Y-108451712D01*
X90978597Y-108445418D01*
X90992457Y-108440459D01*
X91006736Y-108436882D01*
X91021297Y-108434722D01*
X91036000Y-108434000D01*
X91336000Y-108434000D01*
X91350703Y-108434722D01*
G37*
G04 #@! TD.AperFunction*
G04 #@! TA.AperFunction,SMDPad,CuDef*
G36*
X90080703Y-108434722D02*
G01*
X90095264Y-108436882D01*
X90109543Y-108440459D01*
X90123403Y-108445418D01*
X90136710Y-108451712D01*
X90149336Y-108459280D01*
X90161159Y-108468048D01*
X90172066Y-108477934D01*
X90181952Y-108488841D01*
X90190720Y-108500664D01*
X90198288Y-108513290D01*
X90204582Y-108526597D01*
X90209541Y-108540457D01*
X90213118Y-108554736D01*
X90215278Y-108569297D01*
X90216000Y-108584000D01*
X90216000Y-110234000D01*
X90215278Y-110248703D01*
X90213118Y-110263264D01*
X90209541Y-110277543D01*
X90204582Y-110291403D01*
X90198288Y-110304710D01*
X90190720Y-110317336D01*
X90181952Y-110329159D01*
X90172066Y-110340066D01*
X90161159Y-110349952D01*
X90149336Y-110358720D01*
X90136710Y-110366288D01*
X90123403Y-110372582D01*
X90109543Y-110377541D01*
X90095264Y-110381118D01*
X90080703Y-110383278D01*
X90066000Y-110384000D01*
X89766000Y-110384000D01*
X89751297Y-110383278D01*
X89736736Y-110381118D01*
X89722457Y-110377541D01*
X89708597Y-110372582D01*
X89695290Y-110366288D01*
X89682664Y-110358720D01*
X89670841Y-110349952D01*
X89659934Y-110340066D01*
X89650048Y-110329159D01*
X89641280Y-110317336D01*
X89633712Y-110304710D01*
X89627418Y-110291403D01*
X89622459Y-110277543D01*
X89618882Y-110263264D01*
X89616722Y-110248703D01*
X89616000Y-110234000D01*
X89616000Y-108584000D01*
X89616722Y-108569297D01*
X89618882Y-108554736D01*
X89622459Y-108540457D01*
X89627418Y-108526597D01*
X89633712Y-108513290D01*
X89641280Y-108500664D01*
X89650048Y-108488841D01*
X89659934Y-108477934D01*
X89670841Y-108468048D01*
X89682664Y-108459280D01*
X89695290Y-108451712D01*
X89708597Y-108445418D01*
X89722457Y-108440459D01*
X89736736Y-108436882D01*
X89751297Y-108434722D01*
X89766000Y-108434000D01*
X90066000Y-108434000D01*
X90080703Y-108434722D01*
G37*
G04 #@! TD.AperFunction*
G04 #@! TA.AperFunction,SMDPad,CuDef*
G36*
X88810703Y-108434722D02*
G01*
X88825264Y-108436882D01*
X88839543Y-108440459D01*
X88853403Y-108445418D01*
X88866710Y-108451712D01*
X88879336Y-108459280D01*
X88891159Y-108468048D01*
X88902066Y-108477934D01*
X88911952Y-108488841D01*
X88920720Y-108500664D01*
X88928288Y-108513290D01*
X88934582Y-108526597D01*
X88939541Y-108540457D01*
X88943118Y-108554736D01*
X88945278Y-108569297D01*
X88946000Y-108584000D01*
X88946000Y-110234000D01*
X88945278Y-110248703D01*
X88943118Y-110263264D01*
X88939541Y-110277543D01*
X88934582Y-110291403D01*
X88928288Y-110304710D01*
X88920720Y-110317336D01*
X88911952Y-110329159D01*
X88902066Y-110340066D01*
X88891159Y-110349952D01*
X88879336Y-110358720D01*
X88866710Y-110366288D01*
X88853403Y-110372582D01*
X88839543Y-110377541D01*
X88825264Y-110381118D01*
X88810703Y-110383278D01*
X88796000Y-110384000D01*
X88496000Y-110384000D01*
X88481297Y-110383278D01*
X88466736Y-110381118D01*
X88452457Y-110377541D01*
X88438597Y-110372582D01*
X88425290Y-110366288D01*
X88412664Y-110358720D01*
X88400841Y-110349952D01*
X88389934Y-110340066D01*
X88380048Y-110329159D01*
X88371280Y-110317336D01*
X88363712Y-110304710D01*
X88357418Y-110291403D01*
X88352459Y-110277543D01*
X88348882Y-110263264D01*
X88346722Y-110248703D01*
X88346000Y-110234000D01*
X88346000Y-108584000D01*
X88346722Y-108569297D01*
X88348882Y-108554736D01*
X88352459Y-108540457D01*
X88357418Y-108526597D01*
X88363712Y-108513290D01*
X88371280Y-108500664D01*
X88380048Y-108488841D01*
X88389934Y-108477934D01*
X88400841Y-108468048D01*
X88412664Y-108459280D01*
X88425290Y-108451712D01*
X88438597Y-108445418D01*
X88452457Y-108440459D01*
X88466736Y-108436882D01*
X88481297Y-108434722D01*
X88496000Y-108434000D01*
X88796000Y-108434000D01*
X88810703Y-108434722D01*
G37*
G04 #@! TD.AperFunction*
G04 #@! TA.AperFunction,SMDPad,CuDef*
G36*
X87540703Y-108434722D02*
G01*
X87555264Y-108436882D01*
X87569543Y-108440459D01*
X87583403Y-108445418D01*
X87596710Y-108451712D01*
X87609336Y-108459280D01*
X87621159Y-108468048D01*
X87632066Y-108477934D01*
X87641952Y-108488841D01*
X87650720Y-108500664D01*
X87658288Y-108513290D01*
X87664582Y-108526597D01*
X87669541Y-108540457D01*
X87673118Y-108554736D01*
X87675278Y-108569297D01*
X87676000Y-108584000D01*
X87676000Y-110234000D01*
X87675278Y-110248703D01*
X87673118Y-110263264D01*
X87669541Y-110277543D01*
X87664582Y-110291403D01*
X87658288Y-110304710D01*
X87650720Y-110317336D01*
X87641952Y-110329159D01*
X87632066Y-110340066D01*
X87621159Y-110349952D01*
X87609336Y-110358720D01*
X87596710Y-110366288D01*
X87583403Y-110372582D01*
X87569543Y-110377541D01*
X87555264Y-110381118D01*
X87540703Y-110383278D01*
X87526000Y-110384000D01*
X87226000Y-110384000D01*
X87211297Y-110383278D01*
X87196736Y-110381118D01*
X87182457Y-110377541D01*
X87168597Y-110372582D01*
X87155290Y-110366288D01*
X87142664Y-110358720D01*
X87130841Y-110349952D01*
X87119934Y-110340066D01*
X87110048Y-110329159D01*
X87101280Y-110317336D01*
X87093712Y-110304710D01*
X87087418Y-110291403D01*
X87082459Y-110277543D01*
X87078882Y-110263264D01*
X87076722Y-110248703D01*
X87076000Y-110234000D01*
X87076000Y-108584000D01*
X87076722Y-108569297D01*
X87078882Y-108554736D01*
X87082459Y-108540457D01*
X87087418Y-108526597D01*
X87093712Y-108513290D01*
X87101280Y-108500664D01*
X87110048Y-108488841D01*
X87119934Y-108477934D01*
X87130841Y-108468048D01*
X87142664Y-108459280D01*
X87155290Y-108451712D01*
X87168597Y-108445418D01*
X87182457Y-108440459D01*
X87196736Y-108436882D01*
X87211297Y-108434722D01*
X87226000Y-108434000D01*
X87526000Y-108434000D01*
X87540703Y-108434722D01*
G37*
G04 #@! TD.AperFunction*
G04 #@! TA.AperFunction,SMDPad,CuDef*
G36*
X86270703Y-108434722D02*
G01*
X86285264Y-108436882D01*
X86299543Y-108440459D01*
X86313403Y-108445418D01*
X86326710Y-108451712D01*
X86339336Y-108459280D01*
X86351159Y-108468048D01*
X86362066Y-108477934D01*
X86371952Y-108488841D01*
X86380720Y-108500664D01*
X86388288Y-108513290D01*
X86394582Y-108526597D01*
X86399541Y-108540457D01*
X86403118Y-108554736D01*
X86405278Y-108569297D01*
X86406000Y-108584000D01*
X86406000Y-110234000D01*
X86405278Y-110248703D01*
X86403118Y-110263264D01*
X86399541Y-110277543D01*
X86394582Y-110291403D01*
X86388288Y-110304710D01*
X86380720Y-110317336D01*
X86371952Y-110329159D01*
X86362066Y-110340066D01*
X86351159Y-110349952D01*
X86339336Y-110358720D01*
X86326710Y-110366288D01*
X86313403Y-110372582D01*
X86299543Y-110377541D01*
X86285264Y-110381118D01*
X86270703Y-110383278D01*
X86256000Y-110384000D01*
X85956000Y-110384000D01*
X85941297Y-110383278D01*
X85926736Y-110381118D01*
X85912457Y-110377541D01*
X85898597Y-110372582D01*
X85885290Y-110366288D01*
X85872664Y-110358720D01*
X85860841Y-110349952D01*
X85849934Y-110340066D01*
X85840048Y-110329159D01*
X85831280Y-110317336D01*
X85823712Y-110304710D01*
X85817418Y-110291403D01*
X85812459Y-110277543D01*
X85808882Y-110263264D01*
X85806722Y-110248703D01*
X85806000Y-110234000D01*
X85806000Y-108584000D01*
X85806722Y-108569297D01*
X85808882Y-108554736D01*
X85812459Y-108540457D01*
X85817418Y-108526597D01*
X85823712Y-108513290D01*
X85831280Y-108500664D01*
X85840048Y-108488841D01*
X85849934Y-108477934D01*
X85860841Y-108468048D01*
X85872664Y-108459280D01*
X85885290Y-108451712D01*
X85898597Y-108445418D01*
X85912457Y-108440459D01*
X85926736Y-108436882D01*
X85941297Y-108434722D01*
X85956000Y-108434000D01*
X86256000Y-108434000D01*
X86270703Y-108434722D01*
G37*
G04 #@! TD.AperFunction*
G04 #@! TA.AperFunction,SMDPad,CuDef*
G36*
X85000703Y-108434722D02*
G01*
X85015264Y-108436882D01*
X85029543Y-108440459D01*
X85043403Y-108445418D01*
X85056710Y-108451712D01*
X85069336Y-108459280D01*
X85081159Y-108468048D01*
X85092066Y-108477934D01*
X85101952Y-108488841D01*
X85110720Y-108500664D01*
X85118288Y-108513290D01*
X85124582Y-108526597D01*
X85129541Y-108540457D01*
X85133118Y-108554736D01*
X85135278Y-108569297D01*
X85136000Y-108584000D01*
X85136000Y-110234000D01*
X85135278Y-110248703D01*
X85133118Y-110263264D01*
X85129541Y-110277543D01*
X85124582Y-110291403D01*
X85118288Y-110304710D01*
X85110720Y-110317336D01*
X85101952Y-110329159D01*
X85092066Y-110340066D01*
X85081159Y-110349952D01*
X85069336Y-110358720D01*
X85056710Y-110366288D01*
X85043403Y-110372582D01*
X85029543Y-110377541D01*
X85015264Y-110381118D01*
X85000703Y-110383278D01*
X84986000Y-110384000D01*
X84686000Y-110384000D01*
X84671297Y-110383278D01*
X84656736Y-110381118D01*
X84642457Y-110377541D01*
X84628597Y-110372582D01*
X84615290Y-110366288D01*
X84602664Y-110358720D01*
X84590841Y-110349952D01*
X84579934Y-110340066D01*
X84570048Y-110329159D01*
X84561280Y-110317336D01*
X84553712Y-110304710D01*
X84547418Y-110291403D01*
X84542459Y-110277543D01*
X84538882Y-110263264D01*
X84536722Y-110248703D01*
X84536000Y-110234000D01*
X84536000Y-108584000D01*
X84536722Y-108569297D01*
X84538882Y-108554736D01*
X84542459Y-108540457D01*
X84547418Y-108526597D01*
X84553712Y-108513290D01*
X84561280Y-108500664D01*
X84570048Y-108488841D01*
X84579934Y-108477934D01*
X84590841Y-108468048D01*
X84602664Y-108459280D01*
X84615290Y-108451712D01*
X84628597Y-108445418D01*
X84642457Y-108440459D01*
X84656736Y-108436882D01*
X84671297Y-108434722D01*
X84686000Y-108434000D01*
X84986000Y-108434000D01*
X85000703Y-108434722D01*
G37*
G04 #@! TD.AperFunction*
G04 #@! TA.AperFunction,SMDPad,CuDef*
G36*
X83730703Y-108434722D02*
G01*
X83745264Y-108436882D01*
X83759543Y-108440459D01*
X83773403Y-108445418D01*
X83786710Y-108451712D01*
X83799336Y-108459280D01*
X83811159Y-108468048D01*
X83822066Y-108477934D01*
X83831952Y-108488841D01*
X83840720Y-108500664D01*
X83848288Y-108513290D01*
X83854582Y-108526597D01*
X83859541Y-108540457D01*
X83863118Y-108554736D01*
X83865278Y-108569297D01*
X83866000Y-108584000D01*
X83866000Y-110234000D01*
X83865278Y-110248703D01*
X83863118Y-110263264D01*
X83859541Y-110277543D01*
X83854582Y-110291403D01*
X83848288Y-110304710D01*
X83840720Y-110317336D01*
X83831952Y-110329159D01*
X83822066Y-110340066D01*
X83811159Y-110349952D01*
X83799336Y-110358720D01*
X83786710Y-110366288D01*
X83773403Y-110372582D01*
X83759543Y-110377541D01*
X83745264Y-110381118D01*
X83730703Y-110383278D01*
X83716000Y-110384000D01*
X83416000Y-110384000D01*
X83401297Y-110383278D01*
X83386736Y-110381118D01*
X83372457Y-110377541D01*
X83358597Y-110372582D01*
X83345290Y-110366288D01*
X83332664Y-110358720D01*
X83320841Y-110349952D01*
X83309934Y-110340066D01*
X83300048Y-110329159D01*
X83291280Y-110317336D01*
X83283712Y-110304710D01*
X83277418Y-110291403D01*
X83272459Y-110277543D01*
X83268882Y-110263264D01*
X83266722Y-110248703D01*
X83266000Y-110234000D01*
X83266000Y-108584000D01*
X83266722Y-108569297D01*
X83268882Y-108554736D01*
X83272459Y-108540457D01*
X83277418Y-108526597D01*
X83283712Y-108513290D01*
X83291280Y-108500664D01*
X83300048Y-108488841D01*
X83309934Y-108477934D01*
X83320841Y-108468048D01*
X83332664Y-108459280D01*
X83345290Y-108451712D01*
X83358597Y-108445418D01*
X83372457Y-108440459D01*
X83386736Y-108436882D01*
X83401297Y-108434722D01*
X83416000Y-108434000D01*
X83716000Y-108434000D01*
X83730703Y-108434722D01*
G37*
G04 #@! TD.AperFunction*
G04 #@! TA.AperFunction,SMDPad,CuDef*
G36*
X83730703Y-103484722D02*
G01*
X83745264Y-103486882D01*
X83759543Y-103490459D01*
X83773403Y-103495418D01*
X83786710Y-103501712D01*
X83799336Y-103509280D01*
X83811159Y-103518048D01*
X83822066Y-103527934D01*
X83831952Y-103538841D01*
X83840720Y-103550664D01*
X83848288Y-103563290D01*
X83854582Y-103576597D01*
X83859541Y-103590457D01*
X83863118Y-103604736D01*
X83865278Y-103619297D01*
X83866000Y-103634000D01*
X83866000Y-105284000D01*
X83865278Y-105298703D01*
X83863118Y-105313264D01*
X83859541Y-105327543D01*
X83854582Y-105341403D01*
X83848288Y-105354710D01*
X83840720Y-105367336D01*
X83831952Y-105379159D01*
X83822066Y-105390066D01*
X83811159Y-105399952D01*
X83799336Y-105408720D01*
X83786710Y-105416288D01*
X83773403Y-105422582D01*
X83759543Y-105427541D01*
X83745264Y-105431118D01*
X83730703Y-105433278D01*
X83716000Y-105434000D01*
X83416000Y-105434000D01*
X83401297Y-105433278D01*
X83386736Y-105431118D01*
X83372457Y-105427541D01*
X83358597Y-105422582D01*
X83345290Y-105416288D01*
X83332664Y-105408720D01*
X83320841Y-105399952D01*
X83309934Y-105390066D01*
X83300048Y-105379159D01*
X83291280Y-105367336D01*
X83283712Y-105354710D01*
X83277418Y-105341403D01*
X83272459Y-105327543D01*
X83268882Y-105313264D01*
X83266722Y-105298703D01*
X83266000Y-105284000D01*
X83266000Y-103634000D01*
X83266722Y-103619297D01*
X83268882Y-103604736D01*
X83272459Y-103590457D01*
X83277418Y-103576597D01*
X83283712Y-103563290D01*
X83291280Y-103550664D01*
X83300048Y-103538841D01*
X83309934Y-103527934D01*
X83320841Y-103518048D01*
X83332664Y-103509280D01*
X83345290Y-103501712D01*
X83358597Y-103495418D01*
X83372457Y-103490459D01*
X83386736Y-103486882D01*
X83401297Y-103484722D01*
X83416000Y-103484000D01*
X83716000Y-103484000D01*
X83730703Y-103484722D01*
G37*
G04 #@! TD.AperFunction*
G04 #@! TA.AperFunction,SMDPad,CuDef*
G36*
X85000703Y-103484722D02*
G01*
X85015264Y-103486882D01*
X85029543Y-103490459D01*
X85043403Y-103495418D01*
X85056710Y-103501712D01*
X85069336Y-103509280D01*
X85081159Y-103518048D01*
X85092066Y-103527934D01*
X85101952Y-103538841D01*
X85110720Y-103550664D01*
X85118288Y-103563290D01*
X85124582Y-103576597D01*
X85129541Y-103590457D01*
X85133118Y-103604736D01*
X85135278Y-103619297D01*
X85136000Y-103634000D01*
X85136000Y-105284000D01*
X85135278Y-105298703D01*
X85133118Y-105313264D01*
X85129541Y-105327543D01*
X85124582Y-105341403D01*
X85118288Y-105354710D01*
X85110720Y-105367336D01*
X85101952Y-105379159D01*
X85092066Y-105390066D01*
X85081159Y-105399952D01*
X85069336Y-105408720D01*
X85056710Y-105416288D01*
X85043403Y-105422582D01*
X85029543Y-105427541D01*
X85015264Y-105431118D01*
X85000703Y-105433278D01*
X84986000Y-105434000D01*
X84686000Y-105434000D01*
X84671297Y-105433278D01*
X84656736Y-105431118D01*
X84642457Y-105427541D01*
X84628597Y-105422582D01*
X84615290Y-105416288D01*
X84602664Y-105408720D01*
X84590841Y-105399952D01*
X84579934Y-105390066D01*
X84570048Y-105379159D01*
X84561280Y-105367336D01*
X84553712Y-105354710D01*
X84547418Y-105341403D01*
X84542459Y-105327543D01*
X84538882Y-105313264D01*
X84536722Y-105298703D01*
X84536000Y-105284000D01*
X84536000Y-103634000D01*
X84536722Y-103619297D01*
X84538882Y-103604736D01*
X84542459Y-103590457D01*
X84547418Y-103576597D01*
X84553712Y-103563290D01*
X84561280Y-103550664D01*
X84570048Y-103538841D01*
X84579934Y-103527934D01*
X84590841Y-103518048D01*
X84602664Y-103509280D01*
X84615290Y-103501712D01*
X84628597Y-103495418D01*
X84642457Y-103490459D01*
X84656736Y-103486882D01*
X84671297Y-103484722D01*
X84686000Y-103484000D01*
X84986000Y-103484000D01*
X85000703Y-103484722D01*
G37*
G04 #@! TD.AperFunction*
G04 #@! TA.AperFunction,SMDPad,CuDef*
G36*
X86270703Y-103484722D02*
G01*
X86285264Y-103486882D01*
X86299543Y-103490459D01*
X86313403Y-103495418D01*
X86326710Y-103501712D01*
X86339336Y-103509280D01*
X86351159Y-103518048D01*
X86362066Y-103527934D01*
X86371952Y-103538841D01*
X86380720Y-103550664D01*
X86388288Y-103563290D01*
X86394582Y-103576597D01*
X86399541Y-103590457D01*
X86403118Y-103604736D01*
X86405278Y-103619297D01*
X86406000Y-103634000D01*
X86406000Y-105284000D01*
X86405278Y-105298703D01*
X86403118Y-105313264D01*
X86399541Y-105327543D01*
X86394582Y-105341403D01*
X86388288Y-105354710D01*
X86380720Y-105367336D01*
X86371952Y-105379159D01*
X86362066Y-105390066D01*
X86351159Y-105399952D01*
X86339336Y-105408720D01*
X86326710Y-105416288D01*
X86313403Y-105422582D01*
X86299543Y-105427541D01*
X86285264Y-105431118D01*
X86270703Y-105433278D01*
X86256000Y-105434000D01*
X85956000Y-105434000D01*
X85941297Y-105433278D01*
X85926736Y-105431118D01*
X85912457Y-105427541D01*
X85898597Y-105422582D01*
X85885290Y-105416288D01*
X85872664Y-105408720D01*
X85860841Y-105399952D01*
X85849934Y-105390066D01*
X85840048Y-105379159D01*
X85831280Y-105367336D01*
X85823712Y-105354710D01*
X85817418Y-105341403D01*
X85812459Y-105327543D01*
X85808882Y-105313264D01*
X85806722Y-105298703D01*
X85806000Y-105284000D01*
X85806000Y-103634000D01*
X85806722Y-103619297D01*
X85808882Y-103604736D01*
X85812459Y-103590457D01*
X85817418Y-103576597D01*
X85823712Y-103563290D01*
X85831280Y-103550664D01*
X85840048Y-103538841D01*
X85849934Y-103527934D01*
X85860841Y-103518048D01*
X85872664Y-103509280D01*
X85885290Y-103501712D01*
X85898597Y-103495418D01*
X85912457Y-103490459D01*
X85926736Y-103486882D01*
X85941297Y-103484722D01*
X85956000Y-103484000D01*
X86256000Y-103484000D01*
X86270703Y-103484722D01*
G37*
G04 #@! TD.AperFunction*
G04 #@! TA.AperFunction,SMDPad,CuDef*
G36*
X87540703Y-103484722D02*
G01*
X87555264Y-103486882D01*
X87569543Y-103490459D01*
X87583403Y-103495418D01*
X87596710Y-103501712D01*
X87609336Y-103509280D01*
X87621159Y-103518048D01*
X87632066Y-103527934D01*
X87641952Y-103538841D01*
X87650720Y-103550664D01*
X87658288Y-103563290D01*
X87664582Y-103576597D01*
X87669541Y-103590457D01*
X87673118Y-103604736D01*
X87675278Y-103619297D01*
X87676000Y-103634000D01*
X87676000Y-105284000D01*
X87675278Y-105298703D01*
X87673118Y-105313264D01*
X87669541Y-105327543D01*
X87664582Y-105341403D01*
X87658288Y-105354710D01*
X87650720Y-105367336D01*
X87641952Y-105379159D01*
X87632066Y-105390066D01*
X87621159Y-105399952D01*
X87609336Y-105408720D01*
X87596710Y-105416288D01*
X87583403Y-105422582D01*
X87569543Y-105427541D01*
X87555264Y-105431118D01*
X87540703Y-105433278D01*
X87526000Y-105434000D01*
X87226000Y-105434000D01*
X87211297Y-105433278D01*
X87196736Y-105431118D01*
X87182457Y-105427541D01*
X87168597Y-105422582D01*
X87155290Y-105416288D01*
X87142664Y-105408720D01*
X87130841Y-105399952D01*
X87119934Y-105390066D01*
X87110048Y-105379159D01*
X87101280Y-105367336D01*
X87093712Y-105354710D01*
X87087418Y-105341403D01*
X87082459Y-105327543D01*
X87078882Y-105313264D01*
X87076722Y-105298703D01*
X87076000Y-105284000D01*
X87076000Y-103634000D01*
X87076722Y-103619297D01*
X87078882Y-103604736D01*
X87082459Y-103590457D01*
X87087418Y-103576597D01*
X87093712Y-103563290D01*
X87101280Y-103550664D01*
X87110048Y-103538841D01*
X87119934Y-103527934D01*
X87130841Y-103518048D01*
X87142664Y-103509280D01*
X87155290Y-103501712D01*
X87168597Y-103495418D01*
X87182457Y-103490459D01*
X87196736Y-103486882D01*
X87211297Y-103484722D01*
X87226000Y-103484000D01*
X87526000Y-103484000D01*
X87540703Y-103484722D01*
G37*
G04 #@! TD.AperFunction*
G04 #@! TA.AperFunction,SMDPad,CuDef*
G36*
X88810703Y-103484722D02*
G01*
X88825264Y-103486882D01*
X88839543Y-103490459D01*
X88853403Y-103495418D01*
X88866710Y-103501712D01*
X88879336Y-103509280D01*
X88891159Y-103518048D01*
X88902066Y-103527934D01*
X88911952Y-103538841D01*
X88920720Y-103550664D01*
X88928288Y-103563290D01*
X88934582Y-103576597D01*
X88939541Y-103590457D01*
X88943118Y-103604736D01*
X88945278Y-103619297D01*
X88946000Y-103634000D01*
X88946000Y-105284000D01*
X88945278Y-105298703D01*
X88943118Y-105313264D01*
X88939541Y-105327543D01*
X88934582Y-105341403D01*
X88928288Y-105354710D01*
X88920720Y-105367336D01*
X88911952Y-105379159D01*
X88902066Y-105390066D01*
X88891159Y-105399952D01*
X88879336Y-105408720D01*
X88866710Y-105416288D01*
X88853403Y-105422582D01*
X88839543Y-105427541D01*
X88825264Y-105431118D01*
X88810703Y-105433278D01*
X88796000Y-105434000D01*
X88496000Y-105434000D01*
X88481297Y-105433278D01*
X88466736Y-105431118D01*
X88452457Y-105427541D01*
X88438597Y-105422582D01*
X88425290Y-105416288D01*
X88412664Y-105408720D01*
X88400841Y-105399952D01*
X88389934Y-105390066D01*
X88380048Y-105379159D01*
X88371280Y-105367336D01*
X88363712Y-105354710D01*
X88357418Y-105341403D01*
X88352459Y-105327543D01*
X88348882Y-105313264D01*
X88346722Y-105298703D01*
X88346000Y-105284000D01*
X88346000Y-103634000D01*
X88346722Y-103619297D01*
X88348882Y-103604736D01*
X88352459Y-103590457D01*
X88357418Y-103576597D01*
X88363712Y-103563290D01*
X88371280Y-103550664D01*
X88380048Y-103538841D01*
X88389934Y-103527934D01*
X88400841Y-103518048D01*
X88412664Y-103509280D01*
X88425290Y-103501712D01*
X88438597Y-103495418D01*
X88452457Y-103490459D01*
X88466736Y-103486882D01*
X88481297Y-103484722D01*
X88496000Y-103484000D01*
X88796000Y-103484000D01*
X88810703Y-103484722D01*
G37*
G04 #@! TD.AperFunction*
G04 #@! TA.AperFunction,SMDPad,CuDef*
G36*
X90080703Y-103484722D02*
G01*
X90095264Y-103486882D01*
X90109543Y-103490459D01*
X90123403Y-103495418D01*
X90136710Y-103501712D01*
X90149336Y-103509280D01*
X90161159Y-103518048D01*
X90172066Y-103527934D01*
X90181952Y-103538841D01*
X90190720Y-103550664D01*
X90198288Y-103563290D01*
X90204582Y-103576597D01*
X90209541Y-103590457D01*
X90213118Y-103604736D01*
X90215278Y-103619297D01*
X90216000Y-103634000D01*
X90216000Y-105284000D01*
X90215278Y-105298703D01*
X90213118Y-105313264D01*
X90209541Y-105327543D01*
X90204582Y-105341403D01*
X90198288Y-105354710D01*
X90190720Y-105367336D01*
X90181952Y-105379159D01*
X90172066Y-105390066D01*
X90161159Y-105399952D01*
X90149336Y-105408720D01*
X90136710Y-105416288D01*
X90123403Y-105422582D01*
X90109543Y-105427541D01*
X90095264Y-105431118D01*
X90080703Y-105433278D01*
X90066000Y-105434000D01*
X89766000Y-105434000D01*
X89751297Y-105433278D01*
X89736736Y-105431118D01*
X89722457Y-105427541D01*
X89708597Y-105422582D01*
X89695290Y-105416288D01*
X89682664Y-105408720D01*
X89670841Y-105399952D01*
X89659934Y-105390066D01*
X89650048Y-105379159D01*
X89641280Y-105367336D01*
X89633712Y-105354710D01*
X89627418Y-105341403D01*
X89622459Y-105327543D01*
X89618882Y-105313264D01*
X89616722Y-105298703D01*
X89616000Y-105284000D01*
X89616000Y-103634000D01*
X89616722Y-103619297D01*
X89618882Y-103604736D01*
X89622459Y-103590457D01*
X89627418Y-103576597D01*
X89633712Y-103563290D01*
X89641280Y-103550664D01*
X89650048Y-103538841D01*
X89659934Y-103527934D01*
X89670841Y-103518048D01*
X89682664Y-103509280D01*
X89695290Y-103501712D01*
X89708597Y-103495418D01*
X89722457Y-103490459D01*
X89736736Y-103486882D01*
X89751297Y-103484722D01*
X89766000Y-103484000D01*
X90066000Y-103484000D01*
X90080703Y-103484722D01*
G37*
G04 #@! TD.AperFunction*
G04 #@! TA.AperFunction,SMDPad,CuDef*
G36*
X91350703Y-103484722D02*
G01*
X91365264Y-103486882D01*
X91379543Y-103490459D01*
X91393403Y-103495418D01*
X91406710Y-103501712D01*
X91419336Y-103509280D01*
X91431159Y-103518048D01*
X91442066Y-103527934D01*
X91451952Y-103538841D01*
X91460720Y-103550664D01*
X91468288Y-103563290D01*
X91474582Y-103576597D01*
X91479541Y-103590457D01*
X91483118Y-103604736D01*
X91485278Y-103619297D01*
X91486000Y-103634000D01*
X91486000Y-105284000D01*
X91485278Y-105298703D01*
X91483118Y-105313264D01*
X91479541Y-105327543D01*
X91474582Y-105341403D01*
X91468288Y-105354710D01*
X91460720Y-105367336D01*
X91451952Y-105379159D01*
X91442066Y-105390066D01*
X91431159Y-105399952D01*
X91419336Y-105408720D01*
X91406710Y-105416288D01*
X91393403Y-105422582D01*
X91379543Y-105427541D01*
X91365264Y-105431118D01*
X91350703Y-105433278D01*
X91336000Y-105434000D01*
X91036000Y-105434000D01*
X91021297Y-105433278D01*
X91006736Y-105431118D01*
X90992457Y-105427541D01*
X90978597Y-105422582D01*
X90965290Y-105416288D01*
X90952664Y-105408720D01*
X90940841Y-105399952D01*
X90929934Y-105390066D01*
X90920048Y-105379159D01*
X90911280Y-105367336D01*
X90903712Y-105354710D01*
X90897418Y-105341403D01*
X90892459Y-105327543D01*
X90888882Y-105313264D01*
X90886722Y-105298703D01*
X90886000Y-105284000D01*
X90886000Y-103634000D01*
X90886722Y-103619297D01*
X90888882Y-103604736D01*
X90892459Y-103590457D01*
X90897418Y-103576597D01*
X90903712Y-103563290D01*
X90911280Y-103550664D01*
X90920048Y-103538841D01*
X90929934Y-103527934D01*
X90940841Y-103518048D01*
X90952664Y-103509280D01*
X90965290Y-103501712D01*
X90978597Y-103495418D01*
X90992457Y-103490459D01*
X91006736Y-103486882D01*
X91021297Y-103484722D01*
X91036000Y-103484000D01*
X91336000Y-103484000D01*
X91350703Y-103484722D01*
G37*
G04 #@! TD.AperFunction*
D14*
X85734000Y-115402000D03*
X85734000Y-114752000D03*
X85734000Y-114102000D03*
X85734000Y-113452000D03*
X90034000Y-113452000D03*
X90034000Y-114102000D03*
X90034000Y-114752000D03*
X90034000Y-115402000D03*
D15*
X90424000Y-115443000D03*
X91186000Y-105156000D03*
D16*
X91313000Y-96637000D03*
D15*
X78994000Y-116713000D03*
D16*
X87207000Y-99568000D03*
D15*
X92519500Y-114998500D03*
X92519500Y-112649000D03*
X89281000Y-117475000D03*
X90297000Y-99441000D03*
D16*
X76835000Y-95758000D03*
X87503000Y-97663000D03*
X76445000Y-116840000D03*
X76200000Y-108839000D03*
D15*
X85344000Y-113030000D03*
X92456000Y-117602000D03*
X83947000Y-108140500D03*
X79819500Y-121602500D03*
X84455000Y-119697500D03*
X77216000Y-101346000D03*
X77216000Y-99822000D03*
X77216000Y-103124000D03*
X95123000Y-119380000D03*
X95103000Y-118344000D03*
X95092878Y-117475000D03*
X95123000Y-115771102D03*
X88582500Y-119253000D03*
X88550750Y-117125750D03*
X95081010Y-114849990D03*
X90741500Y-119888000D03*
X89979500Y-119888000D03*
X89217500Y-119888000D03*
X79502000Y-115443000D03*
X76073000Y-121158000D03*
X74041000Y-120904000D03*
X74041000Y-118745000D03*
X85808820Y-116131340D03*
X88709500Y-114998500D03*
X82262010Y-115349990D03*
X82804000Y-106426000D03*
X85788500Y-116840000D03*
X83566000Y-105156000D03*
X84518500Y-112966500D03*
X88582500Y-113728500D03*
D17*
X90138000Y-96637000D02*
X87207000Y-99568000D01*
X91313000Y-96637000D02*
X90138000Y-96637000D01*
X87207000Y-99568000D02*
X83693000Y-99568000D01*
X83693000Y-99568000D02*
X83312000Y-99949000D01*
X78495000Y-120650000D02*
X78495000Y-116840000D01*
D18*
X93717000Y-113846500D02*
X93916500Y-113846500D01*
X92519500Y-112649000D02*
X93717000Y-113846500D01*
X92519500Y-114998500D02*
X92764500Y-114998500D01*
X92519500Y-115352053D02*
X92519500Y-114998500D01*
X92519500Y-115724302D02*
X92519500Y-115352053D01*
X92519500Y-114998500D02*
X92519500Y-112649000D01*
X92519500Y-115252500D02*
X93154500Y-114617500D01*
X92519500Y-115724302D02*
X92519500Y-115252500D01*
X92764500Y-114998500D02*
X93154500Y-114617500D01*
X93154500Y-114617500D02*
X93916500Y-113846500D01*
X90768802Y-117475000D02*
X92519500Y-115724302D01*
X89281000Y-117475000D02*
X90768802Y-117475000D01*
X82677000Y-118745000D02*
X78495000Y-118745000D01*
X86260302Y-118745000D02*
X82677000Y-118745000D01*
X88953249Y-117802751D02*
X87202551Y-117802751D01*
X87202551Y-117802751D02*
X86260302Y-118745000D01*
X89281000Y-117475000D02*
X88953249Y-117802751D01*
D17*
X77400685Y-95758000D02*
X79305685Y-97663000D01*
X76835000Y-95758000D02*
X77400685Y-95758000D01*
X79305685Y-97663000D02*
X87503000Y-97663000D01*
X76445000Y-116840000D02*
X76445000Y-116840000D01*
X76445000Y-116840000D02*
X76445000Y-118745000D01*
D19*
X85344000Y-113030000D02*
X85344000Y-113030000D01*
D18*
X85344000Y-113062000D02*
X85734000Y-113452000D01*
X85344000Y-113030000D02*
X85344000Y-113062000D01*
X83566000Y-108712000D02*
X83566000Y-109409000D01*
X83947000Y-108140500D02*
X83947000Y-108140500D01*
X83566000Y-108521500D02*
X83566000Y-108712000D01*
X83947000Y-108140500D02*
X83566000Y-108521500D01*
X92456000Y-117357000D02*
X93916500Y-115896500D01*
X92456000Y-117602000D02*
X92456000Y-117357000D01*
X79819500Y-121602500D02*
X79819500Y-121602500D01*
X86232710Y-119697500D02*
X84808553Y-119697500D01*
X92456000Y-117602000D02*
X91630500Y-118427500D01*
X91630500Y-118427500D02*
X89253409Y-118427500D01*
X87354211Y-118575999D02*
X86232710Y-119697500D01*
X84808553Y-119697500D02*
X84455000Y-119697500D01*
X89253409Y-118427500D02*
X89104910Y-118575999D01*
X89104910Y-118575999D02*
X87354211Y-118575999D01*
X84101447Y-119697500D02*
X84455000Y-119697500D01*
X83964970Y-119697500D02*
X84101447Y-119697500D01*
X82059970Y-121602500D02*
X83964970Y-119697500D01*
X79819500Y-121602500D02*
X82059970Y-121602500D01*
X89916000Y-109409000D02*
X91186000Y-109409000D01*
D19*
X90928001Y-114577201D02*
X90753202Y-114752000D01*
X90928001Y-112976799D02*
X90928001Y-114577201D01*
X89916000Y-110109000D02*
X89134010Y-110890990D01*
X89916000Y-109409000D02*
X89916000Y-110109000D01*
X89134010Y-110890990D02*
X89134010Y-112192860D01*
X89134010Y-112192860D02*
X89780650Y-112839500D01*
X90753202Y-114752000D02*
X90034000Y-114752000D01*
X90790702Y-112839500D02*
X90928001Y-112976799D01*
X89780650Y-112839500D02*
X90790702Y-112839500D01*
D18*
X92848510Y-101601160D02*
X92847350Y-101600000D01*
X93979880Y-101601160D02*
X92848510Y-101601160D01*
X92847350Y-101600000D02*
X77597000Y-101600000D01*
X77597000Y-101600000D02*
X77470000Y-101600000D01*
X77470000Y-101600000D02*
X77216000Y-101346000D01*
X92203040Y-100838000D02*
X93979880Y-99061160D01*
X77216000Y-99822000D02*
X78232000Y-100838000D01*
X78232000Y-100838000D02*
X92203040Y-100838000D01*
X92200720Y-102362000D02*
X93979880Y-104141160D01*
X77216000Y-103124000D02*
X77978000Y-102362000D01*
X77978000Y-102362000D02*
X92200720Y-102362000D01*
D19*
X93980000Y-123190000D02*
X95123000Y-122047000D01*
X95123000Y-122047000D02*
X95123000Y-119380000D01*
X95123000Y-119380000D02*
X95123000Y-119380000D01*
X94361000Y-119086000D02*
X95103000Y-118344000D01*
X94361000Y-120777000D02*
X94361000Y-119086000D01*
X92710000Y-122428000D02*
X94361000Y-120777000D01*
X91440000Y-123190000D02*
X92202000Y-122428000D01*
X92202000Y-122428000D02*
X92710000Y-122428000D01*
X89789000Y-122301000D02*
X88900000Y-123190000D01*
X93726000Y-118841878D02*
X93726000Y-120523000D01*
X95092878Y-117475000D02*
X93726000Y-118841878D01*
X92456000Y-121793000D02*
X90297000Y-121793000D01*
X93726000Y-120523000D02*
X92456000Y-121793000D01*
X90297000Y-121793000D02*
X89789000Y-122301000D01*
X95123000Y-116432060D02*
X95123000Y-115771102D01*
X88664498Y-119293999D02*
X92261061Y-119293999D01*
X92261061Y-119293999D02*
X95123000Y-116432060D01*
X88623499Y-119293999D02*
X88582500Y-119253000D01*
X88664498Y-119293999D02*
X88582500Y-119253000D01*
X88582500Y-119253000D02*
X88582500Y-119253000D01*
X83447350Y-116078000D02*
X82105500Y-116078000D01*
X84391500Y-117022150D02*
X83447350Y-116078000D01*
X82105500Y-116078000D02*
X81279880Y-115252380D01*
X87072022Y-117125750D02*
X86275761Y-117922011D01*
X88550750Y-117125750D02*
X87072022Y-117125750D01*
X86275761Y-117922011D02*
X85283011Y-117922011D01*
X84391500Y-117030500D02*
X84391500Y-117022150D01*
X81279880Y-115252380D02*
X81279880Y-111761160D01*
X85283011Y-117922011D02*
X84391500Y-117030500D01*
X95081010Y-112862290D02*
X95081010Y-114849990D01*
X93979880Y-111761160D02*
X95081010Y-112862290D01*
X86360000Y-123190000D02*
X87884000Y-121666000D01*
X87884000Y-121666000D02*
X89154000Y-121666000D01*
X89154000Y-121666000D02*
X89535000Y-121666000D01*
X89535000Y-121666000D02*
X90741500Y-120459500D01*
X90741500Y-120459500D02*
X90741500Y-119888000D01*
X90741500Y-119888000D02*
X90741500Y-119888000D01*
X83820000Y-123190000D02*
X85344000Y-121666000D01*
X85344000Y-121666000D02*
X87122000Y-121666000D01*
X87122000Y-121666000D02*
X87630000Y-121158000D01*
X87630000Y-121158000D02*
X88519000Y-121158000D01*
X88519000Y-121158000D02*
X89027000Y-121158000D01*
X89027000Y-121158000D02*
X89090500Y-121158000D01*
X89027000Y-121158000D02*
X89217500Y-121158000D01*
X89217500Y-121158000D02*
X89979500Y-120396000D01*
X89979500Y-120396000D02*
X89979500Y-119888000D01*
X89979500Y-119888000D02*
X89979500Y-119888000D01*
X89281000Y-119888000D02*
X89281000Y-119888000D01*
X89217500Y-120332500D02*
X89217500Y-119888000D01*
X87376000Y-120650000D02*
X88900000Y-120650000D01*
X82804000Y-121666000D02*
X84582000Y-121666000D01*
X88900000Y-120650000D02*
X89217500Y-120332500D01*
X81280000Y-123190000D02*
X82804000Y-121666000D01*
X84582000Y-121666000D02*
X85090000Y-121158000D01*
X85090000Y-121158000D02*
X86868000Y-121158000D01*
X86868000Y-121158000D02*
X87376000Y-120650000D01*
X77470000Y-119634000D02*
X77470000Y-116078000D01*
X76445000Y-120650000D02*
X76454000Y-120650000D01*
X78105000Y-115443000D02*
X79502000Y-115443000D01*
X77470000Y-116078000D02*
X78105000Y-115443000D01*
X76454000Y-120650000D02*
X77470000Y-119634000D01*
X89916000Y-104459000D02*
X89916000Y-103822500D01*
X86106000Y-103949500D02*
X86106000Y-104459000D01*
X89916000Y-103759000D02*
X89154000Y-102997000D01*
X86868000Y-102997000D02*
X86106000Y-103759000D01*
X86106000Y-103759000D02*
X86106000Y-103949500D01*
X89916000Y-104459000D02*
X89916000Y-103759000D01*
X89154000Y-102997000D02*
X86868000Y-102997000D01*
X86106000Y-105434000D02*
X86106000Y-104459000D01*
X85749000Y-105791000D02*
X86106000Y-105434000D01*
X79375000Y-105791000D02*
X85749000Y-105791000D01*
X73446999Y-120309999D02*
X73446999Y-116842641D01*
X74041000Y-120904000D02*
X73446999Y-120309999D01*
X73446999Y-116842641D02*
X77343000Y-112946640D01*
X77343000Y-112946640D02*
X77343000Y-107823000D01*
X77343000Y-107823000D02*
X79375000Y-105791000D01*
X88646000Y-107442000D02*
X88646000Y-105537000D01*
X88646000Y-105537000D02*
X88646000Y-104459000D01*
X87376000Y-108712000D02*
X88646000Y-107442000D01*
X87376000Y-109409000D02*
X87376000Y-108712000D01*
X74041000Y-116938790D02*
X74041000Y-118745000D01*
X85684001Y-107020001D02*
X79987499Y-107020001D01*
X87376000Y-108712000D02*
X85684001Y-107020001D01*
X77831010Y-109176490D02*
X77831010Y-113148780D01*
X79987499Y-107020001D02*
X77831010Y-109176490D01*
X77831010Y-113148780D02*
X74041000Y-116938790D01*
X73659880Y-111761160D02*
X75184000Y-110237040D01*
X75184000Y-110237040D02*
X75184000Y-106299000D01*
X75184000Y-106299000D02*
X78486000Y-102997000D01*
X78486000Y-102997000D02*
X84709000Y-102997000D01*
X84709000Y-102997000D02*
X84836000Y-103124000D01*
X84836000Y-103124000D02*
X84836000Y-104459000D01*
X89703000Y-113452000D02*
X90034000Y-113452000D01*
X88646000Y-109409000D02*
X88646000Y-112395000D01*
X88646000Y-112395000D02*
X89703000Y-113452000D01*
X74549000Y-122301000D02*
X73660000Y-123190000D01*
X78319020Y-113350920D02*
X75057000Y-116612940D01*
X78319020Y-109386980D02*
X78319020Y-113350920D01*
X75057000Y-116612940D02*
X75057000Y-121793000D01*
X79184500Y-108521500D02*
X78319020Y-109386980D01*
X86106000Y-108712000D02*
X84902011Y-107508011D01*
X75057000Y-121793000D02*
X74549000Y-122301000D01*
X86106000Y-109409000D02*
X86106000Y-108712000D01*
X84902011Y-107508011D02*
X80189639Y-107508011D01*
X80189639Y-107508011D02*
X79184500Y-108513150D01*
X79184500Y-108513150D02*
X79184500Y-108521500D01*
X89088122Y-114102000D02*
X90034000Y-114102000D01*
X92835879Y-107825161D02*
X92834839Y-107825161D01*
X91416011Y-115330111D02*
X90709121Y-116037001D01*
X92834839Y-107825161D02*
X91830010Y-108829990D01*
X91830010Y-110438628D02*
X91416011Y-110852627D01*
X93979880Y-106681160D02*
X92835879Y-107825161D01*
X90709121Y-116037001D02*
X89299799Y-116037001D01*
X91830010Y-108829990D02*
X91830010Y-110438628D01*
X89299799Y-116037001D02*
X88709500Y-115446702D01*
X91416011Y-110852627D02*
X91416011Y-115330111D01*
X88709500Y-114480622D02*
X89088122Y-114102000D01*
X85788500Y-116141500D02*
X86550500Y-116141500D01*
X86550500Y-116141500D02*
X87693500Y-114998500D01*
X87693500Y-114998500D02*
X88265000Y-114998500D01*
X88709500Y-115446702D02*
X88709500Y-114998500D01*
X88265000Y-114998500D02*
X88709500Y-114998500D01*
X88709500Y-114998500D02*
X88709500Y-114480622D01*
X88709500Y-114998500D02*
X88709500Y-114998500D01*
X85493501Y-117434001D02*
X83409490Y-115349990D01*
X86073621Y-117434001D02*
X85493501Y-117434001D01*
X83409490Y-115349990D02*
X82262010Y-115349990D01*
X93979880Y-109221160D02*
X91904021Y-111297019D01*
X91904020Y-115532252D02*
X90911261Y-116525011D01*
X91904021Y-111297019D02*
X91904020Y-115532252D01*
X90911261Y-116525011D02*
X86982611Y-116525011D01*
X86982611Y-116525011D02*
X86073621Y-117434001D01*
X87376000Y-106045000D02*
X87376000Y-104459000D01*
X82804000Y-106426000D02*
X86995000Y-106426000D01*
X86995000Y-106426000D02*
X87376000Y-106045000D01*
X84836000Y-110172500D02*
X84836000Y-110236000D01*
X84855850Y-115402000D02*
X85734000Y-115402000D01*
X83924499Y-114470649D02*
X84855850Y-115402000D01*
X83924499Y-111020501D02*
X83924499Y-114470649D01*
X84836000Y-109409000D02*
X84836000Y-110109000D01*
X84836000Y-110109000D02*
X83924499Y-111020501D01*
X85648878Y-115402000D02*
X85153500Y-115897378D01*
X85734000Y-115402000D02*
X85648878Y-115402000D01*
X85153500Y-116385622D02*
X85607878Y-116840000D01*
X85153500Y-115897378D02*
X85153500Y-116385622D01*
X85607878Y-116840000D02*
X85788500Y-116840000D01*
X85788500Y-116840000D02*
X85788500Y-116840000D01*
X83566000Y-104459000D02*
X83566000Y-105156000D01*
X84518500Y-113347500D02*
X84518500Y-113347500D01*
X84896000Y-114752000D02*
X85734000Y-114752000D01*
X84518500Y-113347500D02*
X84518500Y-114374500D01*
X84518500Y-114374500D02*
X84896000Y-114752000D01*
X84518500Y-113347500D02*
X84518500Y-112966500D01*
X88209000Y-114102000D02*
X88582500Y-113728500D01*
X85734000Y-114102000D02*
X88209000Y-114102000D01*
D20*
G36*
X95256500Y-95278123D02*
G01*
X95256501Y-112339866D01*
X95064084Y-112147449D01*
X95085205Y-112096457D01*
X95129380Y-111874376D01*
X95129380Y-111647944D01*
X95085205Y-111425863D01*
X94998554Y-111216668D01*
X94872755Y-111028396D01*
X94712644Y-110868285D01*
X94524372Y-110742486D01*
X94315177Y-110655835D01*
X94093096Y-110611660D01*
X93866664Y-110611660D01*
X93644583Y-110655835D01*
X93435388Y-110742486D01*
X93247116Y-110868285D01*
X93087005Y-111028396D01*
X92961206Y-111216668D01*
X92874555Y-111425863D01*
X92830380Y-111647944D01*
X92830380Y-111874376D01*
X92874555Y-112096457D01*
X92916823Y-112198502D01*
X92901659Y-112183338D01*
X92803470Y-112117730D01*
X92694368Y-112072538D01*
X92578546Y-112049500D01*
X92460454Y-112049500D01*
X92397521Y-112062018D01*
X92397521Y-111501433D01*
X93593591Y-110305364D01*
X93644583Y-110326485D01*
X93866664Y-110370660D01*
X94093096Y-110370660D01*
X94315177Y-110326485D01*
X94524372Y-110239834D01*
X94712644Y-110114035D01*
X94872755Y-109953924D01*
X94998554Y-109765652D01*
X95085205Y-109556457D01*
X95129380Y-109334376D01*
X95129380Y-109107944D01*
X95085205Y-108885863D01*
X94998554Y-108676668D01*
X94872755Y-108488396D01*
X94712644Y-108328285D01*
X94524372Y-108202486D01*
X94315177Y-108115835D01*
X94093096Y-108071660D01*
X93866664Y-108071660D01*
X93644583Y-108115835D01*
X93435388Y-108202486D01*
X93247116Y-108328285D01*
X93087005Y-108488396D01*
X92961206Y-108676668D01*
X92874555Y-108885863D01*
X92830380Y-109107944D01*
X92830380Y-109334376D01*
X92874555Y-109556457D01*
X92895676Y-109607449D01*
X92323510Y-110179616D01*
X92323510Y-109034404D01*
X93161898Y-108196016D01*
X93186524Y-108175806D01*
X93201975Y-108156979D01*
X93593591Y-107765363D01*
X93644583Y-107786485D01*
X93866664Y-107830660D01*
X94093096Y-107830660D01*
X94315177Y-107786485D01*
X94524372Y-107699834D01*
X94712644Y-107574035D01*
X94872755Y-107413924D01*
X94998554Y-107225652D01*
X95085205Y-107016457D01*
X95129380Y-106794376D01*
X95129380Y-106567944D01*
X95085205Y-106345863D01*
X94998554Y-106136668D01*
X94872755Y-105948396D01*
X94712644Y-105788285D01*
X94524372Y-105662486D01*
X94315177Y-105575835D01*
X94093096Y-105531660D01*
X93866664Y-105531660D01*
X93644583Y-105575835D01*
X93435388Y-105662486D01*
X93247116Y-105788285D01*
X93087005Y-105948396D01*
X92961206Y-106136668D01*
X92874555Y-106345863D01*
X92830380Y-106567944D01*
X92830380Y-106794376D01*
X92874555Y-107016457D01*
X92895677Y-107067449D01*
X92508820Y-107454306D01*
X92484194Y-107474516D01*
X92468744Y-107493342D01*
X91709366Y-108252720D01*
X91690396Y-108229604D01*
X91614447Y-108167275D01*
X91527797Y-108120960D01*
X91433778Y-108092439D01*
X91336000Y-108082809D01*
X91036000Y-108082809D01*
X90938222Y-108092439D01*
X90844203Y-108120960D01*
X90757553Y-108167275D01*
X90681604Y-108229604D01*
X90619275Y-108305553D01*
X90572960Y-108392203D01*
X90551000Y-108464594D01*
X90529040Y-108392203D01*
X90482725Y-108305553D01*
X90420396Y-108229604D01*
X90344447Y-108167275D01*
X90257797Y-108120960D01*
X90163778Y-108092439D01*
X90066000Y-108082809D01*
X89766000Y-108082809D01*
X89668222Y-108092439D01*
X89574203Y-108120960D01*
X89487553Y-108167275D01*
X89411604Y-108229604D01*
X89349275Y-108305553D01*
X89302960Y-108392203D01*
X89281000Y-108464594D01*
X89259040Y-108392203D01*
X89212725Y-108305553D01*
X89150396Y-108229604D01*
X89074447Y-108167275D01*
X88987797Y-108120960D01*
X88893778Y-108092439D01*
X88796000Y-108082809D01*
X88703106Y-108082809D01*
X88977824Y-107808091D01*
X88996645Y-107792645D01*
X89012091Y-107773824D01*
X89012095Y-107773820D01*
X89058315Y-107717501D01*
X89074277Y-107687638D01*
X89104140Y-107631768D01*
X89132359Y-107538743D01*
X89139500Y-107466237D01*
X89139500Y-107466227D01*
X89141886Y-107442001D01*
X89139500Y-107417775D01*
X89139500Y-105647338D01*
X89150396Y-105638396D01*
X89212725Y-105562447D01*
X89259040Y-105475797D01*
X89281000Y-105403406D01*
X89302960Y-105475797D01*
X89349275Y-105562447D01*
X89411604Y-105638396D01*
X89487553Y-105700725D01*
X89574203Y-105747040D01*
X89668222Y-105775561D01*
X89766000Y-105785191D01*
X90066000Y-105785191D01*
X90163778Y-105775561D01*
X90257797Y-105747040D01*
X90344447Y-105700725D01*
X90420396Y-105638396D01*
X90482725Y-105562447D01*
X90529040Y-105475797D01*
X90551000Y-105403406D01*
X90572960Y-105475797D01*
X90619275Y-105562447D01*
X90681604Y-105638396D01*
X90757553Y-105700725D01*
X90844203Y-105747040D01*
X90938222Y-105775561D01*
X91036000Y-105785191D01*
X91336000Y-105785191D01*
X91433778Y-105775561D01*
X91527797Y-105747040D01*
X91614447Y-105700725D01*
X91690396Y-105638396D01*
X91752725Y-105562447D01*
X91799040Y-105475797D01*
X91827561Y-105381778D01*
X91837191Y-105284000D01*
X91837191Y-103634000D01*
X91827561Y-103536222D01*
X91799040Y-103442203D01*
X91752725Y-103355553D01*
X91690396Y-103279604D01*
X91614447Y-103217275D01*
X91527797Y-103170960D01*
X91433778Y-103142439D01*
X91336000Y-103132809D01*
X91036000Y-103132809D01*
X90938222Y-103142439D01*
X90844203Y-103170960D01*
X90757553Y-103217275D01*
X90681604Y-103279604D01*
X90619275Y-103355553D01*
X90572960Y-103442203D01*
X90551000Y-103514594D01*
X90529040Y-103442203D01*
X90482725Y-103355553D01*
X90420396Y-103279604D01*
X90344447Y-103217275D01*
X90257797Y-103170960D01*
X90163778Y-103142439D01*
X90066000Y-103132809D01*
X89987723Y-103132809D01*
X89793414Y-102938500D01*
X91961927Y-102938500D01*
X92867045Y-103843619D01*
X92830380Y-104027944D01*
X92830380Y-104254376D01*
X92874555Y-104476457D01*
X92961206Y-104685652D01*
X93087005Y-104873924D01*
X93247116Y-105034035D01*
X93435388Y-105159834D01*
X93644583Y-105246485D01*
X93866664Y-105290660D01*
X94093096Y-105290660D01*
X94315177Y-105246485D01*
X94524372Y-105159834D01*
X94712644Y-105034035D01*
X94872755Y-104873924D01*
X94998554Y-104685652D01*
X95085205Y-104476457D01*
X95129380Y-104254376D01*
X95129380Y-104027944D01*
X95085205Y-103805863D01*
X94998554Y-103596668D01*
X94872755Y-103408396D01*
X94712644Y-103248285D01*
X94524372Y-103122486D01*
X94315177Y-103035835D01*
X94093096Y-102991660D01*
X93866664Y-102991660D01*
X93682339Y-103028325D01*
X92832926Y-102178913D01*
X92848509Y-102180448D01*
X92876816Y-102177660D01*
X92982593Y-102177660D01*
X93087005Y-102333924D01*
X93247116Y-102494035D01*
X93435388Y-102619834D01*
X93644583Y-102706485D01*
X93866664Y-102750660D01*
X94093096Y-102750660D01*
X94315177Y-102706485D01*
X94524372Y-102619834D01*
X94712644Y-102494035D01*
X94872755Y-102333924D01*
X94998554Y-102145652D01*
X95085205Y-101936457D01*
X95129380Y-101714376D01*
X95129380Y-101487944D01*
X95085205Y-101265863D01*
X94998554Y-101056668D01*
X94872755Y-100868396D01*
X94712644Y-100708285D01*
X94524372Y-100582486D01*
X94315177Y-100495835D01*
X94093096Y-100451660D01*
X93866664Y-100451660D01*
X93644583Y-100495835D01*
X93435388Y-100582486D01*
X93247116Y-100708285D01*
X93087005Y-100868396D01*
X92982593Y-101024660D01*
X92887445Y-101024660D01*
X92875667Y-101023500D01*
X92875659Y-101023500D01*
X92847350Y-101020712D01*
X92834340Y-101021993D01*
X93682339Y-100173995D01*
X93866664Y-100210660D01*
X94093096Y-100210660D01*
X94315177Y-100166485D01*
X94524372Y-100079834D01*
X94712644Y-99954035D01*
X94872755Y-99793924D01*
X94998554Y-99605652D01*
X95085205Y-99396457D01*
X95129380Y-99174376D01*
X95129380Y-98947944D01*
X95085205Y-98725863D01*
X94998554Y-98516668D01*
X94872755Y-98328396D01*
X94712644Y-98168285D01*
X94524372Y-98042486D01*
X94315177Y-97955835D01*
X94093096Y-97911660D01*
X93866664Y-97911660D01*
X93644583Y-97955835D01*
X93435388Y-98042486D01*
X93247116Y-98168285D01*
X93087005Y-98328396D01*
X92961206Y-98516668D01*
X92874555Y-98725863D01*
X92830380Y-98947944D01*
X92830380Y-99174376D01*
X92867045Y-99358701D01*
X91964247Y-100261500D01*
X87584362Y-100261500D01*
X87647745Y-100227621D01*
X87767962Y-100128962D01*
X87792693Y-100098827D01*
X90038365Y-97853156D01*
X90124934Y-97899428D01*
X90237713Y-97933639D01*
X90354999Y-97945191D01*
X91255001Y-97945191D01*
X91372287Y-97933639D01*
X91485066Y-97899428D01*
X91589004Y-97843872D01*
X91680107Y-97769107D01*
X91754872Y-97678004D01*
X91810428Y-97574066D01*
X91844639Y-97461287D01*
X91856191Y-97344001D01*
X91856191Y-97212546D01*
X91873962Y-97197962D01*
X91972621Y-97077745D01*
X92045932Y-96940590D01*
X92091077Y-96791769D01*
X92106320Y-96637000D01*
X92091077Y-96482231D01*
X92068542Y-96407944D01*
X92830380Y-96407944D01*
X92830380Y-96634376D01*
X92874555Y-96856457D01*
X92961206Y-97065652D01*
X93087005Y-97253924D01*
X93247116Y-97414035D01*
X93435388Y-97539834D01*
X93644583Y-97626485D01*
X93866664Y-97670660D01*
X94093096Y-97670660D01*
X94315177Y-97626485D01*
X94524372Y-97539834D01*
X94712644Y-97414035D01*
X94872755Y-97253924D01*
X94998554Y-97065652D01*
X95085205Y-96856457D01*
X95129380Y-96634376D01*
X95129380Y-96407944D01*
X95085205Y-96185863D01*
X94998554Y-95976668D01*
X94872755Y-95788396D01*
X94712644Y-95628285D01*
X94524372Y-95502486D01*
X94315177Y-95415835D01*
X94093096Y-95371660D01*
X93866664Y-95371660D01*
X93644583Y-95415835D01*
X93435388Y-95502486D01*
X93247116Y-95628285D01*
X93087005Y-95788396D01*
X92961206Y-95976668D01*
X92874555Y-96185863D01*
X92830380Y-96407944D01*
X92068542Y-96407944D01*
X92045932Y-96333410D01*
X91972621Y-96196255D01*
X91873962Y-96076038D01*
X91753745Y-95977379D01*
X91616590Y-95904068D01*
X91467769Y-95858923D01*
X91351786Y-95847500D01*
X90176783Y-95847500D01*
X90138000Y-95843680D01*
X90099216Y-95847500D01*
X90099214Y-95847500D01*
X89983231Y-95858923D01*
X89834410Y-95904068D01*
X89811522Y-95916302D01*
X89697254Y-95977379D01*
X89639254Y-96024979D01*
X89577038Y-96076038D01*
X89552311Y-96106168D01*
X86879980Y-98778500D01*
X83731775Y-98778500D01*
X83692999Y-98774681D01*
X83654223Y-98778500D01*
X83654214Y-98778500D01*
X83538231Y-98789923D01*
X83389410Y-98835068D01*
X83252255Y-98908379D01*
X83132038Y-99007038D01*
X83107313Y-99037166D01*
X82726314Y-99418166D01*
X82652379Y-99508255D01*
X82579069Y-99645410D01*
X82533924Y-99794232D01*
X82518680Y-99949000D01*
X82533924Y-100103768D01*
X82579069Y-100252590D01*
X82583831Y-100261500D01*
X78470794Y-100261500D01*
X77747163Y-99537870D01*
X77681662Y-99439841D01*
X77598159Y-99356338D01*
X77499970Y-99290730D01*
X77390868Y-99245538D01*
X77275046Y-99222500D01*
X77156954Y-99222500D01*
X77041132Y-99245538D01*
X76932030Y-99290730D01*
X76833841Y-99356338D01*
X76750338Y-99439841D01*
X76684730Y-99538030D01*
X76639538Y-99647132D01*
X76616500Y-99762954D01*
X76616500Y-99881046D01*
X76639538Y-99996868D01*
X76684730Y-100105970D01*
X76750338Y-100204159D01*
X76833841Y-100287662D01*
X76931870Y-100353163D01*
X77337661Y-100758955D01*
X77275046Y-100746500D01*
X77156954Y-100746500D01*
X77041132Y-100769538D01*
X76932030Y-100814730D01*
X76833841Y-100880338D01*
X76750338Y-100963841D01*
X76684730Y-101062030D01*
X76639538Y-101171132D01*
X76616500Y-101286954D01*
X76616500Y-101405046D01*
X76639538Y-101520868D01*
X76684730Y-101629970D01*
X76750338Y-101728159D01*
X76833841Y-101811662D01*
X76931869Y-101877162D01*
X77042329Y-101987623D01*
X77060381Y-102009619D01*
X77148164Y-102081661D01*
X77248316Y-102135193D01*
X77356650Y-102168056D01*
X76931870Y-102592837D01*
X76833841Y-102658338D01*
X76750338Y-102741841D01*
X76684730Y-102840030D01*
X76639538Y-102949132D01*
X76616500Y-103064954D01*
X76616500Y-103183046D01*
X76639538Y-103298868D01*
X76684730Y-103407970D01*
X76750338Y-103506159D01*
X76833841Y-103589662D01*
X76932030Y-103655270D01*
X77041132Y-103700462D01*
X77077408Y-103707678D01*
X74852177Y-105932909D01*
X74833356Y-105948355D01*
X74817910Y-105967176D01*
X74817905Y-105967181D01*
X74771685Y-106023500D01*
X74725860Y-106109233D01*
X74713342Y-106150500D01*
X74701058Y-106190997D01*
X74678554Y-106136668D01*
X74552755Y-105948396D01*
X74392644Y-105788285D01*
X74204372Y-105662486D01*
X73995177Y-105575835D01*
X73773096Y-105531660D01*
X73546664Y-105531660D01*
X73324583Y-105575835D01*
X73115388Y-105662486D01*
X72927116Y-105788285D01*
X72767005Y-105948396D01*
X72641206Y-106136668D01*
X72554555Y-106345863D01*
X72510380Y-106567944D01*
X72510380Y-106794376D01*
X72554555Y-107016457D01*
X72641206Y-107225652D01*
X72767005Y-107413924D01*
X72927116Y-107574035D01*
X73115388Y-107699834D01*
X73324583Y-107786485D01*
X73546664Y-107830660D01*
X73773096Y-107830660D01*
X73995177Y-107786485D01*
X74204372Y-107699834D01*
X74392644Y-107574035D01*
X74552755Y-107413924D01*
X74678554Y-107225652D01*
X74690501Y-107196810D01*
X74690500Y-108705509D01*
X74678554Y-108676668D01*
X74552755Y-108488396D01*
X74392644Y-108328285D01*
X74204372Y-108202486D01*
X73995177Y-108115835D01*
X73773096Y-108071660D01*
X73546664Y-108071660D01*
X73324583Y-108115835D01*
X73115388Y-108202486D01*
X72927116Y-108328285D01*
X72767005Y-108488396D01*
X72641206Y-108676668D01*
X72554555Y-108885863D01*
X72510380Y-109107944D01*
X72510380Y-109334376D01*
X72554555Y-109556457D01*
X72641206Y-109765652D01*
X72767005Y-109953924D01*
X72927116Y-110114035D01*
X73115388Y-110239834D01*
X73324583Y-110326485D01*
X73546664Y-110370660D01*
X73773096Y-110370660D01*
X73995177Y-110326485D01*
X74204372Y-110239834D01*
X74392644Y-110114035D01*
X74552755Y-109953924D01*
X74678554Y-109765652D01*
X74690500Y-109736811D01*
X74690500Y-110032625D01*
X74046169Y-110676956D01*
X73995177Y-110655835D01*
X73773096Y-110611660D01*
X73546664Y-110611660D01*
X73324583Y-110655835D01*
X73115388Y-110742486D01*
X72927116Y-110868285D01*
X72767005Y-111028396D01*
X72641206Y-111216668D01*
X72554555Y-111425863D01*
X72510380Y-111647944D01*
X72510380Y-111874376D01*
X72554555Y-112096457D01*
X72641206Y-112305652D01*
X72767005Y-112493924D01*
X72927116Y-112654035D01*
X73115388Y-112779834D01*
X73324583Y-112866485D01*
X73546664Y-112910660D01*
X73773096Y-112910660D01*
X73995177Y-112866485D01*
X74204372Y-112779834D01*
X74392644Y-112654035D01*
X74552755Y-112493924D01*
X74678554Y-112305652D01*
X74765205Y-112096457D01*
X74809380Y-111874376D01*
X74809380Y-111647944D01*
X74765205Y-111425863D01*
X74744084Y-111374871D01*
X75515824Y-110603131D01*
X75534645Y-110587685D01*
X75550091Y-110568864D01*
X75550095Y-110568860D01*
X75596315Y-110512541D01*
X75642140Y-110426808D01*
X75648867Y-110404631D01*
X75670359Y-110333783D01*
X75677500Y-110261277D01*
X75677500Y-110261267D01*
X75679886Y-110237041D01*
X75677500Y-110212815D01*
X75677500Y-106503414D01*
X78690415Y-103490500D01*
X82938309Y-103490500D01*
X82924439Y-103536222D01*
X82914809Y-103634000D01*
X82914809Y-105284000D01*
X82916139Y-105297500D01*
X79399226Y-105297500D01*
X79375000Y-105295114D01*
X79350774Y-105297500D01*
X79350763Y-105297500D01*
X79278257Y-105304641D01*
X79191799Y-105330868D01*
X79185232Y-105332860D01*
X79099499Y-105378685D01*
X79043180Y-105424905D01*
X79043176Y-105424909D01*
X79024355Y-105440355D01*
X79008909Y-105459176D01*
X77011177Y-107456909D01*
X76992356Y-107472355D01*
X76976910Y-107491176D01*
X76976905Y-107491181D01*
X76930685Y-107547500D01*
X76884860Y-107633233D01*
X76865281Y-107697778D01*
X76859299Y-107717500D01*
X76856642Y-107726258D01*
X76847114Y-107823000D01*
X76849501Y-107847236D01*
X76849500Y-112742225D01*
X73115176Y-116476550D01*
X73096355Y-116491996D01*
X73080909Y-116510817D01*
X73080904Y-116510822D01*
X73034684Y-116567141D01*
X72988859Y-116652874D01*
X72983208Y-116671505D01*
X72960641Y-116745898D01*
X72957764Y-116775106D01*
X72951113Y-116842641D01*
X72953500Y-116866877D01*
X72953499Y-120285773D01*
X72951113Y-120309999D01*
X72953499Y-120334225D01*
X72953499Y-120334235D01*
X72960640Y-120406741D01*
X72988859Y-120499766D01*
X73034684Y-120585499D01*
X73096354Y-120660644D01*
X73115180Y-120676094D01*
X73451275Y-121012190D01*
X73464538Y-121078868D01*
X73509730Y-121187970D01*
X73575338Y-121286159D01*
X73658841Y-121369662D01*
X73757030Y-121435270D01*
X73866132Y-121480462D01*
X73981954Y-121503500D01*
X74100046Y-121503500D01*
X74215868Y-121480462D01*
X74324970Y-121435270D01*
X74423159Y-121369662D01*
X74506662Y-121286159D01*
X74563501Y-121201094D01*
X74563501Y-121588585D01*
X74163277Y-121988809D01*
X72810000Y-121988809D01*
X72741486Y-121995557D01*
X72675605Y-122015542D01*
X72614889Y-122047995D01*
X72561670Y-122091670D01*
X72517995Y-122144889D01*
X72485542Y-122205605D01*
X72465557Y-122271486D01*
X72458809Y-122340000D01*
X72458809Y-124040000D01*
X72465557Y-124108514D01*
X72485542Y-124174395D01*
X72505909Y-124212500D01*
X72291123Y-124212500D01*
X72256500Y-124177878D01*
X72256500Y-104027944D01*
X72510380Y-104027944D01*
X72510380Y-104254376D01*
X72554555Y-104476457D01*
X72641206Y-104685652D01*
X72767005Y-104873924D01*
X72927116Y-105034035D01*
X73115388Y-105159834D01*
X73324583Y-105246485D01*
X73546664Y-105290660D01*
X73773096Y-105290660D01*
X73995177Y-105246485D01*
X74204372Y-105159834D01*
X74392644Y-105034035D01*
X74552755Y-104873924D01*
X74678554Y-104685652D01*
X74765205Y-104476457D01*
X74809380Y-104254376D01*
X74809380Y-104027944D01*
X74765205Y-103805863D01*
X74678554Y-103596668D01*
X74552755Y-103408396D01*
X74392644Y-103248285D01*
X74204372Y-103122486D01*
X73995177Y-103035835D01*
X73773096Y-102991660D01*
X73546664Y-102991660D01*
X73324583Y-103035835D01*
X73115388Y-103122486D01*
X72927116Y-103248285D01*
X72767005Y-103408396D01*
X72641206Y-103596668D01*
X72554555Y-103805863D01*
X72510380Y-104027944D01*
X72256500Y-104027944D01*
X72256500Y-101487944D01*
X72510380Y-101487944D01*
X72510380Y-101714376D01*
X72554555Y-101936457D01*
X72641206Y-102145652D01*
X72767005Y-102333924D01*
X72927116Y-102494035D01*
X73115388Y-102619834D01*
X73324583Y-102706485D01*
X73546664Y-102750660D01*
X73773096Y-102750660D01*
X73995177Y-102706485D01*
X74204372Y-102619834D01*
X74392644Y-102494035D01*
X74552755Y-102333924D01*
X74678554Y-102145652D01*
X74765205Y-101936457D01*
X74809380Y-101714376D01*
X74809380Y-101487944D01*
X74765205Y-101265863D01*
X74678554Y-101056668D01*
X74552755Y-100868396D01*
X74392644Y-100708285D01*
X74204372Y-100582486D01*
X73995177Y-100495835D01*
X73773096Y-100451660D01*
X73546664Y-100451660D01*
X73324583Y-100495835D01*
X73115388Y-100582486D01*
X72927116Y-100708285D01*
X72767005Y-100868396D01*
X72641206Y-101056668D01*
X72554555Y-101265863D01*
X72510380Y-101487944D01*
X72256500Y-101487944D01*
X72256500Y-98947944D01*
X72510380Y-98947944D01*
X72510380Y-99174376D01*
X72554555Y-99396457D01*
X72641206Y-99605652D01*
X72767005Y-99793924D01*
X72927116Y-99954035D01*
X73115388Y-100079834D01*
X73324583Y-100166485D01*
X73546664Y-100210660D01*
X73773096Y-100210660D01*
X73995177Y-100166485D01*
X74204372Y-100079834D01*
X74392644Y-99954035D01*
X74552755Y-99793924D01*
X74678554Y-99605652D01*
X74765205Y-99396457D01*
X74809380Y-99174376D01*
X74809380Y-98947944D01*
X74765205Y-98725863D01*
X74678554Y-98516668D01*
X74552755Y-98328396D01*
X74392644Y-98168285D01*
X74204372Y-98042486D01*
X73995177Y-97955835D01*
X73773096Y-97911660D01*
X73546664Y-97911660D01*
X73324583Y-97955835D01*
X73115388Y-98042486D01*
X72927116Y-98168285D01*
X72767005Y-98328396D01*
X72641206Y-98516668D01*
X72554555Y-98725863D01*
X72510380Y-98947944D01*
X72256500Y-98947944D01*
X72256500Y-96407944D01*
X72510380Y-96407944D01*
X72510380Y-96634376D01*
X72554555Y-96856457D01*
X72641206Y-97065652D01*
X72767005Y-97253924D01*
X72927116Y-97414035D01*
X73115388Y-97539834D01*
X73324583Y-97626485D01*
X73546664Y-97670660D01*
X73773096Y-97670660D01*
X73995177Y-97626485D01*
X74204372Y-97539834D01*
X74392644Y-97414035D01*
X74552755Y-97253924D01*
X74678554Y-97065652D01*
X74765205Y-96856457D01*
X74809380Y-96634376D01*
X74809380Y-96407944D01*
X74765205Y-96185863D01*
X74678554Y-95976668D01*
X74552755Y-95788396D01*
X74392644Y-95628285D01*
X74204372Y-95502486D01*
X73995177Y-95415835D01*
X73773096Y-95371660D01*
X73546664Y-95371660D01*
X73324583Y-95415835D01*
X73115388Y-95502486D01*
X72927116Y-95628285D01*
X72767005Y-95788396D01*
X72641206Y-95976668D01*
X72554555Y-96185863D01*
X72510380Y-96407944D01*
X72256500Y-96407944D01*
X72256500Y-95278122D01*
X72291123Y-95243500D01*
X95221878Y-95243500D01*
X95256500Y-95278123D01*
G37*
X95256500Y-95278123D02*
X95256501Y-112339866D01*
X95064084Y-112147449D01*
X95085205Y-112096457D01*
X95129380Y-111874376D01*
X95129380Y-111647944D01*
X95085205Y-111425863D01*
X94998554Y-111216668D01*
X94872755Y-111028396D01*
X94712644Y-110868285D01*
X94524372Y-110742486D01*
X94315177Y-110655835D01*
X94093096Y-110611660D01*
X93866664Y-110611660D01*
X93644583Y-110655835D01*
X93435388Y-110742486D01*
X93247116Y-110868285D01*
X93087005Y-111028396D01*
X92961206Y-111216668D01*
X92874555Y-111425863D01*
X92830380Y-111647944D01*
X92830380Y-111874376D01*
X92874555Y-112096457D01*
X92916823Y-112198502D01*
X92901659Y-112183338D01*
X92803470Y-112117730D01*
X92694368Y-112072538D01*
X92578546Y-112049500D01*
X92460454Y-112049500D01*
X92397521Y-112062018D01*
X92397521Y-111501433D01*
X93593591Y-110305364D01*
X93644583Y-110326485D01*
X93866664Y-110370660D01*
X94093096Y-110370660D01*
X94315177Y-110326485D01*
X94524372Y-110239834D01*
X94712644Y-110114035D01*
X94872755Y-109953924D01*
X94998554Y-109765652D01*
X95085205Y-109556457D01*
X95129380Y-109334376D01*
X95129380Y-109107944D01*
X95085205Y-108885863D01*
X94998554Y-108676668D01*
X94872755Y-108488396D01*
X94712644Y-108328285D01*
X94524372Y-108202486D01*
X94315177Y-108115835D01*
X94093096Y-108071660D01*
X93866664Y-108071660D01*
X93644583Y-108115835D01*
X93435388Y-108202486D01*
X93247116Y-108328285D01*
X93087005Y-108488396D01*
X92961206Y-108676668D01*
X92874555Y-108885863D01*
X92830380Y-109107944D01*
X92830380Y-109334376D01*
X92874555Y-109556457D01*
X92895676Y-109607449D01*
X92323510Y-110179616D01*
X92323510Y-109034404D01*
X93161898Y-108196016D01*
X93186524Y-108175806D01*
X93201975Y-108156979D01*
X93593591Y-107765363D01*
X93644583Y-107786485D01*
X93866664Y-107830660D01*
X94093096Y-107830660D01*
X94315177Y-107786485D01*
X94524372Y-107699834D01*
X94712644Y-107574035D01*
X94872755Y-107413924D01*
X94998554Y-107225652D01*
X95085205Y-107016457D01*
X95129380Y-106794376D01*
X95129380Y-106567944D01*
X95085205Y-106345863D01*
X94998554Y-106136668D01*
X94872755Y-105948396D01*
X94712644Y-105788285D01*
X94524372Y-105662486D01*
X94315177Y-105575835D01*
X94093096Y-105531660D01*
X93866664Y-105531660D01*
X93644583Y-105575835D01*
X93435388Y-105662486D01*
X93247116Y-105788285D01*
X93087005Y-105948396D01*
X92961206Y-106136668D01*
X92874555Y-106345863D01*
X92830380Y-106567944D01*
X92830380Y-106794376D01*
X92874555Y-107016457D01*
X92895677Y-107067449D01*
X92508820Y-107454306D01*
X92484194Y-107474516D01*
X92468744Y-107493342D01*
X91709366Y-108252720D01*
X91690396Y-108229604D01*
X91614447Y-108167275D01*
X91527797Y-108120960D01*
X91433778Y-108092439D01*
X91336000Y-108082809D01*
X91036000Y-108082809D01*
X90938222Y-108092439D01*
X90844203Y-108120960D01*
X90757553Y-108167275D01*
X90681604Y-108229604D01*
X90619275Y-108305553D01*
X90572960Y-108392203D01*
X90551000Y-108464594D01*
X90529040Y-108392203D01*
X90482725Y-108305553D01*
X90420396Y-108229604D01*
X90344447Y-108167275D01*
X90257797Y-108120960D01*
X90163778Y-108092439D01*
X90066000Y-108082809D01*
X89766000Y-108082809D01*
X89668222Y-108092439D01*
X89574203Y-108120960D01*
X89487553Y-108167275D01*
X89411604Y-108229604D01*
X89349275Y-108305553D01*
X89302960Y-108392203D01*
X89281000Y-108464594D01*
X89259040Y-108392203D01*
X89212725Y-108305553D01*
X89150396Y-108229604D01*
X89074447Y-108167275D01*
X88987797Y-108120960D01*
X88893778Y-108092439D01*
X88796000Y-108082809D01*
X88703106Y-108082809D01*
X88977824Y-107808091D01*
X88996645Y-107792645D01*
X89012091Y-107773824D01*
X89012095Y-107773820D01*
X89058315Y-107717501D01*
X89074277Y-107687638D01*
X89104140Y-107631768D01*
X89132359Y-107538743D01*
X89139500Y-107466237D01*
X89139500Y-107466227D01*
X89141886Y-107442001D01*
X89139500Y-107417775D01*
X89139500Y-105647338D01*
X89150396Y-105638396D01*
X89212725Y-105562447D01*
X89259040Y-105475797D01*
X89281000Y-105403406D01*
X89302960Y-105475797D01*
X89349275Y-105562447D01*
X89411604Y-105638396D01*
X89487553Y-105700725D01*
X89574203Y-105747040D01*
X89668222Y-105775561D01*
X89766000Y-105785191D01*
X90066000Y-105785191D01*
X90163778Y-105775561D01*
X90257797Y-105747040D01*
X90344447Y-105700725D01*
X90420396Y-105638396D01*
X90482725Y-105562447D01*
X90529040Y-105475797D01*
X90551000Y-105403406D01*
X90572960Y-105475797D01*
X90619275Y-105562447D01*
X90681604Y-105638396D01*
X90757553Y-105700725D01*
X90844203Y-105747040D01*
X90938222Y-105775561D01*
X91036000Y-105785191D01*
X91336000Y-105785191D01*
X91433778Y-105775561D01*
X91527797Y-105747040D01*
X91614447Y-105700725D01*
X91690396Y-105638396D01*
X91752725Y-105562447D01*
X91799040Y-105475797D01*
X91827561Y-105381778D01*
X91837191Y-105284000D01*
X91837191Y-103634000D01*
X91827561Y-103536222D01*
X91799040Y-103442203D01*
X91752725Y-103355553D01*
X91690396Y-103279604D01*
X91614447Y-103217275D01*
X91527797Y-103170960D01*
X91433778Y-103142439D01*
X91336000Y-103132809D01*
X91036000Y-103132809D01*
X90938222Y-103142439D01*
X90844203Y-103170960D01*
X90757553Y-103217275D01*
X90681604Y-103279604D01*
X90619275Y-103355553D01*
X90572960Y-103442203D01*
X90551000Y-103514594D01*
X90529040Y-103442203D01*
X90482725Y-103355553D01*
X90420396Y-103279604D01*
X90344447Y-103217275D01*
X90257797Y-103170960D01*
X90163778Y-103142439D01*
X90066000Y-103132809D01*
X89987723Y-103132809D01*
X89793414Y-102938500D01*
X91961927Y-102938500D01*
X92867045Y-103843619D01*
X92830380Y-104027944D01*
X92830380Y-104254376D01*
X92874555Y-104476457D01*
X92961206Y-104685652D01*
X93087005Y-104873924D01*
X93247116Y-105034035D01*
X93435388Y-105159834D01*
X93644583Y-105246485D01*
X93866664Y-105290660D01*
X94093096Y-105290660D01*
X94315177Y-105246485D01*
X94524372Y-105159834D01*
X94712644Y-105034035D01*
X94872755Y-104873924D01*
X94998554Y-104685652D01*
X95085205Y-104476457D01*
X95129380Y-104254376D01*
X95129380Y-104027944D01*
X95085205Y-103805863D01*
X94998554Y-103596668D01*
X94872755Y-103408396D01*
X94712644Y-103248285D01*
X94524372Y-103122486D01*
X94315177Y-103035835D01*
X94093096Y-102991660D01*
X93866664Y-102991660D01*
X93682339Y-103028325D01*
X92832926Y-102178913D01*
X92848509Y-102180448D01*
X92876816Y-102177660D01*
X92982593Y-102177660D01*
X93087005Y-102333924D01*
X93247116Y-102494035D01*
X93435388Y-102619834D01*
X93644583Y-102706485D01*
X93866664Y-102750660D01*
X94093096Y-102750660D01*
X94315177Y-102706485D01*
X94524372Y-102619834D01*
X94712644Y-102494035D01*
X94872755Y-102333924D01*
X94998554Y-102145652D01*
X95085205Y-101936457D01*
X95129380Y-101714376D01*
X95129380Y-101487944D01*
X95085205Y-101265863D01*
X94998554Y-101056668D01*
X94872755Y-100868396D01*
X94712644Y-100708285D01*
X94524372Y-100582486D01*
X94315177Y-100495835D01*
X94093096Y-100451660D01*
X93866664Y-100451660D01*
X93644583Y-100495835D01*
X93435388Y-100582486D01*
X93247116Y-100708285D01*
X93087005Y-100868396D01*
X92982593Y-101024660D01*
X92887445Y-101024660D01*
X92875667Y-101023500D01*
X92875659Y-101023500D01*
X92847350Y-101020712D01*
X92834340Y-101021993D01*
X93682339Y-100173995D01*
X93866664Y-100210660D01*
X94093096Y-100210660D01*
X94315177Y-100166485D01*
X94524372Y-100079834D01*
X94712644Y-99954035D01*
X94872755Y-99793924D01*
X94998554Y-99605652D01*
X95085205Y-99396457D01*
X95129380Y-99174376D01*
X95129380Y-98947944D01*
X95085205Y-98725863D01*
X94998554Y-98516668D01*
X94872755Y-98328396D01*
X94712644Y-98168285D01*
X94524372Y-98042486D01*
X94315177Y-97955835D01*
X94093096Y-97911660D01*
X93866664Y-97911660D01*
X93644583Y-97955835D01*
X93435388Y-98042486D01*
X93247116Y-98168285D01*
X93087005Y-98328396D01*
X92961206Y-98516668D01*
X92874555Y-98725863D01*
X92830380Y-98947944D01*
X92830380Y-99174376D01*
X92867045Y-99358701D01*
X91964247Y-100261500D01*
X87584362Y-100261500D01*
X87647745Y-100227621D01*
X87767962Y-100128962D01*
X87792693Y-100098827D01*
X90038365Y-97853156D01*
X90124934Y-97899428D01*
X90237713Y-97933639D01*
X90354999Y-97945191D01*
X91255001Y-97945191D01*
X91372287Y-97933639D01*
X91485066Y-97899428D01*
X91589004Y-97843872D01*
X91680107Y-97769107D01*
X91754872Y-97678004D01*
X91810428Y-97574066D01*
X91844639Y-97461287D01*
X91856191Y-97344001D01*
X91856191Y-97212546D01*
X91873962Y-97197962D01*
X91972621Y-97077745D01*
X92045932Y-96940590D01*
X92091077Y-96791769D01*
X92106320Y-96637000D01*
X92091077Y-96482231D01*
X92068542Y-96407944D01*
X92830380Y-96407944D01*
X92830380Y-96634376D01*
X92874555Y-96856457D01*
X92961206Y-97065652D01*
X93087005Y-97253924D01*
X93247116Y-97414035D01*
X93435388Y-97539834D01*
X93644583Y-97626485D01*
X93866664Y-97670660D01*
X94093096Y-97670660D01*
X94315177Y-97626485D01*
X94524372Y-97539834D01*
X94712644Y-97414035D01*
X94872755Y-97253924D01*
X94998554Y-97065652D01*
X95085205Y-96856457D01*
X95129380Y-96634376D01*
X95129380Y-96407944D01*
X95085205Y-96185863D01*
X94998554Y-95976668D01*
X94872755Y-95788396D01*
X94712644Y-95628285D01*
X94524372Y-95502486D01*
X94315177Y-95415835D01*
X94093096Y-95371660D01*
X93866664Y-95371660D01*
X93644583Y-95415835D01*
X93435388Y-95502486D01*
X93247116Y-95628285D01*
X93087005Y-95788396D01*
X92961206Y-95976668D01*
X92874555Y-96185863D01*
X92830380Y-96407944D01*
X92068542Y-96407944D01*
X92045932Y-96333410D01*
X91972621Y-96196255D01*
X91873962Y-96076038D01*
X91753745Y-95977379D01*
X91616590Y-95904068D01*
X91467769Y-95858923D01*
X91351786Y-95847500D01*
X90176783Y-95847500D01*
X90138000Y-95843680D01*
X90099216Y-95847500D01*
X90099214Y-95847500D01*
X89983231Y-95858923D01*
X89834410Y-95904068D01*
X89811522Y-95916302D01*
X89697254Y-95977379D01*
X89639254Y-96024979D01*
X89577038Y-96076038D01*
X89552311Y-96106168D01*
X86879980Y-98778500D01*
X83731775Y-98778500D01*
X83692999Y-98774681D01*
X83654223Y-98778500D01*
X83654214Y-98778500D01*
X83538231Y-98789923D01*
X83389410Y-98835068D01*
X83252255Y-98908379D01*
X83132038Y-99007038D01*
X83107313Y-99037166D01*
X82726314Y-99418166D01*
X82652379Y-99508255D01*
X82579069Y-99645410D01*
X82533924Y-99794232D01*
X82518680Y-99949000D01*
X82533924Y-100103768D01*
X82579069Y-100252590D01*
X82583831Y-100261500D01*
X78470794Y-100261500D01*
X77747163Y-99537870D01*
X77681662Y-99439841D01*
X77598159Y-99356338D01*
X77499970Y-99290730D01*
X77390868Y-99245538D01*
X77275046Y-99222500D01*
X77156954Y-99222500D01*
X77041132Y-99245538D01*
X76932030Y-99290730D01*
X76833841Y-99356338D01*
X76750338Y-99439841D01*
X76684730Y-99538030D01*
X76639538Y-99647132D01*
X76616500Y-99762954D01*
X76616500Y-99881046D01*
X76639538Y-99996868D01*
X76684730Y-100105970D01*
X76750338Y-100204159D01*
X76833841Y-100287662D01*
X76931870Y-100353163D01*
X77337661Y-100758955D01*
X77275046Y-100746500D01*
X77156954Y-100746500D01*
X77041132Y-100769538D01*
X76932030Y-100814730D01*
X76833841Y-100880338D01*
X76750338Y-100963841D01*
X76684730Y-101062030D01*
X76639538Y-101171132D01*
X76616500Y-101286954D01*
X76616500Y-101405046D01*
X76639538Y-101520868D01*
X76684730Y-101629970D01*
X76750338Y-101728159D01*
X76833841Y-101811662D01*
X76931869Y-101877162D01*
X77042329Y-101987623D01*
X77060381Y-102009619D01*
X77148164Y-102081661D01*
X77248316Y-102135193D01*
X77356650Y-102168056D01*
X76931870Y-102592837D01*
X76833841Y-102658338D01*
X76750338Y-102741841D01*
X76684730Y-102840030D01*
X76639538Y-102949132D01*
X76616500Y-103064954D01*
X76616500Y-103183046D01*
X76639538Y-103298868D01*
X76684730Y-103407970D01*
X76750338Y-103506159D01*
X76833841Y-103589662D01*
X76932030Y-103655270D01*
X77041132Y-103700462D01*
X77077408Y-103707678D01*
X74852177Y-105932909D01*
X74833356Y-105948355D01*
X74817910Y-105967176D01*
X74817905Y-105967181D01*
X74771685Y-106023500D01*
X74725860Y-106109233D01*
X74713342Y-106150500D01*
X74701058Y-106190997D01*
X74678554Y-106136668D01*
X74552755Y-105948396D01*
X74392644Y-105788285D01*
X74204372Y-105662486D01*
X73995177Y-105575835D01*
X73773096Y-105531660D01*
X73546664Y-105531660D01*
X73324583Y-105575835D01*
X73115388Y-105662486D01*
X72927116Y-105788285D01*
X72767005Y-105948396D01*
X72641206Y-106136668D01*
X72554555Y-106345863D01*
X72510380Y-106567944D01*
X72510380Y-106794376D01*
X72554555Y-107016457D01*
X72641206Y-107225652D01*
X72767005Y-107413924D01*
X72927116Y-107574035D01*
X73115388Y-107699834D01*
X73324583Y-107786485D01*
X73546664Y-107830660D01*
X73773096Y-107830660D01*
X73995177Y-107786485D01*
X74204372Y-107699834D01*
X74392644Y-107574035D01*
X74552755Y-107413924D01*
X74678554Y-107225652D01*
X74690501Y-107196810D01*
X74690500Y-108705509D01*
X74678554Y-108676668D01*
X74552755Y-108488396D01*
X74392644Y-108328285D01*
X74204372Y-108202486D01*
X73995177Y-108115835D01*
X73773096Y-108071660D01*
X73546664Y-108071660D01*
X73324583Y-108115835D01*
X73115388Y-108202486D01*
X72927116Y-108328285D01*
X72767005Y-108488396D01*
X72641206Y-108676668D01*
X72554555Y-108885863D01*
X72510380Y-109107944D01*
X72510380Y-109334376D01*
X72554555Y-109556457D01*
X72641206Y-109765652D01*
X72767005Y-109953924D01*
X72927116Y-110114035D01*
X73115388Y-110239834D01*
X73324583Y-110326485D01*
X73546664Y-110370660D01*
X73773096Y-110370660D01*
X73995177Y-110326485D01*
X74204372Y-110239834D01*
X74392644Y-110114035D01*
X74552755Y-109953924D01*
X74678554Y-109765652D01*
X74690500Y-109736811D01*
X74690500Y-110032625D01*
X74046169Y-110676956D01*
X73995177Y-110655835D01*
X73773096Y-110611660D01*
X73546664Y-110611660D01*
X73324583Y-110655835D01*
X73115388Y-110742486D01*
X72927116Y-110868285D01*
X72767005Y-111028396D01*
X72641206Y-111216668D01*
X72554555Y-111425863D01*
X72510380Y-111647944D01*
X72510380Y-111874376D01*
X72554555Y-112096457D01*
X72641206Y-112305652D01*
X72767005Y-112493924D01*
X72927116Y-112654035D01*
X73115388Y-112779834D01*
X73324583Y-112866485D01*
X73546664Y-112910660D01*
X73773096Y-112910660D01*
X73995177Y-112866485D01*
X74204372Y-112779834D01*
X74392644Y-112654035D01*
X74552755Y-112493924D01*
X74678554Y-112305652D01*
X74765205Y-112096457D01*
X74809380Y-111874376D01*
X74809380Y-111647944D01*
X74765205Y-111425863D01*
X74744084Y-111374871D01*
X75515824Y-110603131D01*
X75534645Y-110587685D01*
X75550091Y-110568864D01*
X75550095Y-110568860D01*
X75596315Y-110512541D01*
X75642140Y-110426808D01*
X75648867Y-110404631D01*
X75670359Y-110333783D01*
X75677500Y-110261277D01*
X75677500Y-110261267D01*
X75679886Y-110237041D01*
X75677500Y-110212815D01*
X75677500Y-106503414D01*
X78690415Y-103490500D01*
X82938309Y-103490500D01*
X82924439Y-103536222D01*
X82914809Y-103634000D01*
X82914809Y-105284000D01*
X82916139Y-105297500D01*
X79399226Y-105297500D01*
X79375000Y-105295114D01*
X79350774Y-105297500D01*
X79350763Y-105297500D01*
X79278257Y-105304641D01*
X79191799Y-105330868D01*
X79185232Y-105332860D01*
X79099499Y-105378685D01*
X79043180Y-105424905D01*
X79043176Y-105424909D01*
X79024355Y-105440355D01*
X79008909Y-105459176D01*
X77011177Y-107456909D01*
X76992356Y-107472355D01*
X76976910Y-107491176D01*
X76976905Y-107491181D01*
X76930685Y-107547500D01*
X76884860Y-107633233D01*
X76865281Y-107697778D01*
X76859299Y-107717500D01*
X76856642Y-107726258D01*
X76847114Y-107823000D01*
X76849501Y-107847236D01*
X76849500Y-112742225D01*
X73115176Y-116476550D01*
X73096355Y-116491996D01*
X73080909Y-116510817D01*
X73080904Y-116510822D01*
X73034684Y-116567141D01*
X72988859Y-116652874D01*
X72983208Y-116671505D01*
X72960641Y-116745898D01*
X72957764Y-116775106D01*
X72951113Y-116842641D01*
X72953500Y-116866877D01*
X72953499Y-120285773D01*
X72951113Y-120309999D01*
X72953499Y-120334225D01*
X72953499Y-120334235D01*
X72960640Y-120406741D01*
X72988859Y-120499766D01*
X73034684Y-120585499D01*
X73096354Y-120660644D01*
X73115180Y-120676094D01*
X73451275Y-121012190D01*
X73464538Y-121078868D01*
X73509730Y-121187970D01*
X73575338Y-121286159D01*
X73658841Y-121369662D01*
X73757030Y-121435270D01*
X73866132Y-121480462D01*
X73981954Y-121503500D01*
X74100046Y-121503500D01*
X74215868Y-121480462D01*
X74324970Y-121435270D01*
X74423159Y-121369662D01*
X74506662Y-121286159D01*
X74563501Y-121201094D01*
X74563501Y-121588585D01*
X74163277Y-121988809D01*
X72810000Y-121988809D01*
X72741486Y-121995557D01*
X72675605Y-122015542D01*
X72614889Y-122047995D01*
X72561670Y-122091670D01*
X72517995Y-122144889D01*
X72485542Y-122205605D01*
X72465557Y-122271486D01*
X72458809Y-122340000D01*
X72458809Y-124040000D01*
X72465557Y-124108514D01*
X72485542Y-124174395D01*
X72505909Y-124212500D01*
X72291123Y-124212500D01*
X72256500Y-124177878D01*
X72256500Y-104027944D01*
X72510380Y-104027944D01*
X72510380Y-104254376D01*
X72554555Y-104476457D01*
X72641206Y-104685652D01*
X72767005Y-104873924D01*
X72927116Y-105034035D01*
X73115388Y-105159834D01*
X73324583Y-105246485D01*
X73546664Y-105290660D01*
X73773096Y-105290660D01*
X73995177Y-105246485D01*
X74204372Y-105159834D01*
X74392644Y-105034035D01*
X74552755Y-104873924D01*
X74678554Y-104685652D01*
X74765205Y-104476457D01*
X74809380Y-104254376D01*
X74809380Y-104027944D01*
X74765205Y-103805863D01*
X74678554Y-103596668D01*
X74552755Y-103408396D01*
X74392644Y-103248285D01*
X74204372Y-103122486D01*
X73995177Y-103035835D01*
X73773096Y-102991660D01*
X73546664Y-102991660D01*
X73324583Y-103035835D01*
X73115388Y-103122486D01*
X72927116Y-103248285D01*
X72767005Y-103408396D01*
X72641206Y-103596668D01*
X72554555Y-103805863D01*
X72510380Y-104027944D01*
X72256500Y-104027944D01*
X72256500Y-101487944D01*
X72510380Y-101487944D01*
X72510380Y-101714376D01*
X72554555Y-101936457D01*
X72641206Y-102145652D01*
X72767005Y-102333924D01*
X72927116Y-102494035D01*
X73115388Y-102619834D01*
X73324583Y-102706485D01*
X73546664Y-102750660D01*
X73773096Y-102750660D01*
X73995177Y-102706485D01*
X74204372Y-102619834D01*
X74392644Y-102494035D01*
X74552755Y-102333924D01*
X74678554Y-102145652D01*
X74765205Y-101936457D01*
X74809380Y-101714376D01*
X74809380Y-101487944D01*
X74765205Y-101265863D01*
X74678554Y-101056668D01*
X74552755Y-100868396D01*
X74392644Y-100708285D01*
X74204372Y-100582486D01*
X73995177Y-100495835D01*
X73773096Y-100451660D01*
X73546664Y-100451660D01*
X73324583Y-100495835D01*
X73115388Y-100582486D01*
X72927116Y-100708285D01*
X72767005Y-100868396D01*
X72641206Y-101056668D01*
X72554555Y-101265863D01*
X72510380Y-101487944D01*
X72256500Y-101487944D01*
X72256500Y-98947944D01*
X72510380Y-98947944D01*
X72510380Y-99174376D01*
X72554555Y-99396457D01*
X72641206Y-99605652D01*
X72767005Y-99793924D01*
X72927116Y-99954035D01*
X73115388Y-100079834D01*
X73324583Y-100166485D01*
X73546664Y-100210660D01*
X73773096Y-100210660D01*
X73995177Y-100166485D01*
X74204372Y-100079834D01*
X74392644Y-99954035D01*
X74552755Y-99793924D01*
X74678554Y-99605652D01*
X74765205Y-99396457D01*
X74809380Y-99174376D01*
X74809380Y-98947944D01*
X74765205Y-98725863D01*
X74678554Y-98516668D01*
X74552755Y-98328396D01*
X74392644Y-98168285D01*
X74204372Y-98042486D01*
X73995177Y-97955835D01*
X73773096Y-97911660D01*
X73546664Y-97911660D01*
X73324583Y-97955835D01*
X73115388Y-98042486D01*
X72927116Y-98168285D01*
X72767005Y-98328396D01*
X72641206Y-98516668D01*
X72554555Y-98725863D01*
X72510380Y-98947944D01*
X72256500Y-98947944D01*
X72256500Y-96407944D01*
X72510380Y-96407944D01*
X72510380Y-96634376D01*
X72554555Y-96856457D01*
X72641206Y-97065652D01*
X72767005Y-97253924D01*
X72927116Y-97414035D01*
X73115388Y-97539834D01*
X73324583Y-97626485D01*
X73546664Y-97670660D01*
X73773096Y-97670660D01*
X73995177Y-97626485D01*
X74204372Y-97539834D01*
X74392644Y-97414035D01*
X74552755Y-97253924D01*
X74678554Y-97065652D01*
X74765205Y-96856457D01*
X74809380Y-96634376D01*
X74809380Y-96407944D01*
X74765205Y-96185863D01*
X74678554Y-95976668D01*
X74552755Y-95788396D01*
X74392644Y-95628285D01*
X74204372Y-95502486D01*
X73995177Y-95415835D01*
X73773096Y-95371660D01*
X73546664Y-95371660D01*
X73324583Y-95415835D01*
X73115388Y-95502486D01*
X72927116Y-95628285D01*
X72767005Y-95788396D01*
X72641206Y-95976668D01*
X72554555Y-96185863D01*
X72510380Y-96407944D01*
X72256500Y-96407944D01*
X72256500Y-95278122D01*
X72291123Y-95243500D01*
X95221878Y-95243500D01*
X95256500Y-95278123D01*
G36*
X94481510Y-114790944D02*
G01*
X94481510Y-114909036D01*
X94504548Y-115024858D01*
X94549740Y-115133960D01*
X94615348Y-115232149D01*
X94698851Y-115315652D01*
X94717900Y-115328381D01*
X94657338Y-115388943D01*
X94591730Y-115487132D01*
X94546538Y-115596234D01*
X94523500Y-115712056D01*
X94523500Y-115830148D01*
X94546538Y-115945970D01*
X94591730Y-116055072D01*
X94629500Y-116111599D01*
X94629500Y-116227645D01*
X92056647Y-118800499D01*
X88977820Y-118800499D01*
X88964659Y-118787338D01*
X88866470Y-118721730D01*
X88757368Y-118676538D01*
X88641546Y-118653500D01*
X88523454Y-118653500D01*
X88407632Y-118676538D01*
X88298530Y-118721730D01*
X88200341Y-118787338D01*
X88116838Y-118870841D01*
X88051230Y-118969030D01*
X88006038Y-119078132D01*
X87983000Y-119193954D01*
X87983000Y-119312046D01*
X88006038Y-119427868D01*
X88051230Y-119536970D01*
X88116838Y-119635159D01*
X88200341Y-119718662D01*
X88298530Y-119784270D01*
X88407632Y-119829462D01*
X88523454Y-119852500D01*
X88618000Y-119852500D01*
X88618000Y-119947046D01*
X88641038Y-120062868D01*
X88679822Y-120156500D01*
X87400225Y-120156500D01*
X87375999Y-120154114D01*
X87351773Y-120156500D01*
X87351763Y-120156500D01*
X87279257Y-120163641D01*
X87186232Y-120191860D01*
X87159342Y-120206233D01*
X87100499Y-120237685D01*
X87061449Y-120269733D01*
X87025355Y-120299355D01*
X87009905Y-120318181D01*
X86663586Y-120664500D01*
X85114225Y-120664500D01*
X85089999Y-120662114D01*
X85065773Y-120664500D01*
X85065763Y-120664500D01*
X84993257Y-120671641D01*
X84900232Y-120699860D01*
X84876083Y-120712768D01*
X84814499Y-120745685D01*
X84777755Y-120775841D01*
X84739355Y-120807355D01*
X84723905Y-120826181D01*
X84377586Y-121172500D01*
X82828225Y-121172500D01*
X82803999Y-121170114D01*
X82779773Y-121172500D01*
X82779763Y-121172500D01*
X82707257Y-121179641D01*
X82614232Y-121207860D01*
X82563195Y-121235140D01*
X82528499Y-121253685D01*
X82472180Y-121299905D01*
X82472176Y-121299909D01*
X82453355Y-121315355D01*
X82437909Y-121334176D01*
X81783276Y-121988809D01*
X80430000Y-121988809D01*
X80361486Y-121995557D01*
X80295605Y-122015542D01*
X80234889Y-122047995D01*
X80181670Y-122091670D01*
X80137995Y-122144889D01*
X80105542Y-122205605D01*
X80085557Y-122271486D01*
X80078809Y-122340000D01*
X80078809Y-124040000D01*
X80085557Y-124108514D01*
X80105542Y-124174395D01*
X80125909Y-124212500D01*
X79894091Y-124212500D01*
X79914458Y-124174395D01*
X79934443Y-124108514D01*
X79941191Y-124040000D01*
X79941191Y-122340000D01*
X79934443Y-122271486D01*
X79914458Y-122205605D01*
X79882005Y-122144889D01*
X79838330Y-122091670D01*
X79785111Y-122047995D01*
X79724395Y-122015542D01*
X79658514Y-121995557D01*
X79590000Y-121988809D01*
X77890000Y-121988809D01*
X77821486Y-121995557D01*
X77755605Y-122015542D01*
X77694889Y-122047995D01*
X77641670Y-122091670D01*
X77597995Y-122144889D01*
X77565542Y-122205605D01*
X77545557Y-122271486D01*
X77538809Y-122340000D01*
X77538809Y-124040000D01*
X77545557Y-124108514D01*
X77565542Y-124174395D01*
X77585909Y-124212500D01*
X77354091Y-124212500D01*
X77374458Y-124174395D01*
X77394443Y-124108514D01*
X77401191Y-124040000D01*
X77401191Y-122340000D01*
X77394443Y-122271486D01*
X77374458Y-122205605D01*
X77342005Y-122144889D01*
X77298330Y-122091670D01*
X77245111Y-122047995D01*
X77184395Y-122015542D01*
X77118514Y-121995557D01*
X77050000Y-121988809D01*
X75511911Y-121988809D01*
X75515139Y-121982769D01*
X75515140Y-121982768D01*
X75543359Y-121889743D01*
X75550500Y-121817237D01*
X75550500Y-121817227D01*
X75552886Y-121793001D01*
X75550500Y-121768775D01*
X75550500Y-121455095D01*
X75607338Y-121540159D01*
X75690841Y-121623662D01*
X75789030Y-121689270D01*
X75898132Y-121734462D01*
X76013954Y-121757500D01*
X76132046Y-121757500D01*
X76247868Y-121734462D01*
X76328190Y-121701191D01*
X76770001Y-121701191D01*
X76887287Y-121689639D01*
X77000066Y-121655428D01*
X77104004Y-121599872D01*
X77195107Y-121525107D01*
X77269872Y-121434004D01*
X77325428Y-121330066D01*
X77359639Y-121217287D01*
X77371191Y-121100001D01*
X77371191Y-120430724D01*
X77568809Y-120233106D01*
X77568809Y-121100001D01*
X77580361Y-121217287D01*
X77614572Y-121330066D01*
X77670128Y-121434004D01*
X77744893Y-121525107D01*
X77835996Y-121599872D01*
X77939934Y-121655428D01*
X78052713Y-121689639D01*
X78169999Y-121701191D01*
X78820001Y-121701191D01*
X78937287Y-121689639D01*
X79050066Y-121655428D01*
X79154004Y-121599872D01*
X79245107Y-121525107D01*
X79319872Y-121434004D01*
X79375428Y-121330066D01*
X79409639Y-121217287D01*
X79421191Y-121100001D01*
X79421191Y-120199999D01*
X79409639Y-120082713D01*
X79375428Y-119969934D01*
X79319872Y-119865996D01*
X79284500Y-119822894D01*
X79284500Y-119572106D01*
X79319872Y-119529004D01*
X79375428Y-119425066D01*
X79406844Y-119321500D01*
X86231993Y-119321500D01*
X86260302Y-119324288D01*
X86288611Y-119321500D01*
X86288619Y-119321500D01*
X86373316Y-119313158D01*
X86481986Y-119280193D01*
X86582138Y-119226661D01*
X86669921Y-119154619D01*
X86687976Y-119132619D01*
X87441345Y-118379251D01*
X88924940Y-118379251D01*
X88953249Y-118382039D01*
X88981558Y-118379251D01*
X88981566Y-118379251D01*
X89066263Y-118370909D01*
X89174933Y-118337944D01*
X89275085Y-118284412D01*
X89362868Y-118212370D01*
X89380923Y-118190370D01*
X89519793Y-118051500D01*
X90740493Y-118051500D01*
X90768802Y-118054288D01*
X90797111Y-118051500D01*
X90797119Y-118051500D01*
X90881816Y-118043158D01*
X90990486Y-118010193D01*
X91090638Y-117956661D01*
X91178421Y-117884619D01*
X91196476Y-117862619D01*
X92907125Y-116151971D01*
X92929119Y-116133921D01*
X92948651Y-116110122D01*
X93001161Y-116046138D01*
X93008979Y-116031511D01*
X93054693Y-115945986D01*
X93087658Y-115837316D01*
X93096000Y-115752619D01*
X93096000Y-115752611D01*
X93098788Y-115724302D01*
X93096000Y-115695993D01*
X93096000Y-115491293D01*
X93543328Y-115043966D01*
X93544627Y-115042887D01*
X93560974Y-115026347D01*
X93577616Y-115010089D01*
X93579780Y-115007514D01*
X93582170Y-115005124D01*
X93583251Y-115003807D01*
X93811669Y-114772691D01*
X94366501Y-114772691D01*
X94483787Y-114761139D01*
X94487673Y-114759960D01*
X94481510Y-114790944D01*
G37*
X94481510Y-114790944D02*
X94481510Y-114909036D01*
X94504548Y-115024858D01*
X94549740Y-115133960D01*
X94615348Y-115232149D01*
X94698851Y-115315652D01*
X94717900Y-115328381D01*
X94657338Y-115388943D01*
X94591730Y-115487132D01*
X94546538Y-115596234D01*
X94523500Y-115712056D01*
X94523500Y-115830148D01*
X94546538Y-115945970D01*
X94591730Y-116055072D01*
X94629500Y-116111599D01*
X94629500Y-116227645D01*
X92056647Y-118800499D01*
X88977820Y-118800499D01*
X88964659Y-118787338D01*
X88866470Y-118721730D01*
X88757368Y-118676538D01*
X88641546Y-118653500D01*
X88523454Y-118653500D01*
X88407632Y-118676538D01*
X88298530Y-118721730D01*
X88200341Y-118787338D01*
X88116838Y-118870841D01*
X88051230Y-118969030D01*
X88006038Y-119078132D01*
X87983000Y-119193954D01*
X87983000Y-119312046D01*
X88006038Y-119427868D01*
X88051230Y-119536970D01*
X88116838Y-119635159D01*
X88200341Y-119718662D01*
X88298530Y-119784270D01*
X88407632Y-119829462D01*
X88523454Y-119852500D01*
X88618000Y-119852500D01*
X88618000Y-119947046D01*
X88641038Y-120062868D01*
X88679822Y-120156500D01*
X87400225Y-120156500D01*
X87375999Y-120154114D01*
X87351773Y-120156500D01*
X87351763Y-120156500D01*
X87279257Y-120163641D01*
X87186232Y-120191860D01*
X87159342Y-120206233D01*
X87100499Y-120237685D01*
X87061449Y-120269733D01*
X87025355Y-120299355D01*
X87009905Y-120318181D01*
X86663586Y-120664500D01*
X85114225Y-120664500D01*
X85089999Y-120662114D01*
X85065773Y-120664500D01*
X85065763Y-120664500D01*
X84993257Y-120671641D01*
X84900232Y-120699860D01*
X84876083Y-120712768D01*
X84814499Y-120745685D01*
X84777755Y-120775841D01*
X84739355Y-120807355D01*
X84723905Y-120826181D01*
X84377586Y-121172500D01*
X82828225Y-121172500D01*
X82803999Y-121170114D01*
X82779773Y-121172500D01*
X82779763Y-121172500D01*
X82707257Y-121179641D01*
X82614232Y-121207860D01*
X82563195Y-121235140D01*
X82528499Y-121253685D01*
X82472180Y-121299905D01*
X82472176Y-121299909D01*
X82453355Y-121315355D01*
X82437909Y-121334176D01*
X81783276Y-121988809D01*
X80430000Y-121988809D01*
X80361486Y-121995557D01*
X80295605Y-122015542D01*
X80234889Y-122047995D01*
X80181670Y-122091670D01*
X80137995Y-122144889D01*
X80105542Y-122205605D01*
X80085557Y-122271486D01*
X80078809Y-122340000D01*
X80078809Y-124040000D01*
X80085557Y-124108514D01*
X80105542Y-124174395D01*
X80125909Y-124212500D01*
X79894091Y-124212500D01*
X79914458Y-124174395D01*
X79934443Y-124108514D01*
X79941191Y-124040000D01*
X79941191Y-122340000D01*
X79934443Y-122271486D01*
X79914458Y-122205605D01*
X79882005Y-122144889D01*
X79838330Y-122091670D01*
X79785111Y-122047995D01*
X79724395Y-122015542D01*
X79658514Y-121995557D01*
X79590000Y-121988809D01*
X77890000Y-121988809D01*
X77821486Y-121995557D01*
X77755605Y-122015542D01*
X77694889Y-122047995D01*
X77641670Y-122091670D01*
X77597995Y-122144889D01*
X77565542Y-122205605D01*
X77545557Y-122271486D01*
X77538809Y-122340000D01*
X77538809Y-124040000D01*
X77545557Y-124108514D01*
X77565542Y-124174395D01*
X77585909Y-124212500D01*
X77354091Y-124212500D01*
X77374458Y-124174395D01*
X77394443Y-124108514D01*
X77401191Y-124040000D01*
X77401191Y-122340000D01*
X77394443Y-122271486D01*
X77374458Y-122205605D01*
X77342005Y-122144889D01*
X77298330Y-122091670D01*
X77245111Y-122047995D01*
X77184395Y-122015542D01*
X77118514Y-121995557D01*
X77050000Y-121988809D01*
X75511911Y-121988809D01*
X75515139Y-121982769D01*
X75515140Y-121982768D01*
X75543359Y-121889743D01*
X75550500Y-121817237D01*
X75550500Y-121817227D01*
X75552886Y-121793001D01*
X75550500Y-121768775D01*
X75550500Y-121455095D01*
X75607338Y-121540159D01*
X75690841Y-121623662D01*
X75789030Y-121689270D01*
X75898132Y-121734462D01*
X76013954Y-121757500D01*
X76132046Y-121757500D01*
X76247868Y-121734462D01*
X76328190Y-121701191D01*
X76770001Y-121701191D01*
X76887287Y-121689639D01*
X77000066Y-121655428D01*
X77104004Y-121599872D01*
X77195107Y-121525107D01*
X77269872Y-121434004D01*
X77325428Y-121330066D01*
X77359639Y-121217287D01*
X77371191Y-121100001D01*
X77371191Y-120430724D01*
X77568809Y-120233106D01*
X77568809Y-121100001D01*
X77580361Y-121217287D01*
X77614572Y-121330066D01*
X77670128Y-121434004D01*
X77744893Y-121525107D01*
X77835996Y-121599872D01*
X77939934Y-121655428D01*
X78052713Y-121689639D01*
X78169999Y-121701191D01*
X78820001Y-121701191D01*
X78937287Y-121689639D01*
X79050066Y-121655428D01*
X79154004Y-121599872D01*
X79245107Y-121525107D01*
X79319872Y-121434004D01*
X79375428Y-121330066D01*
X79409639Y-121217287D01*
X79421191Y-121100001D01*
X79421191Y-120199999D01*
X79409639Y-120082713D01*
X79375428Y-119969934D01*
X79319872Y-119865996D01*
X79284500Y-119822894D01*
X79284500Y-119572106D01*
X79319872Y-119529004D01*
X79375428Y-119425066D01*
X79406844Y-119321500D01*
X86231993Y-119321500D01*
X86260302Y-119324288D01*
X86288611Y-119321500D01*
X86288619Y-119321500D01*
X86373316Y-119313158D01*
X86481986Y-119280193D01*
X86582138Y-119226661D01*
X86669921Y-119154619D01*
X86687976Y-119132619D01*
X87441345Y-118379251D01*
X88924940Y-118379251D01*
X88953249Y-118382039D01*
X88981558Y-118379251D01*
X88981566Y-118379251D01*
X89066263Y-118370909D01*
X89174933Y-118337944D01*
X89275085Y-118284412D01*
X89362868Y-118212370D01*
X89380923Y-118190370D01*
X89519793Y-118051500D01*
X90740493Y-118051500D01*
X90768802Y-118054288D01*
X90797111Y-118051500D01*
X90797119Y-118051500D01*
X90881816Y-118043158D01*
X90990486Y-118010193D01*
X91090638Y-117956661D01*
X91178421Y-117884619D01*
X91196476Y-117862619D01*
X92907125Y-116151971D01*
X92929119Y-116133921D01*
X92948651Y-116110122D01*
X93001161Y-116046138D01*
X93008979Y-116031511D01*
X93054693Y-115945986D01*
X93087658Y-115837316D01*
X93096000Y-115752619D01*
X93096000Y-115752611D01*
X93098788Y-115724302D01*
X93096000Y-115695993D01*
X93096000Y-115491293D01*
X93543328Y-115043966D01*
X93544627Y-115042887D01*
X93560974Y-115026347D01*
X93577616Y-115010089D01*
X93579780Y-115007514D01*
X93582170Y-115005124D01*
X93583251Y-115003807D01*
X93811669Y-114772691D01*
X94366501Y-114772691D01*
X94483787Y-114761139D01*
X94487673Y-114759960D01*
X94481510Y-114790944D01*
G36*
X84778895Y-108082809D02*
G01*
X84686000Y-108082809D01*
X84588222Y-108092439D01*
X84494203Y-108120960D01*
X84407553Y-108167275D01*
X84331604Y-108229604D01*
X84269275Y-108305553D01*
X84222960Y-108392203D01*
X84194439Y-108486222D01*
X84184809Y-108584000D01*
X84184809Y-110062276D01*
X83592680Y-110654405D01*
X83573854Y-110669856D01*
X83512184Y-110745001D01*
X83466359Y-110830734D01*
X83438140Y-110923759D01*
X83430999Y-110996265D01*
X83430999Y-110996275D01*
X83428613Y-111020501D01*
X83430999Y-111044727D01*
X83431000Y-114446413D01*
X83428613Y-114470649D01*
X83438141Y-114567391D01*
X83466359Y-114660416D01*
X83512184Y-114746149D01*
X83558404Y-114802468D01*
X83558409Y-114802473D01*
X83573855Y-114821294D01*
X83592676Y-114836740D01*
X83733065Y-114977129D01*
X83684990Y-114937675D01*
X83599258Y-114891850D01*
X83506233Y-114863631D01*
X83433727Y-114856490D01*
X83433716Y-114856490D01*
X83409490Y-114854104D01*
X83385264Y-114856490D01*
X82602507Y-114856490D01*
X82545980Y-114818720D01*
X82436878Y-114773528D01*
X82321056Y-114750490D01*
X82202964Y-114750490D01*
X82087142Y-114773528D01*
X81978040Y-114818720D01*
X81879851Y-114884328D01*
X81796348Y-114967831D01*
X81773380Y-115002205D01*
X81773380Y-112800955D01*
X81824372Y-112779834D01*
X82012644Y-112654035D01*
X82172755Y-112493924D01*
X82298554Y-112305652D01*
X82385205Y-112096457D01*
X82429380Y-111874376D01*
X82429380Y-111647944D01*
X82385205Y-111425863D01*
X82298554Y-111216668D01*
X82172755Y-111028396D01*
X82012644Y-110868285D01*
X81824372Y-110742486D01*
X81615177Y-110655835D01*
X81393096Y-110611660D01*
X81166664Y-110611660D01*
X80944583Y-110655835D01*
X80735388Y-110742486D01*
X80547116Y-110868285D01*
X80387005Y-111028396D01*
X80261206Y-111216668D01*
X80174555Y-111425863D01*
X80130380Y-111647944D01*
X80130380Y-111874376D01*
X80174555Y-112096457D01*
X80261206Y-112305652D01*
X80387005Y-112493924D01*
X80547116Y-112654035D01*
X80735388Y-112779834D01*
X80786381Y-112800956D01*
X80786380Y-115228154D01*
X80783994Y-115252380D01*
X80786380Y-115276606D01*
X80786380Y-115276616D01*
X80793521Y-115349122D01*
X80821740Y-115442147D01*
X80867565Y-115527880D01*
X80929235Y-115603025D01*
X80948061Y-115618475D01*
X81739409Y-116409824D01*
X81754855Y-116428645D01*
X81773676Y-116444091D01*
X81773680Y-116444095D01*
X81829999Y-116490315D01*
X81905182Y-116530501D01*
X81915732Y-116536140D01*
X82008757Y-116564359D01*
X82081263Y-116571500D01*
X82081273Y-116571500D01*
X82105499Y-116573886D01*
X82129725Y-116571500D01*
X83242936Y-116571500D01*
X83987190Y-117315754D01*
X84040855Y-117381145D01*
X84059681Y-117396596D01*
X84831585Y-118168500D01*
X79406844Y-118168500D01*
X79375428Y-118064934D01*
X79319872Y-117960996D01*
X79284500Y-117917894D01*
X79284500Y-117667106D01*
X79319872Y-117624004D01*
X79375428Y-117520066D01*
X79409639Y-117407287D01*
X79421191Y-117290001D01*
X79421191Y-117133630D01*
X79459662Y-117095159D01*
X79525270Y-116996970D01*
X79570462Y-116887868D01*
X79593500Y-116772046D01*
X79593500Y-116653954D01*
X79570462Y-116538132D01*
X79525270Y-116429030D01*
X79459662Y-116330841D01*
X79410525Y-116281704D01*
X79409639Y-116272713D01*
X79375428Y-116159934D01*
X79319872Y-116055996D01*
X79270710Y-115996091D01*
X79327132Y-116019462D01*
X79442954Y-116042500D01*
X79561046Y-116042500D01*
X79676868Y-116019462D01*
X79785970Y-115974270D01*
X79884159Y-115908662D01*
X79967662Y-115825159D01*
X80033270Y-115726970D01*
X80078462Y-115617868D01*
X80101500Y-115502046D01*
X80101500Y-115383954D01*
X80078462Y-115268132D01*
X80033270Y-115159030D01*
X79967662Y-115060841D01*
X79884159Y-114977338D01*
X79785970Y-114911730D01*
X79676868Y-114866538D01*
X79561046Y-114843500D01*
X79442954Y-114843500D01*
X79327132Y-114866538D01*
X79218030Y-114911730D01*
X79161503Y-114949500D01*
X78129234Y-114949500D01*
X78105000Y-114947113D01*
X78080766Y-114949500D01*
X78080763Y-114949500D01*
X78008257Y-114956641D01*
X77915232Y-114984860D01*
X77829500Y-115030685D01*
X77754355Y-115092355D01*
X77738904Y-115111182D01*
X77138177Y-115711909D01*
X77119356Y-115727355D01*
X77103910Y-115746176D01*
X77103905Y-115746181D01*
X77057685Y-115802500D01*
X77011860Y-115888233D01*
X76994346Y-115945970D01*
X76983642Y-115981257D01*
X76982742Y-115990392D01*
X76974114Y-116078000D01*
X76976501Y-116102236D01*
X76976500Y-119429585D01*
X76803934Y-119602151D01*
X76770001Y-119598809D01*
X76119999Y-119598809D01*
X76002713Y-119610361D01*
X75889934Y-119644572D01*
X75785996Y-119700128D01*
X75694893Y-119774893D01*
X75620128Y-119865996D01*
X75564572Y-119969934D01*
X75550500Y-120016323D01*
X75550500Y-116817354D01*
X78650838Y-113717016D01*
X78669665Y-113701565D01*
X78696018Y-113669454D01*
X78731335Y-113626421D01*
X78777160Y-113540688D01*
X78782021Y-113524664D01*
X78805379Y-113447663D01*
X78812520Y-113375157D01*
X78812520Y-113375146D01*
X78814906Y-113350920D01*
X78812520Y-113326694D01*
X78812520Y-109591394D01*
X79516318Y-108887596D01*
X79535145Y-108872145D01*
X79588810Y-108806754D01*
X80394054Y-108001511D01*
X84697597Y-108001511D01*
X84778895Y-108082809D01*
G37*
X84778895Y-108082809D02*
X84686000Y-108082809D01*
X84588222Y-108092439D01*
X84494203Y-108120960D01*
X84407553Y-108167275D01*
X84331604Y-108229604D01*
X84269275Y-108305553D01*
X84222960Y-108392203D01*
X84194439Y-108486222D01*
X84184809Y-108584000D01*
X84184809Y-110062276D01*
X83592680Y-110654405D01*
X83573854Y-110669856D01*
X83512184Y-110745001D01*
X83466359Y-110830734D01*
X83438140Y-110923759D01*
X83430999Y-110996265D01*
X83430999Y-110996275D01*
X83428613Y-111020501D01*
X83430999Y-111044727D01*
X83431000Y-114446413D01*
X83428613Y-114470649D01*
X83438141Y-114567391D01*
X83466359Y-114660416D01*
X83512184Y-114746149D01*
X83558404Y-114802468D01*
X83558409Y-114802473D01*
X83573855Y-114821294D01*
X83592676Y-114836740D01*
X83733065Y-114977129D01*
X83684990Y-114937675D01*
X83599258Y-114891850D01*
X83506233Y-114863631D01*
X83433727Y-114856490D01*
X83433716Y-114856490D01*
X83409490Y-114854104D01*
X83385264Y-114856490D01*
X82602507Y-114856490D01*
X82545980Y-114818720D01*
X82436878Y-114773528D01*
X82321056Y-114750490D01*
X82202964Y-114750490D01*
X82087142Y-114773528D01*
X81978040Y-114818720D01*
X81879851Y-114884328D01*
X81796348Y-114967831D01*
X81773380Y-115002205D01*
X81773380Y-112800955D01*
X81824372Y-112779834D01*
X82012644Y-112654035D01*
X82172755Y-112493924D01*
X82298554Y-112305652D01*
X82385205Y-112096457D01*
X82429380Y-111874376D01*
X82429380Y-111647944D01*
X82385205Y-111425863D01*
X82298554Y-111216668D01*
X82172755Y-111028396D01*
X82012644Y-110868285D01*
X81824372Y-110742486D01*
X81615177Y-110655835D01*
X81393096Y-110611660D01*
X81166664Y-110611660D01*
X80944583Y-110655835D01*
X80735388Y-110742486D01*
X80547116Y-110868285D01*
X80387005Y-111028396D01*
X80261206Y-111216668D01*
X80174555Y-111425863D01*
X80130380Y-111647944D01*
X80130380Y-111874376D01*
X80174555Y-112096457D01*
X80261206Y-112305652D01*
X80387005Y-112493924D01*
X80547116Y-112654035D01*
X80735388Y-112779834D01*
X80786381Y-112800956D01*
X80786380Y-115228154D01*
X80783994Y-115252380D01*
X80786380Y-115276606D01*
X80786380Y-115276616D01*
X80793521Y-115349122D01*
X80821740Y-115442147D01*
X80867565Y-115527880D01*
X80929235Y-115603025D01*
X80948061Y-115618475D01*
X81739409Y-116409824D01*
X81754855Y-116428645D01*
X81773676Y-116444091D01*
X81773680Y-116444095D01*
X81829999Y-116490315D01*
X81905182Y-116530501D01*
X81915732Y-116536140D01*
X82008757Y-116564359D01*
X82081263Y-116571500D01*
X82081273Y-116571500D01*
X82105499Y-116573886D01*
X82129725Y-116571500D01*
X83242936Y-116571500D01*
X83987190Y-117315754D01*
X84040855Y-117381145D01*
X84059681Y-117396596D01*
X84831585Y-118168500D01*
X79406844Y-118168500D01*
X79375428Y-118064934D01*
X79319872Y-117960996D01*
X79284500Y-117917894D01*
X79284500Y-117667106D01*
X79319872Y-117624004D01*
X79375428Y-117520066D01*
X79409639Y-117407287D01*
X79421191Y-117290001D01*
X79421191Y-117133630D01*
X79459662Y-117095159D01*
X79525270Y-116996970D01*
X79570462Y-116887868D01*
X79593500Y-116772046D01*
X79593500Y-116653954D01*
X79570462Y-116538132D01*
X79525270Y-116429030D01*
X79459662Y-116330841D01*
X79410525Y-116281704D01*
X79409639Y-116272713D01*
X79375428Y-116159934D01*
X79319872Y-116055996D01*
X79270710Y-115996091D01*
X79327132Y-116019462D01*
X79442954Y-116042500D01*
X79561046Y-116042500D01*
X79676868Y-116019462D01*
X79785970Y-115974270D01*
X79884159Y-115908662D01*
X79967662Y-115825159D01*
X80033270Y-115726970D01*
X80078462Y-115617868D01*
X80101500Y-115502046D01*
X80101500Y-115383954D01*
X80078462Y-115268132D01*
X80033270Y-115159030D01*
X79967662Y-115060841D01*
X79884159Y-114977338D01*
X79785970Y-114911730D01*
X79676868Y-114866538D01*
X79561046Y-114843500D01*
X79442954Y-114843500D01*
X79327132Y-114866538D01*
X79218030Y-114911730D01*
X79161503Y-114949500D01*
X78129234Y-114949500D01*
X78105000Y-114947113D01*
X78080766Y-114949500D01*
X78080763Y-114949500D01*
X78008257Y-114956641D01*
X77915232Y-114984860D01*
X77829500Y-115030685D01*
X77754355Y-115092355D01*
X77738904Y-115111182D01*
X77138177Y-115711909D01*
X77119356Y-115727355D01*
X77103910Y-115746176D01*
X77103905Y-115746181D01*
X77057685Y-115802500D01*
X77011860Y-115888233D01*
X76994346Y-115945970D01*
X76983642Y-115981257D01*
X76982742Y-115990392D01*
X76974114Y-116078000D01*
X76976501Y-116102236D01*
X76976500Y-119429585D01*
X76803934Y-119602151D01*
X76770001Y-119598809D01*
X76119999Y-119598809D01*
X76002713Y-119610361D01*
X75889934Y-119644572D01*
X75785996Y-119700128D01*
X75694893Y-119774893D01*
X75620128Y-119865996D01*
X75564572Y-119969934D01*
X75550500Y-120016323D01*
X75550500Y-116817354D01*
X78650838Y-113717016D01*
X78669665Y-113701565D01*
X78696018Y-113669454D01*
X78731335Y-113626421D01*
X78777160Y-113540688D01*
X78782021Y-113524664D01*
X78805379Y-113447663D01*
X78812520Y-113375157D01*
X78812520Y-113375146D01*
X78814906Y-113350920D01*
X78812520Y-113326694D01*
X78812520Y-109591394D01*
X79516318Y-108887596D01*
X79535145Y-108872145D01*
X79588810Y-108806754D01*
X80394054Y-108001511D01*
X84697597Y-108001511D01*
X84778895Y-108082809D01*
G36*
X88032960Y-110425797D02*
G01*
X88079275Y-110512447D01*
X88141604Y-110588396D01*
X88152500Y-110597338D01*
X88152501Y-112370764D01*
X88150114Y-112395000D01*
X88152501Y-112419236D01*
X88152501Y-112419237D01*
X88159642Y-112491743D01*
X88164683Y-112508360D01*
X88187860Y-112584767D01*
X88233685Y-112670500D01*
X88279905Y-112726819D01*
X88279910Y-112726824D01*
X88295356Y-112745645D01*
X88314177Y-112761091D01*
X88692152Y-113139066D01*
X88641546Y-113129000D01*
X88523454Y-113129000D01*
X88407632Y-113152038D01*
X88298530Y-113197230D01*
X88200341Y-113262838D01*
X88116838Y-113346341D01*
X88051230Y-113444530D01*
X88006038Y-113553632D01*
X87995124Y-113608500D01*
X86476314Y-113608500D01*
X86418395Y-113577542D01*
X86352514Y-113557557D01*
X86284000Y-113550809D01*
X85184000Y-113550809D01*
X85115486Y-113557557D01*
X85049605Y-113577542D01*
X85012000Y-113597642D01*
X85012000Y-113371736D01*
X85014387Y-113347500D01*
X85012000Y-113323263D01*
X85012000Y-113306997D01*
X85049770Y-113250470D01*
X85094962Y-113141368D01*
X85118000Y-113025546D01*
X85118000Y-112907454D01*
X85094962Y-112791632D01*
X85049770Y-112682530D01*
X84984162Y-112584341D01*
X84900659Y-112500838D01*
X84802470Y-112435230D01*
X84693368Y-112390038D01*
X84577546Y-112367000D01*
X84459454Y-112367000D01*
X84417999Y-112375246D01*
X84417999Y-111224915D01*
X84907724Y-110735191D01*
X84986000Y-110735191D01*
X85083778Y-110725561D01*
X85177797Y-110697040D01*
X85264447Y-110650725D01*
X85340396Y-110588396D01*
X85402725Y-110512447D01*
X85449040Y-110425797D01*
X85471000Y-110353406D01*
X85492960Y-110425797D01*
X85539275Y-110512447D01*
X85601604Y-110588396D01*
X85677553Y-110650725D01*
X85764203Y-110697040D01*
X85858222Y-110725561D01*
X85956000Y-110735191D01*
X86256000Y-110735191D01*
X86353778Y-110725561D01*
X86447797Y-110697040D01*
X86534447Y-110650725D01*
X86610396Y-110588396D01*
X86672725Y-110512447D01*
X86719040Y-110425797D01*
X86741000Y-110353406D01*
X86762960Y-110425797D01*
X86809275Y-110512447D01*
X86871604Y-110588396D01*
X86947553Y-110650725D01*
X87034203Y-110697040D01*
X87128222Y-110725561D01*
X87226000Y-110735191D01*
X87526000Y-110735191D01*
X87623778Y-110725561D01*
X87717797Y-110697040D01*
X87804447Y-110650725D01*
X87880396Y-110588396D01*
X87942725Y-110512447D01*
X87989040Y-110425797D01*
X88011000Y-110353406D01*
X88032960Y-110425797D01*
G37*
X88032960Y-110425797D02*
X88079275Y-110512447D01*
X88141604Y-110588396D01*
X88152500Y-110597338D01*
X88152501Y-112370764D01*
X88150114Y-112395000D01*
X88152501Y-112419236D01*
X88152501Y-112419237D01*
X88159642Y-112491743D01*
X88164683Y-112508360D01*
X88187860Y-112584767D01*
X88233685Y-112670500D01*
X88279905Y-112726819D01*
X88279910Y-112726824D01*
X88295356Y-112745645D01*
X88314177Y-112761091D01*
X88692152Y-113139066D01*
X88641546Y-113129000D01*
X88523454Y-113129000D01*
X88407632Y-113152038D01*
X88298530Y-113197230D01*
X88200341Y-113262838D01*
X88116838Y-113346341D01*
X88051230Y-113444530D01*
X88006038Y-113553632D01*
X87995124Y-113608500D01*
X86476314Y-113608500D01*
X86418395Y-113577542D01*
X86352514Y-113557557D01*
X86284000Y-113550809D01*
X85184000Y-113550809D01*
X85115486Y-113557557D01*
X85049605Y-113577542D01*
X85012000Y-113597642D01*
X85012000Y-113371736D01*
X85014387Y-113347500D01*
X85012000Y-113323263D01*
X85012000Y-113306997D01*
X85049770Y-113250470D01*
X85094962Y-113141368D01*
X85118000Y-113025546D01*
X85118000Y-112907454D01*
X85094962Y-112791632D01*
X85049770Y-112682530D01*
X84984162Y-112584341D01*
X84900659Y-112500838D01*
X84802470Y-112435230D01*
X84693368Y-112390038D01*
X84577546Y-112367000D01*
X84459454Y-112367000D01*
X84417999Y-112375246D01*
X84417999Y-111224915D01*
X84907724Y-110735191D01*
X84986000Y-110735191D01*
X85083778Y-110725561D01*
X85177797Y-110697040D01*
X85264447Y-110650725D01*
X85340396Y-110588396D01*
X85402725Y-110512447D01*
X85449040Y-110425797D01*
X85471000Y-110353406D01*
X85492960Y-110425797D01*
X85539275Y-110512447D01*
X85601604Y-110588396D01*
X85677553Y-110650725D01*
X85764203Y-110697040D01*
X85858222Y-110725561D01*
X85956000Y-110735191D01*
X86256000Y-110735191D01*
X86353778Y-110725561D01*
X86447797Y-110697040D01*
X86534447Y-110650725D01*
X86610396Y-110588396D01*
X86672725Y-110512447D01*
X86719040Y-110425797D01*
X86741000Y-110353406D01*
X86762960Y-110425797D01*
X86809275Y-110512447D01*
X86871604Y-110588396D01*
X86947553Y-110650725D01*
X87034203Y-110697040D01*
X87128222Y-110725561D01*
X87226000Y-110735191D01*
X87526000Y-110735191D01*
X87623778Y-110725561D01*
X87717797Y-110697040D01*
X87804447Y-110650725D01*
X87880396Y-110588396D01*
X87942725Y-110512447D01*
X87989040Y-110425797D01*
X88011000Y-110353406D01*
X88032960Y-110425797D01*
M02*
