%FSLAX45Y45*%
G04 Gerber Fmt 4.5, Leading zero omitted, Abs format (unit mm)*
G04 Created by KiCad (PCBNEW (5.1.5)-3) date 2021-02-17 22:29:54*
%MOMM*%
%LPD*%
G04 APERTURE LIST*
%TA.AperFunction,Profile*%
%ADD10C,0.050000*%
%TD*%
%ADD11C,0.200000*%
%ADD12C,0.300000*%
G04 APERTURE END LIST*
D10*
X9563100Y-12433300D02*
X9537700Y-12458700D01*
X9563100Y-9512300D02*
X9563100Y-12433300D01*
X9537700Y-9486900D02*
X9563100Y-9512300D01*
X7213600Y-9486900D02*
X9537700Y-9486900D01*
X7213600Y-9486900D02*
X7188200Y-9512300D01*
X7188200Y-12433300D02*
X7188200Y-9512300D01*
X7188200Y-12433300D02*
X7213600Y-12458700D01*
X9537700Y-12458700D02*
X7213600Y-12458700D01*
D11*
D12*
X7402428Y-13034714D02*
X7402428Y-12734714D01*
X7473857Y-12734714D01*
X7516714Y-12749000D01*
X7545286Y-12777571D01*
X7559571Y-12806143D01*
X7573857Y-12863286D01*
X7573857Y-12906143D01*
X7559571Y-12963286D01*
X7545286Y-12991857D01*
X7516714Y-13020428D01*
X7473857Y-13034714D01*
X7402428Y-13034714D01*
X7702428Y-13034714D02*
X7702428Y-12834714D01*
X7702428Y-12891857D02*
X7716714Y-12863286D01*
X7731000Y-12849000D01*
X7759571Y-12834714D01*
X7788143Y-12834714D01*
X7888143Y-13034714D02*
X7888143Y-12834714D01*
X7888143Y-12734714D02*
X7873857Y-12749000D01*
X7888143Y-12763286D01*
X7902428Y-12749000D01*
X7888143Y-12734714D01*
X7888143Y-12763286D01*
X8073857Y-13034714D02*
X8045286Y-13020428D01*
X8031000Y-12991857D01*
X8031000Y-12734714D01*
X8231000Y-13034714D02*
X8202428Y-13020428D01*
X8188143Y-12991857D01*
X8188143Y-12734714D01*
X8573857Y-13034714D02*
X8573857Y-12734714D01*
X8673857Y-12949000D01*
X8773857Y-12734714D01*
X8773857Y-13034714D01*
X9045286Y-13034714D02*
X9045286Y-12877571D01*
X9031000Y-12849000D01*
X9002429Y-12834714D01*
X8945286Y-12834714D01*
X8916714Y-12849000D01*
X9045286Y-13020428D02*
X9016714Y-13034714D01*
X8945286Y-13034714D01*
X8916714Y-13020428D01*
X8902429Y-12991857D01*
X8902429Y-12963286D01*
X8916714Y-12934714D01*
X8945286Y-12920428D01*
X9016714Y-12920428D01*
X9045286Y-12906143D01*
X9188143Y-12834714D02*
X9188143Y-13134714D01*
X9188143Y-12849000D02*
X9216714Y-12834714D01*
X9273857Y-12834714D01*
X9302429Y-12849000D01*
X9316714Y-12863286D01*
X9331000Y-12891857D01*
X9331000Y-12977571D01*
X9316714Y-13006143D01*
X9302429Y-13020428D01*
X9273857Y-13034714D01*
X9216714Y-13034714D01*
X9188143Y-13020428D01*
X9459571Y-13006143D02*
X9473857Y-13020428D01*
X9459571Y-13034714D01*
X9445286Y-13020428D01*
X9459571Y-13006143D01*
X9459571Y-13034714D01*
X9459571Y-12849000D02*
X9473857Y-12863286D01*
X9459571Y-12877571D01*
X9445286Y-12863286D01*
X9459571Y-12849000D01*
X9459571Y-12877571D01*
M02*
