G04 #@! TF.GenerationSoftware,KiCad,Pcbnew,(5.1.5)-3*
G04 #@! TF.CreationDate,2021-02-17T22:29:51-05:00*
G04 #@! TF.ProjectId,c128-sram256KB,63313238-2d73-4726-916d-3235364b422e,rev?*
G04 #@! TF.SameCoordinates,Original*
G04 #@! TF.FileFunction,Legend,Bot*
G04 #@! TF.FilePolarity,Positive*
%FSLAX46Y46*%
G04 Gerber Fmt 4.6, Leading zero omitted, Abs format (unit mm)*
G04 Created by KiCad (PCBNEW (5.1.5)-3) date 2021-02-17 22:29:51*
%MOMM*%
%LPD*%
G04 APERTURE LIST*
%ADD10C,0.350000*%
%ADD11C,0.120000*%
%ADD12C,0.150000*%
G04 APERTURE END LIST*
D10*
X89470642Y-96321904D02*
X89470642Y-99893333D01*
X89556357Y-100607619D01*
X89727785Y-101083809D01*
X89984928Y-101321904D01*
X90156357Y-101321904D01*
X88699214Y-99893333D02*
X87842071Y-99893333D01*
X88870642Y-101321904D02*
X88270642Y-96321904D01*
X87670642Y-101321904D01*
X86727785Y-98940952D02*
X86727785Y-101321904D01*
X87327785Y-96321904D02*
X86727785Y-98940952D01*
X86127785Y-96321904D01*
X85613500Y-101083809D02*
X85356357Y-101321904D01*
X84927785Y-101321904D01*
X84756357Y-101083809D01*
X84670642Y-100845714D01*
X84584928Y-100369523D01*
X84584928Y-99893333D01*
X84670642Y-99417142D01*
X84756357Y-99179047D01*
X84927785Y-98940952D01*
X85270642Y-98702857D01*
X85442071Y-98464761D01*
X85527785Y-98226666D01*
X85613500Y-97750476D01*
X85613500Y-97274285D01*
X85527785Y-96798095D01*
X85442071Y-96560000D01*
X85270642Y-96321904D01*
X84842071Y-96321904D01*
X84584928Y-96560000D01*
X84070642Y-96321904D02*
X83042071Y-96321904D01*
X83556357Y-101321904D02*
X83556357Y-96321904D01*
X82099214Y-96321904D02*
X81756357Y-96321904D01*
X81584928Y-96560000D01*
X81413500Y-97036190D01*
X81327785Y-97988571D01*
X81327785Y-99655238D01*
X81413500Y-100607619D01*
X81584928Y-101083809D01*
X81756357Y-101321904D01*
X82099214Y-101321904D01*
X82270642Y-101083809D01*
X82442071Y-100607619D01*
X82527785Y-99655238D01*
X82527785Y-97988571D01*
X82442071Y-97036190D01*
X82270642Y-96560000D01*
X82099214Y-96321904D01*
X80556357Y-101321904D02*
X80556357Y-96321904D01*
X79527785Y-101321904D01*
X79527785Y-96321904D01*
X78670642Y-101321904D02*
X78670642Y-96321904D01*
X77899214Y-99893333D02*
X77042071Y-99893333D01*
X78070642Y-101321904D02*
X77470642Y-96321904D01*
X76870642Y-101321904D01*
X76270642Y-101321904D02*
X76270642Y-96321904D01*
X75242071Y-101321904D01*
X75242071Y-96321904D01*
D11*
X91515000Y-98305252D02*
X91515000Y-97782748D01*
X90095000Y-98305252D02*
X90095000Y-97782748D01*
X77208748Y-119455000D02*
X77731252Y-119455000D01*
X77208748Y-118035000D02*
X77731252Y-118035000D01*
X94626500Y-114610248D02*
X94626500Y-115132752D01*
X93206500Y-114610248D02*
X93206500Y-115132752D01*
X77208748Y-121360000D02*
X77731252Y-121360000D01*
X77208748Y-119940000D02*
X77731252Y-119940000D01*
X77731252Y-116130000D02*
X77208748Y-116130000D01*
X77731252Y-117550000D02*
X77208748Y-117550000D01*
X82941000Y-106934000D02*
X82941000Y-104984000D01*
X82941000Y-106934000D02*
X82941000Y-108884000D01*
X91811000Y-106934000D02*
X91811000Y-104984000D01*
X91811000Y-106934000D02*
X91811000Y-110384000D01*
D12*
X86259000Y-116052000D02*
X86259000Y-115927000D01*
X89509000Y-116052000D02*
X89509000Y-115827000D01*
X89509000Y-112802000D02*
X89509000Y-113027000D01*
X86259000Y-112802000D02*
X86259000Y-113027000D01*
X86259000Y-116052000D02*
X89509000Y-116052000D01*
X86259000Y-112802000D02*
X89509000Y-112802000D01*
X86259000Y-115927000D02*
X85184000Y-115927000D01*
X77636666Y-120752142D02*
X77684285Y-120799761D01*
X77827142Y-120847380D01*
X77922380Y-120847380D01*
X78065238Y-120799761D01*
X78160476Y-120704523D01*
X78208095Y-120609285D01*
X78255714Y-120418809D01*
X78255714Y-120275952D01*
X78208095Y-120085476D01*
X78160476Y-119990238D01*
X78065238Y-119895000D01*
X77922380Y-119847380D01*
X77827142Y-119847380D01*
X77684285Y-119895000D01*
X77636666Y-119942619D01*
X76779523Y-120180714D02*
X76779523Y-120847380D01*
X77017619Y-119799761D02*
X77255714Y-120514047D01*
X76636666Y-120514047D01*
X87336380Y-106172095D02*
X88145904Y-106172095D01*
X88241142Y-106219714D01*
X88288761Y-106267333D01*
X88336380Y-106362571D01*
X88336380Y-106553047D01*
X88288761Y-106648285D01*
X88241142Y-106695904D01*
X88145904Y-106743523D01*
X87336380Y-106743523D01*
X88336380Y-107743523D02*
X88336380Y-107172095D01*
X88336380Y-107457809D02*
X87336380Y-107457809D01*
X87479238Y-107362571D01*
X87574476Y-107267333D01*
X87622095Y-107172095D01*
X87947404Y-114577880D02*
X87947404Y-115387404D01*
X87899785Y-115482642D01*
X87852166Y-115530261D01*
X87756928Y-115577880D01*
X87566452Y-115577880D01*
X87471214Y-115530261D01*
X87423595Y-115482642D01*
X87375976Y-115387404D01*
X87375976Y-114577880D01*
X86471214Y-114911214D02*
X86471214Y-115577880D01*
X86709309Y-114530261D02*
X86947404Y-115244547D01*
X86328357Y-115244547D01*
M02*
