M48
; DRILL file {KiCad (5.1.5)-3} date 2/17/2021 10:29:53 PM
; FORMAT={-:-/ absolute / inch / decimal}
; #@! TF.CreationDate,2021-02-17T22:29:53-05:00
; #@! TF.GenerationSoftware,Kicad,Pcbnew,(5.1.5)-3
; #@! TF.FileFunction,Plated,1,2,PTH
FMAT,2
INCH
T1C0.0157
T2C0.0315
T3C0.0394
%
G90
G05
T1
X2.915Y-4.675
X2.915Y-4.76
X2.995Y-4.77
X3.0Y-4.285
X3.0096Y-4.6
X3.025Y-3.77
X3.04Y-3.93
X3.04Y-3.99
X3.04Y-4.06
X3.11Y-4.595
X3.13Y-4.545
X3.1425Y-4.7875
X3.2387Y-4.5413
X3.26Y-4.19
X3.29Y-4.14
X3.305Y-4.2575
X3.325Y-4.7125
X3.3275Y-4.4475
X3.36Y-4.45
X3.3775Y-4.6
X3.3783Y-4.5721
X3.4333Y-3.92
X3.445Y-3.845
X3.4863Y-4.6113
X3.4875Y-4.4775
X3.4875Y-4.695
X3.4925Y-4.5275
X3.5125Y-4.72
X3.515Y-4.625
X3.5425Y-4.72
X3.555Y-3.915
X3.56Y-4.545
X3.5725Y-4.72
X3.59Y-4.14
X3.595Y-3.8046
X3.64Y-4.63
X3.6425Y-4.435
X3.6425Y-4.5275
X3.7433Y-4.5217
X3.7438Y-4.625
X3.7442Y-4.6592
X3.745Y-4.5579
X3.745Y-4.7
T2
X3.7Y-3.8
X3.7Y-3.9
X3.7Y-4.0
X3.7Y-4.1
X3.7Y-4.2
X3.7Y-4.3
X3.7Y-4.4
X2.9Y-3.8
X2.9Y-3.9
X2.9Y-4.0
X2.9Y-4.1
X2.9Y-4.2
X2.9Y-4.3
X2.9Y-4.4
X2.9Y-4.5
X3.2Y-4.4
T3
X3.0Y-4.85
X2.9Y-4.85
X3.5Y-4.85
X3.6Y-4.85
X3.7Y-4.85
X3.2Y-4.85
X3.3Y-4.85
X3.4Y-4.85
X3.1Y-4.85
T0
M30
