G04 #@! TF.GenerationSoftware,KiCad,Pcbnew,(5.1.5)-3*
G04 #@! TF.CreationDate,2021-02-17T22:29:51-05:00*
G04 #@! TF.ProjectId,c128-sram256KB,63313238-2d73-4726-916d-3235364b422e,rev?*
G04 #@! TF.SameCoordinates,Original*
G04 #@! TF.FileFunction,Copper,L1,Top*
G04 #@! TF.FilePolarity,Positive*
%FSLAX46Y46*%
G04 Gerber Fmt 4.6, Leading zero omitted, Abs format (unit mm)*
G04 Created by KiCad (PCBNEW (5.1.5)-3) date 2021-02-17 22:29:51*
%MOMM*%
%LPD*%
G04 APERTURE LIST*
%ADD10O,1.600000X1.600000*%
%ADD11R,1.500000X0.600000*%
%ADD12R,1.700000X1.700000*%
%ADD13O,1.700000X1.700000*%
%ADD14C,0.100000*%
%ADD15C,0.500000*%
%ADD16C,0.800000*%
%ADD17C,0.454000*%
%ADD18C,0.880000*%
%ADD19C,0.288000*%
%ADD20C,0.233000*%
G04 APERTURE END LIST*
D10*
X73659880Y-96521160D03*
X81279880Y-111761160D03*
X73659880Y-99061160D03*
X73659880Y-101601160D03*
X73659880Y-104141160D03*
X73659880Y-106681160D03*
X73659880Y-109221160D03*
X73659880Y-111761160D03*
X73659880Y-114301160D03*
X93979880Y-96521160D03*
X93979880Y-99061160D03*
X93979880Y-101601160D03*
X93979880Y-104141160D03*
X93979880Y-106681160D03*
X93979880Y-109221160D03*
X93979880Y-111761160D03*
D11*
X75768000Y-102108000D03*
X75768000Y-100838000D03*
X75768000Y-99568000D03*
X75768000Y-98298000D03*
X75768000Y-97028000D03*
X75768000Y-95758000D03*
X75768000Y-103378000D03*
X75768000Y-104648000D03*
X75768000Y-105918000D03*
X75768000Y-107188000D03*
X85268000Y-107188000D03*
X85268000Y-105918000D03*
X85268000Y-104648000D03*
X85268000Y-103378000D03*
X85268000Y-102108000D03*
X85268000Y-100838000D03*
X85268000Y-99568000D03*
X85268000Y-98298000D03*
X85268000Y-97028000D03*
X85268000Y-95758000D03*
D12*
X88900000Y-123190000D03*
D13*
X91440000Y-123190000D03*
X93980000Y-123190000D03*
X86360000Y-123190000D03*
X83820000Y-123190000D03*
D12*
X81280000Y-123190000D03*
X73660000Y-123190000D03*
G04 #@! TA.AperFunction,SMDPad,CuDef*
D14*
G36*
X73660000Y-117745000D02*
G01*
X72910000Y-117245000D01*
X72910000Y-116245000D01*
X74410000Y-116245000D01*
X74410000Y-117245000D01*
X73660000Y-117745000D01*
G37*
G04 #@! TD.AperFunction*
G04 #@! TA.AperFunction,Conductor*
G36*
X73660000Y-119445000D02*
G01*
X72910000Y-119945000D01*
X72910000Y-117545000D01*
X73660000Y-118045000D01*
X74410000Y-117545000D01*
X74410000Y-119945000D01*
X73660000Y-119445000D01*
G37*
G04 #@! TD.AperFunction*
G04 #@! TA.AperFunction,SMDPad,CuDef*
G36*
X73660000Y-119745000D02*
G01*
X74410000Y-120245000D01*
X74410000Y-121245000D01*
X72910000Y-121245000D01*
X72910000Y-120245000D01*
X73660000Y-119745000D01*
G37*
G04 #@! TD.AperFunction*
D12*
X76200000Y-123190000D03*
X78740000Y-123190000D03*
G04 #@! TA.AperFunction,SMDPad,CuDef*
D14*
G36*
X92262505Y-95513204D02*
G01*
X92286773Y-95516804D01*
X92310572Y-95522765D01*
X92333671Y-95531030D01*
X92355850Y-95541520D01*
X92376893Y-95554132D01*
X92396599Y-95568747D01*
X92414777Y-95585223D01*
X92431253Y-95603401D01*
X92445868Y-95623107D01*
X92458480Y-95644150D01*
X92468970Y-95666329D01*
X92477235Y-95689428D01*
X92483196Y-95713227D01*
X92486796Y-95737495D01*
X92488000Y-95761999D01*
X92488000Y-97512001D01*
X92486796Y-97536505D01*
X92483196Y-97560773D01*
X92477235Y-97584572D01*
X92468970Y-97607671D01*
X92458480Y-97629850D01*
X92445868Y-97650893D01*
X92431253Y-97670599D01*
X92414777Y-97688777D01*
X92396599Y-97705253D01*
X92376893Y-97719868D01*
X92355850Y-97732480D01*
X92333671Y-97742970D01*
X92310572Y-97751235D01*
X92286773Y-97757196D01*
X92262505Y-97760796D01*
X92238001Y-97762000D01*
X90387999Y-97762000D01*
X90363495Y-97760796D01*
X90339227Y-97757196D01*
X90315428Y-97751235D01*
X90292329Y-97742970D01*
X90270150Y-97732480D01*
X90249107Y-97719868D01*
X90229401Y-97705253D01*
X90211223Y-97688777D01*
X90194747Y-97670599D01*
X90180132Y-97650893D01*
X90167520Y-97629850D01*
X90157030Y-97607671D01*
X90148765Y-97584572D01*
X90142804Y-97560773D01*
X90139204Y-97536505D01*
X90138000Y-97512001D01*
X90138000Y-95761999D01*
X90139204Y-95737495D01*
X90142804Y-95713227D01*
X90148765Y-95689428D01*
X90157030Y-95666329D01*
X90167520Y-95644150D01*
X90180132Y-95623107D01*
X90194747Y-95603401D01*
X90211223Y-95585223D01*
X90229401Y-95568747D01*
X90249107Y-95554132D01*
X90270150Y-95541520D01*
X90292329Y-95531030D01*
X90315428Y-95522765D01*
X90339227Y-95516804D01*
X90363495Y-95513204D01*
X90387999Y-95512000D01*
X92238001Y-95512000D01*
X92262505Y-95513204D01*
G37*
G04 #@! TD.AperFunction*
G04 #@! TA.AperFunction,SMDPad,CuDef*
G36*
X92262505Y-100613204D02*
G01*
X92286773Y-100616804D01*
X92310572Y-100622765D01*
X92333671Y-100631030D01*
X92355850Y-100641520D01*
X92376893Y-100654132D01*
X92396599Y-100668747D01*
X92414777Y-100685223D01*
X92431253Y-100703401D01*
X92445868Y-100723107D01*
X92458480Y-100744150D01*
X92468970Y-100766329D01*
X92477235Y-100789428D01*
X92483196Y-100813227D01*
X92486796Y-100837495D01*
X92488000Y-100861999D01*
X92488000Y-102612001D01*
X92486796Y-102636505D01*
X92483196Y-102660773D01*
X92477235Y-102684572D01*
X92468970Y-102707671D01*
X92458480Y-102729850D01*
X92445868Y-102750893D01*
X92431253Y-102770599D01*
X92414777Y-102788777D01*
X92396599Y-102805253D01*
X92376893Y-102819868D01*
X92355850Y-102832480D01*
X92333671Y-102842970D01*
X92310572Y-102851235D01*
X92286773Y-102857196D01*
X92262505Y-102860796D01*
X92238001Y-102862000D01*
X90387999Y-102862000D01*
X90363495Y-102860796D01*
X90339227Y-102857196D01*
X90315428Y-102851235D01*
X90292329Y-102842970D01*
X90270150Y-102832480D01*
X90249107Y-102819868D01*
X90229401Y-102805253D01*
X90211223Y-102788777D01*
X90194747Y-102770599D01*
X90180132Y-102750893D01*
X90167520Y-102729850D01*
X90157030Y-102707671D01*
X90148765Y-102684572D01*
X90142804Y-102660773D01*
X90139204Y-102636505D01*
X90138000Y-102612001D01*
X90138000Y-100861999D01*
X90139204Y-100837495D01*
X90142804Y-100813227D01*
X90148765Y-100789428D01*
X90157030Y-100766329D01*
X90167520Y-100744150D01*
X90180132Y-100723107D01*
X90194747Y-100703401D01*
X90211223Y-100685223D01*
X90229401Y-100668747D01*
X90249107Y-100654132D01*
X90270150Y-100641520D01*
X90292329Y-100631030D01*
X90315428Y-100622765D01*
X90339227Y-100616804D01*
X90363495Y-100613204D01*
X90387999Y-100612000D01*
X92238001Y-100612000D01*
X92262505Y-100613204D01*
G37*
G04 #@! TD.AperFunction*
G04 #@! TA.AperFunction,SMDPad,CuDef*
G36*
X90586705Y-105727204D02*
G01*
X90610973Y-105730804D01*
X90634772Y-105736765D01*
X90657871Y-105745030D01*
X90680050Y-105755520D01*
X90701093Y-105768132D01*
X90720799Y-105782747D01*
X90738977Y-105799223D01*
X90755453Y-105817401D01*
X90770068Y-105837107D01*
X90782680Y-105858150D01*
X90793170Y-105880329D01*
X90801435Y-105903428D01*
X90807396Y-105927227D01*
X90810996Y-105951495D01*
X90812200Y-105975999D01*
X90812200Y-106876001D01*
X90810996Y-106900505D01*
X90807396Y-106924773D01*
X90801435Y-106948572D01*
X90793170Y-106971671D01*
X90782680Y-106993850D01*
X90770068Y-107014893D01*
X90755453Y-107034599D01*
X90738977Y-107052777D01*
X90720799Y-107069253D01*
X90701093Y-107083868D01*
X90680050Y-107096480D01*
X90657871Y-107106970D01*
X90634772Y-107115235D01*
X90610973Y-107121196D01*
X90586705Y-107124796D01*
X90562201Y-107126000D01*
X89912199Y-107126000D01*
X89887695Y-107124796D01*
X89863427Y-107121196D01*
X89839628Y-107115235D01*
X89816529Y-107106970D01*
X89794350Y-107096480D01*
X89773307Y-107083868D01*
X89753601Y-107069253D01*
X89735423Y-107052777D01*
X89718947Y-107034599D01*
X89704332Y-107014893D01*
X89691720Y-106993850D01*
X89681230Y-106971671D01*
X89672965Y-106948572D01*
X89667004Y-106924773D01*
X89663404Y-106900505D01*
X89662200Y-106876001D01*
X89662200Y-105975999D01*
X89663404Y-105951495D01*
X89667004Y-105927227D01*
X89672965Y-105903428D01*
X89681230Y-105880329D01*
X89691720Y-105858150D01*
X89704332Y-105837107D01*
X89718947Y-105817401D01*
X89735423Y-105799223D01*
X89753601Y-105782747D01*
X89773307Y-105768132D01*
X89794350Y-105755520D01*
X89816529Y-105745030D01*
X89839628Y-105736765D01*
X89863427Y-105730804D01*
X89887695Y-105727204D01*
X89912199Y-105726000D01*
X90562201Y-105726000D01*
X90586705Y-105727204D01*
G37*
G04 #@! TD.AperFunction*
G04 #@! TA.AperFunction,SMDPad,CuDef*
G36*
X92636705Y-105727204D02*
G01*
X92660973Y-105730804D01*
X92684772Y-105736765D01*
X92707871Y-105745030D01*
X92730050Y-105755520D01*
X92751093Y-105768132D01*
X92770799Y-105782747D01*
X92788977Y-105799223D01*
X92805453Y-105817401D01*
X92820068Y-105837107D01*
X92832680Y-105858150D01*
X92843170Y-105880329D01*
X92851435Y-105903428D01*
X92857396Y-105927227D01*
X92860996Y-105951495D01*
X92862200Y-105975999D01*
X92862200Y-106876001D01*
X92860996Y-106900505D01*
X92857396Y-106924773D01*
X92851435Y-106948572D01*
X92843170Y-106971671D01*
X92832680Y-106993850D01*
X92820068Y-107014893D01*
X92805453Y-107034599D01*
X92788977Y-107052777D01*
X92770799Y-107069253D01*
X92751093Y-107083868D01*
X92730050Y-107096480D01*
X92707871Y-107106970D01*
X92684772Y-107115235D01*
X92660973Y-107121196D01*
X92636705Y-107124796D01*
X92612201Y-107126000D01*
X91962199Y-107126000D01*
X91937695Y-107124796D01*
X91913427Y-107121196D01*
X91889628Y-107115235D01*
X91866529Y-107106970D01*
X91844350Y-107096480D01*
X91823307Y-107083868D01*
X91803601Y-107069253D01*
X91785423Y-107052777D01*
X91768947Y-107034599D01*
X91754332Y-107014893D01*
X91741720Y-106993850D01*
X91731230Y-106971671D01*
X91722965Y-106948572D01*
X91717004Y-106924773D01*
X91713404Y-106900505D01*
X91712200Y-106876001D01*
X91712200Y-105975999D01*
X91713404Y-105951495D01*
X91717004Y-105927227D01*
X91722965Y-105903428D01*
X91731230Y-105880329D01*
X91741720Y-105858150D01*
X91754332Y-105837107D01*
X91768947Y-105817401D01*
X91785423Y-105799223D01*
X91803601Y-105782747D01*
X91823307Y-105768132D01*
X91844350Y-105755520D01*
X91866529Y-105745030D01*
X91889628Y-105736765D01*
X91913427Y-105730804D01*
X91937695Y-105727204D01*
X91962199Y-105726000D01*
X92612201Y-105726000D01*
X92636705Y-105727204D01*
G37*
G04 #@! TD.AperFunction*
G04 #@! TA.AperFunction,SMDPad,CuDef*
G36*
X88485505Y-95429204D02*
G01*
X88509773Y-95432804D01*
X88533572Y-95438765D01*
X88556671Y-95447030D01*
X88578850Y-95457520D01*
X88599893Y-95470132D01*
X88619599Y-95484747D01*
X88637777Y-95501223D01*
X88654253Y-95519401D01*
X88668868Y-95539107D01*
X88681480Y-95560150D01*
X88691970Y-95582329D01*
X88700235Y-95605428D01*
X88706196Y-95629227D01*
X88709796Y-95653495D01*
X88711000Y-95677999D01*
X88711000Y-96328001D01*
X88709796Y-96352505D01*
X88706196Y-96376773D01*
X88700235Y-96400572D01*
X88691970Y-96423671D01*
X88681480Y-96445850D01*
X88668868Y-96466893D01*
X88654253Y-96486599D01*
X88637777Y-96504777D01*
X88619599Y-96521253D01*
X88599893Y-96535868D01*
X88578850Y-96548480D01*
X88556671Y-96558970D01*
X88533572Y-96567235D01*
X88509773Y-96573196D01*
X88485505Y-96576796D01*
X88461001Y-96578000D01*
X87560999Y-96578000D01*
X87536495Y-96576796D01*
X87512227Y-96573196D01*
X87488428Y-96567235D01*
X87465329Y-96558970D01*
X87443150Y-96548480D01*
X87422107Y-96535868D01*
X87402401Y-96521253D01*
X87384223Y-96504777D01*
X87367747Y-96486599D01*
X87353132Y-96466893D01*
X87340520Y-96445850D01*
X87330030Y-96423671D01*
X87321765Y-96400572D01*
X87315804Y-96376773D01*
X87312204Y-96352505D01*
X87311000Y-96328001D01*
X87311000Y-95677999D01*
X87312204Y-95653495D01*
X87315804Y-95629227D01*
X87321765Y-95605428D01*
X87330030Y-95582329D01*
X87340520Y-95560150D01*
X87353132Y-95539107D01*
X87367747Y-95519401D01*
X87384223Y-95501223D01*
X87402401Y-95484747D01*
X87422107Y-95470132D01*
X87443150Y-95457520D01*
X87465329Y-95447030D01*
X87488428Y-95438765D01*
X87512227Y-95432804D01*
X87536495Y-95429204D01*
X87560999Y-95428000D01*
X88461001Y-95428000D01*
X88485505Y-95429204D01*
G37*
G04 #@! TD.AperFunction*
G04 #@! TA.AperFunction,SMDPad,CuDef*
G36*
X88485505Y-97479204D02*
G01*
X88509773Y-97482804D01*
X88533572Y-97488765D01*
X88556671Y-97497030D01*
X88578850Y-97507520D01*
X88599893Y-97520132D01*
X88619599Y-97534747D01*
X88637777Y-97551223D01*
X88654253Y-97569401D01*
X88668868Y-97589107D01*
X88681480Y-97610150D01*
X88691970Y-97632329D01*
X88700235Y-97655428D01*
X88706196Y-97679227D01*
X88709796Y-97703495D01*
X88711000Y-97727999D01*
X88711000Y-98378001D01*
X88709796Y-98402505D01*
X88706196Y-98426773D01*
X88700235Y-98450572D01*
X88691970Y-98473671D01*
X88681480Y-98495850D01*
X88668868Y-98516893D01*
X88654253Y-98536599D01*
X88637777Y-98554777D01*
X88619599Y-98571253D01*
X88599893Y-98585868D01*
X88578850Y-98598480D01*
X88556671Y-98608970D01*
X88533572Y-98617235D01*
X88509773Y-98623196D01*
X88485505Y-98626796D01*
X88461001Y-98628000D01*
X87560999Y-98628000D01*
X87536495Y-98626796D01*
X87512227Y-98623196D01*
X87488428Y-98617235D01*
X87465329Y-98608970D01*
X87443150Y-98598480D01*
X87422107Y-98585868D01*
X87402401Y-98571253D01*
X87384223Y-98554777D01*
X87367747Y-98536599D01*
X87353132Y-98516893D01*
X87340520Y-98495850D01*
X87330030Y-98473671D01*
X87321765Y-98450572D01*
X87315804Y-98426773D01*
X87312204Y-98402505D01*
X87311000Y-98378001D01*
X87311000Y-97727999D01*
X87312204Y-97703495D01*
X87315804Y-97679227D01*
X87321765Y-97655428D01*
X87330030Y-97632329D01*
X87340520Y-97610150D01*
X87353132Y-97589107D01*
X87367747Y-97569401D01*
X87384223Y-97551223D01*
X87402401Y-97534747D01*
X87422107Y-97520132D01*
X87443150Y-97507520D01*
X87465329Y-97497030D01*
X87488428Y-97488765D01*
X87512227Y-97482804D01*
X87536495Y-97479204D01*
X87560999Y-97478000D01*
X88461001Y-97478000D01*
X88485505Y-97479204D01*
G37*
G04 #@! TD.AperFunction*
G04 #@! TA.AperFunction,SMDPad,CuDef*
G36*
X81658351Y-113194361D02*
G01*
X81665632Y-113195441D01*
X81672771Y-113197229D01*
X81679701Y-113199709D01*
X81686355Y-113202856D01*
X81692668Y-113206640D01*
X81698579Y-113211024D01*
X81704033Y-113215967D01*
X81708976Y-113221421D01*
X81713360Y-113227332D01*
X81717144Y-113233645D01*
X81720291Y-113240299D01*
X81722771Y-113247229D01*
X81724559Y-113254368D01*
X81725639Y-113261649D01*
X81726000Y-113269000D01*
X81726000Y-113419000D01*
X81725639Y-113426351D01*
X81724559Y-113433632D01*
X81722771Y-113440771D01*
X81720291Y-113447701D01*
X81717144Y-113454355D01*
X81713360Y-113460668D01*
X81708976Y-113466579D01*
X81704033Y-113472033D01*
X81698579Y-113476976D01*
X81692668Y-113481360D01*
X81686355Y-113485144D01*
X81679701Y-113488291D01*
X81672771Y-113490771D01*
X81665632Y-113492559D01*
X81658351Y-113493639D01*
X81651000Y-113494000D01*
X80251000Y-113494000D01*
X80243649Y-113493639D01*
X80236368Y-113492559D01*
X80229229Y-113490771D01*
X80222299Y-113488291D01*
X80215645Y-113485144D01*
X80209332Y-113481360D01*
X80203421Y-113476976D01*
X80197967Y-113472033D01*
X80193024Y-113466579D01*
X80188640Y-113460668D01*
X80184856Y-113454355D01*
X80181709Y-113447701D01*
X80179229Y-113440771D01*
X80177441Y-113433632D01*
X80176361Y-113426351D01*
X80176000Y-113419000D01*
X80176000Y-113269000D01*
X80176361Y-113261649D01*
X80177441Y-113254368D01*
X80179229Y-113247229D01*
X80181709Y-113240299D01*
X80184856Y-113233645D01*
X80188640Y-113227332D01*
X80193024Y-113221421D01*
X80197967Y-113215967D01*
X80203421Y-113211024D01*
X80209332Y-113206640D01*
X80215645Y-113202856D01*
X80222299Y-113199709D01*
X80229229Y-113197229D01*
X80236368Y-113195441D01*
X80243649Y-113194361D01*
X80251000Y-113194000D01*
X81651000Y-113194000D01*
X81658351Y-113194361D01*
G37*
G04 #@! TD.AperFunction*
G04 #@! TA.AperFunction,SMDPad,CuDef*
G36*
X81658351Y-113694361D02*
G01*
X81665632Y-113695441D01*
X81672771Y-113697229D01*
X81679701Y-113699709D01*
X81686355Y-113702856D01*
X81692668Y-113706640D01*
X81698579Y-113711024D01*
X81704033Y-113715967D01*
X81708976Y-113721421D01*
X81713360Y-113727332D01*
X81717144Y-113733645D01*
X81720291Y-113740299D01*
X81722771Y-113747229D01*
X81724559Y-113754368D01*
X81725639Y-113761649D01*
X81726000Y-113769000D01*
X81726000Y-113919000D01*
X81725639Y-113926351D01*
X81724559Y-113933632D01*
X81722771Y-113940771D01*
X81720291Y-113947701D01*
X81717144Y-113954355D01*
X81713360Y-113960668D01*
X81708976Y-113966579D01*
X81704033Y-113972033D01*
X81698579Y-113976976D01*
X81692668Y-113981360D01*
X81686355Y-113985144D01*
X81679701Y-113988291D01*
X81672771Y-113990771D01*
X81665632Y-113992559D01*
X81658351Y-113993639D01*
X81651000Y-113994000D01*
X80251000Y-113994000D01*
X80243649Y-113993639D01*
X80236368Y-113992559D01*
X80229229Y-113990771D01*
X80222299Y-113988291D01*
X80215645Y-113985144D01*
X80209332Y-113981360D01*
X80203421Y-113976976D01*
X80197967Y-113972033D01*
X80193024Y-113966579D01*
X80188640Y-113960668D01*
X80184856Y-113954355D01*
X80181709Y-113947701D01*
X80179229Y-113940771D01*
X80177441Y-113933632D01*
X80176361Y-113926351D01*
X80176000Y-113919000D01*
X80176000Y-113769000D01*
X80176361Y-113761649D01*
X80177441Y-113754368D01*
X80179229Y-113747229D01*
X80181709Y-113740299D01*
X80184856Y-113733645D01*
X80188640Y-113727332D01*
X80193024Y-113721421D01*
X80197967Y-113715967D01*
X80203421Y-113711024D01*
X80209332Y-113706640D01*
X80215645Y-113702856D01*
X80222299Y-113699709D01*
X80229229Y-113697229D01*
X80236368Y-113695441D01*
X80243649Y-113694361D01*
X80251000Y-113694000D01*
X81651000Y-113694000D01*
X81658351Y-113694361D01*
G37*
G04 #@! TD.AperFunction*
G04 #@! TA.AperFunction,SMDPad,CuDef*
G36*
X81658351Y-114194361D02*
G01*
X81665632Y-114195441D01*
X81672771Y-114197229D01*
X81679701Y-114199709D01*
X81686355Y-114202856D01*
X81692668Y-114206640D01*
X81698579Y-114211024D01*
X81704033Y-114215967D01*
X81708976Y-114221421D01*
X81713360Y-114227332D01*
X81717144Y-114233645D01*
X81720291Y-114240299D01*
X81722771Y-114247229D01*
X81724559Y-114254368D01*
X81725639Y-114261649D01*
X81726000Y-114269000D01*
X81726000Y-114419000D01*
X81725639Y-114426351D01*
X81724559Y-114433632D01*
X81722771Y-114440771D01*
X81720291Y-114447701D01*
X81717144Y-114454355D01*
X81713360Y-114460668D01*
X81708976Y-114466579D01*
X81704033Y-114472033D01*
X81698579Y-114476976D01*
X81692668Y-114481360D01*
X81686355Y-114485144D01*
X81679701Y-114488291D01*
X81672771Y-114490771D01*
X81665632Y-114492559D01*
X81658351Y-114493639D01*
X81651000Y-114494000D01*
X80251000Y-114494000D01*
X80243649Y-114493639D01*
X80236368Y-114492559D01*
X80229229Y-114490771D01*
X80222299Y-114488291D01*
X80215645Y-114485144D01*
X80209332Y-114481360D01*
X80203421Y-114476976D01*
X80197967Y-114472033D01*
X80193024Y-114466579D01*
X80188640Y-114460668D01*
X80184856Y-114454355D01*
X80181709Y-114447701D01*
X80179229Y-114440771D01*
X80177441Y-114433632D01*
X80176361Y-114426351D01*
X80176000Y-114419000D01*
X80176000Y-114269000D01*
X80176361Y-114261649D01*
X80177441Y-114254368D01*
X80179229Y-114247229D01*
X80181709Y-114240299D01*
X80184856Y-114233645D01*
X80188640Y-114227332D01*
X80193024Y-114221421D01*
X80197967Y-114215967D01*
X80203421Y-114211024D01*
X80209332Y-114206640D01*
X80215645Y-114202856D01*
X80222299Y-114199709D01*
X80229229Y-114197229D01*
X80236368Y-114195441D01*
X80243649Y-114194361D01*
X80251000Y-114194000D01*
X81651000Y-114194000D01*
X81658351Y-114194361D01*
G37*
G04 #@! TD.AperFunction*
G04 #@! TA.AperFunction,SMDPad,CuDef*
G36*
X81658351Y-114694361D02*
G01*
X81665632Y-114695441D01*
X81672771Y-114697229D01*
X81679701Y-114699709D01*
X81686355Y-114702856D01*
X81692668Y-114706640D01*
X81698579Y-114711024D01*
X81704033Y-114715967D01*
X81708976Y-114721421D01*
X81713360Y-114727332D01*
X81717144Y-114733645D01*
X81720291Y-114740299D01*
X81722771Y-114747229D01*
X81724559Y-114754368D01*
X81725639Y-114761649D01*
X81726000Y-114769000D01*
X81726000Y-114919000D01*
X81725639Y-114926351D01*
X81724559Y-114933632D01*
X81722771Y-114940771D01*
X81720291Y-114947701D01*
X81717144Y-114954355D01*
X81713360Y-114960668D01*
X81708976Y-114966579D01*
X81704033Y-114972033D01*
X81698579Y-114976976D01*
X81692668Y-114981360D01*
X81686355Y-114985144D01*
X81679701Y-114988291D01*
X81672771Y-114990771D01*
X81665632Y-114992559D01*
X81658351Y-114993639D01*
X81651000Y-114994000D01*
X80251000Y-114994000D01*
X80243649Y-114993639D01*
X80236368Y-114992559D01*
X80229229Y-114990771D01*
X80222299Y-114988291D01*
X80215645Y-114985144D01*
X80209332Y-114981360D01*
X80203421Y-114976976D01*
X80197967Y-114972033D01*
X80193024Y-114966579D01*
X80188640Y-114960668D01*
X80184856Y-114954355D01*
X80181709Y-114947701D01*
X80179229Y-114940771D01*
X80177441Y-114933632D01*
X80176361Y-114926351D01*
X80176000Y-114919000D01*
X80176000Y-114769000D01*
X80176361Y-114761649D01*
X80177441Y-114754368D01*
X80179229Y-114747229D01*
X80181709Y-114740299D01*
X80184856Y-114733645D01*
X80188640Y-114727332D01*
X80193024Y-114721421D01*
X80197967Y-114715967D01*
X80203421Y-114711024D01*
X80209332Y-114706640D01*
X80215645Y-114702856D01*
X80222299Y-114699709D01*
X80229229Y-114697229D01*
X80236368Y-114695441D01*
X80243649Y-114694361D01*
X80251000Y-114694000D01*
X81651000Y-114694000D01*
X81658351Y-114694361D01*
G37*
G04 #@! TD.AperFunction*
G04 #@! TA.AperFunction,SMDPad,CuDef*
G36*
X81658351Y-115194361D02*
G01*
X81665632Y-115195441D01*
X81672771Y-115197229D01*
X81679701Y-115199709D01*
X81686355Y-115202856D01*
X81692668Y-115206640D01*
X81698579Y-115211024D01*
X81704033Y-115215967D01*
X81708976Y-115221421D01*
X81713360Y-115227332D01*
X81717144Y-115233645D01*
X81720291Y-115240299D01*
X81722771Y-115247229D01*
X81724559Y-115254368D01*
X81725639Y-115261649D01*
X81726000Y-115269000D01*
X81726000Y-115419000D01*
X81725639Y-115426351D01*
X81724559Y-115433632D01*
X81722771Y-115440771D01*
X81720291Y-115447701D01*
X81717144Y-115454355D01*
X81713360Y-115460668D01*
X81708976Y-115466579D01*
X81704033Y-115472033D01*
X81698579Y-115476976D01*
X81692668Y-115481360D01*
X81686355Y-115485144D01*
X81679701Y-115488291D01*
X81672771Y-115490771D01*
X81665632Y-115492559D01*
X81658351Y-115493639D01*
X81651000Y-115494000D01*
X80251000Y-115494000D01*
X80243649Y-115493639D01*
X80236368Y-115492559D01*
X80229229Y-115490771D01*
X80222299Y-115488291D01*
X80215645Y-115485144D01*
X80209332Y-115481360D01*
X80203421Y-115476976D01*
X80197967Y-115472033D01*
X80193024Y-115466579D01*
X80188640Y-115460668D01*
X80184856Y-115454355D01*
X80181709Y-115447701D01*
X80179229Y-115440771D01*
X80177441Y-115433632D01*
X80176361Y-115426351D01*
X80176000Y-115419000D01*
X80176000Y-115269000D01*
X80176361Y-115261649D01*
X80177441Y-115254368D01*
X80179229Y-115247229D01*
X80181709Y-115240299D01*
X80184856Y-115233645D01*
X80188640Y-115227332D01*
X80193024Y-115221421D01*
X80197967Y-115215967D01*
X80203421Y-115211024D01*
X80209332Y-115206640D01*
X80215645Y-115202856D01*
X80222299Y-115199709D01*
X80229229Y-115197229D01*
X80236368Y-115195441D01*
X80243649Y-115194361D01*
X80251000Y-115194000D01*
X81651000Y-115194000D01*
X81658351Y-115194361D01*
G37*
G04 #@! TD.AperFunction*
G04 #@! TA.AperFunction,SMDPad,CuDef*
G36*
X81658351Y-115694361D02*
G01*
X81665632Y-115695441D01*
X81672771Y-115697229D01*
X81679701Y-115699709D01*
X81686355Y-115702856D01*
X81692668Y-115706640D01*
X81698579Y-115711024D01*
X81704033Y-115715967D01*
X81708976Y-115721421D01*
X81713360Y-115727332D01*
X81717144Y-115733645D01*
X81720291Y-115740299D01*
X81722771Y-115747229D01*
X81724559Y-115754368D01*
X81725639Y-115761649D01*
X81726000Y-115769000D01*
X81726000Y-115919000D01*
X81725639Y-115926351D01*
X81724559Y-115933632D01*
X81722771Y-115940771D01*
X81720291Y-115947701D01*
X81717144Y-115954355D01*
X81713360Y-115960668D01*
X81708976Y-115966579D01*
X81704033Y-115972033D01*
X81698579Y-115976976D01*
X81692668Y-115981360D01*
X81686355Y-115985144D01*
X81679701Y-115988291D01*
X81672771Y-115990771D01*
X81665632Y-115992559D01*
X81658351Y-115993639D01*
X81651000Y-115994000D01*
X80251000Y-115994000D01*
X80243649Y-115993639D01*
X80236368Y-115992559D01*
X80229229Y-115990771D01*
X80222299Y-115988291D01*
X80215645Y-115985144D01*
X80209332Y-115981360D01*
X80203421Y-115976976D01*
X80197967Y-115972033D01*
X80193024Y-115966579D01*
X80188640Y-115960668D01*
X80184856Y-115954355D01*
X80181709Y-115947701D01*
X80179229Y-115940771D01*
X80177441Y-115933632D01*
X80176361Y-115926351D01*
X80176000Y-115919000D01*
X80176000Y-115769000D01*
X80176361Y-115761649D01*
X80177441Y-115754368D01*
X80179229Y-115747229D01*
X80181709Y-115740299D01*
X80184856Y-115733645D01*
X80188640Y-115727332D01*
X80193024Y-115721421D01*
X80197967Y-115715967D01*
X80203421Y-115711024D01*
X80209332Y-115706640D01*
X80215645Y-115702856D01*
X80222299Y-115699709D01*
X80229229Y-115697229D01*
X80236368Y-115695441D01*
X80243649Y-115694361D01*
X80251000Y-115694000D01*
X81651000Y-115694000D01*
X81658351Y-115694361D01*
G37*
G04 #@! TD.AperFunction*
G04 #@! TA.AperFunction,SMDPad,CuDef*
G36*
X81658351Y-116194361D02*
G01*
X81665632Y-116195441D01*
X81672771Y-116197229D01*
X81679701Y-116199709D01*
X81686355Y-116202856D01*
X81692668Y-116206640D01*
X81698579Y-116211024D01*
X81704033Y-116215967D01*
X81708976Y-116221421D01*
X81713360Y-116227332D01*
X81717144Y-116233645D01*
X81720291Y-116240299D01*
X81722771Y-116247229D01*
X81724559Y-116254368D01*
X81725639Y-116261649D01*
X81726000Y-116269000D01*
X81726000Y-116419000D01*
X81725639Y-116426351D01*
X81724559Y-116433632D01*
X81722771Y-116440771D01*
X81720291Y-116447701D01*
X81717144Y-116454355D01*
X81713360Y-116460668D01*
X81708976Y-116466579D01*
X81704033Y-116472033D01*
X81698579Y-116476976D01*
X81692668Y-116481360D01*
X81686355Y-116485144D01*
X81679701Y-116488291D01*
X81672771Y-116490771D01*
X81665632Y-116492559D01*
X81658351Y-116493639D01*
X81651000Y-116494000D01*
X80251000Y-116494000D01*
X80243649Y-116493639D01*
X80236368Y-116492559D01*
X80229229Y-116490771D01*
X80222299Y-116488291D01*
X80215645Y-116485144D01*
X80209332Y-116481360D01*
X80203421Y-116476976D01*
X80197967Y-116472033D01*
X80193024Y-116466579D01*
X80188640Y-116460668D01*
X80184856Y-116454355D01*
X80181709Y-116447701D01*
X80179229Y-116440771D01*
X80177441Y-116433632D01*
X80176361Y-116426351D01*
X80176000Y-116419000D01*
X80176000Y-116269000D01*
X80176361Y-116261649D01*
X80177441Y-116254368D01*
X80179229Y-116247229D01*
X80181709Y-116240299D01*
X80184856Y-116233645D01*
X80188640Y-116227332D01*
X80193024Y-116221421D01*
X80197967Y-116215967D01*
X80203421Y-116211024D01*
X80209332Y-116206640D01*
X80215645Y-116202856D01*
X80222299Y-116199709D01*
X80229229Y-116197229D01*
X80236368Y-116195441D01*
X80243649Y-116194361D01*
X80251000Y-116194000D01*
X81651000Y-116194000D01*
X81658351Y-116194361D01*
G37*
G04 #@! TD.AperFunction*
G04 #@! TA.AperFunction,SMDPad,CuDef*
G36*
X81658351Y-116694361D02*
G01*
X81665632Y-116695441D01*
X81672771Y-116697229D01*
X81679701Y-116699709D01*
X81686355Y-116702856D01*
X81692668Y-116706640D01*
X81698579Y-116711024D01*
X81704033Y-116715967D01*
X81708976Y-116721421D01*
X81713360Y-116727332D01*
X81717144Y-116733645D01*
X81720291Y-116740299D01*
X81722771Y-116747229D01*
X81724559Y-116754368D01*
X81725639Y-116761649D01*
X81726000Y-116769000D01*
X81726000Y-116919000D01*
X81725639Y-116926351D01*
X81724559Y-116933632D01*
X81722771Y-116940771D01*
X81720291Y-116947701D01*
X81717144Y-116954355D01*
X81713360Y-116960668D01*
X81708976Y-116966579D01*
X81704033Y-116972033D01*
X81698579Y-116976976D01*
X81692668Y-116981360D01*
X81686355Y-116985144D01*
X81679701Y-116988291D01*
X81672771Y-116990771D01*
X81665632Y-116992559D01*
X81658351Y-116993639D01*
X81651000Y-116994000D01*
X80251000Y-116994000D01*
X80243649Y-116993639D01*
X80236368Y-116992559D01*
X80229229Y-116990771D01*
X80222299Y-116988291D01*
X80215645Y-116985144D01*
X80209332Y-116981360D01*
X80203421Y-116976976D01*
X80197967Y-116972033D01*
X80193024Y-116966579D01*
X80188640Y-116960668D01*
X80184856Y-116954355D01*
X80181709Y-116947701D01*
X80179229Y-116940771D01*
X80177441Y-116933632D01*
X80176361Y-116926351D01*
X80176000Y-116919000D01*
X80176000Y-116769000D01*
X80176361Y-116761649D01*
X80177441Y-116754368D01*
X80179229Y-116747229D01*
X80181709Y-116740299D01*
X80184856Y-116733645D01*
X80188640Y-116727332D01*
X80193024Y-116721421D01*
X80197967Y-116715967D01*
X80203421Y-116711024D01*
X80209332Y-116706640D01*
X80215645Y-116702856D01*
X80222299Y-116699709D01*
X80229229Y-116697229D01*
X80236368Y-116695441D01*
X80243649Y-116694361D01*
X80251000Y-116694000D01*
X81651000Y-116694000D01*
X81658351Y-116694361D01*
G37*
G04 #@! TD.AperFunction*
G04 #@! TA.AperFunction,SMDPad,CuDef*
G36*
X81658351Y-117194361D02*
G01*
X81665632Y-117195441D01*
X81672771Y-117197229D01*
X81679701Y-117199709D01*
X81686355Y-117202856D01*
X81692668Y-117206640D01*
X81698579Y-117211024D01*
X81704033Y-117215967D01*
X81708976Y-117221421D01*
X81713360Y-117227332D01*
X81717144Y-117233645D01*
X81720291Y-117240299D01*
X81722771Y-117247229D01*
X81724559Y-117254368D01*
X81725639Y-117261649D01*
X81726000Y-117269000D01*
X81726000Y-117419000D01*
X81725639Y-117426351D01*
X81724559Y-117433632D01*
X81722771Y-117440771D01*
X81720291Y-117447701D01*
X81717144Y-117454355D01*
X81713360Y-117460668D01*
X81708976Y-117466579D01*
X81704033Y-117472033D01*
X81698579Y-117476976D01*
X81692668Y-117481360D01*
X81686355Y-117485144D01*
X81679701Y-117488291D01*
X81672771Y-117490771D01*
X81665632Y-117492559D01*
X81658351Y-117493639D01*
X81651000Y-117494000D01*
X80251000Y-117494000D01*
X80243649Y-117493639D01*
X80236368Y-117492559D01*
X80229229Y-117490771D01*
X80222299Y-117488291D01*
X80215645Y-117485144D01*
X80209332Y-117481360D01*
X80203421Y-117476976D01*
X80197967Y-117472033D01*
X80193024Y-117466579D01*
X80188640Y-117460668D01*
X80184856Y-117454355D01*
X80181709Y-117447701D01*
X80179229Y-117440771D01*
X80177441Y-117433632D01*
X80176361Y-117426351D01*
X80176000Y-117419000D01*
X80176000Y-117269000D01*
X80176361Y-117261649D01*
X80177441Y-117254368D01*
X80179229Y-117247229D01*
X80181709Y-117240299D01*
X80184856Y-117233645D01*
X80188640Y-117227332D01*
X80193024Y-117221421D01*
X80197967Y-117215967D01*
X80203421Y-117211024D01*
X80209332Y-117206640D01*
X80215645Y-117202856D01*
X80222299Y-117199709D01*
X80229229Y-117197229D01*
X80236368Y-117195441D01*
X80243649Y-117194361D01*
X80251000Y-117194000D01*
X81651000Y-117194000D01*
X81658351Y-117194361D01*
G37*
G04 #@! TD.AperFunction*
G04 #@! TA.AperFunction,SMDPad,CuDef*
G36*
X81658351Y-117694361D02*
G01*
X81665632Y-117695441D01*
X81672771Y-117697229D01*
X81679701Y-117699709D01*
X81686355Y-117702856D01*
X81692668Y-117706640D01*
X81698579Y-117711024D01*
X81704033Y-117715967D01*
X81708976Y-117721421D01*
X81713360Y-117727332D01*
X81717144Y-117733645D01*
X81720291Y-117740299D01*
X81722771Y-117747229D01*
X81724559Y-117754368D01*
X81725639Y-117761649D01*
X81726000Y-117769000D01*
X81726000Y-117919000D01*
X81725639Y-117926351D01*
X81724559Y-117933632D01*
X81722771Y-117940771D01*
X81720291Y-117947701D01*
X81717144Y-117954355D01*
X81713360Y-117960668D01*
X81708976Y-117966579D01*
X81704033Y-117972033D01*
X81698579Y-117976976D01*
X81692668Y-117981360D01*
X81686355Y-117985144D01*
X81679701Y-117988291D01*
X81672771Y-117990771D01*
X81665632Y-117992559D01*
X81658351Y-117993639D01*
X81651000Y-117994000D01*
X80251000Y-117994000D01*
X80243649Y-117993639D01*
X80236368Y-117992559D01*
X80229229Y-117990771D01*
X80222299Y-117988291D01*
X80215645Y-117985144D01*
X80209332Y-117981360D01*
X80203421Y-117976976D01*
X80197967Y-117972033D01*
X80193024Y-117966579D01*
X80188640Y-117960668D01*
X80184856Y-117954355D01*
X80181709Y-117947701D01*
X80179229Y-117940771D01*
X80177441Y-117933632D01*
X80176361Y-117926351D01*
X80176000Y-117919000D01*
X80176000Y-117769000D01*
X80176361Y-117761649D01*
X80177441Y-117754368D01*
X80179229Y-117747229D01*
X80181709Y-117740299D01*
X80184856Y-117733645D01*
X80188640Y-117727332D01*
X80193024Y-117721421D01*
X80197967Y-117715967D01*
X80203421Y-117711024D01*
X80209332Y-117706640D01*
X80215645Y-117702856D01*
X80222299Y-117699709D01*
X80229229Y-117697229D01*
X80236368Y-117695441D01*
X80243649Y-117694361D01*
X80251000Y-117694000D01*
X81651000Y-117694000D01*
X81658351Y-117694361D01*
G37*
G04 #@! TD.AperFunction*
G04 #@! TA.AperFunction,SMDPad,CuDef*
G36*
X81658351Y-118194361D02*
G01*
X81665632Y-118195441D01*
X81672771Y-118197229D01*
X81679701Y-118199709D01*
X81686355Y-118202856D01*
X81692668Y-118206640D01*
X81698579Y-118211024D01*
X81704033Y-118215967D01*
X81708976Y-118221421D01*
X81713360Y-118227332D01*
X81717144Y-118233645D01*
X81720291Y-118240299D01*
X81722771Y-118247229D01*
X81724559Y-118254368D01*
X81725639Y-118261649D01*
X81726000Y-118269000D01*
X81726000Y-118419000D01*
X81725639Y-118426351D01*
X81724559Y-118433632D01*
X81722771Y-118440771D01*
X81720291Y-118447701D01*
X81717144Y-118454355D01*
X81713360Y-118460668D01*
X81708976Y-118466579D01*
X81704033Y-118472033D01*
X81698579Y-118476976D01*
X81692668Y-118481360D01*
X81686355Y-118485144D01*
X81679701Y-118488291D01*
X81672771Y-118490771D01*
X81665632Y-118492559D01*
X81658351Y-118493639D01*
X81651000Y-118494000D01*
X80251000Y-118494000D01*
X80243649Y-118493639D01*
X80236368Y-118492559D01*
X80229229Y-118490771D01*
X80222299Y-118488291D01*
X80215645Y-118485144D01*
X80209332Y-118481360D01*
X80203421Y-118476976D01*
X80197967Y-118472033D01*
X80193024Y-118466579D01*
X80188640Y-118460668D01*
X80184856Y-118454355D01*
X80181709Y-118447701D01*
X80179229Y-118440771D01*
X80177441Y-118433632D01*
X80176361Y-118426351D01*
X80176000Y-118419000D01*
X80176000Y-118269000D01*
X80176361Y-118261649D01*
X80177441Y-118254368D01*
X80179229Y-118247229D01*
X80181709Y-118240299D01*
X80184856Y-118233645D01*
X80188640Y-118227332D01*
X80193024Y-118221421D01*
X80197967Y-118215967D01*
X80203421Y-118211024D01*
X80209332Y-118206640D01*
X80215645Y-118202856D01*
X80222299Y-118199709D01*
X80229229Y-118197229D01*
X80236368Y-118195441D01*
X80243649Y-118194361D01*
X80251000Y-118194000D01*
X81651000Y-118194000D01*
X81658351Y-118194361D01*
G37*
G04 #@! TD.AperFunction*
G04 #@! TA.AperFunction,SMDPad,CuDef*
G36*
X81658351Y-118694361D02*
G01*
X81665632Y-118695441D01*
X81672771Y-118697229D01*
X81679701Y-118699709D01*
X81686355Y-118702856D01*
X81692668Y-118706640D01*
X81698579Y-118711024D01*
X81704033Y-118715967D01*
X81708976Y-118721421D01*
X81713360Y-118727332D01*
X81717144Y-118733645D01*
X81720291Y-118740299D01*
X81722771Y-118747229D01*
X81724559Y-118754368D01*
X81725639Y-118761649D01*
X81726000Y-118769000D01*
X81726000Y-118919000D01*
X81725639Y-118926351D01*
X81724559Y-118933632D01*
X81722771Y-118940771D01*
X81720291Y-118947701D01*
X81717144Y-118954355D01*
X81713360Y-118960668D01*
X81708976Y-118966579D01*
X81704033Y-118972033D01*
X81698579Y-118976976D01*
X81692668Y-118981360D01*
X81686355Y-118985144D01*
X81679701Y-118988291D01*
X81672771Y-118990771D01*
X81665632Y-118992559D01*
X81658351Y-118993639D01*
X81651000Y-118994000D01*
X80251000Y-118994000D01*
X80243649Y-118993639D01*
X80236368Y-118992559D01*
X80229229Y-118990771D01*
X80222299Y-118988291D01*
X80215645Y-118985144D01*
X80209332Y-118981360D01*
X80203421Y-118976976D01*
X80197967Y-118972033D01*
X80193024Y-118966579D01*
X80188640Y-118960668D01*
X80184856Y-118954355D01*
X80181709Y-118947701D01*
X80179229Y-118940771D01*
X80177441Y-118933632D01*
X80176361Y-118926351D01*
X80176000Y-118919000D01*
X80176000Y-118769000D01*
X80176361Y-118761649D01*
X80177441Y-118754368D01*
X80179229Y-118747229D01*
X80181709Y-118740299D01*
X80184856Y-118733645D01*
X80188640Y-118727332D01*
X80193024Y-118721421D01*
X80197967Y-118715967D01*
X80203421Y-118711024D01*
X80209332Y-118706640D01*
X80215645Y-118702856D01*
X80222299Y-118699709D01*
X80229229Y-118697229D01*
X80236368Y-118695441D01*
X80243649Y-118694361D01*
X80251000Y-118694000D01*
X81651000Y-118694000D01*
X81658351Y-118694361D01*
G37*
G04 #@! TD.AperFunction*
G04 #@! TA.AperFunction,SMDPad,CuDef*
G36*
X81658351Y-119194361D02*
G01*
X81665632Y-119195441D01*
X81672771Y-119197229D01*
X81679701Y-119199709D01*
X81686355Y-119202856D01*
X81692668Y-119206640D01*
X81698579Y-119211024D01*
X81704033Y-119215967D01*
X81708976Y-119221421D01*
X81713360Y-119227332D01*
X81717144Y-119233645D01*
X81720291Y-119240299D01*
X81722771Y-119247229D01*
X81724559Y-119254368D01*
X81725639Y-119261649D01*
X81726000Y-119269000D01*
X81726000Y-119419000D01*
X81725639Y-119426351D01*
X81724559Y-119433632D01*
X81722771Y-119440771D01*
X81720291Y-119447701D01*
X81717144Y-119454355D01*
X81713360Y-119460668D01*
X81708976Y-119466579D01*
X81704033Y-119472033D01*
X81698579Y-119476976D01*
X81692668Y-119481360D01*
X81686355Y-119485144D01*
X81679701Y-119488291D01*
X81672771Y-119490771D01*
X81665632Y-119492559D01*
X81658351Y-119493639D01*
X81651000Y-119494000D01*
X80251000Y-119494000D01*
X80243649Y-119493639D01*
X80236368Y-119492559D01*
X80229229Y-119490771D01*
X80222299Y-119488291D01*
X80215645Y-119485144D01*
X80209332Y-119481360D01*
X80203421Y-119476976D01*
X80197967Y-119472033D01*
X80193024Y-119466579D01*
X80188640Y-119460668D01*
X80184856Y-119454355D01*
X80181709Y-119447701D01*
X80179229Y-119440771D01*
X80177441Y-119433632D01*
X80176361Y-119426351D01*
X80176000Y-119419000D01*
X80176000Y-119269000D01*
X80176361Y-119261649D01*
X80177441Y-119254368D01*
X80179229Y-119247229D01*
X80181709Y-119240299D01*
X80184856Y-119233645D01*
X80188640Y-119227332D01*
X80193024Y-119221421D01*
X80197967Y-119215967D01*
X80203421Y-119211024D01*
X80209332Y-119206640D01*
X80215645Y-119202856D01*
X80222299Y-119199709D01*
X80229229Y-119197229D01*
X80236368Y-119195441D01*
X80243649Y-119194361D01*
X80251000Y-119194000D01*
X81651000Y-119194000D01*
X81658351Y-119194361D01*
G37*
G04 #@! TD.AperFunction*
G04 #@! TA.AperFunction,SMDPad,CuDef*
G36*
X81658351Y-119694361D02*
G01*
X81665632Y-119695441D01*
X81672771Y-119697229D01*
X81679701Y-119699709D01*
X81686355Y-119702856D01*
X81692668Y-119706640D01*
X81698579Y-119711024D01*
X81704033Y-119715967D01*
X81708976Y-119721421D01*
X81713360Y-119727332D01*
X81717144Y-119733645D01*
X81720291Y-119740299D01*
X81722771Y-119747229D01*
X81724559Y-119754368D01*
X81725639Y-119761649D01*
X81726000Y-119769000D01*
X81726000Y-119919000D01*
X81725639Y-119926351D01*
X81724559Y-119933632D01*
X81722771Y-119940771D01*
X81720291Y-119947701D01*
X81717144Y-119954355D01*
X81713360Y-119960668D01*
X81708976Y-119966579D01*
X81704033Y-119972033D01*
X81698579Y-119976976D01*
X81692668Y-119981360D01*
X81686355Y-119985144D01*
X81679701Y-119988291D01*
X81672771Y-119990771D01*
X81665632Y-119992559D01*
X81658351Y-119993639D01*
X81651000Y-119994000D01*
X80251000Y-119994000D01*
X80243649Y-119993639D01*
X80236368Y-119992559D01*
X80229229Y-119990771D01*
X80222299Y-119988291D01*
X80215645Y-119985144D01*
X80209332Y-119981360D01*
X80203421Y-119976976D01*
X80197967Y-119972033D01*
X80193024Y-119966579D01*
X80188640Y-119960668D01*
X80184856Y-119954355D01*
X80181709Y-119947701D01*
X80179229Y-119940771D01*
X80177441Y-119933632D01*
X80176361Y-119926351D01*
X80176000Y-119919000D01*
X80176000Y-119769000D01*
X80176361Y-119761649D01*
X80177441Y-119754368D01*
X80179229Y-119747229D01*
X80181709Y-119740299D01*
X80184856Y-119733645D01*
X80188640Y-119727332D01*
X80193024Y-119721421D01*
X80197967Y-119715967D01*
X80203421Y-119711024D01*
X80209332Y-119706640D01*
X80215645Y-119702856D01*
X80222299Y-119699709D01*
X80229229Y-119697229D01*
X80236368Y-119695441D01*
X80243649Y-119694361D01*
X80251000Y-119694000D01*
X81651000Y-119694000D01*
X81658351Y-119694361D01*
G37*
G04 #@! TD.AperFunction*
G04 #@! TA.AperFunction,SMDPad,CuDef*
G36*
X81658351Y-120194361D02*
G01*
X81665632Y-120195441D01*
X81672771Y-120197229D01*
X81679701Y-120199709D01*
X81686355Y-120202856D01*
X81692668Y-120206640D01*
X81698579Y-120211024D01*
X81704033Y-120215967D01*
X81708976Y-120221421D01*
X81713360Y-120227332D01*
X81717144Y-120233645D01*
X81720291Y-120240299D01*
X81722771Y-120247229D01*
X81724559Y-120254368D01*
X81725639Y-120261649D01*
X81726000Y-120269000D01*
X81726000Y-120419000D01*
X81725639Y-120426351D01*
X81724559Y-120433632D01*
X81722771Y-120440771D01*
X81720291Y-120447701D01*
X81717144Y-120454355D01*
X81713360Y-120460668D01*
X81708976Y-120466579D01*
X81704033Y-120472033D01*
X81698579Y-120476976D01*
X81692668Y-120481360D01*
X81686355Y-120485144D01*
X81679701Y-120488291D01*
X81672771Y-120490771D01*
X81665632Y-120492559D01*
X81658351Y-120493639D01*
X81651000Y-120494000D01*
X80251000Y-120494000D01*
X80243649Y-120493639D01*
X80236368Y-120492559D01*
X80229229Y-120490771D01*
X80222299Y-120488291D01*
X80215645Y-120485144D01*
X80209332Y-120481360D01*
X80203421Y-120476976D01*
X80197967Y-120472033D01*
X80193024Y-120466579D01*
X80188640Y-120460668D01*
X80184856Y-120454355D01*
X80181709Y-120447701D01*
X80179229Y-120440771D01*
X80177441Y-120433632D01*
X80176361Y-120426351D01*
X80176000Y-120419000D01*
X80176000Y-120269000D01*
X80176361Y-120261649D01*
X80177441Y-120254368D01*
X80179229Y-120247229D01*
X80181709Y-120240299D01*
X80184856Y-120233645D01*
X80188640Y-120227332D01*
X80193024Y-120221421D01*
X80197967Y-120215967D01*
X80203421Y-120211024D01*
X80209332Y-120206640D01*
X80215645Y-120202856D01*
X80222299Y-120199709D01*
X80229229Y-120197229D01*
X80236368Y-120195441D01*
X80243649Y-120194361D01*
X80251000Y-120194000D01*
X81651000Y-120194000D01*
X81658351Y-120194361D01*
G37*
G04 #@! TD.AperFunction*
G04 #@! TA.AperFunction,SMDPad,CuDef*
G36*
X81658351Y-120694361D02*
G01*
X81665632Y-120695441D01*
X81672771Y-120697229D01*
X81679701Y-120699709D01*
X81686355Y-120702856D01*
X81692668Y-120706640D01*
X81698579Y-120711024D01*
X81704033Y-120715967D01*
X81708976Y-120721421D01*
X81713360Y-120727332D01*
X81717144Y-120733645D01*
X81720291Y-120740299D01*
X81722771Y-120747229D01*
X81724559Y-120754368D01*
X81725639Y-120761649D01*
X81726000Y-120769000D01*
X81726000Y-120919000D01*
X81725639Y-120926351D01*
X81724559Y-120933632D01*
X81722771Y-120940771D01*
X81720291Y-120947701D01*
X81717144Y-120954355D01*
X81713360Y-120960668D01*
X81708976Y-120966579D01*
X81704033Y-120972033D01*
X81698579Y-120976976D01*
X81692668Y-120981360D01*
X81686355Y-120985144D01*
X81679701Y-120988291D01*
X81672771Y-120990771D01*
X81665632Y-120992559D01*
X81658351Y-120993639D01*
X81651000Y-120994000D01*
X80251000Y-120994000D01*
X80243649Y-120993639D01*
X80236368Y-120992559D01*
X80229229Y-120990771D01*
X80222299Y-120988291D01*
X80215645Y-120985144D01*
X80209332Y-120981360D01*
X80203421Y-120976976D01*
X80197967Y-120972033D01*
X80193024Y-120966579D01*
X80188640Y-120960668D01*
X80184856Y-120954355D01*
X80181709Y-120947701D01*
X80179229Y-120940771D01*
X80177441Y-120933632D01*
X80176361Y-120926351D01*
X80176000Y-120919000D01*
X80176000Y-120769000D01*
X80176361Y-120761649D01*
X80177441Y-120754368D01*
X80179229Y-120747229D01*
X80181709Y-120740299D01*
X80184856Y-120733645D01*
X80188640Y-120727332D01*
X80193024Y-120721421D01*
X80197967Y-120715967D01*
X80203421Y-120711024D01*
X80209332Y-120706640D01*
X80215645Y-120702856D01*
X80222299Y-120699709D01*
X80229229Y-120697229D01*
X80236368Y-120695441D01*
X80243649Y-120694361D01*
X80251000Y-120694000D01*
X81651000Y-120694000D01*
X81658351Y-120694361D01*
G37*
G04 #@! TD.AperFunction*
G04 #@! TA.AperFunction,SMDPad,CuDef*
G36*
X94508351Y-120694361D02*
G01*
X94515632Y-120695441D01*
X94522771Y-120697229D01*
X94529701Y-120699709D01*
X94536355Y-120702856D01*
X94542668Y-120706640D01*
X94548579Y-120711024D01*
X94554033Y-120715967D01*
X94558976Y-120721421D01*
X94563360Y-120727332D01*
X94567144Y-120733645D01*
X94570291Y-120740299D01*
X94572771Y-120747229D01*
X94574559Y-120754368D01*
X94575639Y-120761649D01*
X94576000Y-120769000D01*
X94576000Y-120919000D01*
X94575639Y-120926351D01*
X94574559Y-120933632D01*
X94572771Y-120940771D01*
X94570291Y-120947701D01*
X94567144Y-120954355D01*
X94563360Y-120960668D01*
X94558976Y-120966579D01*
X94554033Y-120972033D01*
X94548579Y-120976976D01*
X94542668Y-120981360D01*
X94536355Y-120985144D01*
X94529701Y-120988291D01*
X94522771Y-120990771D01*
X94515632Y-120992559D01*
X94508351Y-120993639D01*
X94501000Y-120994000D01*
X93101000Y-120994000D01*
X93093649Y-120993639D01*
X93086368Y-120992559D01*
X93079229Y-120990771D01*
X93072299Y-120988291D01*
X93065645Y-120985144D01*
X93059332Y-120981360D01*
X93053421Y-120976976D01*
X93047967Y-120972033D01*
X93043024Y-120966579D01*
X93038640Y-120960668D01*
X93034856Y-120954355D01*
X93031709Y-120947701D01*
X93029229Y-120940771D01*
X93027441Y-120933632D01*
X93026361Y-120926351D01*
X93026000Y-120919000D01*
X93026000Y-120769000D01*
X93026361Y-120761649D01*
X93027441Y-120754368D01*
X93029229Y-120747229D01*
X93031709Y-120740299D01*
X93034856Y-120733645D01*
X93038640Y-120727332D01*
X93043024Y-120721421D01*
X93047967Y-120715967D01*
X93053421Y-120711024D01*
X93059332Y-120706640D01*
X93065645Y-120702856D01*
X93072299Y-120699709D01*
X93079229Y-120697229D01*
X93086368Y-120695441D01*
X93093649Y-120694361D01*
X93101000Y-120694000D01*
X94501000Y-120694000D01*
X94508351Y-120694361D01*
G37*
G04 #@! TD.AperFunction*
G04 #@! TA.AperFunction,SMDPad,CuDef*
G36*
X94508351Y-120194361D02*
G01*
X94515632Y-120195441D01*
X94522771Y-120197229D01*
X94529701Y-120199709D01*
X94536355Y-120202856D01*
X94542668Y-120206640D01*
X94548579Y-120211024D01*
X94554033Y-120215967D01*
X94558976Y-120221421D01*
X94563360Y-120227332D01*
X94567144Y-120233645D01*
X94570291Y-120240299D01*
X94572771Y-120247229D01*
X94574559Y-120254368D01*
X94575639Y-120261649D01*
X94576000Y-120269000D01*
X94576000Y-120419000D01*
X94575639Y-120426351D01*
X94574559Y-120433632D01*
X94572771Y-120440771D01*
X94570291Y-120447701D01*
X94567144Y-120454355D01*
X94563360Y-120460668D01*
X94558976Y-120466579D01*
X94554033Y-120472033D01*
X94548579Y-120476976D01*
X94542668Y-120481360D01*
X94536355Y-120485144D01*
X94529701Y-120488291D01*
X94522771Y-120490771D01*
X94515632Y-120492559D01*
X94508351Y-120493639D01*
X94501000Y-120494000D01*
X93101000Y-120494000D01*
X93093649Y-120493639D01*
X93086368Y-120492559D01*
X93079229Y-120490771D01*
X93072299Y-120488291D01*
X93065645Y-120485144D01*
X93059332Y-120481360D01*
X93053421Y-120476976D01*
X93047967Y-120472033D01*
X93043024Y-120466579D01*
X93038640Y-120460668D01*
X93034856Y-120454355D01*
X93031709Y-120447701D01*
X93029229Y-120440771D01*
X93027441Y-120433632D01*
X93026361Y-120426351D01*
X93026000Y-120419000D01*
X93026000Y-120269000D01*
X93026361Y-120261649D01*
X93027441Y-120254368D01*
X93029229Y-120247229D01*
X93031709Y-120240299D01*
X93034856Y-120233645D01*
X93038640Y-120227332D01*
X93043024Y-120221421D01*
X93047967Y-120215967D01*
X93053421Y-120211024D01*
X93059332Y-120206640D01*
X93065645Y-120202856D01*
X93072299Y-120199709D01*
X93079229Y-120197229D01*
X93086368Y-120195441D01*
X93093649Y-120194361D01*
X93101000Y-120194000D01*
X94501000Y-120194000D01*
X94508351Y-120194361D01*
G37*
G04 #@! TD.AperFunction*
G04 #@! TA.AperFunction,SMDPad,CuDef*
G36*
X94508351Y-119694361D02*
G01*
X94515632Y-119695441D01*
X94522771Y-119697229D01*
X94529701Y-119699709D01*
X94536355Y-119702856D01*
X94542668Y-119706640D01*
X94548579Y-119711024D01*
X94554033Y-119715967D01*
X94558976Y-119721421D01*
X94563360Y-119727332D01*
X94567144Y-119733645D01*
X94570291Y-119740299D01*
X94572771Y-119747229D01*
X94574559Y-119754368D01*
X94575639Y-119761649D01*
X94576000Y-119769000D01*
X94576000Y-119919000D01*
X94575639Y-119926351D01*
X94574559Y-119933632D01*
X94572771Y-119940771D01*
X94570291Y-119947701D01*
X94567144Y-119954355D01*
X94563360Y-119960668D01*
X94558976Y-119966579D01*
X94554033Y-119972033D01*
X94548579Y-119976976D01*
X94542668Y-119981360D01*
X94536355Y-119985144D01*
X94529701Y-119988291D01*
X94522771Y-119990771D01*
X94515632Y-119992559D01*
X94508351Y-119993639D01*
X94501000Y-119994000D01*
X93101000Y-119994000D01*
X93093649Y-119993639D01*
X93086368Y-119992559D01*
X93079229Y-119990771D01*
X93072299Y-119988291D01*
X93065645Y-119985144D01*
X93059332Y-119981360D01*
X93053421Y-119976976D01*
X93047967Y-119972033D01*
X93043024Y-119966579D01*
X93038640Y-119960668D01*
X93034856Y-119954355D01*
X93031709Y-119947701D01*
X93029229Y-119940771D01*
X93027441Y-119933632D01*
X93026361Y-119926351D01*
X93026000Y-119919000D01*
X93026000Y-119769000D01*
X93026361Y-119761649D01*
X93027441Y-119754368D01*
X93029229Y-119747229D01*
X93031709Y-119740299D01*
X93034856Y-119733645D01*
X93038640Y-119727332D01*
X93043024Y-119721421D01*
X93047967Y-119715967D01*
X93053421Y-119711024D01*
X93059332Y-119706640D01*
X93065645Y-119702856D01*
X93072299Y-119699709D01*
X93079229Y-119697229D01*
X93086368Y-119695441D01*
X93093649Y-119694361D01*
X93101000Y-119694000D01*
X94501000Y-119694000D01*
X94508351Y-119694361D01*
G37*
G04 #@! TD.AperFunction*
G04 #@! TA.AperFunction,SMDPad,CuDef*
G36*
X94508351Y-119194361D02*
G01*
X94515632Y-119195441D01*
X94522771Y-119197229D01*
X94529701Y-119199709D01*
X94536355Y-119202856D01*
X94542668Y-119206640D01*
X94548579Y-119211024D01*
X94554033Y-119215967D01*
X94558976Y-119221421D01*
X94563360Y-119227332D01*
X94567144Y-119233645D01*
X94570291Y-119240299D01*
X94572771Y-119247229D01*
X94574559Y-119254368D01*
X94575639Y-119261649D01*
X94576000Y-119269000D01*
X94576000Y-119419000D01*
X94575639Y-119426351D01*
X94574559Y-119433632D01*
X94572771Y-119440771D01*
X94570291Y-119447701D01*
X94567144Y-119454355D01*
X94563360Y-119460668D01*
X94558976Y-119466579D01*
X94554033Y-119472033D01*
X94548579Y-119476976D01*
X94542668Y-119481360D01*
X94536355Y-119485144D01*
X94529701Y-119488291D01*
X94522771Y-119490771D01*
X94515632Y-119492559D01*
X94508351Y-119493639D01*
X94501000Y-119494000D01*
X93101000Y-119494000D01*
X93093649Y-119493639D01*
X93086368Y-119492559D01*
X93079229Y-119490771D01*
X93072299Y-119488291D01*
X93065645Y-119485144D01*
X93059332Y-119481360D01*
X93053421Y-119476976D01*
X93047967Y-119472033D01*
X93043024Y-119466579D01*
X93038640Y-119460668D01*
X93034856Y-119454355D01*
X93031709Y-119447701D01*
X93029229Y-119440771D01*
X93027441Y-119433632D01*
X93026361Y-119426351D01*
X93026000Y-119419000D01*
X93026000Y-119269000D01*
X93026361Y-119261649D01*
X93027441Y-119254368D01*
X93029229Y-119247229D01*
X93031709Y-119240299D01*
X93034856Y-119233645D01*
X93038640Y-119227332D01*
X93043024Y-119221421D01*
X93047967Y-119215967D01*
X93053421Y-119211024D01*
X93059332Y-119206640D01*
X93065645Y-119202856D01*
X93072299Y-119199709D01*
X93079229Y-119197229D01*
X93086368Y-119195441D01*
X93093649Y-119194361D01*
X93101000Y-119194000D01*
X94501000Y-119194000D01*
X94508351Y-119194361D01*
G37*
G04 #@! TD.AperFunction*
G04 #@! TA.AperFunction,SMDPad,CuDef*
G36*
X94508351Y-118694361D02*
G01*
X94515632Y-118695441D01*
X94522771Y-118697229D01*
X94529701Y-118699709D01*
X94536355Y-118702856D01*
X94542668Y-118706640D01*
X94548579Y-118711024D01*
X94554033Y-118715967D01*
X94558976Y-118721421D01*
X94563360Y-118727332D01*
X94567144Y-118733645D01*
X94570291Y-118740299D01*
X94572771Y-118747229D01*
X94574559Y-118754368D01*
X94575639Y-118761649D01*
X94576000Y-118769000D01*
X94576000Y-118919000D01*
X94575639Y-118926351D01*
X94574559Y-118933632D01*
X94572771Y-118940771D01*
X94570291Y-118947701D01*
X94567144Y-118954355D01*
X94563360Y-118960668D01*
X94558976Y-118966579D01*
X94554033Y-118972033D01*
X94548579Y-118976976D01*
X94542668Y-118981360D01*
X94536355Y-118985144D01*
X94529701Y-118988291D01*
X94522771Y-118990771D01*
X94515632Y-118992559D01*
X94508351Y-118993639D01*
X94501000Y-118994000D01*
X93101000Y-118994000D01*
X93093649Y-118993639D01*
X93086368Y-118992559D01*
X93079229Y-118990771D01*
X93072299Y-118988291D01*
X93065645Y-118985144D01*
X93059332Y-118981360D01*
X93053421Y-118976976D01*
X93047967Y-118972033D01*
X93043024Y-118966579D01*
X93038640Y-118960668D01*
X93034856Y-118954355D01*
X93031709Y-118947701D01*
X93029229Y-118940771D01*
X93027441Y-118933632D01*
X93026361Y-118926351D01*
X93026000Y-118919000D01*
X93026000Y-118769000D01*
X93026361Y-118761649D01*
X93027441Y-118754368D01*
X93029229Y-118747229D01*
X93031709Y-118740299D01*
X93034856Y-118733645D01*
X93038640Y-118727332D01*
X93043024Y-118721421D01*
X93047967Y-118715967D01*
X93053421Y-118711024D01*
X93059332Y-118706640D01*
X93065645Y-118702856D01*
X93072299Y-118699709D01*
X93079229Y-118697229D01*
X93086368Y-118695441D01*
X93093649Y-118694361D01*
X93101000Y-118694000D01*
X94501000Y-118694000D01*
X94508351Y-118694361D01*
G37*
G04 #@! TD.AperFunction*
G04 #@! TA.AperFunction,SMDPad,CuDef*
G36*
X94508351Y-118194361D02*
G01*
X94515632Y-118195441D01*
X94522771Y-118197229D01*
X94529701Y-118199709D01*
X94536355Y-118202856D01*
X94542668Y-118206640D01*
X94548579Y-118211024D01*
X94554033Y-118215967D01*
X94558976Y-118221421D01*
X94563360Y-118227332D01*
X94567144Y-118233645D01*
X94570291Y-118240299D01*
X94572771Y-118247229D01*
X94574559Y-118254368D01*
X94575639Y-118261649D01*
X94576000Y-118269000D01*
X94576000Y-118419000D01*
X94575639Y-118426351D01*
X94574559Y-118433632D01*
X94572771Y-118440771D01*
X94570291Y-118447701D01*
X94567144Y-118454355D01*
X94563360Y-118460668D01*
X94558976Y-118466579D01*
X94554033Y-118472033D01*
X94548579Y-118476976D01*
X94542668Y-118481360D01*
X94536355Y-118485144D01*
X94529701Y-118488291D01*
X94522771Y-118490771D01*
X94515632Y-118492559D01*
X94508351Y-118493639D01*
X94501000Y-118494000D01*
X93101000Y-118494000D01*
X93093649Y-118493639D01*
X93086368Y-118492559D01*
X93079229Y-118490771D01*
X93072299Y-118488291D01*
X93065645Y-118485144D01*
X93059332Y-118481360D01*
X93053421Y-118476976D01*
X93047967Y-118472033D01*
X93043024Y-118466579D01*
X93038640Y-118460668D01*
X93034856Y-118454355D01*
X93031709Y-118447701D01*
X93029229Y-118440771D01*
X93027441Y-118433632D01*
X93026361Y-118426351D01*
X93026000Y-118419000D01*
X93026000Y-118269000D01*
X93026361Y-118261649D01*
X93027441Y-118254368D01*
X93029229Y-118247229D01*
X93031709Y-118240299D01*
X93034856Y-118233645D01*
X93038640Y-118227332D01*
X93043024Y-118221421D01*
X93047967Y-118215967D01*
X93053421Y-118211024D01*
X93059332Y-118206640D01*
X93065645Y-118202856D01*
X93072299Y-118199709D01*
X93079229Y-118197229D01*
X93086368Y-118195441D01*
X93093649Y-118194361D01*
X93101000Y-118194000D01*
X94501000Y-118194000D01*
X94508351Y-118194361D01*
G37*
G04 #@! TD.AperFunction*
G04 #@! TA.AperFunction,SMDPad,CuDef*
G36*
X94508351Y-117694361D02*
G01*
X94515632Y-117695441D01*
X94522771Y-117697229D01*
X94529701Y-117699709D01*
X94536355Y-117702856D01*
X94542668Y-117706640D01*
X94548579Y-117711024D01*
X94554033Y-117715967D01*
X94558976Y-117721421D01*
X94563360Y-117727332D01*
X94567144Y-117733645D01*
X94570291Y-117740299D01*
X94572771Y-117747229D01*
X94574559Y-117754368D01*
X94575639Y-117761649D01*
X94576000Y-117769000D01*
X94576000Y-117919000D01*
X94575639Y-117926351D01*
X94574559Y-117933632D01*
X94572771Y-117940771D01*
X94570291Y-117947701D01*
X94567144Y-117954355D01*
X94563360Y-117960668D01*
X94558976Y-117966579D01*
X94554033Y-117972033D01*
X94548579Y-117976976D01*
X94542668Y-117981360D01*
X94536355Y-117985144D01*
X94529701Y-117988291D01*
X94522771Y-117990771D01*
X94515632Y-117992559D01*
X94508351Y-117993639D01*
X94501000Y-117994000D01*
X93101000Y-117994000D01*
X93093649Y-117993639D01*
X93086368Y-117992559D01*
X93079229Y-117990771D01*
X93072299Y-117988291D01*
X93065645Y-117985144D01*
X93059332Y-117981360D01*
X93053421Y-117976976D01*
X93047967Y-117972033D01*
X93043024Y-117966579D01*
X93038640Y-117960668D01*
X93034856Y-117954355D01*
X93031709Y-117947701D01*
X93029229Y-117940771D01*
X93027441Y-117933632D01*
X93026361Y-117926351D01*
X93026000Y-117919000D01*
X93026000Y-117769000D01*
X93026361Y-117761649D01*
X93027441Y-117754368D01*
X93029229Y-117747229D01*
X93031709Y-117740299D01*
X93034856Y-117733645D01*
X93038640Y-117727332D01*
X93043024Y-117721421D01*
X93047967Y-117715967D01*
X93053421Y-117711024D01*
X93059332Y-117706640D01*
X93065645Y-117702856D01*
X93072299Y-117699709D01*
X93079229Y-117697229D01*
X93086368Y-117695441D01*
X93093649Y-117694361D01*
X93101000Y-117694000D01*
X94501000Y-117694000D01*
X94508351Y-117694361D01*
G37*
G04 #@! TD.AperFunction*
G04 #@! TA.AperFunction,SMDPad,CuDef*
G36*
X94508351Y-117194361D02*
G01*
X94515632Y-117195441D01*
X94522771Y-117197229D01*
X94529701Y-117199709D01*
X94536355Y-117202856D01*
X94542668Y-117206640D01*
X94548579Y-117211024D01*
X94554033Y-117215967D01*
X94558976Y-117221421D01*
X94563360Y-117227332D01*
X94567144Y-117233645D01*
X94570291Y-117240299D01*
X94572771Y-117247229D01*
X94574559Y-117254368D01*
X94575639Y-117261649D01*
X94576000Y-117269000D01*
X94576000Y-117419000D01*
X94575639Y-117426351D01*
X94574559Y-117433632D01*
X94572771Y-117440771D01*
X94570291Y-117447701D01*
X94567144Y-117454355D01*
X94563360Y-117460668D01*
X94558976Y-117466579D01*
X94554033Y-117472033D01*
X94548579Y-117476976D01*
X94542668Y-117481360D01*
X94536355Y-117485144D01*
X94529701Y-117488291D01*
X94522771Y-117490771D01*
X94515632Y-117492559D01*
X94508351Y-117493639D01*
X94501000Y-117494000D01*
X93101000Y-117494000D01*
X93093649Y-117493639D01*
X93086368Y-117492559D01*
X93079229Y-117490771D01*
X93072299Y-117488291D01*
X93065645Y-117485144D01*
X93059332Y-117481360D01*
X93053421Y-117476976D01*
X93047967Y-117472033D01*
X93043024Y-117466579D01*
X93038640Y-117460668D01*
X93034856Y-117454355D01*
X93031709Y-117447701D01*
X93029229Y-117440771D01*
X93027441Y-117433632D01*
X93026361Y-117426351D01*
X93026000Y-117419000D01*
X93026000Y-117269000D01*
X93026361Y-117261649D01*
X93027441Y-117254368D01*
X93029229Y-117247229D01*
X93031709Y-117240299D01*
X93034856Y-117233645D01*
X93038640Y-117227332D01*
X93043024Y-117221421D01*
X93047967Y-117215967D01*
X93053421Y-117211024D01*
X93059332Y-117206640D01*
X93065645Y-117202856D01*
X93072299Y-117199709D01*
X93079229Y-117197229D01*
X93086368Y-117195441D01*
X93093649Y-117194361D01*
X93101000Y-117194000D01*
X94501000Y-117194000D01*
X94508351Y-117194361D01*
G37*
G04 #@! TD.AperFunction*
G04 #@! TA.AperFunction,SMDPad,CuDef*
G36*
X94508351Y-116694361D02*
G01*
X94515632Y-116695441D01*
X94522771Y-116697229D01*
X94529701Y-116699709D01*
X94536355Y-116702856D01*
X94542668Y-116706640D01*
X94548579Y-116711024D01*
X94554033Y-116715967D01*
X94558976Y-116721421D01*
X94563360Y-116727332D01*
X94567144Y-116733645D01*
X94570291Y-116740299D01*
X94572771Y-116747229D01*
X94574559Y-116754368D01*
X94575639Y-116761649D01*
X94576000Y-116769000D01*
X94576000Y-116919000D01*
X94575639Y-116926351D01*
X94574559Y-116933632D01*
X94572771Y-116940771D01*
X94570291Y-116947701D01*
X94567144Y-116954355D01*
X94563360Y-116960668D01*
X94558976Y-116966579D01*
X94554033Y-116972033D01*
X94548579Y-116976976D01*
X94542668Y-116981360D01*
X94536355Y-116985144D01*
X94529701Y-116988291D01*
X94522771Y-116990771D01*
X94515632Y-116992559D01*
X94508351Y-116993639D01*
X94501000Y-116994000D01*
X93101000Y-116994000D01*
X93093649Y-116993639D01*
X93086368Y-116992559D01*
X93079229Y-116990771D01*
X93072299Y-116988291D01*
X93065645Y-116985144D01*
X93059332Y-116981360D01*
X93053421Y-116976976D01*
X93047967Y-116972033D01*
X93043024Y-116966579D01*
X93038640Y-116960668D01*
X93034856Y-116954355D01*
X93031709Y-116947701D01*
X93029229Y-116940771D01*
X93027441Y-116933632D01*
X93026361Y-116926351D01*
X93026000Y-116919000D01*
X93026000Y-116769000D01*
X93026361Y-116761649D01*
X93027441Y-116754368D01*
X93029229Y-116747229D01*
X93031709Y-116740299D01*
X93034856Y-116733645D01*
X93038640Y-116727332D01*
X93043024Y-116721421D01*
X93047967Y-116715967D01*
X93053421Y-116711024D01*
X93059332Y-116706640D01*
X93065645Y-116702856D01*
X93072299Y-116699709D01*
X93079229Y-116697229D01*
X93086368Y-116695441D01*
X93093649Y-116694361D01*
X93101000Y-116694000D01*
X94501000Y-116694000D01*
X94508351Y-116694361D01*
G37*
G04 #@! TD.AperFunction*
G04 #@! TA.AperFunction,SMDPad,CuDef*
G36*
X94508351Y-116194361D02*
G01*
X94515632Y-116195441D01*
X94522771Y-116197229D01*
X94529701Y-116199709D01*
X94536355Y-116202856D01*
X94542668Y-116206640D01*
X94548579Y-116211024D01*
X94554033Y-116215967D01*
X94558976Y-116221421D01*
X94563360Y-116227332D01*
X94567144Y-116233645D01*
X94570291Y-116240299D01*
X94572771Y-116247229D01*
X94574559Y-116254368D01*
X94575639Y-116261649D01*
X94576000Y-116269000D01*
X94576000Y-116419000D01*
X94575639Y-116426351D01*
X94574559Y-116433632D01*
X94572771Y-116440771D01*
X94570291Y-116447701D01*
X94567144Y-116454355D01*
X94563360Y-116460668D01*
X94558976Y-116466579D01*
X94554033Y-116472033D01*
X94548579Y-116476976D01*
X94542668Y-116481360D01*
X94536355Y-116485144D01*
X94529701Y-116488291D01*
X94522771Y-116490771D01*
X94515632Y-116492559D01*
X94508351Y-116493639D01*
X94501000Y-116494000D01*
X93101000Y-116494000D01*
X93093649Y-116493639D01*
X93086368Y-116492559D01*
X93079229Y-116490771D01*
X93072299Y-116488291D01*
X93065645Y-116485144D01*
X93059332Y-116481360D01*
X93053421Y-116476976D01*
X93047967Y-116472033D01*
X93043024Y-116466579D01*
X93038640Y-116460668D01*
X93034856Y-116454355D01*
X93031709Y-116447701D01*
X93029229Y-116440771D01*
X93027441Y-116433632D01*
X93026361Y-116426351D01*
X93026000Y-116419000D01*
X93026000Y-116269000D01*
X93026361Y-116261649D01*
X93027441Y-116254368D01*
X93029229Y-116247229D01*
X93031709Y-116240299D01*
X93034856Y-116233645D01*
X93038640Y-116227332D01*
X93043024Y-116221421D01*
X93047967Y-116215967D01*
X93053421Y-116211024D01*
X93059332Y-116206640D01*
X93065645Y-116202856D01*
X93072299Y-116199709D01*
X93079229Y-116197229D01*
X93086368Y-116195441D01*
X93093649Y-116194361D01*
X93101000Y-116194000D01*
X94501000Y-116194000D01*
X94508351Y-116194361D01*
G37*
G04 #@! TD.AperFunction*
G04 #@! TA.AperFunction,SMDPad,CuDef*
G36*
X94508351Y-115694361D02*
G01*
X94515632Y-115695441D01*
X94522771Y-115697229D01*
X94529701Y-115699709D01*
X94536355Y-115702856D01*
X94542668Y-115706640D01*
X94548579Y-115711024D01*
X94554033Y-115715967D01*
X94558976Y-115721421D01*
X94563360Y-115727332D01*
X94567144Y-115733645D01*
X94570291Y-115740299D01*
X94572771Y-115747229D01*
X94574559Y-115754368D01*
X94575639Y-115761649D01*
X94576000Y-115769000D01*
X94576000Y-115919000D01*
X94575639Y-115926351D01*
X94574559Y-115933632D01*
X94572771Y-115940771D01*
X94570291Y-115947701D01*
X94567144Y-115954355D01*
X94563360Y-115960668D01*
X94558976Y-115966579D01*
X94554033Y-115972033D01*
X94548579Y-115976976D01*
X94542668Y-115981360D01*
X94536355Y-115985144D01*
X94529701Y-115988291D01*
X94522771Y-115990771D01*
X94515632Y-115992559D01*
X94508351Y-115993639D01*
X94501000Y-115994000D01*
X93101000Y-115994000D01*
X93093649Y-115993639D01*
X93086368Y-115992559D01*
X93079229Y-115990771D01*
X93072299Y-115988291D01*
X93065645Y-115985144D01*
X93059332Y-115981360D01*
X93053421Y-115976976D01*
X93047967Y-115972033D01*
X93043024Y-115966579D01*
X93038640Y-115960668D01*
X93034856Y-115954355D01*
X93031709Y-115947701D01*
X93029229Y-115940771D01*
X93027441Y-115933632D01*
X93026361Y-115926351D01*
X93026000Y-115919000D01*
X93026000Y-115769000D01*
X93026361Y-115761649D01*
X93027441Y-115754368D01*
X93029229Y-115747229D01*
X93031709Y-115740299D01*
X93034856Y-115733645D01*
X93038640Y-115727332D01*
X93043024Y-115721421D01*
X93047967Y-115715967D01*
X93053421Y-115711024D01*
X93059332Y-115706640D01*
X93065645Y-115702856D01*
X93072299Y-115699709D01*
X93079229Y-115697229D01*
X93086368Y-115695441D01*
X93093649Y-115694361D01*
X93101000Y-115694000D01*
X94501000Y-115694000D01*
X94508351Y-115694361D01*
G37*
G04 #@! TD.AperFunction*
G04 #@! TA.AperFunction,SMDPad,CuDef*
G36*
X94508351Y-115194361D02*
G01*
X94515632Y-115195441D01*
X94522771Y-115197229D01*
X94529701Y-115199709D01*
X94536355Y-115202856D01*
X94542668Y-115206640D01*
X94548579Y-115211024D01*
X94554033Y-115215967D01*
X94558976Y-115221421D01*
X94563360Y-115227332D01*
X94567144Y-115233645D01*
X94570291Y-115240299D01*
X94572771Y-115247229D01*
X94574559Y-115254368D01*
X94575639Y-115261649D01*
X94576000Y-115269000D01*
X94576000Y-115419000D01*
X94575639Y-115426351D01*
X94574559Y-115433632D01*
X94572771Y-115440771D01*
X94570291Y-115447701D01*
X94567144Y-115454355D01*
X94563360Y-115460668D01*
X94558976Y-115466579D01*
X94554033Y-115472033D01*
X94548579Y-115476976D01*
X94542668Y-115481360D01*
X94536355Y-115485144D01*
X94529701Y-115488291D01*
X94522771Y-115490771D01*
X94515632Y-115492559D01*
X94508351Y-115493639D01*
X94501000Y-115494000D01*
X93101000Y-115494000D01*
X93093649Y-115493639D01*
X93086368Y-115492559D01*
X93079229Y-115490771D01*
X93072299Y-115488291D01*
X93065645Y-115485144D01*
X93059332Y-115481360D01*
X93053421Y-115476976D01*
X93047967Y-115472033D01*
X93043024Y-115466579D01*
X93038640Y-115460668D01*
X93034856Y-115454355D01*
X93031709Y-115447701D01*
X93029229Y-115440771D01*
X93027441Y-115433632D01*
X93026361Y-115426351D01*
X93026000Y-115419000D01*
X93026000Y-115269000D01*
X93026361Y-115261649D01*
X93027441Y-115254368D01*
X93029229Y-115247229D01*
X93031709Y-115240299D01*
X93034856Y-115233645D01*
X93038640Y-115227332D01*
X93043024Y-115221421D01*
X93047967Y-115215967D01*
X93053421Y-115211024D01*
X93059332Y-115206640D01*
X93065645Y-115202856D01*
X93072299Y-115199709D01*
X93079229Y-115197229D01*
X93086368Y-115195441D01*
X93093649Y-115194361D01*
X93101000Y-115194000D01*
X94501000Y-115194000D01*
X94508351Y-115194361D01*
G37*
G04 #@! TD.AperFunction*
G04 #@! TA.AperFunction,SMDPad,CuDef*
G36*
X94508351Y-114694361D02*
G01*
X94515632Y-114695441D01*
X94522771Y-114697229D01*
X94529701Y-114699709D01*
X94536355Y-114702856D01*
X94542668Y-114706640D01*
X94548579Y-114711024D01*
X94554033Y-114715967D01*
X94558976Y-114721421D01*
X94563360Y-114727332D01*
X94567144Y-114733645D01*
X94570291Y-114740299D01*
X94572771Y-114747229D01*
X94574559Y-114754368D01*
X94575639Y-114761649D01*
X94576000Y-114769000D01*
X94576000Y-114919000D01*
X94575639Y-114926351D01*
X94574559Y-114933632D01*
X94572771Y-114940771D01*
X94570291Y-114947701D01*
X94567144Y-114954355D01*
X94563360Y-114960668D01*
X94558976Y-114966579D01*
X94554033Y-114972033D01*
X94548579Y-114976976D01*
X94542668Y-114981360D01*
X94536355Y-114985144D01*
X94529701Y-114988291D01*
X94522771Y-114990771D01*
X94515632Y-114992559D01*
X94508351Y-114993639D01*
X94501000Y-114994000D01*
X93101000Y-114994000D01*
X93093649Y-114993639D01*
X93086368Y-114992559D01*
X93079229Y-114990771D01*
X93072299Y-114988291D01*
X93065645Y-114985144D01*
X93059332Y-114981360D01*
X93053421Y-114976976D01*
X93047967Y-114972033D01*
X93043024Y-114966579D01*
X93038640Y-114960668D01*
X93034856Y-114954355D01*
X93031709Y-114947701D01*
X93029229Y-114940771D01*
X93027441Y-114933632D01*
X93026361Y-114926351D01*
X93026000Y-114919000D01*
X93026000Y-114769000D01*
X93026361Y-114761649D01*
X93027441Y-114754368D01*
X93029229Y-114747229D01*
X93031709Y-114740299D01*
X93034856Y-114733645D01*
X93038640Y-114727332D01*
X93043024Y-114721421D01*
X93047967Y-114715967D01*
X93053421Y-114711024D01*
X93059332Y-114706640D01*
X93065645Y-114702856D01*
X93072299Y-114699709D01*
X93079229Y-114697229D01*
X93086368Y-114695441D01*
X93093649Y-114694361D01*
X93101000Y-114694000D01*
X94501000Y-114694000D01*
X94508351Y-114694361D01*
G37*
G04 #@! TD.AperFunction*
G04 #@! TA.AperFunction,SMDPad,CuDef*
G36*
X94508351Y-114194361D02*
G01*
X94515632Y-114195441D01*
X94522771Y-114197229D01*
X94529701Y-114199709D01*
X94536355Y-114202856D01*
X94542668Y-114206640D01*
X94548579Y-114211024D01*
X94554033Y-114215967D01*
X94558976Y-114221421D01*
X94563360Y-114227332D01*
X94567144Y-114233645D01*
X94570291Y-114240299D01*
X94572771Y-114247229D01*
X94574559Y-114254368D01*
X94575639Y-114261649D01*
X94576000Y-114269000D01*
X94576000Y-114419000D01*
X94575639Y-114426351D01*
X94574559Y-114433632D01*
X94572771Y-114440771D01*
X94570291Y-114447701D01*
X94567144Y-114454355D01*
X94563360Y-114460668D01*
X94558976Y-114466579D01*
X94554033Y-114472033D01*
X94548579Y-114476976D01*
X94542668Y-114481360D01*
X94536355Y-114485144D01*
X94529701Y-114488291D01*
X94522771Y-114490771D01*
X94515632Y-114492559D01*
X94508351Y-114493639D01*
X94501000Y-114494000D01*
X93101000Y-114494000D01*
X93093649Y-114493639D01*
X93086368Y-114492559D01*
X93079229Y-114490771D01*
X93072299Y-114488291D01*
X93065645Y-114485144D01*
X93059332Y-114481360D01*
X93053421Y-114476976D01*
X93047967Y-114472033D01*
X93043024Y-114466579D01*
X93038640Y-114460668D01*
X93034856Y-114454355D01*
X93031709Y-114447701D01*
X93029229Y-114440771D01*
X93027441Y-114433632D01*
X93026361Y-114426351D01*
X93026000Y-114419000D01*
X93026000Y-114269000D01*
X93026361Y-114261649D01*
X93027441Y-114254368D01*
X93029229Y-114247229D01*
X93031709Y-114240299D01*
X93034856Y-114233645D01*
X93038640Y-114227332D01*
X93043024Y-114221421D01*
X93047967Y-114215967D01*
X93053421Y-114211024D01*
X93059332Y-114206640D01*
X93065645Y-114202856D01*
X93072299Y-114199709D01*
X93079229Y-114197229D01*
X93086368Y-114195441D01*
X93093649Y-114194361D01*
X93101000Y-114194000D01*
X94501000Y-114194000D01*
X94508351Y-114194361D01*
G37*
G04 #@! TD.AperFunction*
G04 #@! TA.AperFunction,SMDPad,CuDef*
G36*
X94508351Y-113694361D02*
G01*
X94515632Y-113695441D01*
X94522771Y-113697229D01*
X94529701Y-113699709D01*
X94536355Y-113702856D01*
X94542668Y-113706640D01*
X94548579Y-113711024D01*
X94554033Y-113715967D01*
X94558976Y-113721421D01*
X94563360Y-113727332D01*
X94567144Y-113733645D01*
X94570291Y-113740299D01*
X94572771Y-113747229D01*
X94574559Y-113754368D01*
X94575639Y-113761649D01*
X94576000Y-113769000D01*
X94576000Y-113919000D01*
X94575639Y-113926351D01*
X94574559Y-113933632D01*
X94572771Y-113940771D01*
X94570291Y-113947701D01*
X94567144Y-113954355D01*
X94563360Y-113960668D01*
X94558976Y-113966579D01*
X94554033Y-113972033D01*
X94548579Y-113976976D01*
X94542668Y-113981360D01*
X94536355Y-113985144D01*
X94529701Y-113988291D01*
X94522771Y-113990771D01*
X94515632Y-113992559D01*
X94508351Y-113993639D01*
X94501000Y-113994000D01*
X93101000Y-113994000D01*
X93093649Y-113993639D01*
X93086368Y-113992559D01*
X93079229Y-113990771D01*
X93072299Y-113988291D01*
X93065645Y-113985144D01*
X93059332Y-113981360D01*
X93053421Y-113976976D01*
X93047967Y-113972033D01*
X93043024Y-113966579D01*
X93038640Y-113960668D01*
X93034856Y-113954355D01*
X93031709Y-113947701D01*
X93029229Y-113940771D01*
X93027441Y-113933632D01*
X93026361Y-113926351D01*
X93026000Y-113919000D01*
X93026000Y-113769000D01*
X93026361Y-113761649D01*
X93027441Y-113754368D01*
X93029229Y-113747229D01*
X93031709Y-113740299D01*
X93034856Y-113733645D01*
X93038640Y-113727332D01*
X93043024Y-113721421D01*
X93047967Y-113715967D01*
X93053421Y-113711024D01*
X93059332Y-113706640D01*
X93065645Y-113702856D01*
X93072299Y-113699709D01*
X93079229Y-113697229D01*
X93086368Y-113695441D01*
X93093649Y-113694361D01*
X93101000Y-113694000D01*
X94501000Y-113694000D01*
X94508351Y-113694361D01*
G37*
G04 #@! TD.AperFunction*
G04 #@! TA.AperFunction,SMDPad,CuDef*
G36*
X94508351Y-113194361D02*
G01*
X94515632Y-113195441D01*
X94522771Y-113197229D01*
X94529701Y-113199709D01*
X94536355Y-113202856D01*
X94542668Y-113206640D01*
X94548579Y-113211024D01*
X94554033Y-113215967D01*
X94558976Y-113221421D01*
X94563360Y-113227332D01*
X94567144Y-113233645D01*
X94570291Y-113240299D01*
X94572771Y-113247229D01*
X94574559Y-113254368D01*
X94575639Y-113261649D01*
X94576000Y-113269000D01*
X94576000Y-113419000D01*
X94575639Y-113426351D01*
X94574559Y-113433632D01*
X94572771Y-113440771D01*
X94570291Y-113447701D01*
X94567144Y-113454355D01*
X94563360Y-113460668D01*
X94558976Y-113466579D01*
X94554033Y-113472033D01*
X94548579Y-113476976D01*
X94542668Y-113481360D01*
X94536355Y-113485144D01*
X94529701Y-113488291D01*
X94522771Y-113490771D01*
X94515632Y-113492559D01*
X94508351Y-113493639D01*
X94501000Y-113494000D01*
X93101000Y-113494000D01*
X93093649Y-113493639D01*
X93086368Y-113492559D01*
X93079229Y-113490771D01*
X93072299Y-113488291D01*
X93065645Y-113485144D01*
X93059332Y-113481360D01*
X93053421Y-113476976D01*
X93047967Y-113472033D01*
X93043024Y-113466579D01*
X93038640Y-113460668D01*
X93034856Y-113454355D01*
X93031709Y-113447701D01*
X93029229Y-113440771D01*
X93027441Y-113433632D01*
X93026361Y-113426351D01*
X93026000Y-113419000D01*
X93026000Y-113269000D01*
X93026361Y-113261649D01*
X93027441Y-113254368D01*
X93029229Y-113247229D01*
X93031709Y-113240299D01*
X93034856Y-113233645D01*
X93038640Y-113227332D01*
X93043024Y-113221421D01*
X93047967Y-113215967D01*
X93053421Y-113211024D01*
X93059332Y-113206640D01*
X93065645Y-113202856D01*
X93072299Y-113199709D01*
X93079229Y-113197229D01*
X93086368Y-113195441D01*
X93093649Y-113194361D01*
X93101000Y-113194000D01*
X94501000Y-113194000D01*
X94508351Y-113194361D01*
G37*
G04 #@! TD.AperFunction*
D15*
X90424000Y-115443000D03*
X91186000Y-105156000D03*
D16*
X91313000Y-96637000D03*
D15*
X78994000Y-116713000D03*
D16*
X87207000Y-99568000D03*
D15*
X92519500Y-114998500D03*
X92519500Y-112649000D03*
X89281000Y-117475000D03*
X90297000Y-99441000D03*
D16*
X76835000Y-95758000D03*
X87503000Y-97663000D03*
X76445000Y-116840000D03*
X76200000Y-108839000D03*
D15*
X85344000Y-113030000D03*
X92456000Y-117602000D03*
X83947000Y-108140500D03*
X79819500Y-121602500D03*
X84455000Y-119697500D03*
X77216000Y-101346000D03*
X77216000Y-99822000D03*
X77216000Y-103124000D03*
X95123000Y-119380000D03*
X95103000Y-118344000D03*
X95092878Y-117475000D03*
X95123000Y-115771102D03*
X88582500Y-119253000D03*
X88550750Y-117125750D03*
X95081010Y-114849990D03*
X90741500Y-119888000D03*
X89979500Y-119888000D03*
X89217500Y-119888000D03*
X79502000Y-115443000D03*
X76073000Y-121158000D03*
X74041000Y-120904000D03*
X74041000Y-118745000D03*
X85808820Y-116131340D03*
X88709500Y-114998500D03*
X82262010Y-115349990D03*
X82804000Y-106426000D03*
X85788500Y-116840000D03*
X83566000Y-105156000D03*
X84518500Y-112966500D03*
X88582500Y-113728500D03*
D17*
X87766000Y-95758000D02*
X88011000Y-96003000D01*
X85268000Y-95758000D02*
X87766000Y-95758000D01*
X90679000Y-96003000D02*
X91313000Y-96637000D01*
X88011000Y-96003000D02*
X90679000Y-96003000D01*
D18*
X93864040Y-96637000D02*
X93979880Y-96521160D01*
X91313000Y-96637000D02*
X93864040Y-96637000D01*
D19*
X80951000Y-116844000D02*
X79760000Y-116844000D01*
X79760000Y-116844000D02*
X79125000Y-116844000D01*
X79125000Y-116844000D02*
X78994000Y-116713000D01*
D18*
X91186000Y-105156000D02*
X91186000Y-105509553D01*
X91186000Y-105477200D02*
X90237200Y-106426000D01*
X91186000Y-105156000D02*
X91186000Y-105477200D01*
X90237200Y-105726000D02*
X90424000Y-105539200D01*
X90237200Y-106426000D02*
X90237200Y-105726000D01*
X90424000Y-105539200D02*
X90424000Y-104648000D01*
X89281000Y-103251000D02*
X90551000Y-104521000D01*
X90424000Y-104648000D02*
X90551000Y-104521000D01*
X90551000Y-104521000D02*
X91186000Y-105156000D01*
X89281000Y-101642000D02*
X87207000Y-99568000D01*
X89281000Y-103251000D02*
X89281000Y-101642000D01*
X90237200Y-106426000D02*
X90237200Y-106612800D01*
D19*
X92519500Y-114998500D02*
X92583000Y-114998500D01*
D18*
X90237200Y-107126000D02*
X90233500Y-107129700D01*
X90237200Y-106426000D02*
X90237200Y-107126000D01*
X90233500Y-107129700D02*
X90233500Y-110363000D01*
X90233500Y-110363000D02*
X92519500Y-112649000D01*
X92519500Y-112649000D02*
X92519500Y-112649000D01*
D17*
X90868500Y-114998500D02*
X90424000Y-115443000D01*
X92519500Y-114998500D02*
X90868500Y-114998500D01*
X90174001Y-115692999D02*
X90174001Y-116454999D01*
X90424000Y-115443000D02*
X90174001Y-115692999D01*
X90174001Y-116454999D02*
X90174001Y-116581999D01*
X90174001Y-116581999D02*
X89281000Y-117475000D01*
X89281000Y-117475000D02*
X89281000Y-117475000D01*
X74549000Y-107950000D02*
X75311000Y-107188000D01*
X73025000Y-107823000D02*
X73152000Y-107950000D01*
X72390000Y-107823000D02*
X73025000Y-107823000D01*
X75311000Y-107188000D02*
X75768000Y-107188000D01*
X75318000Y-95758000D02*
X74854159Y-95294159D01*
X75768000Y-95758000D02*
X75318000Y-95758000D01*
X74854159Y-95294159D02*
X73070919Y-95294159D01*
X73070919Y-95294159D02*
X72390000Y-95975078D01*
D18*
X88011000Y-98053000D02*
X88011000Y-98435000D01*
X88909000Y-98053000D02*
X90297000Y-99441000D01*
X88011000Y-98053000D02*
X88909000Y-98053000D01*
X75768000Y-95758000D02*
X76835000Y-95758000D01*
X91313000Y-101737000D02*
X91323000Y-101737000D01*
X91313000Y-101737000D02*
X91313000Y-102862000D01*
X91313000Y-102862000D02*
X91313000Y-103378000D01*
X91313000Y-103378000D02*
X92329000Y-104394000D01*
X92329000Y-104394000D02*
X92329000Y-105537000D01*
X92287200Y-105578800D02*
X92329000Y-105537000D01*
X92287200Y-106426000D02*
X92287200Y-105578800D01*
X91313000Y-101737000D02*
X91313000Y-100076000D01*
X90678000Y-99441000D02*
X90297000Y-99441000D01*
X91313000Y-100076000D02*
X90678000Y-99441000D01*
D17*
X73115078Y-107950000D02*
X73660000Y-107950000D01*
X72432879Y-108632199D02*
X73115078Y-107950000D01*
X72432879Y-113074159D02*
X72432879Y-108632199D01*
X73659880Y-114301160D02*
X72432879Y-113074159D01*
X73660000Y-107950000D02*
X74549000Y-107950000D01*
X73152000Y-107950000D02*
X73660000Y-107950000D01*
X72432879Y-107992879D02*
X72432879Y-108632199D01*
X72390000Y-107950000D02*
X72432879Y-107992879D01*
X72390000Y-107823000D02*
X72390000Y-107950000D01*
X72390000Y-106934000D02*
X72390000Y-107224922D01*
X72390000Y-106934000D02*
X72390000Y-107823000D01*
X72390000Y-107224922D02*
X73115078Y-107950000D01*
X72390000Y-95975078D02*
X72390000Y-106934000D01*
D18*
X76198720Y-116840000D02*
X73659880Y-114301160D01*
X76445000Y-116840000D02*
X76198720Y-116840000D01*
X73659880Y-114301160D02*
X75438000Y-112523040D01*
X75438000Y-112523040D02*
X75438000Y-107442000D01*
X75438000Y-109728000D02*
X76200000Y-108966000D01*
X75438000Y-112523040D02*
X75438000Y-109728000D01*
X76200000Y-108966000D02*
X76200000Y-108839000D01*
X76200000Y-108839000D02*
X76200000Y-107569000D01*
D19*
X93801000Y-117344000D02*
X93730000Y-117344000D01*
X93730000Y-117344000D02*
X93724010Y-117349990D01*
D17*
X85344000Y-113030000D02*
X85344000Y-114871500D01*
X85344000Y-114871500D02*
X84963000Y-115252500D01*
D19*
X93787510Y-117349990D02*
X92708010Y-117349990D01*
X93801000Y-117344000D02*
X93793500Y-117344000D01*
X93793500Y-117344000D02*
X93787510Y-117349990D01*
X92708010Y-117349990D02*
X92456000Y-117602000D01*
D17*
X85344000Y-109183947D02*
X85344000Y-112676447D01*
X85344000Y-112676447D02*
X85344000Y-113030000D01*
X84300553Y-108140500D02*
X85344000Y-109183947D01*
X83947000Y-108140500D02*
X84300553Y-108140500D01*
X76445000Y-118228000D02*
X79819500Y-121602500D01*
X76445000Y-116840000D02*
X76445000Y-118228000D01*
X84963000Y-115252500D02*
X84963000Y-116586000D01*
X84963000Y-116586000D02*
X84458037Y-117090963D01*
X84458037Y-117090963D02*
X84458037Y-119189500D01*
X84458037Y-119189500D02*
X84455000Y-119697500D01*
X84455000Y-119697500D02*
X84458037Y-119694463D01*
X73659880Y-101601160D02*
X73915160Y-101601160D01*
X74422000Y-102108000D02*
X75768000Y-102108000D01*
X73915160Y-101601160D02*
X74422000Y-102108000D01*
D19*
X78065020Y-104526720D02*
X78065020Y-105106570D01*
X78553030Y-105594580D02*
X78553030Y-109821374D01*
X77851000Y-104312700D02*
X78065020Y-104526720D01*
X78057964Y-110316442D02*
X78057963Y-113888985D01*
X77851000Y-102879878D02*
X77851000Y-104312700D01*
X77079122Y-102108000D02*
X77851000Y-102879878D01*
X75768000Y-102108000D02*
X77079122Y-102108000D01*
X78065020Y-105106570D02*
X78553030Y-105594580D01*
X78553030Y-109821374D02*
X78057964Y-110316442D01*
X78057963Y-113888985D02*
X78867000Y-114698022D01*
X78867000Y-114698022D02*
X78867000Y-115687122D01*
X78867000Y-115687122D02*
X79216879Y-116037001D01*
X80176000Y-116344000D02*
X80951000Y-116344000D01*
X79405851Y-116037001D02*
X79712850Y-116344000D01*
X79712850Y-116344000D02*
X80176000Y-116344000D01*
X79216879Y-116037001D02*
X79405851Y-116037001D01*
D17*
X73659880Y-104141160D02*
X73915160Y-104141160D01*
X74422000Y-104648000D02*
X75768000Y-104648000D01*
X73915160Y-104141160D02*
X74422000Y-104648000D01*
D19*
X77577010Y-109417098D02*
X77081946Y-109912164D01*
X75768000Y-104648000D02*
X76806000Y-104648000D01*
X77577010Y-105998860D02*
X77577010Y-109417098D01*
X76806000Y-104648000D02*
X77089000Y-104931000D01*
X77081946Y-109912164D02*
X77081945Y-114293267D01*
X77089000Y-104931000D02*
X77089000Y-105510850D01*
X77089000Y-105510850D02*
X77577010Y-105998860D01*
X77081945Y-114293267D02*
X77890981Y-115102303D01*
X78555728Y-117844000D02*
X80951000Y-117844000D01*
X77890981Y-115102303D02*
X77890982Y-117179254D01*
X77890982Y-117179254D02*
X78555728Y-117844000D01*
D17*
X76708000Y-100838000D02*
X77216000Y-101346000D01*
X75768000Y-100838000D02*
X76708000Y-100838000D01*
D19*
X79703128Y-114844000D02*
X80951000Y-114844000D01*
X77465999Y-101804727D02*
X78339010Y-102677738D01*
X78339010Y-104110560D02*
X78553030Y-104324580D01*
X78545973Y-110518581D02*
X78545972Y-113686844D01*
X78339010Y-102677738D02*
X78339010Y-104110560D01*
X78545972Y-113686844D02*
X79703128Y-114844000D01*
X77216000Y-101346000D02*
X77465999Y-101595999D01*
X78553030Y-104324580D02*
X78553030Y-104904430D01*
X77465999Y-101595999D02*
X77465999Y-101804727D01*
X78553030Y-104904430D02*
X79041040Y-105392440D01*
X79041040Y-105392440D02*
X79041040Y-110023512D01*
X79041040Y-110023512D02*
X78545973Y-110518581D01*
D17*
X76972000Y-99568000D02*
X77216000Y-99822000D01*
X75768000Y-99568000D02*
X76972000Y-99568000D01*
X77216000Y-99822000D02*
X77216000Y-99812000D01*
D19*
X80176000Y-114344000D02*
X80951000Y-114344000D01*
X78028211Y-101676789D02*
X78827020Y-102475598D01*
X79893278Y-114344000D02*
X80176000Y-114344000D01*
X79041040Y-104702290D02*
X79529050Y-105190300D01*
X79529050Y-110225650D02*
X79033982Y-110720720D01*
X77216000Y-100457000D02*
X78028211Y-101269211D01*
X78827020Y-102475598D02*
X78827020Y-103908420D01*
X77216000Y-99822000D02*
X77216000Y-100457000D01*
X79529050Y-105190300D02*
X79529050Y-110225650D01*
X78827020Y-103908420D02*
X79041040Y-104122440D01*
X78028211Y-101269211D02*
X78028211Y-101676789D01*
X79041040Y-104122440D02*
X79041040Y-104702290D01*
X79033981Y-113484703D02*
X79893278Y-114344000D01*
X79033982Y-110720720D02*
X79033981Y-113484703D01*
D17*
X76972000Y-103378000D02*
X77216000Y-103124000D01*
X75768000Y-103378000D02*
X76972000Y-103378000D01*
X77216000Y-103124000D02*
X77216000Y-103134000D01*
D19*
X76972000Y-103378000D02*
X76972000Y-103515000D01*
X76972000Y-103515000D02*
X77089000Y-103632000D01*
X77089000Y-103886000D02*
X77216000Y-103759000D01*
X77216000Y-103759000D02*
X77216000Y-103124000D01*
X77089000Y-103632000D02*
X77089000Y-103886000D01*
X77577010Y-105308710D02*
X77577010Y-104728860D01*
X78065020Y-105796720D02*
X77577010Y-105308710D01*
X77569955Y-110114303D02*
X78065020Y-109619236D01*
X77089000Y-104240850D02*
X77089000Y-103886000D01*
X77577010Y-104728860D02*
X77089000Y-104240850D01*
X78745878Y-117344000D02*
X78378991Y-116977113D01*
X80951000Y-117344000D02*
X78745878Y-117344000D01*
X78378991Y-116977113D02*
X78378990Y-114900162D01*
X78378990Y-114900162D02*
X77569954Y-114091126D01*
X78065020Y-109619236D02*
X78065020Y-105796720D01*
X77569954Y-114091126D02*
X77569955Y-110114303D01*
D17*
X74423040Y-98298000D02*
X75768000Y-98298000D01*
X73659880Y-99061160D02*
X74423040Y-98298000D01*
D19*
X79521991Y-110922859D02*
X79521990Y-113282562D01*
X80017060Y-110427790D02*
X79521991Y-110922859D01*
X78516221Y-101067071D02*
X78516221Y-101474649D01*
X79521990Y-113282562D02*
X80083428Y-113844000D01*
X75768000Y-98298000D02*
X76806000Y-98298000D01*
X77851000Y-99343000D02*
X77851000Y-100401850D01*
X79315030Y-102273458D02*
X79315030Y-103706280D01*
X77851000Y-100401850D02*
X78516221Y-101067071D01*
X79529050Y-103920300D02*
X79529050Y-104500150D01*
X76806000Y-98298000D02*
X77851000Y-99343000D01*
X78516221Y-101474649D02*
X79315030Y-102273458D01*
X79315030Y-103706280D02*
X79529050Y-103920300D01*
X80083428Y-113844000D02*
X80951000Y-113844000D01*
X79529050Y-104500150D02*
X80017060Y-104988160D01*
X80017060Y-104988160D02*
X80017060Y-110427790D01*
D17*
X73659880Y-106681160D02*
X73659880Y-106680120D01*
X74422000Y-105918000D02*
X75768000Y-105918000D01*
X73659880Y-106680120D02*
X74422000Y-105918000D01*
D19*
X80176000Y-118344000D02*
X80951000Y-118344000D01*
X77402973Y-117381395D02*
X78365578Y-118344000D01*
X78365578Y-118344000D02*
X80176000Y-118344000D01*
X77402973Y-115304445D02*
X77402973Y-117381395D01*
X76593936Y-114495408D02*
X77402973Y-115304445D01*
X76593936Y-110490000D02*
X76593936Y-114495408D01*
X75768000Y-105918000D02*
X76806000Y-105918000D01*
X76806000Y-105918000D02*
X77089000Y-106201000D01*
X77089000Y-109214960D02*
X76593937Y-109710025D01*
X77089000Y-106201000D02*
X77089000Y-109214960D01*
X76593937Y-109710025D02*
X76593936Y-110490000D01*
D17*
X74166720Y-97028000D02*
X73659880Y-96521160D01*
X75768000Y-97028000D02*
X74166720Y-97028000D01*
D19*
X80137000Y-113157000D02*
X80764000Y-113157000D01*
X80010000Y-113030000D02*
X80137000Y-113157000D01*
X80010000Y-111125000D02*
X80010000Y-113030000D01*
X80017060Y-104298010D02*
X80518000Y-104798950D01*
X78339010Y-99140860D02*
X78339010Y-100199710D01*
X80518000Y-110617000D02*
X80010000Y-111125000D01*
X79004231Y-101272509D02*
X79803040Y-102071318D01*
X79803040Y-102071318D02*
X79803040Y-103504140D01*
X77470000Y-97692000D02*
X77470000Y-98271850D01*
X77470000Y-98271850D02*
X78339010Y-99140860D01*
X80017060Y-103718160D02*
X80017060Y-104298010D01*
X76806000Y-97028000D02*
X77470000Y-97692000D01*
X80764000Y-113157000D02*
X80951000Y-113344000D01*
X80518000Y-104798950D02*
X80518000Y-110617000D01*
X78339010Y-100199710D02*
X79004231Y-100864931D01*
X79004231Y-100864931D02*
X79004231Y-101272509D01*
X75768000Y-97028000D02*
X76806000Y-97028000D01*
X79803040Y-103504140D02*
X80017060Y-103718160D01*
X83298728Y-97028000D02*
X85268000Y-97028000D01*
X83291093Y-97028000D02*
X83298728Y-97028000D01*
X81172991Y-108223991D02*
X81172991Y-99146102D01*
X81172991Y-99146102D02*
X83291093Y-97028000D01*
X82423881Y-111212039D02*
X82423881Y-114299119D01*
X81172991Y-108223991D02*
X81172991Y-109961149D01*
X81172991Y-109961149D02*
X82423881Y-111212039D01*
X82423881Y-114299119D02*
X82423000Y-114300000D01*
X82423881Y-114553119D02*
X82856011Y-114985249D01*
X82856011Y-115771989D02*
X82423000Y-116205000D01*
X82423000Y-118491000D02*
X82070000Y-118844000D01*
X82856011Y-114985249D02*
X82856011Y-115771989D01*
X82070000Y-118844000D02*
X80951000Y-118844000D01*
X82423881Y-114299119D02*
X82423881Y-114553119D01*
X82423000Y-116205000D02*
X82423000Y-118491000D01*
X92833500Y-120844000D02*
X93801000Y-120844000D01*
X91694000Y-121983500D02*
X92833500Y-120844000D01*
X88074500Y-121983500D02*
X91694000Y-121983500D01*
X85268000Y-105918000D02*
X86306000Y-105918000D01*
X86487000Y-106099000D02*
X86487001Y-120396001D01*
X86306000Y-105918000D02*
X86487000Y-106099000D01*
X86487001Y-120396001D02*
X88074500Y-121983500D01*
X81661000Y-109759008D02*
X82911891Y-111009899D01*
X82911891Y-111009899D02*
X82911891Y-114350979D01*
X85268000Y-98298000D02*
X82711243Y-98298000D01*
X81661000Y-99348243D02*
X81661000Y-109759008D01*
X82711243Y-98298000D02*
X81661000Y-99348243D01*
X82911891Y-114350979D02*
X83344021Y-114783109D01*
X82911010Y-116407140D02*
X82911009Y-118693141D01*
X83344021Y-114783109D02*
X83344020Y-115974130D01*
X83344020Y-115974130D02*
X82911010Y-116407140D01*
X81726000Y-119344000D02*
X80951000Y-119344000D01*
X82911009Y-118693141D02*
X82260150Y-119344000D01*
X82260150Y-119344000D02*
X81726000Y-119344000D01*
X92263050Y-119344000D02*
X93801000Y-119344000D01*
X91087580Y-120519470D02*
X92263050Y-119344000D01*
X87951029Y-103753029D02*
X87951029Y-119789579D01*
X87951029Y-119789579D02*
X88680920Y-120519470D01*
X86306000Y-102108000D02*
X87951029Y-103753029D01*
X85268000Y-102108000D02*
X86306000Y-102108000D01*
X88680920Y-120519470D02*
X91087580Y-120519470D01*
X92643350Y-120344000D02*
X93801000Y-120344000D01*
X85726150Y-104648000D02*
X86975010Y-105896860D01*
X85268000Y-104648000D02*
X85726150Y-104648000D01*
X86975010Y-105896860D02*
X86975010Y-120193860D01*
X91491860Y-121495490D02*
X92643350Y-120344000D01*
X88276640Y-121495490D02*
X91491860Y-121495490D01*
X86975010Y-120193860D02*
X88276640Y-121495490D01*
X85268000Y-100838000D02*
X86306000Y-100838000D01*
X86306000Y-100838000D02*
X88439040Y-102971040D01*
X88439040Y-102971040D02*
X88439040Y-112696040D01*
X89587000Y-113844000D02*
X93801000Y-113844000D01*
X88439040Y-112696040D02*
X89587000Y-113844000D01*
X81998000Y-119844000D02*
X80951000Y-119844000D01*
X83399018Y-118895282D02*
X82450300Y-119844000D01*
X82149010Y-99841990D02*
X82149010Y-109556868D01*
X82450300Y-119844000D02*
X81998000Y-119844000D01*
X82423000Y-99568000D02*
X82149010Y-99841990D01*
X85268000Y-99568000D02*
X82423000Y-99568000D01*
X83399901Y-110807759D02*
X83399901Y-114148839D01*
X83422300Y-116586000D02*
X83399019Y-116609281D01*
X83399019Y-116609281D02*
X83399018Y-118895282D01*
X82149010Y-109556868D02*
X83399901Y-110807759D01*
X83399901Y-114148839D02*
X83832030Y-114580970D01*
X83439000Y-116586000D02*
X83422300Y-116586000D01*
X83832030Y-114580970D02*
X83832030Y-116192970D01*
X83832030Y-116192970D02*
X83439000Y-116586000D01*
X92453200Y-119844000D02*
X93801000Y-119844000D01*
X91289720Y-121007480D02*
X92453200Y-119844000D01*
X87463020Y-104535020D02*
X87463021Y-119991721D01*
X86306000Y-103378000D02*
X87463020Y-104535020D01*
X88478780Y-121007480D02*
X91289720Y-121007480D01*
X85268000Y-103378000D02*
X86306000Y-103378000D01*
X87463021Y-119991721D02*
X88478780Y-121007480D01*
X94719990Y-118849990D02*
X95123000Y-119253000D01*
X93886990Y-118849990D02*
X94719990Y-118849990D01*
X95123000Y-119253000D02*
X95123000Y-119380000D01*
X93801000Y-118844000D02*
X93881000Y-118844000D01*
X93881000Y-118844000D02*
X93886990Y-118849990D01*
X93801000Y-118344000D02*
X95103000Y-118344000D01*
X95103000Y-118344000D02*
X95103000Y-118344000D01*
X94723878Y-117844000D02*
X95092878Y-117475000D01*
X93801000Y-117844000D02*
X94723878Y-117844000D01*
X95092878Y-117475000D02*
X95092878Y-117475000D01*
X94695898Y-115344000D02*
X95123000Y-115771102D01*
X93801000Y-115344000D02*
X94695898Y-115344000D01*
X95123000Y-115771102D02*
X95123000Y-115771102D01*
X88582500Y-118899447D02*
X88439039Y-118755986D01*
X88582500Y-119253000D02*
X88582500Y-118899447D01*
X88439039Y-118755986D02*
X88439039Y-117475000D01*
X88439039Y-117475000D02*
X88439039Y-117237461D01*
X88439039Y-117237461D02*
X88550750Y-117125750D01*
X93822990Y-114849990D02*
X95081010Y-114849990D01*
X93801000Y-114844000D02*
X93817000Y-114844000D01*
X93817000Y-114844000D02*
X93822990Y-114849990D01*
X95081010Y-114849990D02*
X95081010Y-114849990D01*
X90741500Y-118437378D02*
X90741500Y-119534447D01*
X92334878Y-116844000D02*
X90741500Y-118437378D01*
X90741500Y-119534447D02*
X90741500Y-119888000D01*
X93801000Y-116844000D02*
X92334878Y-116844000D01*
X93801000Y-116344000D02*
X93841000Y-116344000D01*
X93841000Y-116344000D02*
X93846990Y-116349990D01*
X89979500Y-119534447D02*
X89979500Y-119888000D01*
X89979500Y-118509228D02*
X89979500Y-119534447D01*
X92144728Y-116344000D02*
X89979500Y-118509228D01*
X93801000Y-116344000D02*
X92144728Y-116344000D01*
X93801000Y-115844000D02*
X91954578Y-115844000D01*
X89217500Y-118581078D02*
X89217500Y-119888000D01*
X91954578Y-115844000D02*
X89217500Y-118581078D01*
X79903000Y-115844000D02*
X79502000Y-115443000D01*
X80951000Y-115844000D02*
X79903000Y-115844000D01*
X74410000Y-116745000D02*
X74442000Y-116713000D01*
X73660000Y-116745000D02*
X74410000Y-116745000D01*
X74442000Y-116713000D02*
X74803000Y-116713000D01*
X74803000Y-116713000D02*
X75057000Y-116967000D01*
X75057000Y-116967000D02*
X75057000Y-118364000D01*
X75057000Y-118364000D02*
X75057000Y-118435850D01*
X75057000Y-118435850D02*
X75545010Y-118923860D01*
X75545010Y-118923860D02*
X75545010Y-120630010D01*
X75545010Y-120630010D02*
X76073000Y-121158000D01*
X76073000Y-121158000D02*
X76073000Y-121158000D01*
X74041000Y-121920000D02*
X73660000Y-121539000D01*
X76200000Y-123190000D02*
X74930000Y-121920000D01*
X74930000Y-121920000D02*
X74041000Y-121920000D01*
X73660000Y-121285000D02*
X73660000Y-120745000D01*
X73660000Y-121539000D02*
X73660000Y-121285000D01*
X74676000Y-118745000D02*
X73660000Y-118745000D01*
X77470000Y-121920000D02*
X75620150Y-121920000D01*
X75620150Y-121920000D02*
X75057000Y-121356850D01*
X75057000Y-121356850D02*
X75057000Y-119126000D01*
X78740000Y-123190000D02*
X77470000Y-121920000D01*
X75057000Y-119126000D02*
X74676000Y-118745000D01*
X85998992Y-107588992D02*
X85998992Y-107676008D01*
X85598000Y-107188000D02*
X85998992Y-107588992D01*
X85268000Y-107188000D02*
X85598000Y-107188000D01*
X85998992Y-115804008D02*
X85998992Y-107676008D01*
X85998992Y-115804008D02*
X85998992Y-115931008D01*
X85998992Y-115931008D02*
X85788500Y-116141500D01*
X85788500Y-116141500D02*
X85788500Y-116141500D01*
X81130990Y-115349990D02*
X82262010Y-115349990D01*
X80951000Y-115344000D02*
X81125000Y-115344000D01*
X81125000Y-115344000D02*
X81130990Y-115349990D01*
X82262010Y-115349990D02*
X82262010Y-115349990D01*
X83887911Y-113946701D02*
X83887911Y-111692089D01*
X82640450Y-120344000D02*
X83887027Y-119097423D01*
X80951000Y-120344000D02*
X82640450Y-120344000D01*
X83887027Y-119097423D02*
X83887028Y-116828122D01*
X84320040Y-116395110D02*
X84320040Y-114378830D01*
X84320040Y-114378830D02*
X83887911Y-113946701D01*
X83887028Y-116828122D02*
X84320040Y-116395110D01*
X83887911Y-111692089D02*
X83887910Y-110605618D01*
X83887910Y-110605618D02*
X82811896Y-109529604D01*
X82811896Y-109529604D02*
X82804000Y-109521708D01*
X82804000Y-109521708D02*
X82804000Y-106426000D01*
X80951000Y-120844000D02*
X83245000Y-120844000D01*
X85788500Y-119243122D02*
X85788500Y-118671622D01*
X85788500Y-118671622D02*
X85788500Y-116840000D01*
X84187622Y-120844000D02*
X85788500Y-119243122D01*
X80951000Y-120844000D02*
X84187622Y-120844000D01*
X83566000Y-105156000D02*
X83566000Y-106543122D01*
X83566000Y-106543122D02*
X83292010Y-106817112D01*
X83292010Y-106817112D02*
X83292010Y-109156500D01*
X83292010Y-109319568D02*
X84375919Y-110403479D01*
X83292010Y-109156500D02*
X83292010Y-109319568D01*
X84375919Y-111489947D02*
X84375921Y-111489949D01*
X84375919Y-110403479D02*
X84375919Y-111489947D01*
X84375921Y-111489949D02*
X84375921Y-112649000D01*
X84375921Y-112649000D02*
X84375921Y-112823921D01*
X84375921Y-112823921D02*
X84518500Y-112966500D01*
X84518500Y-112966500D02*
X84518500Y-112966500D01*
X94576000Y-113344000D02*
X93801000Y-113344000D01*
X93801000Y-114344000D02*
X94668572Y-114344000D01*
X94668572Y-114344000D02*
X94996000Y-114016572D01*
X94996000Y-114016572D02*
X94996000Y-113671428D01*
X94996000Y-113671428D02*
X94668572Y-113344000D01*
X94668572Y-113344000D02*
X94576000Y-113344000D01*
X89198000Y-114344000D02*
X88582500Y-113728500D01*
X93801000Y-114344000D02*
X89198000Y-114344000D01*
D20*
G36*
X84225995Y-95262889D02*
G01*
X84193542Y-95323605D01*
X84173557Y-95389486D01*
X84166809Y-95458000D01*
X84166809Y-96058000D01*
X84173557Y-96126514D01*
X84193542Y-96192395D01*
X84225995Y-96253111D01*
X84269670Y-96306330D01*
X84322889Y-96350005D01*
X84383605Y-96382458D01*
X84418357Y-96393000D01*
X84383605Y-96403542D01*
X84322889Y-96435995D01*
X84269670Y-96479670D01*
X84225995Y-96532889D01*
X84225134Y-96534500D01*
X83315327Y-96534500D01*
X83291093Y-96532113D01*
X83266859Y-96534500D01*
X83266856Y-96534500D01*
X83194350Y-96541641D01*
X83101325Y-96569860D01*
X83015593Y-96615685D01*
X82940448Y-96677355D01*
X82924997Y-96696182D01*
X80841168Y-98780011D01*
X80822347Y-98795457D01*
X80806901Y-98814278D01*
X80806896Y-98814283D01*
X80760676Y-98870602D01*
X80714851Y-98956335D01*
X80696624Y-99016424D01*
X80686633Y-99049359D01*
X80682991Y-99086339D01*
X80677105Y-99146102D01*
X80679492Y-99170338D01*
X80679491Y-104262527D01*
X80510560Y-104093596D01*
X80510560Y-103742386D01*
X80512946Y-103718160D01*
X80510560Y-103693934D01*
X80510560Y-103693923D01*
X80503419Y-103621417D01*
X80475200Y-103528392D01*
X80429375Y-103442660D01*
X80367705Y-103367515D01*
X80348878Y-103352064D01*
X80296540Y-103299726D01*
X80296540Y-102095552D01*
X80298927Y-102071318D01*
X80293622Y-102017458D01*
X80289399Y-101974575D01*
X80261180Y-101881550D01*
X80215355Y-101795818D01*
X80153685Y-101720673D01*
X80134858Y-101705222D01*
X79497731Y-101068095D01*
X79497731Y-100889165D01*
X79500118Y-100864931D01*
X79497731Y-100840694D01*
X79490590Y-100768188D01*
X79462371Y-100675163D01*
X79416546Y-100589431D01*
X79354876Y-100514286D01*
X79336049Y-100498835D01*
X78832510Y-99995296D01*
X78832510Y-99165094D01*
X78834897Y-99140860D01*
X78830173Y-99092897D01*
X78825369Y-99044117D01*
X78797150Y-98951092D01*
X78751325Y-98865360D01*
X78689655Y-98790215D01*
X78670828Y-98774764D01*
X77963500Y-98067436D01*
X77963500Y-97716234D01*
X77965887Y-97692000D01*
X77963500Y-97667763D01*
X77956359Y-97595257D01*
X77928140Y-97502232D01*
X77882315Y-97416500D01*
X77820645Y-97341355D01*
X77801818Y-97325904D01*
X77172096Y-96696182D01*
X77156645Y-96677355D01*
X77081500Y-96615685D01*
X76995768Y-96569860D01*
X76902743Y-96541641D01*
X76830237Y-96534500D01*
X76830226Y-96534500D01*
X76809665Y-96532475D01*
X76766330Y-96479670D01*
X76713111Y-96435995D01*
X76652395Y-96403542D01*
X76586514Y-96383557D01*
X76518000Y-96376809D01*
X75018000Y-96376809D01*
X74949486Y-96383557D01*
X74883605Y-96403542D01*
X74822889Y-96435995D01*
X74809380Y-96447081D01*
X74809380Y-96407944D01*
X74765205Y-96185863D01*
X74678554Y-95976668D01*
X74552755Y-95788396D01*
X74392644Y-95628285D01*
X74204372Y-95502486D01*
X73995177Y-95415835D01*
X73773096Y-95371660D01*
X73546664Y-95371660D01*
X73324583Y-95415835D01*
X73115388Y-95502486D01*
X72927116Y-95628285D01*
X72767005Y-95788396D01*
X72641206Y-95976668D01*
X72554555Y-96185863D01*
X72510380Y-96407944D01*
X72510380Y-96634376D01*
X72554555Y-96856457D01*
X72641206Y-97065652D01*
X72767005Y-97253924D01*
X72927116Y-97414035D01*
X73115388Y-97539834D01*
X73324583Y-97626485D01*
X73546664Y-97670660D01*
X73773096Y-97670660D01*
X73995177Y-97626485D01*
X74065572Y-97597327D01*
X74138403Y-97604500D01*
X74138410Y-97604500D01*
X74166719Y-97607288D01*
X74195028Y-97604500D01*
X74803996Y-97604500D01*
X74822889Y-97620005D01*
X74883605Y-97652458D01*
X74918357Y-97663000D01*
X74883605Y-97673542D01*
X74822889Y-97705995D01*
X74803996Y-97721500D01*
X74451348Y-97721500D01*
X74423039Y-97718712D01*
X74394730Y-97721500D01*
X74394723Y-97721500D01*
X74310026Y-97729842D01*
X74201356Y-97762807D01*
X74109993Y-97811641D01*
X74101204Y-97816339D01*
X74035415Y-97870330D01*
X74035410Y-97870335D01*
X74013421Y-97888381D01*
X73995375Y-97910371D01*
X73957420Y-97948325D01*
X73773096Y-97911660D01*
X73546664Y-97911660D01*
X73324583Y-97955835D01*
X73115388Y-98042486D01*
X72927116Y-98168285D01*
X72767005Y-98328396D01*
X72641206Y-98516668D01*
X72554555Y-98725863D01*
X72510380Y-98947944D01*
X72510380Y-99174376D01*
X72554555Y-99396457D01*
X72641206Y-99605652D01*
X72767005Y-99793924D01*
X72927116Y-99954035D01*
X73115388Y-100079834D01*
X73324583Y-100166485D01*
X73546664Y-100210660D01*
X73773096Y-100210660D01*
X73995177Y-100166485D01*
X74204372Y-100079834D01*
X74392644Y-99954035D01*
X74552755Y-99793924D01*
X74666809Y-99623230D01*
X74666809Y-99868000D01*
X74673557Y-99936514D01*
X74693542Y-100002395D01*
X74725995Y-100063111D01*
X74769670Y-100116330D01*
X74822889Y-100160005D01*
X74883605Y-100192458D01*
X74918357Y-100203000D01*
X74883605Y-100213542D01*
X74822889Y-100245995D01*
X74769670Y-100289670D01*
X74725995Y-100342889D01*
X74693542Y-100403605D01*
X74673557Y-100469486D01*
X74666809Y-100538000D01*
X74666809Y-101039090D01*
X74552755Y-100868396D01*
X74392644Y-100708285D01*
X74204372Y-100582486D01*
X73995177Y-100495835D01*
X73773096Y-100451660D01*
X73546664Y-100451660D01*
X73324583Y-100495835D01*
X73115388Y-100582486D01*
X72927116Y-100708285D01*
X72767005Y-100868396D01*
X72641206Y-101056668D01*
X72554555Y-101265863D01*
X72510380Y-101487944D01*
X72510380Y-101714376D01*
X72554555Y-101936457D01*
X72641206Y-102145652D01*
X72767005Y-102333924D01*
X72927116Y-102494035D01*
X73115388Y-102619834D01*
X73324583Y-102706485D01*
X73546664Y-102750660D01*
X73773096Y-102750660D01*
X73995177Y-102706485D01*
X74177465Y-102630979D01*
X74200316Y-102643193D01*
X74308986Y-102676158D01*
X74393683Y-102684500D01*
X74393690Y-102684500D01*
X74421999Y-102687288D01*
X74450308Y-102684500D01*
X74803996Y-102684500D01*
X74822889Y-102700005D01*
X74883605Y-102732458D01*
X74918357Y-102743000D01*
X74883605Y-102753542D01*
X74822889Y-102785995D01*
X74769670Y-102829670D01*
X74725995Y-102882889D01*
X74693542Y-102943605D01*
X74673557Y-103009486D01*
X74666809Y-103078000D01*
X74666809Y-103579090D01*
X74552755Y-103408396D01*
X74392644Y-103248285D01*
X74204372Y-103122486D01*
X73995177Y-103035835D01*
X73773096Y-102991660D01*
X73546664Y-102991660D01*
X73324583Y-103035835D01*
X73115388Y-103122486D01*
X72927116Y-103248285D01*
X72767005Y-103408396D01*
X72641206Y-103596668D01*
X72554555Y-103805863D01*
X72510380Y-104027944D01*
X72510380Y-104254376D01*
X72554555Y-104476457D01*
X72641206Y-104685652D01*
X72767005Y-104873924D01*
X72927116Y-105034035D01*
X73115388Y-105159834D01*
X73324583Y-105246485D01*
X73546664Y-105290660D01*
X73773096Y-105290660D01*
X73995177Y-105246485D01*
X74177465Y-105170979D01*
X74200316Y-105183193D01*
X74308986Y-105216158D01*
X74393683Y-105224500D01*
X74393690Y-105224500D01*
X74421999Y-105227288D01*
X74450308Y-105224500D01*
X74803996Y-105224500D01*
X74822889Y-105240005D01*
X74883605Y-105272458D01*
X74918357Y-105283000D01*
X74883605Y-105293542D01*
X74822889Y-105325995D01*
X74803996Y-105341500D01*
X74450306Y-105341500D01*
X74421999Y-105338712D01*
X74393692Y-105341500D01*
X74393683Y-105341500D01*
X74308986Y-105349842D01*
X74200316Y-105382807D01*
X74100164Y-105436339D01*
X74012381Y-105508381D01*
X73994330Y-105530376D01*
X73956554Y-105568152D01*
X73773096Y-105531660D01*
X73546664Y-105531660D01*
X73324583Y-105575835D01*
X73115388Y-105662486D01*
X72927116Y-105788285D01*
X72767005Y-105948396D01*
X72641206Y-106136668D01*
X72554555Y-106345863D01*
X72510380Y-106567944D01*
X72510380Y-106794376D01*
X72554555Y-107016457D01*
X72641206Y-107225652D01*
X72767005Y-107413924D01*
X72927116Y-107574035D01*
X73115388Y-107699834D01*
X73324583Y-107786485D01*
X73546664Y-107830660D01*
X73773096Y-107830660D01*
X73995177Y-107786485D01*
X74204372Y-107699834D01*
X74392644Y-107574035D01*
X74552755Y-107413924D01*
X74678554Y-107225652D01*
X74765205Y-107016457D01*
X74809380Y-106794376D01*
X74809380Y-106567944D01*
X74794771Y-106494500D01*
X74803996Y-106494500D01*
X74822889Y-106510005D01*
X74883605Y-106542458D01*
X74949486Y-106562443D01*
X75018000Y-106569191D01*
X76518000Y-106569191D01*
X76586514Y-106562443D01*
X76595500Y-106559717D01*
X76595501Y-109010546D01*
X76262113Y-109343934D01*
X76243293Y-109359380D01*
X76227847Y-109378201D01*
X76227841Y-109378207D01*
X76181622Y-109434526D01*
X76135797Y-109520259D01*
X76127129Y-109548834D01*
X76107579Y-109613282D01*
X76106292Y-109626347D01*
X76098051Y-109710026D01*
X76100438Y-109734261D01*
X76100436Y-110465763D01*
X76100436Y-110465764D01*
X76100437Y-114471172D01*
X76098050Y-114495408D01*
X76100437Y-114519644D01*
X76100437Y-114519645D01*
X76107578Y-114592151D01*
X76110347Y-114601279D01*
X76135796Y-114685175D01*
X76181621Y-114770908D01*
X76227841Y-114827227D01*
X76227846Y-114827232D01*
X76243292Y-114846053D01*
X76262113Y-114861499D01*
X76909473Y-115508860D01*
X76909474Y-117357159D01*
X76907087Y-117381395D01*
X76909474Y-117405631D01*
X76909474Y-117405632D01*
X76916615Y-117478138D01*
X76921231Y-117493355D01*
X76944833Y-117571162D01*
X76990658Y-117656895D01*
X77036878Y-117713214D01*
X77036883Y-117713219D01*
X77052329Y-117732040D01*
X77071150Y-117747486D01*
X77999487Y-118675824D01*
X78014933Y-118694645D01*
X78033754Y-118710091D01*
X78033758Y-118710095D01*
X78090077Y-118756315D01*
X78149399Y-118788023D01*
X78175810Y-118802140D01*
X78268835Y-118830359D01*
X78341341Y-118837500D01*
X78341351Y-118837500D01*
X78365577Y-118839886D01*
X78389803Y-118837500D01*
X79824809Y-118837500D01*
X79824809Y-118919000D01*
X79832998Y-119002146D01*
X79857251Y-119082096D01*
X79863614Y-119094000D01*
X79857251Y-119105904D01*
X79832998Y-119185854D01*
X79824809Y-119269000D01*
X79824809Y-119419000D01*
X79832998Y-119502146D01*
X79857251Y-119582096D01*
X79863614Y-119594000D01*
X79857251Y-119605904D01*
X79832998Y-119685854D01*
X79824809Y-119769000D01*
X79824809Y-119919000D01*
X79832998Y-120002146D01*
X79857251Y-120082096D01*
X79863614Y-120094000D01*
X79857251Y-120105904D01*
X79832998Y-120185854D01*
X79824809Y-120269000D01*
X79824809Y-120419000D01*
X79832998Y-120502146D01*
X79857251Y-120582096D01*
X79863614Y-120594000D01*
X79857251Y-120605904D01*
X79832998Y-120685854D01*
X79824809Y-120769000D01*
X79824809Y-120919000D01*
X79832998Y-121002146D01*
X79857251Y-121082096D01*
X79896635Y-121155779D01*
X79949637Y-121220363D01*
X80014221Y-121273365D01*
X80087904Y-121312749D01*
X80167854Y-121337002D01*
X80251000Y-121345191D01*
X81651000Y-121345191D01*
X81729090Y-121337500D01*
X84163396Y-121337500D01*
X84187622Y-121339886D01*
X84211848Y-121337500D01*
X84211859Y-121337500D01*
X84284365Y-121330359D01*
X84377390Y-121302140D01*
X84463122Y-121256315D01*
X84538267Y-121194645D01*
X84553718Y-121175818D01*
X85993502Y-119736035D01*
X85993502Y-120371765D01*
X85991115Y-120396001D01*
X85993502Y-120420237D01*
X85993502Y-120420238D01*
X86000643Y-120492744D01*
X86000829Y-120493356D01*
X86028861Y-120585768D01*
X86074686Y-120671501D01*
X86120906Y-120727820D01*
X86120911Y-120727825D01*
X86136357Y-120746646D01*
X86155178Y-120762092D01*
X87701882Y-122308796D01*
X87698809Y-122340000D01*
X87698809Y-124040000D01*
X87705557Y-124108514D01*
X87725542Y-124174395D01*
X87745909Y-124212500D01*
X86988764Y-124212500D01*
X87124637Y-124121713D01*
X87291713Y-123954637D01*
X87422983Y-123758176D01*
X87513404Y-123539881D01*
X87559500Y-123308140D01*
X87559500Y-123071860D01*
X87513404Y-122840119D01*
X87422983Y-122621824D01*
X87291713Y-122425363D01*
X87124637Y-122258287D01*
X86928176Y-122127017D01*
X86709881Y-122036596D01*
X86478140Y-121990500D01*
X86241860Y-121990500D01*
X86010119Y-122036596D01*
X85791824Y-122127017D01*
X85595363Y-122258287D01*
X85428287Y-122425363D01*
X85297017Y-122621824D01*
X85206596Y-122840119D01*
X85160500Y-123071860D01*
X85160500Y-123308140D01*
X85206596Y-123539881D01*
X85297017Y-123758176D01*
X85428287Y-123954637D01*
X85595363Y-124121713D01*
X85731236Y-124212500D01*
X84448764Y-124212500D01*
X84584637Y-124121713D01*
X84751713Y-123954637D01*
X84882983Y-123758176D01*
X84973404Y-123539881D01*
X85019500Y-123308140D01*
X85019500Y-123071860D01*
X84973404Y-122840119D01*
X84882983Y-122621824D01*
X84751713Y-122425363D01*
X84584637Y-122258287D01*
X84388176Y-122127017D01*
X84169881Y-122036596D01*
X83938140Y-121990500D01*
X83701860Y-121990500D01*
X83470119Y-122036596D01*
X83251824Y-122127017D01*
X83055363Y-122258287D01*
X82888287Y-122425363D01*
X82757017Y-122621824D01*
X82666596Y-122840119D01*
X82620500Y-123071860D01*
X82620500Y-123308140D01*
X82666596Y-123539881D01*
X82757017Y-123758176D01*
X82888287Y-123954637D01*
X83055363Y-124121713D01*
X83191236Y-124212500D01*
X82434091Y-124212500D01*
X82454458Y-124174395D01*
X82474443Y-124108514D01*
X82481191Y-124040000D01*
X82481191Y-122340000D01*
X82474443Y-122271486D01*
X82454458Y-122205605D01*
X82422005Y-122144889D01*
X82378330Y-122091670D01*
X82325111Y-122047995D01*
X82264395Y-122015542D01*
X82198514Y-121995557D01*
X82130000Y-121988809D01*
X80430000Y-121988809D01*
X80361486Y-121995557D01*
X80295605Y-122015542D01*
X80234889Y-122047995D01*
X80181670Y-122091670D01*
X80137995Y-122144889D01*
X80105542Y-122205605D01*
X80085557Y-122271486D01*
X80078809Y-122340000D01*
X80078809Y-124040000D01*
X80085557Y-124108514D01*
X80105542Y-124174395D01*
X80125909Y-124212500D01*
X79894091Y-124212500D01*
X79914458Y-124174395D01*
X79934443Y-124108514D01*
X79941191Y-124040000D01*
X79941191Y-122340000D01*
X79934443Y-122271486D01*
X79914458Y-122205605D01*
X79882005Y-122144889D01*
X79838330Y-122091670D01*
X79785111Y-122047995D01*
X79724395Y-122015542D01*
X79658514Y-121995557D01*
X79590000Y-121988809D01*
X78236723Y-121988809D01*
X77836094Y-121588180D01*
X77820645Y-121569355D01*
X77745500Y-121507685D01*
X77659768Y-121461860D01*
X77566743Y-121433641D01*
X77494237Y-121426500D01*
X77494226Y-121426500D01*
X77470000Y-121424114D01*
X77445774Y-121426500D01*
X76610678Y-121426500D01*
X76649462Y-121332868D01*
X76672500Y-121217046D01*
X76672500Y-121098954D01*
X76649462Y-120983132D01*
X76604270Y-120874030D01*
X76538662Y-120775841D01*
X76455159Y-120692338D01*
X76356970Y-120626730D01*
X76247868Y-120581538D01*
X76181189Y-120568275D01*
X76038510Y-120425596D01*
X76038510Y-118948085D01*
X76040896Y-118923859D01*
X76038510Y-118899633D01*
X76038510Y-118899623D01*
X76031369Y-118827117D01*
X76003150Y-118734092D01*
X75963666Y-118660223D01*
X75957325Y-118648359D01*
X75911105Y-118592040D01*
X75911101Y-118592036D01*
X75895655Y-118573215D01*
X75876834Y-118557769D01*
X75550500Y-118231436D01*
X75550500Y-116991225D01*
X75552886Y-116966999D01*
X75550500Y-116942773D01*
X75550500Y-116942763D01*
X75543359Y-116870257D01*
X75515140Y-116777232D01*
X75469315Y-116691500D01*
X75407645Y-116616355D01*
X75388818Y-116600904D01*
X75169096Y-116381182D01*
X75153645Y-116362355D01*
X75078500Y-116300685D01*
X74992768Y-116254860D01*
X74899743Y-116226641D01*
X74827237Y-116219500D01*
X74827226Y-116219500D01*
X74803000Y-116217114D01*
X74778774Y-116219500D01*
X74758679Y-116219500D01*
X74754443Y-116176486D01*
X74734458Y-116110605D01*
X74702005Y-116049889D01*
X74658330Y-115996670D01*
X74605111Y-115952995D01*
X74544395Y-115920542D01*
X74478514Y-115900557D01*
X74410000Y-115893809D01*
X72910000Y-115893809D01*
X72841486Y-115900557D01*
X72775605Y-115920542D01*
X72714889Y-115952995D01*
X72661670Y-115996670D01*
X72617995Y-116049889D01*
X72585542Y-116110605D01*
X72565557Y-116176486D01*
X72558809Y-116245000D01*
X72558809Y-117245000D01*
X72565629Y-117313874D01*
X72585683Y-117379734D01*
X72593873Y-117395018D01*
X72585542Y-117410605D01*
X72565557Y-117476486D01*
X72558809Y-117545000D01*
X72558809Y-119945000D01*
X72565486Y-120013154D01*
X72585401Y-120079056D01*
X72593892Y-120094982D01*
X72585542Y-120110605D01*
X72565557Y-120176486D01*
X72558809Y-120245000D01*
X72558809Y-121245000D01*
X72565557Y-121313514D01*
X72585542Y-121379395D01*
X72617995Y-121440111D01*
X72661670Y-121493330D01*
X72714889Y-121537005D01*
X72775605Y-121569458D01*
X72841486Y-121589443D01*
X72910000Y-121596191D01*
X73169746Y-121596191D01*
X73173641Y-121635742D01*
X73201860Y-121728767D01*
X73247685Y-121814500D01*
X73309355Y-121889645D01*
X73328181Y-121905095D01*
X73411895Y-121988809D01*
X72810000Y-121988809D01*
X72741486Y-121995557D01*
X72675605Y-122015542D01*
X72614889Y-122047995D01*
X72561670Y-122091670D01*
X72517995Y-122144889D01*
X72485542Y-122205605D01*
X72465557Y-122271486D01*
X72458809Y-122340000D01*
X72458809Y-124040000D01*
X72465557Y-124108514D01*
X72485542Y-124174395D01*
X72505909Y-124212500D01*
X72291123Y-124212500D01*
X72256500Y-124177878D01*
X72256500Y-111647944D01*
X72510380Y-111647944D01*
X72510380Y-111874376D01*
X72554555Y-112096457D01*
X72641206Y-112305652D01*
X72767005Y-112493924D01*
X72927116Y-112654035D01*
X73115388Y-112779834D01*
X73324583Y-112866485D01*
X73546664Y-112910660D01*
X73773096Y-112910660D01*
X73995177Y-112866485D01*
X74204372Y-112779834D01*
X74392644Y-112654035D01*
X74552755Y-112493924D01*
X74678554Y-112305652D01*
X74765205Y-112096457D01*
X74809380Y-111874376D01*
X74809380Y-111647944D01*
X74765205Y-111425863D01*
X74678554Y-111216668D01*
X74552755Y-111028396D01*
X74392644Y-110868285D01*
X74204372Y-110742486D01*
X73995177Y-110655835D01*
X73773096Y-110611660D01*
X73546664Y-110611660D01*
X73324583Y-110655835D01*
X73115388Y-110742486D01*
X72927116Y-110868285D01*
X72767005Y-111028396D01*
X72641206Y-111216668D01*
X72554555Y-111425863D01*
X72510380Y-111647944D01*
X72256500Y-111647944D01*
X72256500Y-109107944D01*
X72510380Y-109107944D01*
X72510380Y-109334376D01*
X72554555Y-109556457D01*
X72641206Y-109765652D01*
X72767005Y-109953924D01*
X72927116Y-110114035D01*
X73115388Y-110239834D01*
X73324583Y-110326485D01*
X73546664Y-110370660D01*
X73773096Y-110370660D01*
X73995177Y-110326485D01*
X74204372Y-110239834D01*
X74392644Y-110114035D01*
X74552755Y-109953924D01*
X74678554Y-109765652D01*
X74765205Y-109556457D01*
X74809380Y-109334376D01*
X74809380Y-109107944D01*
X74765205Y-108885863D01*
X74678554Y-108676668D01*
X74552755Y-108488396D01*
X74392644Y-108328285D01*
X74204372Y-108202486D01*
X73995177Y-108115835D01*
X73773096Y-108071660D01*
X73546664Y-108071660D01*
X73324583Y-108115835D01*
X73115388Y-108202486D01*
X72927116Y-108328285D01*
X72767005Y-108488396D01*
X72641206Y-108676668D01*
X72554555Y-108885863D01*
X72510380Y-109107944D01*
X72256500Y-109107944D01*
X72256500Y-95278122D01*
X72291123Y-95243500D01*
X84241907Y-95243500D01*
X84225995Y-95262889D01*
G37*
X84225995Y-95262889D02*
X84193542Y-95323605D01*
X84173557Y-95389486D01*
X84166809Y-95458000D01*
X84166809Y-96058000D01*
X84173557Y-96126514D01*
X84193542Y-96192395D01*
X84225995Y-96253111D01*
X84269670Y-96306330D01*
X84322889Y-96350005D01*
X84383605Y-96382458D01*
X84418357Y-96393000D01*
X84383605Y-96403542D01*
X84322889Y-96435995D01*
X84269670Y-96479670D01*
X84225995Y-96532889D01*
X84225134Y-96534500D01*
X83315327Y-96534500D01*
X83291093Y-96532113D01*
X83266859Y-96534500D01*
X83266856Y-96534500D01*
X83194350Y-96541641D01*
X83101325Y-96569860D01*
X83015593Y-96615685D01*
X82940448Y-96677355D01*
X82924997Y-96696182D01*
X80841168Y-98780011D01*
X80822347Y-98795457D01*
X80806901Y-98814278D01*
X80806896Y-98814283D01*
X80760676Y-98870602D01*
X80714851Y-98956335D01*
X80696624Y-99016424D01*
X80686633Y-99049359D01*
X80682991Y-99086339D01*
X80677105Y-99146102D01*
X80679492Y-99170338D01*
X80679491Y-104262527D01*
X80510560Y-104093596D01*
X80510560Y-103742386D01*
X80512946Y-103718160D01*
X80510560Y-103693934D01*
X80510560Y-103693923D01*
X80503419Y-103621417D01*
X80475200Y-103528392D01*
X80429375Y-103442660D01*
X80367705Y-103367515D01*
X80348878Y-103352064D01*
X80296540Y-103299726D01*
X80296540Y-102095552D01*
X80298927Y-102071318D01*
X80293622Y-102017458D01*
X80289399Y-101974575D01*
X80261180Y-101881550D01*
X80215355Y-101795818D01*
X80153685Y-101720673D01*
X80134858Y-101705222D01*
X79497731Y-101068095D01*
X79497731Y-100889165D01*
X79500118Y-100864931D01*
X79497731Y-100840694D01*
X79490590Y-100768188D01*
X79462371Y-100675163D01*
X79416546Y-100589431D01*
X79354876Y-100514286D01*
X79336049Y-100498835D01*
X78832510Y-99995296D01*
X78832510Y-99165094D01*
X78834897Y-99140860D01*
X78830173Y-99092897D01*
X78825369Y-99044117D01*
X78797150Y-98951092D01*
X78751325Y-98865360D01*
X78689655Y-98790215D01*
X78670828Y-98774764D01*
X77963500Y-98067436D01*
X77963500Y-97716234D01*
X77965887Y-97692000D01*
X77963500Y-97667763D01*
X77956359Y-97595257D01*
X77928140Y-97502232D01*
X77882315Y-97416500D01*
X77820645Y-97341355D01*
X77801818Y-97325904D01*
X77172096Y-96696182D01*
X77156645Y-96677355D01*
X77081500Y-96615685D01*
X76995768Y-96569860D01*
X76902743Y-96541641D01*
X76830237Y-96534500D01*
X76830226Y-96534500D01*
X76809665Y-96532475D01*
X76766330Y-96479670D01*
X76713111Y-96435995D01*
X76652395Y-96403542D01*
X76586514Y-96383557D01*
X76518000Y-96376809D01*
X75018000Y-96376809D01*
X74949486Y-96383557D01*
X74883605Y-96403542D01*
X74822889Y-96435995D01*
X74809380Y-96447081D01*
X74809380Y-96407944D01*
X74765205Y-96185863D01*
X74678554Y-95976668D01*
X74552755Y-95788396D01*
X74392644Y-95628285D01*
X74204372Y-95502486D01*
X73995177Y-95415835D01*
X73773096Y-95371660D01*
X73546664Y-95371660D01*
X73324583Y-95415835D01*
X73115388Y-95502486D01*
X72927116Y-95628285D01*
X72767005Y-95788396D01*
X72641206Y-95976668D01*
X72554555Y-96185863D01*
X72510380Y-96407944D01*
X72510380Y-96634376D01*
X72554555Y-96856457D01*
X72641206Y-97065652D01*
X72767005Y-97253924D01*
X72927116Y-97414035D01*
X73115388Y-97539834D01*
X73324583Y-97626485D01*
X73546664Y-97670660D01*
X73773096Y-97670660D01*
X73995177Y-97626485D01*
X74065572Y-97597327D01*
X74138403Y-97604500D01*
X74138410Y-97604500D01*
X74166719Y-97607288D01*
X74195028Y-97604500D01*
X74803996Y-97604500D01*
X74822889Y-97620005D01*
X74883605Y-97652458D01*
X74918357Y-97663000D01*
X74883605Y-97673542D01*
X74822889Y-97705995D01*
X74803996Y-97721500D01*
X74451348Y-97721500D01*
X74423039Y-97718712D01*
X74394730Y-97721500D01*
X74394723Y-97721500D01*
X74310026Y-97729842D01*
X74201356Y-97762807D01*
X74109993Y-97811641D01*
X74101204Y-97816339D01*
X74035415Y-97870330D01*
X74035410Y-97870335D01*
X74013421Y-97888381D01*
X73995375Y-97910371D01*
X73957420Y-97948325D01*
X73773096Y-97911660D01*
X73546664Y-97911660D01*
X73324583Y-97955835D01*
X73115388Y-98042486D01*
X72927116Y-98168285D01*
X72767005Y-98328396D01*
X72641206Y-98516668D01*
X72554555Y-98725863D01*
X72510380Y-98947944D01*
X72510380Y-99174376D01*
X72554555Y-99396457D01*
X72641206Y-99605652D01*
X72767005Y-99793924D01*
X72927116Y-99954035D01*
X73115388Y-100079834D01*
X73324583Y-100166485D01*
X73546664Y-100210660D01*
X73773096Y-100210660D01*
X73995177Y-100166485D01*
X74204372Y-100079834D01*
X74392644Y-99954035D01*
X74552755Y-99793924D01*
X74666809Y-99623230D01*
X74666809Y-99868000D01*
X74673557Y-99936514D01*
X74693542Y-100002395D01*
X74725995Y-100063111D01*
X74769670Y-100116330D01*
X74822889Y-100160005D01*
X74883605Y-100192458D01*
X74918357Y-100203000D01*
X74883605Y-100213542D01*
X74822889Y-100245995D01*
X74769670Y-100289670D01*
X74725995Y-100342889D01*
X74693542Y-100403605D01*
X74673557Y-100469486D01*
X74666809Y-100538000D01*
X74666809Y-101039090D01*
X74552755Y-100868396D01*
X74392644Y-100708285D01*
X74204372Y-100582486D01*
X73995177Y-100495835D01*
X73773096Y-100451660D01*
X73546664Y-100451660D01*
X73324583Y-100495835D01*
X73115388Y-100582486D01*
X72927116Y-100708285D01*
X72767005Y-100868396D01*
X72641206Y-101056668D01*
X72554555Y-101265863D01*
X72510380Y-101487944D01*
X72510380Y-101714376D01*
X72554555Y-101936457D01*
X72641206Y-102145652D01*
X72767005Y-102333924D01*
X72927116Y-102494035D01*
X73115388Y-102619834D01*
X73324583Y-102706485D01*
X73546664Y-102750660D01*
X73773096Y-102750660D01*
X73995177Y-102706485D01*
X74177465Y-102630979D01*
X74200316Y-102643193D01*
X74308986Y-102676158D01*
X74393683Y-102684500D01*
X74393690Y-102684500D01*
X74421999Y-102687288D01*
X74450308Y-102684500D01*
X74803996Y-102684500D01*
X74822889Y-102700005D01*
X74883605Y-102732458D01*
X74918357Y-102743000D01*
X74883605Y-102753542D01*
X74822889Y-102785995D01*
X74769670Y-102829670D01*
X74725995Y-102882889D01*
X74693542Y-102943605D01*
X74673557Y-103009486D01*
X74666809Y-103078000D01*
X74666809Y-103579090D01*
X74552755Y-103408396D01*
X74392644Y-103248285D01*
X74204372Y-103122486D01*
X73995177Y-103035835D01*
X73773096Y-102991660D01*
X73546664Y-102991660D01*
X73324583Y-103035835D01*
X73115388Y-103122486D01*
X72927116Y-103248285D01*
X72767005Y-103408396D01*
X72641206Y-103596668D01*
X72554555Y-103805863D01*
X72510380Y-104027944D01*
X72510380Y-104254376D01*
X72554555Y-104476457D01*
X72641206Y-104685652D01*
X72767005Y-104873924D01*
X72927116Y-105034035D01*
X73115388Y-105159834D01*
X73324583Y-105246485D01*
X73546664Y-105290660D01*
X73773096Y-105290660D01*
X73995177Y-105246485D01*
X74177465Y-105170979D01*
X74200316Y-105183193D01*
X74308986Y-105216158D01*
X74393683Y-105224500D01*
X74393690Y-105224500D01*
X74421999Y-105227288D01*
X74450308Y-105224500D01*
X74803996Y-105224500D01*
X74822889Y-105240005D01*
X74883605Y-105272458D01*
X74918357Y-105283000D01*
X74883605Y-105293542D01*
X74822889Y-105325995D01*
X74803996Y-105341500D01*
X74450306Y-105341500D01*
X74421999Y-105338712D01*
X74393692Y-105341500D01*
X74393683Y-105341500D01*
X74308986Y-105349842D01*
X74200316Y-105382807D01*
X74100164Y-105436339D01*
X74012381Y-105508381D01*
X73994330Y-105530376D01*
X73956554Y-105568152D01*
X73773096Y-105531660D01*
X73546664Y-105531660D01*
X73324583Y-105575835D01*
X73115388Y-105662486D01*
X72927116Y-105788285D01*
X72767005Y-105948396D01*
X72641206Y-106136668D01*
X72554555Y-106345863D01*
X72510380Y-106567944D01*
X72510380Y-106794376D01*
X72554555Y-107016457D01*
X72641206Y-107225652D01*
X72767005Y-107413924D01*
X72927116Y-107574035D01*
X73115388Y-107699834D01*
X73324583Y-107786485D01*
X73546664Y-107830660D01*
X73773096Y-107830660D01*
X73995177Y-107786485D01*
X74204372Y-107699834D01*
X74392644Y-107574035D01*
X74552755Y-107413924D01*
X74678554Y-107225652D01*
X74765205Y-107016457D01*
X74809380Y-106794376D01*
X74809380Y-106567944D01*
X74794771Y-106494500D01*
X74803996Y-106494500D01*
X74822889Y-106510005D01*
X74883605Y-106542458D01*
X74949486Y-106562443D01*
X75018000Y-106569191D01*
X76518000Y-106569191D01*
X76586514Y-106562443D01*
X76595500Y-106559717D01*
X76595501Y-109010546D01*
X76262113Y-109343934D01*
X76243293Y-109359380D01*
X76227847Y-109378201D01*
X76227841Y-109378207D01*
X76181622Y-109434526D01*
X76135797Y-109520259D01*
X76127129Y-109548834D01*
X76107579Y-109613282D01*
X76106292Y-109626347D01*
X76098051Y-109710026D01*
X76100438Y-109734261D01*
X76100436Y-110465763D01*
X76100436Y-110465764D01*
X76100437Y-114471172D01*
X76098050Y-114495408D01*
X76100437Y-114519644D01*
X76100437Y-114519645D01*
X76107578Y-114592151D01*
X76110347Y-114601279D01*
X76135796Y-114685175D01*
X76181621Y-114770908D01*
X76227841Y-114827227D01*
X76227846Y-114827232D01*
X76243292Y-114846053D01*
X76262113Y-114861499D01*
X76909473Y-115508860D01*
X76909474Y-117357159D01*
X76907087Y-117381395D01*
X76909474Y-117405631D01*
X76909474Y-117405632D01*
X76916615Y-117478138D01*
X76921231Y-117493355D01*
X76944833Y-117571162D01*
X76990658Y-117656895D01*
X77036878Y-117713214D01*
X77036883Y-117713219D01*
X77052329Y-117732040D01*
X77071150Y-117747486D01*
X77999487Y-118675824D01*
X78014933Y-118694645D01*
X78033754Y-118710091D01*
X78033758Y-118710095D01*
X78090077Y-118756315D01*
X78149399Y-118788023D01*
X78175810Y-118802140D01*
X78268835Y-118830359D01*
X78341341Y-118837500D01*
X78341351Y-118837500D01*
X78365577Y-118839886D01*
X78389803Y-118837500D01*
X79824809Y-118837500D01*
X79824809Y-118919000D01*
X79832998Y-119002146D01*
X79857251Y-119082096D01*
X79863614Y-119094000D01*
X79857251Y-119105904D01*
X79832998Y-119185854D01*
X79824809Y-119269000D01*
X79824809Y-119419000D01*
X79832998Y-119502146D01*
X79857251Y-119582096D01*
X79863614Y-119594000D01*
X79857251Y-119605904D01*
X79832998Y-119685854D01*
X79824809Y-119769000D01*
X79824809Y-119919000D01*
X79832998Y-120002146D01*
X79857251Y-120082096D01*
X79863614Y-120094000D01*
X79857251Y-120105904D01*
X79832998Y-120185854D01*
X79824809Y-120269000D01*
X79824809Y-120419000D01*
X79832998Y-120502146D01*
X79857251Y-120582096D01*
X79863614Y-120594000D01*
X79857251Y-120605904D01*
X79832998Y-120685854D01*
X79824809Y-120769000D01*
X79824809Y-120919000D01*
X79832998Y-121002146D01*
X79857251Y-121082096D01*
X79896635Y-121155779D01*
X79949637Y-121220363D01*
X80014221Y-121273365D01*
X80087904Y-121312749D01*
X80167854Y-121337002D01*
X80251000Y-121345191D01*
X81651000Y-121345191D01*
X81729090Y-121337500D01*
X84163396Y-121337500D01*
X84187622Y-121339886D01*
X84211848Y-121337500D01*
X84211859Y-121337500D01*
X84284365Y-121330359D01*
X84377390Y-121302140D01*
X84463122Y-121256315D01*
X84538267Y-121194645D01*
X84553718Y-121175818D01*
X85993502Y-119736035D01*
X85993502Y-120371765D01*
X85991115Y-120396001D01*
X85993502Y-120420237D01*
X85993502Y-120420238D01*
X86000643Y-120492744D01*
X86000829Y-120493356D01*
X86028861Y-120585768D01*
X86074686Y-120671501D01*
X86120906Y-120727820D01*
X86120911Y-120727825D01*
X86136357Y-120746646D01*
X86155178Y-120762092D01*
X87701882Y-122308796D01*
X87698809Y-122340000D01*
X87698809Y-124040000D01*
X87705557Y-124108514D01*
X87725542Y-124174395D01*
X87745909Y-124212500D01*
X86988764Y-124212500D01*
X87124637Y-124121713D01*
X87291713Y-123954637D01*
X87422983Y-123758176D01*
X87513404Y-123539881D01*
X87559500Y-123308140D01*
X87559500Y-123071860D01*
X87513404Y-122840119D01*
X87422983Y-122621824D01*
X87291713Y-122425363D01*
X87124637Y-122258287D01*
X86928176Y-122127017D01*
X86709881Y-122036596D01*
X86478140Y-121990500D01*
X86241860Y-121990500D01*
X86010119Y-122036596D01*
X85791824Y-122127017D01*
X85595363Y-122258287D01*
X85428287Y-122425363D01*
X85297017Y-122621824D01*
X85206596Y-122840119D01*
X85160500Y-123071860D01*
X85160500Y-123308140D01*
X85206596Y-123539881D01*
X85297017Y-123758176D01*
X85428287Y-123954637D01*
X85595363Y-124121713D01*
X85731236Y-124212500D01*
X84448764Y-124212500D01*
X84584637Y-124121713D01*
X84751713Y-123954637D01*
X84882983Y-123758176D01*
X84973404Y-123539881D01*
X85019500Y-123308140D01*
X85019500Y-123071860D01*
X84973404Y-122840119D01*
X84882983Y-122621824D01*
X84751713Y-122425363D01*
X84584637Y-122258287D01*
X84388176Y-122127017D01*
X84169881Y-122036596D01*
X83938140Y-121990500D01*
X83701860Y-121990500D01*
X83470119Y-122036596D01*
X83251824Y-122127017D01*
X83055363Y-122258287D01*
X82888287Y-122425363D01*
X82757017Y-122621824D01*
X82666596Y-122840119D01*
X82620500Y-123071860D01*
X82620500Y-123308140D01*
X82666596Y-123539881D01*
X82757017Y-123758176D01*
X82888287Y-123954637D01*
X83055363Y-124121713D01*
X83191236Y-124212500D01*
X82434091Y-124212500D01*
X82454458Y-124174395D01*
X82474443Y-124108514D01*
X82481191Y-124040000D01*
X82481191Y-122340000D01*
X82474443Y-122271486D01*
X82454458Y-122205605D01*
X82422005Y-122144889D01*
X82378330Y-122091670D01*
X82325111Y-122047995D01*
X82264395Y-122015542D01*
X82198514Y-121995557D01*
X82130000Y-121988809D01*
X80430000Y-121988809D01*
X80361486Y-121995557D01*
X80295605Y-122015542D01*
X80234889Y-122047995D01*
X80181670Y-122091670D01*
X80137995Y-122144889D01*
X80105542Y-122205605D01*
X80085557Y-122271486D01*
X80078809Y-122340000D01*
X80078809Y-124040000D01*
X80085557Y-124108514D01*
X80105542Y-124174395D01*
X80125909Y-124212500D01*
X79894091Y-124212500D01*
X79914458Y-124174395D01*
X79934443Y-124108514D01*
X79941191Y-124040000D01*
X79941191Y-122340000D01*
X79934443Y-122271486D01*
X79914458Y-122205605D01*
X79882005Y-122144889D01*
X79838330Y-122091670D01*
X79785111Y-122047995D01*
X79724395Y-122015542D01*
X79658514Y-121995557D01*
X79590000Y-121988809D01*
X78236723Y-121988809D01*
X77836094Y-121588180D01*
X77820645Y-121569355D01*
X77745500Y-121507685D01*
X77659768Y-121461860D01*
X77566743Y-121433641D01*
X77494237Y-121426500D01*
X77494226Y-121426500D01*
X77470000Y-121424114D01*
X77445774Y-121426500D01*
X76610678Y-121426500D01*
X76649462Y-121332868D01*
X76672500Y-121217046D01*
X76672500Y-121098954D01*
X76649462Y-120983132D01*
X76604270Y-120874030D01*
X76538662Y-120775841D01*
X76455159Y-120692338D01*
X76356970Y-120626730D01*
X76247868Y-120581538D01*
X76181189Y-120568275D01*
X76038510Y-120425596D01*
X76038510Y-118948085D01*
X76040896Y-118923859D01*
X76038510Y-118899633D01*
X76038510Y-118899623D01*
X76031369Y-118827117D01*
X76003150Y-118734092D01*
X75963666Y-118660223D01*
X75957325Y-118648359D01*
X75911105Y-118592040D01*
X75911101Y-118592036D01*
X75895655Y-118573215D01*
X75876834Y-118557769D01*
X75550500Y-118231436D01*
X75550500Y-116991225D01*
X75552886Y-116966999D01*
X75550500Y-116942773D01*
X75550500Y-116942763D01*
X75543359Y-116870257D01*
X75515140Y-116777232D01*
X75469315Y-116691500D01*
X75407645Y-116616355D01*
X75388818Y-116600904D01*
X75169096Y-116381182D01*
X75153645Y-116362355D01*
X75078500Y-116300685D01*
X74992768Y-116254860D01*
X74899743Y-116226641D01*
X74827237Y-116219500D01*
X74827226Y-116219500D01*
X74803000Y-116217114D01*
X74778774Y-116219500D01*
X74758679Y-116219500D01*
X74754443Y-116176486D01*
X74734458Y-116110605D01*
X74702005Y-116049889D01*
X74658330Y-115996670D01*
X74605111Y-115952995D01*
X74544395Y-115920542D01*
X74478514Y-115900557D01*
X74410000Y-115893809D01*
X72910000Y-115893809D01*
X72841486Y-115900557D01*
X72775605Y-115920542D01*
X72714889Y-115952995D01*
X72661670Y-115996670D01*
X72617995Y-116049889D01*
X72585542Y-116110605D01*
X72565557Y-116176486D01*
X72558809Y-116245000D01*
X72558809Y-117245000D01*
X72565629Y-117313874D01*
X72585683Y-117379734D01*
X72593873Y-117395018D01*
X72585542Y-117410605D01*
X72565557Y-117476486D01*
X72558809Y-117545000D01*
X72558809Y-119945000D01*
X72565486Y-120013154D01*
X72585401Y-120079056D01*
X72593892Y-120094982D01*
X72585542Y-120110605D01*
X72565557Y-120176486D01*
X72558809Y-120245000D01*
X72558809Y-121245000D01*
X72565557Y-121313514D01*
X72585542Y-121379395D01*
X72617995Y-121440111D01*
X72661670Y-121493330D01*
X72714889Y-121537005D01*
X72775605Y-121569458D01*
X72841486Y-121589443D01*
X72910000Y-121596191D01*
X73169746Y-121596191D01*
X73173641Y-121635742D01*
X73201860Y-121728767D01*
X73247685Y-121814500D01*
X73309355Y-121889645D01*
X73328181Y-121905095D01*
X73411895Y-121988809D01*
X72810000Y-121988809D01*
X72741486Y-121995557D01*
X72675605Y-122015542D01*
X72614889Y-122047995D01*
X72561670Y-122091670D01*
X72517995Y-122144889D01*
X72485542Y-122205605D01*
X72465557Y-122271486D01*
X72458809Y-122340000D01*
X72458809Y-124040000D01*
X72465557Y-124108514D01*
X72485542Y-124174395D01*
X72505909Y-124212500D01*
X72291123Y-124212500D01*
X72256500Y-124177878D01*
X72256500Y-111647944D01*
X72510380Y-111647944D01*
X72510380Y-111874376D01*
X72554555Y-112096457D01*
X72641206Y-112305652D01*
X72767005Y-112493924D01*
X72927116Y-112654035D01*
X73115388Y-112779834D01*
X73324583Y-112866485D01*
X73546664Y-112910660D01*
X73773096Y-112910660D01*
X73995177Y-112866485D01*
X74204372Y-112779834D01*
X74392644Y-112654035D01*
X74552755Y-112493924D01*
X74678554Y-112305652D01*
X74765205Y-112096457D01*
X74809380Y-111874376D01*
X74809380Y-111647944D01*
X74765205Y-111425863D01*
X74678554Y-111216668D01*
X74552755Y-111028396D01*
X74392644Y-110868285D01*
X74204372Y-110742486D01*
X73995177Y-110655835D01*
X73773096Y-110611660D01*
X73546664Y-110611660D01*
X73324583Y-110655835D01*
X73115388Y-110742486D01*
X72927116Y-110868285D01*
X72767005Y-111028396D01*
X72641206Y-111216668D01*
X72554555Y-111425863D01*
X72510380Y-111647944D01*
X72256500Y-111647944D01*
X72256500Y-109107944D01*
X72510380Y-109107944D01*
X72510380Y-109334376D01*
X72554555Y-109556457D01*
X72641206Y-109765652D01*
X72767005Y-109953924D01*
X72927116Y-110114035D01*
X73115388Y-110239834D01*
X73324583Y-110326485D01*
X73546664Y-110370660D01*
X73773096Y-110370660D01*
X73995177Y-110326485D01*
X74204372Y-110239834D01*
X74392644Y-110114035D01*
X74552755Y-109953924D01*
X74678554Y-109765652D01*
X74765205Y-109556457D01*
X74809380Y-109334376D01*
X74809380Y-109107944D01*
X74765205Y-108885863D01*
X74678554Y-108676668D01*
X74552755Y-108488396D01*
X74392644Y-108328285D01*
X74204372Y-108202486D01*
X73995177Y-108115835D01*
X73773096Y-108071660D01*
X73546664Y-108071660D01*
X73324583Y-108115835D01*
X73115388Y-108202486D01*
X72927116Y-108328285D01*
X72767005Y-108488396D01*
X72641206Y-108676668D01*
X72554555Y-108885863D01*
X72510380Y-109107944D01*
X72256500Y-109107944D01*
X72256500Y-95278122D01*
X72291123Y-95243500D01*
X84241907Y-95243500D01*
X84225995Y-95262889D01*
G36*
X84225995Y-100063111D02*
G01*
X84269670Y-100116330D01*
X84322889Y-100160005D01*
X84383605Y-100192458D01*
X84418357Y-100203000D01*
X84383605Y-100213542D01*
X84322889Y-100245995D01*
X84269670Y-100289670D01*
X84225995Y-100342889D01*
X84193542Y-100403605D01*
X84173557Y-100469486D01*
X84166809Y-100538000D01*
X84166809Y-101138000D01*
X84173557Y-101206514D01*
X84193542Y-101272395D01*
X84225995Y-101333111D01*
X84269670Y-101386330D01*
X84322889Y-101430005D01*
X84383605Y-101462458D01*
X84418357Y-101473000D01*
X84383605Y-101483542D01*
X84322889Y-101515995D01*
X84269670Y-101559670D01*
X84225995Y-101612889D01*
X84193542Y-101673605D01*
X84173557Y-101739486D01*
X84166809Y-101808000D01*
X84166809Y-102408000D01*
X84173557Y-102476514D01*
X84193542Y-102542395D01*
X84225995Y-102603111D01*
X84269670Y-102656330D01*
X84322889Y-102700005D01*
X84383605Y-102732458D01*
X84418357Y-102743000D01*
X84383605Y-102753542D01*
X84322889Y-102785995D01*
X84269670Y-102829670D01*
X84225995Y-102882889D01*
X84193542Y-102943605D01*
X84173557Y-103009486D01*
X84166809Y-103078000D01*
X84166809Y-103678000D01*
X84173557Y-103746514D01*
X84193542Y-103812395D01*
X84225995Y-103873111D01*
X84269670Y-103926330D01*
X84322889Y-103970005D01*
X84383605Y-104002458D01*
X84418357Y-104013000D01*
X84383605Y-104023542D01*
X84322889Y-104055995D01*
X84269670Y-104099670D01*
X84225995Y-104152889D01*
X84193542Y-104213605D01*
X84173557Y-104279486D01*
X84166809Y-104348000D01*
X84166809Y-104948000D01*
X84173557Y-105016514D01*
X84193542Y-105082395D01*
X84225995Y-105143111D01*
X84269670Y-105196330D01*
X84322889Y-105240005D01*
X84383605Y-105272458D01*
X84418357Y-105283000D01*
X84383605Y-105293542D01*
X84322889Y-105325995D01*
X84269670Y-105369670D01*
X84225995Y-105422889D01*
X84193542Y-105483605D01*
X84173557Y-105549486D01*
X84166809Y-105618000D01*
X84166809Y-106218000D01*
X84173557Y-106286514D01*
X84193542Y-106352395D01*
X84225995Y-106413111D01*
X84269670Y-106466330D01*
X84322889Y-106510005D01*
X84383605Y-106542458D01*
X84418357Y-106553000D01*
X84383605Y-106563542D01*
X84322889Y-106595995D01*
X84269670Y-106639670D01*
X84225995Y-106692889D01*
X84193542Y-106753605D01*
X84173557Y-106819486D01*
X84166809Y-106888000D01*
X84166809Y-107488000D01*
X84173557Y-107556514D01*
X84193542Y-107622395D01*
X84225995Y-107683111D01*
X84269670Y-107736330D01*
X84322889Y-107780005D01*
X84383605Y-107812458D01*
X84449486Y-107832443D01*
X84518000Y-107839191D01*
X85505493Y-107839191D01*
X85505492Y-115613005D01*
X85426661Y-115665678D01*
X85343158Y-115749181D01*
X85277550Y-115847370D01*
X85232358Y-115956472D01*
X85209320Y-116072294D01*
X85209320Y-116190386D01*
X85232358Y-116306208D01*
X85277550Y-116415310D01*
X85314403Y-116470465D01*
X85257230Y-116556030D01*
X85212038Y-116665132D01*
X85189000Y-116780954D01*
X85189000Y-116899046D01*
X85212038Y-117014868D01*
X85257230Y-117123970D01*
X85295001Y-117180498D01*
X85295000Y-118695858D01*
X85295001Y-118695867D01*
X85295000Y-119038707D01*
X83983208Y-120350500D01*
X83331864Y-120350500D01*
X84218855Y-119463510D01*
X84237671Y-119448068D01*
X84253113Y-119429252D01*
X84253122Y-119429243D01*
X84299342Y-119372924D01*
X84345167Y-119287191D01*
X84373385Y-119194166D01*
X84382913Y-119097424D01*
X84380526Y-119073188D01*
X84380528Y-117032537D01*
X84651863Y-116761201D01*
X84670685Y-116745755D01*
X84686131Y-116726934D01*
X84686135Y-116726930D01*
X84732355Y-116670611D01*
X84755206Y-116627859D01*
X84778180Y-116584878D01*
X84806399Y-116491853D01*
X84813540Y-116419347D01*
X84813540Y-116419337D01*
X84815926Y-116395111D01*
X84813540Y-116370885D01*
X84813540Y-114403064D01*
X84815927Y-114378830D01*
X84812614Y-114345191D01*
X84806399Y-114282087D01*
X84778180Y-114189062D01*
X84732355Y-114103330D01*
X84670685Y-114028185D01*
X84651858Y-114012734D01*
X84381411Y-113742287D01*
X84381411Y-113550477D01*
X84459454Y-113566000D01*
X84577546Y-113566000D01*
X84693368Y-113542962D01*
X84802470Y-113497770D01*
X84900659Y-113432162D01*
X84984162Y-113348659D01*
X85049770Y-113250470D01*
X85094962Y-113141368D01*
X85118000Y-113025546D01*
X85118000Y-112907454D01*
X85094962Y-112791632D01*
X85049770Y-112682530D01*
X84984162Y-112584341D01*
X84900659Y-112500838D01*
X84869421Y-112479965D01*
X84869421Y-111514183D01*
X84871808Y-111489949D01*
X84869419Y-111465695D01*
X84869419Y-110427705D01*
X84871805Y-110403479D01*
X84869419Y-110379253D01*
X84869419Y-110379242D01*
X84862278Y-110306736D01*
X84834059Y-110213711D01*
X84788234Y-110127979D01*
X84726564Y-110052834D01*
X84707738Y-110037384D01*
X83785510Y-109115154D01*
X83785510Y-107021526D01*
X83897818Y-106909218D01*
X83916645Y-106893767D01*
X83978315Y-106818622D01*
X84024140Y-106732890D01*
X84052359Y-106639865D01*
X84059500Y-106567359D01*
X84059500Y-106567349D01*
X84061886Y-106543123D01*
X84059500Y-106518897D01*
X84059500Y-105496497D01*
X84097270Y-105439970D01*
X84142462Y-105330868D01*
X84165500Y-105215046D01*
X84165500Y-105096954D01*
X84142462Y-104981132D01*
X84097270Y-104872030D01*
X84031662Y-104773841D01*
X83948159Y-104690338D01*
X83849970Y-104624730D01*
X83740868Y-104579538D01*
X83625046Y-104556500D01*
X83506954Y-104556500D01*
X83391132Y-104579538D01*
X83282030Y-104624730D01*
X83183841Y-104690338D01*
X83100338Y-104773841D01*
X83034730Y-104872030D01*
X82989538Y-104981132D01*
X82966500Y-105096954D01*
X82966500Y-105215046D01*
X82989538Y-105330868D01*
X83034730Y-105439970D01*
X83072500Y-105496497D01*
X83072501Y-105888322D01*
X82978868Y-105849538D01*
X82863046Y-105826500D01*
X82744954Y-105826500D01*
X82642510Y-105846877D01*
X82642510Y-100061500D01*
X84225134Y-100061500D01*
X84225995Y-100063111D01*
G37*
X84225995Y-100063111D02*
X84269670Y-100116330D01*
X84322889Y-100160005D01*
X84383605Y-100192458D01*
X84418357Y-100203000D01*
X84383605Y-100213542D01*
X84322889Y-100245995D01*
X84269670Y-100289670D01*
X84225995Y-100342889D01*
X84193542Y-100403605D01*
X84173557Y-100469486D01*
X84166809Y-100538000D01*
X84166809Y-101138000D01*
X84173557Y-101206514D01*
X84193542Y-101272395D01*
X84225995Y-101333111D01*
X84269670Y-101386330D01*
X84322889Y-101430005D01*
X84383605Y-101462458D01*
X84418357Y-101473000D01*
X84383605Y-101483542D01*
X84322889Y-101515995D01*
X84269670Y-101559670D01*
X84225995Y-101612889D01*
X84193542Y-101673605D01*
X84173557Y-101739486D01*
X84166809Y-101808000D01*
X84166809Y-102408000D01*
X84173557Y-102476514D01*
X84193542Y-102542395D01*
X84225995Y-102603111D01*
X84269670Y-102656330D01*
X84322889Y-102700005D01*
X84383605Y-102732458D01*
X84418357Y-102743000D01*
X84383605Y-102753542D01*
X84322889Y-102785995D01*
X84269670Y-102829670D01*
X84225995Y-102882889D01*
X84193542Y-102943605D01*
X84173557Y-103009486D01*
X84166809Y-103078000D01*
X84166809Y-103678000D01*
X84173557Y-103746514D01*
X84193542Y-103812395D01*
X84225995Y-103873111D01*
X84269670Y-103926330D01*
X84322889Y-103970005D01*
X84383605Y-104002458D01*
X84418357Y-104013000D01*
X84383605Y-104023542D01*
X84322889Y-104055995D01*
X84269670Y-104099670D01*
X84225995Y-104152889D01*
X84193542Y-104213605D01*
X84173557Y-104279486D01*
X84166809Y-104348000D01*
X84166809Y-104948000D01*
X84173557Y-105016514D01*
X84193542Y-105082395D01*
X84225995Y-105143111D01*
X84269670Y-105196330D01*
X84322889Y-105240005D01*
X84383605Y-105272458D01*
X84418357Y-105283000D01*
X84383605Y-105293542D01*
X84322889Y-105325995D01*
X84269670Y-105369670D01*
X84225995Y-105422889D01*
X84193542Y-105483605D01*
X84173557Y-105549486D01*
X84166809Y-105618000D01*
X84166809Y-106218000D01*
X84173557Y-106286514D01*
X84193542Y-106352395D01*
X84225995Y-106413111D01*
X84269670Y-106466330D01*
X84322889Y-106510005D01*
X84383605Y-106542458D01*
X84418357Y-106553000D01*
X84383605Y-106563542D01*
X84322889Y-106595995D01*
X84269670Y-106639670D01*
X84225995Y-106692889D01*
X84193542Y-106753605D01*
X84173557Y-106819486D01*
X84166809Y-106888000D01*
X84166809Y-107488000D01*
X84173557Y-107556514D01*
X84193542Y-107622395D01*
X84225995Y-107683111D01*
X84269670Y-107736330D01*
X84322889Y-107780005D01*
X84383605Y-107812458D01*
X84449486Y-107832443D01*
X84518000Y-107839191D01*
X85505493Y-107839191D01*
X85505492Y-115613005D01*
X85426661Y-115665678D01*
X85343158Y-115749181D01*
X85277550Y-115847370D01*
X85232358Y-115956472D01*
X85209320Y-116072294D01*
X85209320Y-116190386D01*
X85232358Y-116306208D01*
X85277550Y-116415310D01*
X85314403Y-116470465D01*
X85257230Y-116556030D01*
X85212038Y-116665132D01*
X85189000Y-116780954D01*
X85189000Y-116899046D01*
X85212038Y-117014868D01*
X85257230Y-117123970D01*
X85295001Y-117180498D01*
X85295000Y-118695858D01*
X85295001Y-118695867D01*
X85295000Y-119038707D01*
X83983208Y-120350500D01*
X83331864Y-120350500D01*
X84218855Y-119463510D01*
X84237671Y-119448068D01*
X84253113Y-119429252D01*
X84253122Y-119429243D01*
X84299342Y-119372924D01*
X84345167Y-119287191D01*
X84373385Y-119194166D01*
X84382913Y-119097424D01*
X84380526Y-119073188D01*
X84380528Y-117032537D01*
X84651863Y-116761201D01*
X84670685Y-116745755D01*
X84686131Y-116726934D01*
X84686135Y-116726930D01*
X84732355Y-116670611D01*
X84755206Y-116627859D01*
X84778180Y-116584878D01*
X84806399Y-116491853D01*
X84813540Y-116419347D01*
X84813540Y-116419337D01*
X84815926Y-116395111D01*
X84813540Y-116370885D01*
X84813540Y-114403064D01*
X84815927Y-114378830D01*
X84812614Y-114345191D01*
X84806399Y-114282087D01*
X84778180Y-114189062D01*
X84732355Y-114103330D01*
X84670685Y-114028185D01*
X84651858Y-114012734D01*
X84381411Y-113742287D01*
X84381411Y-113550477D01*
X84459454Y-113566000D01*
X84577546Y-113566000D01*
X84693368Y-113542962D01*
X84802470Y-113497770D01*
X84900659Y-113432162D01*
X84984162Y-113348659D01*
X85049770Y-113250470D01*
X85094962Y-113141368D01*
X85118000Y-113025546D01*
X85118000Y-112907454D01*
X85094962Y-112791632D01*
X85049770Y-112682530D01*
X84984162Y-112584341D01*
X84900659Y-112500838D01*
X84869421Y-112479965D01*
X84869421Y-111514183D01*
X84871808Y-111489949D01*
X84869419Y-111465695D01*
X84869419Y-110427705D01*
X84871805Y-110403479D01*
X84869419Y-110379253D01*
X84869419Y-110379242D01*
X84862278Y-110306736D01*
X84834059Y-110213711D01*
X84788234Y-110127979D01*
X84726564Y-110052834D01*
X84707738Y-110037384D01*
X83785510Y-109115154D01*
X83785510Y-107021526D01*
X83897818Y-106909218D01*
X83916645Y-106893767D01*
X83978315Y-106818622D01*
X84024140Y-106732890D01*
X84052359Y-106639865D01*
X84059500Y-106567359D01*
X84059500Y-106567349D01*
X84061886Y-106543123D01*
X84059500Y-106518897D01*
X84059500Y-105496497D01*
X84097270Y-105439970D01*
X84142462Y-105330868D01*
X84165500Y-105215046D01*
X84165500Y-105096954D01*
X84142462Y-104981132D01*
X84097270Y-104872030D01*
X84031662Y-104773841D01*
X83948159Y-104690338D01*
X83849970Y-104624730D01*
X83740868Y-104579538D01*
X83625046Y-104556500D01*
X83506954Y-104556500D01*
X83391132Y-104579538D01*
X83282030Y-104624730D01*
X83183841Y-104690338D01*
X83100338Y-104773841D01*
X83034730Y-104872030D01*
X82989538Y-104981132D01*
X82966500Y-105096954D01*
X82966500Y-105215046D01*
X82989538Y-105330868D01*
X83034730Y-105439970D01*
X83072500Y-105496497D01*
X83072501Y-105888322D01*
X82978868Y-105849538D01*
X82863046Y-105826500D01*
X82744954Y-105826500D01*
X82642510Y-105846877D01*
X82642510Y-100061500D01*
X84225134Y-100061500D01*
X84225995Y-100063111D01*
G36*
X93088907Y-117344000D02*
G01*
X93017854Y-117350998D01*
X92937904Y-117375251D01*
X92864221Y-117414635D01*
X92799637Y-117467637D01*
X92746635Y-117532221D01*
X92707251Y-117605904D01*
X92682998Y-117685854D01*
X92674809Y-117769000D01*
X92674809Y-117919000D01*
X92682998Y-118002146D01*
X92707251Y-118082096D01*
X92713614Y-118094000D01*
X92707251Y-118105904D01*
X92682998Y-118185854D01*
X92674809Y-118269000D01*
X92674809Y-118419000D01*
X92682998Y-118502146D01*
X92707251Y-118582096D01*
X92713614Y-118594000D01*
X92707251Y-118605904D01*
X92682998Y-118685854D01*
X92674809Y-118769000D01*
X92674809Y-118850500D01*
X92287284Y-118850500D01*
X92263050Y-118848113D01*
X92238816Y-118850500D01*
X92238813Y-118850500D01*
X92166307Y-118857641D01*
X92073282Y-118885860D01*
X91987550Y-118931685D01*
X91912405Y-118993355D01*
X91896955Y-119012181D01*
X91282241Y-119626895D01*
X91272770Y-119604030D01*
X91235000Y-119547503D01*
X91235000Y-118641792D01*
X92539292Y-117337500D01*
X93022910Y-117337500D01*
X93088907Y-117344000D01*
G37*
X93088907Y-117344000D02*
X93017854Y-117350998D01*
X92937904Y-117375251D01*
X92864221Y-117414635D01*
X92799637Y-117467637D01*
X92746635Y-117532221D01*
X92707251Y-117605904D01*
X92682998Y-117685854D01*
X92674809Y-117769000D01*
X92674809Y-117919000D01*
X92682998Y-118002146D01*
X92707251Y-118082096D01*
X92713614Y-118094000D01*
X92707251Y-118105904D01*
X92682998Y-118185854D01*
X92674809Y-118269000D01*
X92674809Y-118419000D01*
X92682998Y-118502146D01*
X92707251Y-118582096D01*
X92713614Y-118594000D01*
X92707251Y-118605904D01*
X92682998Y-118685854D01*
X92674809Y-118769000D01*
X92674809Y-118850500D01*
X92287284Y-118850500D01*
X92263050Y-118848113D01*
X92238816Y-118850500D01*
X92238813Y-118850500D01*
X92166307Y-118857641D01*
X92073282Y-118885860D01*
X91987550Y-118931685D01*
X91912405Y-118993355D01*
X91896955Y-119012181D01*
X91282241Y-119626895D01*
X91272770Y-119604030D01*
X91235000Y-119547503D01*
X91235000Y-118641792D01*
X92539292Y-117337500D01*
X93022910Y-117337500D01*
X93088907Y-117344000D01*
G36*
X95256500Y-95278123D02*
G01*
X95256501Y-113234015D01*
X95034667Y-113012181D01*
X95019217Y-112993355D01*
X94944072Y-112931685D01*
X94858340Y-112885860D01*
X94765315Y-112857641D01*
X94692809Y-112850500D01*
X94692798Y-112850500D01*
X94668572Y-112848114D01*
X94644346Y-112850500D01*
X94579090Y-112850500D01*
X94501000Y-112842809D01*
X94372336Y-112842809D01*
X94524372Y-112779834D01*
X94712644Y-112654035D01*
X94872755Y-112493924D01*
X94998554Y-112305652D01*
X95085205Y-112096457D01*
X95129380Y-111874376D01*
X95129380Y-111647944D01*
X95085205Y-111425863D01*
X94998554Y-111216668D01*
X94872755Y-111028396D01*
X94712644Y-110868285D01*
X94524372Y-110742486D01*
X94315177Y-110655835D01*
X94093096Y-110611660D01*
X93866664Y-110611660D01*
X93644583Y-110655835D01*
X93435388Y-110742486D01*
X93247116Y-110868285D01*
X93087005Y-111028396D01*
X92961206Y-111216668D01*
X92874555Y-111425863D01*
X92830380Y-111647944D01*
X92830380Y-111843358D01*
X91023000Y-110035980D01*
X91023000Y-109107944D01*
X92830380Y-109107944D01*
X92830380Y-109334376D01*
X92874555Y-109556457D01*
X92961206Y-109765652D01*
X93087005Y-109953924D01*
X93247116Y-110114035D01*
X93435388Y-110239834D01*
X93644583Y-110326485D01*
X93866664Y-110370660D01*
X94093096Y-110370660D01*
X94315177Y-110326485D01*
X94524372Y-110239834D01*
X94712644Y-110114035D01*
X94872755Y-109953924D01*
X94998554Y-109765652D01*
X95085205Y-109556457D01*
X95129380Y-109334376D01*
X95129380Y-109107944D01*
X95085205Y-108885863D01*
X94998554Y-108676668D01*
X94872755Y-108488396D01*
X94712644Y-108328285D01*
X94524372Y-108202486D01*
X94315177Y-108115835D01*
X94093096Y-108071660D01*
X93866664Y-108071660D01*
X93644583Y-108115835D01*
X93435388Y-108202486D01*
X93247116Y-108328285D01*
X93087005Y-108488396D01*
X92961206Y-108676668D01*
X92874555Y-108885863D01*
X92830380Y-109107944D01*
X91023000Y-109107944D01*
X91023000Y-107257614D01*
X91062072Y-107210004D01*
X91117628Y-107106066D01*
X91151839Y-106993287D01*
X91163391Y-106876001D01*
X91163391Y-106616329D01*
X91211776Y-106567944D01*
X92830380Y-106567944D01*
X92830380Y-106794376D01*
X92874555Y-107016457D01*
X92961206Y-107225652D01*
X93087005Y-107413924D01*
X93247116Y-107574035D01*
X93435388Y-107699834D01*
X93644583Y-107786485D01*
X93866664Y-107830660D01*
X94093096Y-107830660D01*
X94315177Y-107786485D01*
X94524372Y-107699834D01*
X94712644Y-107574035D01*
X94872755Y-107413924D01*
X94998554Y-107225652D01*
X95085205Y-107016457D01*
X95129380Y-106794376D01*
X95129380Y-106567944D01*
X95085205Y-106345863D01*
X94998554Y-106136668D01*
X94872755Y-105948396D01*
X94712644Y-105788285D01*
X94524372Y-105662486D01*
X94315177Y-105575835D01*
X94093096Y-105531660D01*
X93866664Y-105531660D01*
X93644583Y-105575835D01*
X93435388Y-105662486D01*
X93247116Y-105788285D01*
X93087005Y-105948396D01*
X92961206Y-106136668D01*
X92874555Y-106345863D01*
X92830380Y-106567944D01*
X91211776Y-106567944D01*
X91591947Y-106187774D01*
X91626745Y-106169174D01*
X91746962Y-106070515D01*
X91845621Y-105950298D01*
X91918932Y-105813143D01*
X91964077Y-105664321D01*
X91975500Y-105548338D01*
X91975500Y-105515984D01*
X91979320Y-105477200D01*
X91975500Y-105438417D01*
X91975500Y-105194783D01*
X91979320Y-105156000D01*
X91974463Y-105106686D01*
X91964077Y-105001231D01*
X91924172Y-104869684D01*
X91918932Y-104852409D01*
X91845622Y-104715254D01*
X91771686Y-104625165D01*
X91746962Y-104595038D01*
X91716833Y-104570312D01*
X91174465Y-104027944D01*
X92830380Y-104027944D01*
X92830380Y-104254376D01*
X92874555Y-104476457D01*
X92961206Y-104685652D01*
X93087005Y-104873924D01*
X93247116Y-105034035D01*
X93435388Y-105159834D01*
X93644583Y-105246485D01*
X93866664Y-105290660D01*
X94093096Y-105290660D01*
X94315177Y-105246485D01*
X94524372Y-105159834D01*
X94712644Y-105034035D01*
X94872755Y-104873924D01*
X94998554Y-104685652D01*
X95085205Y-104476457D01*
X95129380Y-104254376D01*
X95129380Y-104027944D01*
X95085205Y-103805863D01*
X94998554Y-103596668D01*
X94872755Y-103408396D01*
X94712644Y-103248285D01*
X94524372Y-103122486D01*
X94315177Y-103035835D01*
X94093096Y-102991660D01*
X93866664Y-102991660D01*
X93644583Y-103035835D01*
X93435388Y-103122486D01*
X93247116Y-103248285D01*
X93087005Y-103408396D01*
X92961206Y-103596668D01*
X92874555Y-103805863D01*
X92830380Y-104027944D01*
X91174465Y-104027944D01*
X91136695Y-103990175D01*
X91136686Y-103990164D01*
X91136676Y-103990154D01*
X91111961Y-103960039D01*
X91081845Y-103935323D01*
X90070500Y-102923980D01*
X90070500Y-101680783D01*
X90074320Y-101642000D01*
X90070500Y-101603214D01*
X90059148Y-101487944D01*
X92830380Y-101487944D01*
X92830380Y-101714376D01*
X92874555Y-101936457D01*
X92961206Y-102145652D01*
X93087005Y-102333924D01*
X93247116Y-102494035D01*
X93435388Y-102619834D01*
X93644583Y-102706485D01*
X93866664Y-102750660D01*
X94093096Y-102750660D01*
X94315177Y-102706485D01*
X94524372Y-102619834D01*
X94712644Y-102494035D01*
X94872755Y-102333924D01*
X94998554Y-102145652D01*
X95085205Y-101936457D01*
X95129380Y-101714376D01*
X95129380Y-101487944D01*
X95085205Y-101265863D01*
X94998554Y-101056668D01*
X94872755Y-100868396D01*
X94712644Y-100708285D01*
X94524372Y-100582486D01*
X94315177Y-100495835D01*
X94093096Y-100451660D01*
X93866664Y-100451660D01*
X93644583Y-100495835D01*
X93435388Y-100582486D01*
X93247116Y-100708285D01*
X93087005Y-100868396D01*
X92961206Y-101056668D01*
X92874555Y-101265863D01*
X92830380Y-101487944D01*
X90059148Y-101487944D01*
X90059077Y-101487231D01*
X90013932Y-101338410D01*
X89965403Y-101247619D01*
X89940621Y-101201254D01*
X89888709Y-101138000D01*
X89841962Y-101081038D01*
X89811832Y-101056311D01*
X87737834Y-98982314D01*
X87695955Y-98947944D01*
X92830380Y-98947944D01*
X92830380Y-99174376D01*
X92874555Y-99396457D01*
X92961206Y-99605652D01*
X93087005Y-99793924D01*
X93247116Y-99954035D01*
X93435388Y-100079834D01*
X93644583Y-100166485D01*
X93866664Y-100210660D01*
X94093096Y-100210660D01*
X94315177Y-100166485D01*
X94524372Y-100079834D01*
X94712644Y-99954035D01*
X94872755Y-99793924D01*
X94998554Y-99605652D01*
X95085205Y-99396457D01*
X95129380Y-99174376D01*
X95129380Y-98947944D01*
X95085205Y-98725863D01*
X94998554Y-98516668D01*
X94872755Y-98328396D01*
X94712644Y-98168285D01*
X94524372Y-98042486D01*
X94315177Y-97955835D01*
X94093096Y-97911660D01*
X93866664Y-97911660D01*
X93644583Y-97955835D01*
X93435388Y-98042486D01*
X93247116Y-98168285D01*
X93087005Y-98328396D01*
X92961206Y-98516668D01*
X92874555Y-98725863D01*
X92830380Y-98947944D01*
X87695955Y-98947944D01*
X87647745Y-98908379D01*
X87510590Y-98835069D01*
X87361768Y-98789924D01*
X87207000Y-98774680D01*
X87052232Y-98789924D01*
X86903410Y-98835069D01*
X86766255Y-98908379D01*
X86646039Y-99007039D01*
X86547379Y-99127255D01*
X86474069Y-99264410D01*
X86428924Y-99413232D01*
X86413680Y-99568000D01*
X86428924Y-99722768D01*
X86474069Y-99871590D01*
X86547379Y-100008745D01*
X86621314Y-100098834D01*
X88491501Y-101969022D01*
X88491501Y-102325586D01*
X86672096Y-100506182D01*
X86656645Y-100487355D01*
X86581500Y-100425685D01*
X86495768Y-100379860D01*
X86402743Y-100351641D01*
X86330237Y-100344500D01*
X86330226Y-100344500D01*
X86309665Y-100342475D01*
X86266330Y-100289670D01*
X86213111Y-100245995D01*
X86152395Y-100213542D01*
X86117643Y-100203000D01*
X86152395Y-100192458D01*
X86213111Y-100160005D01*
X86266330Y-100116330D01*
X86310005Y-100063111D01*
X86342458Y-100002395D01*
X86362443Y-99936514D01*
X86369191Y-99868000D01*
X86369191Y-99268000D01*
X86362443Y-99199486D01*
X86342458Y-99133605D01*
X86310005Y-99072889D01*
X86266330Y-99019670D01*
X86213111Y-98975995D01*
X86152395Y-98943542D01*
X86117643Y-98933000D01*
X86152395Y-98922458D01*
X86213111Y-98890005D01*
X86266330Y-98846330D01*
X86310005Y-98793111D01*
X86342458Y-98732395D01*
X86362443Y-98666514D01*
X86369191Y-98598000D01*
X86369191Y-97998000D01*
X86362443Y-97929486D01*
X86342458Y-97863605D01*
X86310005Y-97802889D01*
X86266330Y-97749670D01*
X86213111Y-97705995D01*
X86152395Y-97673542D01*
X86117643Y-97663000D01*
X86152395Y-97652458D01*
X86213111Y-97620005D01*
X86266330Y-97576330D01*
X86310005Y-97523111D01*
X86342458Y-97462395D01*
X86362443Y-97396514D01*
X86369191Y-97328000D01*
X86369191Y-96728000D01*
X86362443Y-96659486D01*
X86342458Y-96593605D01*
X86310005Y-96532889D01*
X86266330Y-96479670D01*
X86213111Y-96435995D01*
X86152395Y-96403542D01*
X86117643Y-96393000D01*
X86152395Y-96382458D01*
X86213111Y-96350005D01*
X86232004Y-96334500D01*
X86960449Y-96334500D01*
X86971361Y-96445287D01*
X87005572Y-96558066D01*
X87061128Y-96662004D01*
X87135893Y-96753107D01*
X87226996Y-96827872D01*
X87330934Y-96883428D01*
X87443713Y-96917639D01*
X87560999Y-96929191D01*
X88461001Y-96929191D01*
X88578287Y-96917639D01*
X88691066Y-96883428D01*
X88795004Y-96827872D01*
X88886107Y-96753107D01*
X88960872Y-96662004D01*
X89004971Y-96579500D01*
X89786809Y-96579500D01*
X89786809Y-97512001D01*
X89798361Y-97629287D01*
X89832572Y-97742066D01*
X89888128Y-97846004D01*
X89962893Y-97937107D01*
X90053996Y-98011872D01*
X90157934Y-98067428D01*
X90270713Y-98101639D01*
X90387999Y-98113191D01*
X92238001Y-98113191D01*
X92355287Y-98101639D01*
X92468066Y-98067428D01*
X92572004Y-98011872D01*
X92663107Y-97937107D01*
X92737872Y-97846004D01*
X92793428Y-97742066D01*
X92827639Y-97629287D01*
X92839191Y-97512001D01*
X92839191Y-97426500D01*
X93265771Y-97426500D01*
X93435388Y-97539834D01*
X93644583Y-97626485D01*
X93866664Y-97670660D01*
X94093096Y-97670660D01*
X94315177Y-97626485D01*
X94524372Y-97539834D01*
X94712644Y-97414035D01*
X94872755Y-97253924D01*
X94998554Y-97065652D01*
X95085205Y-96856457D01*
X95129380Y-96634376D01*
X95129380Y-96407944D01*
X95085205Y-96185863D01*
X94998554Y-95976668D01*
X94872755Y-95788396D01*
X94712644Y-95628285D01*
X94524372Y-95502486D01*
X94315177Y-95415835D01*
X94093096Y-95371660D01*
X93866664Y-95371660D01*
X93644583Y-95415835D01*
X93435388Y-95502486D01*
X93247116Y-95628285D01*
X93087005Y-95788396D01*
X93047513Y-95847500D01*
X92839191Y-95847500D01*
X92839191Y-95761999D01*
X92827639Y-95644713D01*
X92793428Y-95531934D01*
X92737872Y-95427996D01*
X92663107Y-95336893D01*
X92572004Y-95262128D01*
X92537153Y-95243500D01*
X95221878Y-95243500D01*
X95256500Y-95278123D01*
G37*
X95256500Y-95278123D02*
X95256501Y-113234015D01*
X95034667Y-113012181D01*
X95019217Y-112993355D01*
X94944072Y-112931685D01*
X94858340Y-112885860D01*
X94765315Y-112857641D01*
X94692809Y-112850500D01*
X94692798Y-112850500D01*
X94668572Y-112848114D01*
X94644346Y-112850500D01*
X94579090Y-112850500D01*
X94501000Y-112842809D01*
X94372336Y-112842809D01*
X94524372Y-112779834D01*
X94712644Y-112654035D01*
X94872755Y-112493924D01*
X94998554Y-112305652D01*
X95085205Y-112096457D01*
X95129380Y-111874376D01*
X95129380Y-111647944D01*
X95085205Y-111425863D01*
X94998554Y-111216668D01*
X94872755Y-111028396D01*
X94712644Y-110868285D01*
X94524372Y-110742486D01*
X94315177Y-110655835D01*
X94093096Y-110611660D01*
X93866664Y-110611660D01*
X93644583Y-110655835D01*
X93435388Y-110742486D01*
X93247116Y-110868285D01*
X93087005Y-111028396D01*
X92961206Y-111216668D01*
X92874555Y-111425863D01*
X92830380Y-111647944D01*
X92830380Y-111843358D01*
X91023000Y-110035980D01*
X91023000Y-109107944D01*
X92830380Y-109107944D01*
X92830380Y-109334376D01*
X92874555Y-109556457D01*
X92961206Y-109765652D01*
X93087005Y-109953924D01*
X93247116Y-110114035D01*
X93435388Y-110239834D01*
X93644583Y-110326485D01*
X93866664Y-110370660D01*
X94093096Y-110370660D01*
X94315177Y-110326485D01*
X94524372Y-110239834D01*
X94712644Y-110114035D01*
X94872755Y-109953924D01*
X94998554Y-109765652D01*
X95085205Y-109556457D01*
X95129380Y-109334376D01*
X95129380Y-109107944D01*
X95085205Y-108885863D01*
X94998554Y-108676668D01*
X94872755Y-108488396D01*
X94712644Y-108328285D01*
X94524372Y-108202486D01*
X94315177Y-108115835D01*
X94093096Y-108071660D01*
X93866664Y-108071660D01*
X93644583Y-108115835D01*
X93435388Y-108202486D01*
X93247116Y-108328285D01*
X93087005Y-108488396D01*
X92961206Y-108676668D01*
X92874555Y-108885863D01*
X92830380Y-109107944D01*
X91023000Y-109107944D01*
X91023000Y-107257614D01*
X91062072Y-107210004D01*
X91117628Y-107106066D01*
X91151839Y-106993287D01*
X91163391Y-106876001D01*
X91163391Y-106616329D01*
X91211776Y-106567944D01*
X92830380Y-106567944D01*
X92830380Y-106794376D01*
X92874555Y-107016457D01*
X92961206Y-107225652D01*
X93087005Y-107413924D01*
X93247116Y-107574035D01*
X93435388Y-107699834D01*
X93644583Y-107786485D01*
X93866664Y-107830660D01*
X94093096Y-107830660D01*
X94315177Y-107786485D01*
X94524372Y-107699834D01*
X94712644Y-107574035D01*
X94872755Y-107413924D01*
X94998554Y-107225652D01*
X95085205Y-107016457D01*
X95129380Y-106794376D01*
X95129380Y-106567944D01*
X95085205Y-106345863D01*
X94998554Y-106136668D01*
X94872755Y-105948396D01*
X94712644Y-105788285D01*
X94524372Y-105662486D01*
X94315177Y-105575835D01*
X94093096Y-105531660D01*
X93866664Y-105531660D01*
X93644583Y-105575835D01*
X93435388Y-105662486D01*
X93247116Y-105788285D01*
X93087005Y-105948396D01*
X92961206Y-106136668D01*
X92874555Y-106345863D01*
X92830380Y-106567944D01*
X91211776Y-106567944D01*
X91591947Y-106187774D01*
X91626745Y-106169174D01*
X91746962Y-106070515D01*
X91845621Y-105950298D01*
X91918932Y-105813143D01*
X91964077Y-105664321D01*
X91975500Y-105548338D01*
X91975500Y-105515984D01*
X91979320Y-105477200D01*
X91975500Y-105438417D01*
X91975500Y-105194783D01*
X91979320Y-105156000D01*
X91974463Y-105106686D01*
X91964077Y-105001231D01*
X91924172Y-104869684D01*
X91918932Y-104852409D01*
X91845622Y-104715254D01*
X91771686Y-104625165D01*
X91746962Y-104595038D01*
X91716833Y-104570312D01*
X91174465Y-104027944D01*
X92830380Y-104027944D01*
X92830380Y-104254376D01*
X92874555Y-104476457D01*
X92961206Y-104685652D01*
X93087005Y-104873924D01*
X93247116Y-105034035D01*
X93435388Y-105159834D01*
X93644583Y-105246485D01*
X93866664Y-105290660D01*
X94093096Y-105290660D01*
X94315177Y-105246485D01*
X94524372Y-105159834D01*
X94712644Y-105034035D01*
X94872755Y-104873924D01*
X94998554Y-104685652D01*
X95085205Y-104476457D01*
X95129380Y-104254376D01*
X95129380Y-104027944D01*
X95085205Y-103805863D01*
X94998554Y-103596668D01*
X94872755Y-103408396D01*
X94712644Y-103248285D01*
X94524372Y-103122486D01*
X94315177Y-103035835D01*
X94093096Y-102991660D01*
X93866664Y-102991660D01*
X93644583Y-103035835D01*
X93435388Y-103122486D01*
X93247116Y-103248285D01*
X93087005Y-103408396D01*
X92961206Y-103596668D01*
X92874555Y-103805863D01*
X92830380Y-104027944D01*
X91174465Y-104027944D01*
X91136695Y-103990175D01*
X91136686Y-103990164D01*
X91136676Y-103990154D01*
X91111961Y-103960039D01*
X91081845Y-103935323D01*
X90070500Y-102923980D01*
X90070500Y-101680783D01*
X90074320Y-101642000D01*
X90070500Y-101603214D01*
X90059148Y-101487944D01*
X92830380Y-101487944D01*
X92830380Y-101714376D01*
X92874555Y-101936457D01*
X92961206Y-102145652D01*
X93087005Y-102333924D01*
X93247116Y-102494035D01*
X93435388Y-102619834D01*
X93644583Y-102706485D01*
X93866664Y-102750660D01*
X94093096Y-102750660D01*
X94315177Y-102706485D01*
X94524372Y-102619834D01*
X94712644Y-102494035D01*
X94872755Y-102333924D01*
X94998554Y-102145652D01*
X95085205Y-101936457D01*
X95129380Y-101714376D01*
X95129380Y-101487944D01*
X95085205Y-101265863D01*
X94998554Y-101056668D01*
X94872755Y-100868396D01*
X94712644Y-100708285D01*
X94524372Y-100582486D01*
X94315177Y-100495835D01*
X94093096Y-100451660D01*
X93866664Y-100451660D01*
X93644583Y-100495835D01*
X93435388Y-100582486D01*
X93247116Y-100708285D01*
X93087005Y-100868396D01*
X92961206Y-101056668D01*
X92874555Y-101265863D01*
X92830380Y-101487944D01*
X90059148Y-101487944D01*
X90059077Y-101487231D01*
X90013932Y-101338410D01*
X89965403Y-101247619D01*
X89940621Y-101201254D01*
X89888709Y-101138000D01*
X89841962Y-101081038D01*
X89811832Y-101056311D01*
X87737834Y-98982314D01*
X87695955Y-98947944D01*
X92830380Y-98947944D01*
X92830380Y-99174376D01*
X92874555Y-99396457D01*
X92961206Y-99605652D01*
X93087005Y-99793924D01*
X93247116Y-99954035D01*
X93435388Y-100079834D01*
X93644583Y-100166485D01*
X93866664Y-100210660D01*
X94093096Y-100210660D01*
X94315177Y-100166485D01*
X94524372Y-100079834D01*
X94712644Y-99954035D01*
X94872755Y-99793924D01*
X94998554Y-99605652D01*
X95085205Y-99396457D01*
X95129380Y-99174376D01*
X95129380Y-98947944D01*
X95085205Y-98725863D01*
X94998554Y-98516668D01*
X94872755Y-98328396D01*
X94712644Y-98168285D01*
X94524372Y-98042486D01*
X94315177Y-97955835D01*
X94093096Y-97911660D01*
X93866664Y-97911660D01*
X93644583Y-97955835D01*
X93435388Y-98042486D01*
X93247116Y-98168285D01*
X93087005Y-98328396D01*
X92961206Y-98516668D01*
X92874555Y-98725863D01*
X92830380Y-98947944D01*
X87695955Y-98947944D01*
X87647745Y-98908379D01*
X87510590Y-98835069D01*
X87361768Y-98789924D01*
X87207000Y-98774680D01*
X87052232Y-98789924D01*
X86903410Y-98835069D01*
X86766255Y-98908379D01*
X86646039Y-99007039D01*
X86547379Y-99127255D01*
X86474069Y-99264410D01*
X86428924Y-99413232D01*
X86413680Y-99568000D01*
X86428924Y-99722768D01*
X86474069Y-99871590D01*
X86547379Y-100008745D01*
X86621314Y-100098834D01*
X88491501Y-101969022D01*
X88491501Y-102325586D01*
X86672096Y-100506182D01*
X86656645Y-100487355D01*
X86581500Y-100425685D01*
X86495768Y-100379860D01*
X86402743Y-100351641D01*
X86330237Y-100344500D01*
X86330226Y-100344500D01*
X86309665Y-100342475D01*
X86266330Y-100289670D01*
X86213111Y-100245995D01*
X86152395Y-100213542D01*
X86117643Y-100203000D01*
X86152395Y-100192458D01*
X86213111Y-100160005D01*
X86266330Y-100116330D01*
X86310005Y-100063111D01*
X86342458Y-100002395D01*
X86362443Y-99936514D01*
X86369191Y-99868000D01*
X86369191Y-99268000D01*
X86362443Y-99199486D01*
X86342458Y-99133605D01*
X86310005Y-99072889D01*
X86266330Y-99019670D01*
X86213111Y-98975995D01*
X86152395Y-98943542D01*
X86117643Y-98933000D01*
X86152395Y-98922458D01*
X86213111Y-98890005D01*
X86266330Y-98846330D01*
X86310005Y-98793111D01*
X86342458Y-98732395D01*
X86362443Y-98666514D01*
X86369191Y-98598000D01*
X86369191Y-97998000D01*
X86362443Y-97929486D01*
X86342458Y-97863605D01*
X86310005Y-97802889D01*
X86266330Y-97749670D01*
X86213111Y-97705995D01*
X86152395Y-97673542D01*
X86117643Y-97663000D01*
X86152395Y-97652458D01*
X86213111Y-97620005D01*
X86266330Y-97576330D01*
X86310005Y-97523111D01*
X86342458Y-97462395D01*
X86362443Y-97396514D01*
X86369191Y-97328000D01*
X86369191Y-96728000D01*
X86362443Y-96659486D01*
X86342458Y-96593605D01*
X86310005Y-96532889D01*
X86266330Y-96479670D01*
X86213111Y-96435995D01*
X86152395Y-96403542D01*
X86117643Y-96393000D01*
X86152395Y-96382458D01*
X86213111Y-96350005D01*
X86232004Y-96334500D01*
X86960449Y-96334500D01*
X86971361Y-96445287D01*
X87005572Y-96558066D01*
X87061128Y-96662004D01*
X87135893Y-96753107D01*
X87226996Y-96827872D01*
X87330934Y-96883428D01*
X87443713Y-96917639D01*
X87560999Y-96929191D01*
X88461001Y-96929191D01*
X88578287Y-96917639D01*
X88691066Y-96883428D01*
X88795004Y-96827872D01*
X88886107Y-96753107D01*
X88960872Y-96662004D01*
X89004971Y-96579500D01*
X89786809Y-96579500D01*
X89786809Y-97512001D01*
X89798361Y-97629287D01*
X89832572Y-97742066D01*
X89888128Y-97846004D01*
X89962893Y-97937107D01*
X90053996Y-98011872D01*
X90157934Y-98067428D01*
X90270713Y-98101639D01*
X90387999Y-98113191D01*
X92238001Y-98113191D01*
X92355287Y-98101639D01*
X92468066Y-98067428D01*
X92572004Y-98011872D01*
X92663107Y-97937107D01*
X92737872Y-97846004D01*
X92793428Y-97742066D01*
X92827639Y-97629287D01*
X92839191Y-97512001D01*
X92839191Y-97426500D01*
X93265771Y-97426500D01*
X93435388Y-97539834D01*
X93644583Y-97626485D01*
X93866664Y-97670660D01*
X94093096Y-97670660D01*
X94315177Y-97626485D01*
X94524372Y-97539834D01*
X94712644Y-97414035D01*
X94872755Y-97253924D01*
X94998554Y-97065652D01*
X95085205Y-96856457D01*
X95129380Y-96634376D01*
X95129380Y-96407944D01*
X95085205Y-96185863D01*
X94998554Y-95976668D01*
X94872755Y-95788396D01*
X94712644Y-95628285D01*
X94524372Y-95502486D01*
X94315177Y-95415835D01*
X94093096Y-95371660D01*
X93866664Y-95371660D01*
X93644583Y-95415835D01*
X93435388Y-95502486D01*
X93247116Y-95628285D01*
X93087005Y-95788396D01*
X93047513Y-95847500D01*
X92839191Y-95847500D01*
X92839191Y-95761999D01*
X92827639Y-95644713D01*
X92793428Y-95531934D01*
X92737872Y-95427996D01*
X92663107Y-95336893D01*
X92572004Y-95262128D01*
X92537153Y-95243500D01*
X95221878Y-95243500D01*
X95256500Y-95278123D01*
M02*
